<svg width="432" height="432" viewBox="0 0 432 432" fill="none" xmlns="http://www.w3.org/2000/svg">
<path fill-rule="evenodd" clip-rule="evenodd" d="M352.047 287.539C370.164 290.835 385.221 299.415 397.132 313.505C390.838 296.057 390.794 278.687 397.105 261.23C385.221 275.453 370.251 284.19 352.047 287.539ZM227.947 359.583C246.257 362.721 261.385 371.371 273.384 385.585C267.046 368.11 267.002 350.661 273.234 333.186C267.433 340.104 260.735 345.95 252.955 350.442C245.194 355.048 236.817 357.896 227.947 359.583ZM268.198 395.28C249.791 392.23 234.716 383.572 222.585 369.428C228.826 386.789 228.888 404.079 222.735 421.44C234.777 407.261 249.791 398.471 268.198 395.28ZM346.07 278.178C357.998 263.876 372.994 255.051 391.304 251.754C373.012 248.572 357.998 239.809 345.991 225.604C352.495 243.149 352.399 260.694 346.07 278.178ZM329.509 287.645C311.252 284.559 296.212 275.769 284.169 261.687C290.481 279.145 290.525 296.496 284.275 314.006C296.212 299.731 311.252 290.941 329.509 287.645ZM211.07 349.774C204.935 332.457 204.847 315.158 210.965 297.859C205.075 304.768 198.395 310.552 190.545 315.035C182.731 319.518 174.354 322.427 165.484 324.001C174.354 325.478 182.81 328.343 190.624 332.747C198.421 337.177 205.163 342.952 211.07 349.774ZM149.029 314.27C142.744 296.839 142.709 279.487 148.95 262.1C136.908 276.42 121.797 285.148 103.443 288.357C121.771 291.495 136.952 300.1 149.029 314.27ZM289.83 323.544C308.096 326.752 323.206 335.358 335.284 349.475C332.199 340.878 330.511 332.176 330.59 323.201C330.59 314.235 332.199 305.55 335.284 297.05C329.509 304.038 322.828 309.875 315.076 314.358C307.244 318.982 298.823 321.979 289.83 323.544ZM346.448 349.492C358.473 335.358 373.469 326.567 391.77 323.306C382.839 321.75 374.471 318.876 366.647 314.402C358.833 309.875 352.109 304.153 346.263 297.243C352.583 314.683 352.706 332.035 346.448 349.492ZM87.1905 278.784C80.6682 261.142 80.633 243.79 86.8916 226.368C74.9721 240.67 59.9058 249.355 41.3761 252.625C66.0325 259.375 68.7751 260.826 87.1905 278.784ZM222.427 349.941C228.229 343.128 234.936 337.248 242.697 332.747C250.538 328.194 258.942 325.187 267.908 323.702C249.501 320.564 234.232 311.862 222.172 297.542C228.668 315.017 228.633 332.457 222.427 349.941ZM143.905 324.089C125.551 320.933 110.405 312.301 98.3276 298.175C104.613 315.641 104.648 333.028 98.354 350.442C110.397 336.131 125.48 327.323 143.905 324.089ZM148.897 171.192C145.654 162.42 144.019 153.867 143.931 145.042C143.905 136.128 145.566 127.523 148.405 119.04C136.407 133.193 121.349 141.868 102.802 144.989C124.795 150.351 131.343 153.428 148.897 171.192ZM103.215 216.664C121.622 219.811 136.732 228.434 148.897 242.586C142.498 225.261 142.516 208.014 148.572 190.663C136.574 204.78 121.516 213.429 103.215 216.664ZM159.718 99.324C171.673 85.0927 186.774 76.4959 205.04 73.1557C186.625 69.956 171.409 61.245 159.41 46.873C162.531 55.461 164.271 64.0842 164.271 73.1293C164.307 82.148 162.768 90.8327 159.718 99.324ZM211.308 369.323C199.415 383.581 184.357 392.309 166.073 395.685C175.013 397.214 183.399 400.106 191.222 404.554C198.993 409.037 205.7 414.821 211.589 421.642C205.163 404.211 205.163 386.789 211.308 369.323ZM267.864 251.983C249.378 248.906 234.092 240.195 221.996 225.832C228.325 243.333 228.484 260.694 222.295 278.151C234.373 263.876 249.475 255.139 267.864 251.983ZM36.2778 314.753C42.1233 307.844 48.8478 301.955 56.6886 297.463C64.6085 292.901 73.0295 289.956 82.057 288.427C63.457 285.377 48.1621 276.674 36.0229 262.259C42.4749 279.76 42.5716 297.2 36.2778 314.753ZM97.9584 207.144C109.966 192.816 125.085 184.026 143.535 180.774C125.085 177.68 109.904 168.969 97.7826 154.79C104.129 172.282 104.217 189.687 97.9584 207.144ZM160.457 333.898C166.689 351.321 166.768 368.743 160.413 386.191C172.297 371.837 187.328 363.073 205.7 359.706C187.53 356.445 172.473 347.919 160.457 333.898ZM284.6 385.514C290.446 378.605 297.1 372.839 304.861 368.33C312.614 363.838 320.991 361.016 329.799 359.241C320.886 357.65 312.5 354.784 304.703 350.31C296.871 345.836 290.173 339.999 284.275 333.186C290.78 350.635 290.78 368.031 284.6 385.514ZM335.17 278.151C328.665 260.509 328.771 242.973 335.1 225.384C323.101 239.852 307.929 248.757 289.382 251.957C307.876 255.051 323.101 263.841 335.17 278.151ZM36.1284 243.052C41.9387 236.134 48.6983 230.298 56.5567 225.788C64.3888 221.261 72.757 218.404 81.6439 216.752C63.2021 213.667 47.9775 204.991 35.8559 190.707C42.3167 208.173 42.3167 225.56 36.1284 243.052ZM205.7 216.365C187.267 213.315 172.051 204.595 159.955 190.381C166.276 207.891 166.346 225.261 160.07 242.806C172.077 228.329 187.302 219.688 205.7 216.365ZM160.298 314.358C172.341 300.039 187.53 291.257 205.867 288.075C196.918 286.493 188.515 283.671 180.665 279.188C172.842 274.705 166.073 268.983 160.149 262.1C166.583 279.487 166.539 296.839 160.298 314.358ZM397.018 189.573C391.198 196.543 384.5 202.371 376.712 206.907C368.889 211.434 360.512 214.352 351.616 215.987C360.653 217.613 369.056 220.558 376.932 225.085C384.72 229.542 391.357 235.413 397.228 242.296C390.715 224.672 390.68 207.144 397.018 189.573ZM97.6508 135.513C109.658 121.141 124.821 112.342 143.289 109.134C124.733 105.961 109.456 97.2056 97.3783 82.7545C103.997 100.388 104.006 117.871 97.6508 135.513ZM267.547 180.405C258.511 178.814 249.984 175.939 242.082 171.368C234.232 166.833 227.534 161.022 221.654 154.148C228.229 171.711 228.211 189.256 221.873 206.907C233.872 192.421 249.053 183.595 267.547 180.405ZM334.88 206.423C328.542 188.887 328.542 171.412 334.915 153.867C322.934 168.265 307.771 177.099 289.276 180.369C307.727 183.49 322.828 192.201 334.88 206.423ZM164.878 109.099C173.897 110.54 182.318 113.476 190.211 117.994C198.026 122.451 204.794 128.296 210.648 135.197C204.337 117.739 204.337 100.388 210.455 82.86C198.333 97.1616 183.276 105.881 164.878 109.099ZM149.17 333.74C137.171 348.059 122.008 356.779 103.593 360.023C122.158 363.126 137.391 371.837 149.478 386.191C142.999 368.672 142.999 351.303 149.17 333.74ZM35.7504 119.128C42.0617 136.586 42.1233 154.043 35.7944 171.579C47.6962 157.207 62.789 148.54 81.0022 145.138C62.789 141.824 47.7402 133.254 35.7504 119.128ZM40.6641 109.441C59.0971 112.527 74.3217 121.176 86.5136 135.364C80.2814 117.854 80.1847 100.528 86.4697 83.0973C74.4096 97.4868 59.1762 106.312 40.6641 109.441ZM221.75 63.2931C227.569 56.428 234.32 50.644 242.135 46.1171C249.967 41.6165 258.379 38.6454 267.389 37.1511C248.894 34.1185 233.731 25.3987 221.557 11.185C227.763 28.6247 227.868 45.8885 221.75 63.2931ZM40.8487 181.073C49.7883 182.628 58.2796 185.459 66.182 189.915C74.0404 194.398 80.7736 200.253 86.7861 207.021C83.6392 198.547 82.057 189.872 81.9867 180.879C81.934 171.975 83.6392 163.308 86.5576 154.843C74.4359 169.188 59.2817 177.926 40.8487 181.073ZM164.649 37.4588C183.249 40.509 198.5 49.3607 210.648 63.759C204.108 46.1962 204.091 28.7741 210.314 11.2025C198.289 25.4778 183.135 34.2943 164.649 37.4588ZM272.478 46.8203C260.497 61.0252 245.44 69.7802 227.104 73.059C245.537 76.3201 260.735 85.0312 272.768 99.4031C266.211 81.8491 266.167 64.4094 272.478 46.8203ZM98.2221 278.687C110.221 264.333 125.393 255.684 143.817 252.422C125.287 249.355 110.071 240.547 97.9584 226.333C104.41 243.773 104.446 261.142 98.2221 278.687ZM221.873 134.951C233.898 120.702 249.053 111.876 267.521 108.756C248.947 105.67 233.731 96.9155 221.531 82.5436C224.634 91.0173 226.33 99.658 226.365 108.598C226.444 117.625 224.906 126.336 221.873 134.951ZM211.044 278.389C207.906 269.871 206.262 261.107 206.262 252.088C206.262 243.114 207.906 234.42 210.93 225.902C205.075 232.891 198.333 238.745 190.501 243.272C182.625 247.834 174.134 250.814 165.133 252.317C174.081 253.917 182.537 256.712 190.475 261.23C198.316 265.713 205.163 271.462 211.044 278.389ZM272.988 261.661C260.998 275.98 245.783 284.682 227.438 287.987C245.985 291.073 261.113 299.916 273.234 314.112C266.774 296.584 266.73 279.241 272.988 261.661ZM159.516 118.469C166.047 135.865 166.073 153.304 159.955 170.797C171.928 156.653 186.985 148.048 205.163 144.778C186.669 141.526 171.559 132.709 159.516 118.469ZM329.28 216.075C310.83 212.744 295.649 203.962 283.624 189.494C286.859 198.029 288.591 206.766 288.635 215.846C288.714 224.927 287.053 233.734 284.055 242.366C289.883 235.545 296.449 229.744 304.193 225.243C311.964 220.672 320.332 217.745 329.28 216.075ZM164.623 180.774C183.566 183.833 198.905 192.588 211.044 207.039C204.443 189.406 204.443 171.878 210.815 154.245C195.74 170.507 187.952 174.999 164.623 180.774ZM41.5255 324.449C50.5794 325.935 59.0356 328.967 66.9115 333.45C74.7787 337.916 81.512 343.77 87.3487 350.661C80.8352 333.134 80.8352 315.641 87.0586 298.122C75.0776 312.459 59.8706 321.153 41.5255 324.449ZM148.467 47.0489C136.459 61.3768 121.349 70.1143 102.925 73.4369C121.402 76.6014 136.574 85.3564 148.607 99.658C142.173 82.0953 142.111 64.638 148.467 47.0489ZM227.358 216.365C245.906 219.556 261.086 228.329 273.12 242.683C266.598 225.085 266.545 207.575 272.821 189.933C260.823 204.367 245.668 213.025 227.358 216.365ZM283.818 170.92C295.728 156.478 310.891 147.749 329.333 144.426C310.891 141.174 295.702 132.481 283.624 118.161C290.147 135.742 290.173 153.269 283.818 170.92ZM351.265 144.374C369.733 147.547 384.905 156.311 396.974 170.63C390.434 152.979 390.495 135.425 396.886 117.827C384.905 132.234 369.733 140.998 351.265 144.374ZM391.752 180.088C373.099 176.994 357.84 168.133 345.736 153.674C352.337 171.315 352.258 188.887 345.973 206.538C358.068 192.087 373.214 183.261 391.752 180.088ZM227.209 144.69C245.668 147.942 260.884 156.697 272.936 171.025C266.501 153.41 266.44 135.865 272.768 118.276C260.77 132.656 245.66 141.376 227.209 144.69ZM289.021 108.694C297.891 110.233 306.382 113.063 314.223 117.59C322.152 122.126 328.938 127.962 334.88 134.951C328.419 117.405 328.419 99.9657 334.669 82.3765C322.591 96.6782 307.472 105.512 289.021 108.694ZM283.624 46.7588C286.683 55.3468 288.389 64.1281 288.389 73.182C288.362 82.2095 286.639 90.9294 283.598 99.4207C295.649 84.8202 310.988 76.0125 329.579 72.7865C311.05 69.6572 295.808 61.0252 283.624 46.7588ZM345.657 82.1832C348.716 90.7975 350.438 99.5262 350.465 108.58C350.518 117.651 348.786 126.468 345.771 135.003C357.84 120.535 373.187 111.701 391.849 108.457C373.187 105.336 357.84 96.6078 345.657 82.1832ZM32.3398 325.478C44.3824 346.099 68.6872 359.425 91.1373 359.082C85.4852 342.706 49.9202 322.287 32.3398 325.478ZM341.833 143.662C356.222 143.196 369.117 138.968 380.747 130.889C388.913 125.185 395.594 118.161 400.806 109.441C379.086 109.274 354.324 121.888 341.833 143.662ZM341.806 73.771C353.471 94.2081 378.154 107.745 400.481 107.402C395.04 91.0436 359.035 70.4219 341.806 73.771ZM402.608 249.768C414.079 235.633 413.974 196.605 402.503 182.083C391.084 196.016 391.128 234.851 402.608 249.768ZM278.333 178.479C289.804 163.65 289.69 124.244 278.166 110.681C266.624 130.239 266.484 158.174 278.333 178.479ZM340.374 142.906C347.142 130.239 349.92 117.177 348.9 103.244C348.153 93.1006 345.287 83.5896 340.154 74.316C333.561 86.6222 330.74 99.3064 331.54 112.755C332.199 123.312 335.056 133.254 340.374 142.906ZM277.076 251.042C270.949 240.942 262.853 232.961 252.797 227.01C242.082 220.672 230.497 217.429 217.953 217.121C225.908 235.053 258.107 253.521 277.076 251.042ZM31.7157 110.408C37.5788 126.987 71.2627 146.387 90.5395 144.207C84.6853 127.558 50.7992 108.044 31.7157 110.408ZM279.686 108.009C293.434 107.604 305.82 103.701 317.097 96.2738C325.975 90.4547 333.192 82.9743 338.747 73.6919C316.306 73.5864 291.799 86.6749 279.686 108.009ZM400.85 179.139C392.605 161.128 359.404 142.132 342.044 145.367C348.171 162.13 381.617 181.327 400.85 179.139ZM279.555 37.995C291.755 59.1617 316.64 72.2503 338.431 71.7844C328.419 53.5448 304.826 37.9159 279.555 37.995ZM93.827 215.987C107.355 215.592 119.582 211.768 130.746 204.595C139.852 198.706 147.21 191.12 152.853 181.653C130.403 181.556 106.089 194.627 93.827 215.987ZM217.707 74.0347C224.836 91.3865 258.695 110.795 276.487 107.798C270.413 91.0436 235.911 71.2482 217.707 74.0347ZM31.7685 180.369C46.6151 179.824 59.8267 175.421 71.6055 166.92C79.4287 161.33 85.8192 154.43 90.7944 145.956C67.0258 146.07 43.1341 160.046 31.7685 180.369ZM216.23 146.545C204.68 162.622 204.847 199.286 216.441 214.44C227.947 200.086 227.895 163.422 216.23 146.545ZM339.134 215.152C331.715 203.162 321.906 194.214 309.476 188.193C300.176 183.683 290.393 181.31 279.906 181.108C287.272 198.767 318.504 216.752 339.134 215.152ZM214.639 143.802C207.598 126.486 173.897 107.147 155.78 110.013C161.582 126.653 195.934 146.387 214.639 143.802ZM340.409 217.736C334.036 229.498 331.206 241.804 331.777 254.831C332.278 265.836 335.1 276.209 340.558 285.974C352.741 265.238 351.95 237.277 340.409 217.736ZM214.709 217.314C196.505 214.607 162.874 234.192 156.105 251.429C174.899 253.811 208.758 234.095 214.709 217.314ZM214.868 215.574C207.871 198.196 174.503 179.051 155.93 181.653C165.511 199.119 188.488 215.486 214.868 215.574ZM216.204 74.8785C204.627 88.6439 204.741 129.422 216.406 143.02C222.823 131.232 225.653 118.645 224.924 105.31C224.361 94.5509 221.451 84.4422 216.204 74.8785ZM340.989 357.562C347.687 345.15 350.465 332.123 349.463 318.243C348.716 308.047 345.894 298.43 340.822 289.332C329.175 305.814 329.263 341.977 340.989 357.562ZM276.61 36.1754C269.947 25.3459 261.157 16.8986 250.143 10.9125C239.972 5.37465 229.134 2.35083 217.267 2.26293C230.075 24.0713 254.845 36.5798 276.61 36.1754ZM342.518 358.3C361.409 360.7 394.389 341.537 401.149 324.22C382.962 321.539 349.234 341.115 342.518 358.3ZM277.462 322.735C269.534 310.086 259.029 300.821 245.712 294.87C237.01 290.941 227.868 288.91 218.058 288.814C230.022 309.752 254.933 323.113 277.462 322.735ZM278.438 182.163C266.862 197.29 266.985 235.871 278.517 250.093C289.022 232.803 291.351 204.991 278.438 182.163ZM155.332 38.2235C168.104 60.0319 192.883 72.5579 214.639 72.1887C209.303 63.2931 202.324 56.1115 193.921 50.4243C182.318 42.5747 169.546 38.5575 155.332 38.2235ZM339.319 359.97C325.817 360.366 313.485 364.189 302.303 371.494C293.276 377.392 285.919 384.925 280.337 394.357C300.932 395.904 333.315 376.935 339.319 359.97ZM90.9175 215.846C78.3651 194.293 53.2956 181.547 31.9003 182.11C43.0111 201.94 67.439 216.093 90.9175 215.846ZM154.18 110.857C142.604 125.809 142.709 164.864 154.286 178.805C165.159 160.794 166.812 132.938 154.18 110.857ZM93.37 74.316C100.956 86.5695 111.065 95.6936 123.863 101.68C132.926 105.934 142.41 108.228 152.616 108.343C140.854 87.8968 117.033 74.1841 93.37 74.316ZM215.228 287.1C208.671 276.314 199.916 268.025 189.033 261.942C178.802 256.29 167.788 253.416 155.93 253.161C167.427 273.317 191.662 287.416 215.228 287.1ZM276.83 179.499C270.826 168.863 259.399 157.787 245.308 151.564C236.579 147.749 227.438 145.622 217.707 145.464C228.941 165.365 253.166 179.824 276.83 179.499ZM94.2753 359.267C109.623 358.748 123.221 354.063 135.308 345.009C142.604 339.551 148.686 332.905 153.424 324.836C128.557 325.135 105.492 339.551 94.2753 359.267ZM152.994 253.257C127.766 253.416 104.296 268.895 94.1874 287.504C113.455 289.666 145.408 271.093 152.994 253.257ZM152.994 179.86C146.199 168.933 137.391 160.512 126.377 154.491C116.224 148.953 105.377 146.096 93.6249 145.868C105.078 165.936 129.269 180.088 152.994 179.86ZM152.475 38.162C137.875 38.6718 124.795 43.0142 113.051 51.3033C105.078 56.9466 98.4683 63.9787 93.37 72.5579C116.673 72.6986 141.162 58.6343 152.475 38.162ZM156.184 323.306C170.398 322.867 183.135 318.744 194.624 310.868C203.098 305.111 209.98 297.859 215.298 288.972C193.868 288.603 168.535 301.384 156.184 323.306ZM340.453 214.66C346.747 203.118 349.665 191.12 349.287 178.374C348.935 166.92 346.105 156.214 340.321 145.868C333.895 157.858 331.056 170.19 331.592 183.358C332.093 194.363 335.056 204.648 340.453 214.66ZM154.268 107.402C160.905 95.052 163.709 82.148 162.768 68.4617C162.083 58.0629 159.156 48.2971 154.066 39.1025C142.454 54.7754 142.516 92.1952 154.268 107.402ZM218.032 287.24C232.448 286.854 245.308 282.573 256.981 274.512C265.174 268.781 271.933 261.661 277.181 252.844C254.485 252.765 230.022 266.074 218.032 287.24ZM152.959 251.631C149.645 242.709 133.981 228.874 121.226 223.432C112.48 219.714 103.487 217.543 93.7655 217.525C99.4352 228.144 111.654 239.088 124.373 245.039C133.409 249.249 142.894 251.429 152.959 251.631ZM93.9765 289.332C101.51 301.375 111.399 310.323 123.925 316.327C133.102 320.801 142.894 323.087 153.363 323.306C141.188 302.157 116.4 288.937 93.9765 289.332ZM216.089 71.3185C227.649 54.8018 227.464 17.4084 215.887 3.33533C204.337 17.7248 204.399 54.7754 216.089 71.3185ZM91.19 287.662C80.1144 267.919 55.8184 253.31 31.9003 253.653C37.0426 262.206 43.6703 269.194 51.6782 274.855C63.457 283.056 76.5895 287.328 91.19 287.662ZM278.139 38.7509C266.484 54.2304 266.598 91.237 278.28 107.033C283.598 97.3286 286.437 87.0969 286.929 76.2058C287.501 62.9854 284.503 50.5913 278.139 38.7509ZM214.419 2.38599C194.431 0.487314 162.109 19.2807 155.569 36.4919C176.534 36.861 201.946 24.3878 214.419 2.38599ZM156.211 324.766C162.953 342.047 196.215 361.148 215.457 358.748C210.314 350.134 203.643 343.128 195.503 337.467C183.724 329.319 170.715 325.135 156.211 324.766ZM217.294 72.3733C231.455 71.9514 244.086 67.987 255.452 60.366C264.154 54.5029 271.186 47.1719 276.715 37.8192C262.22 38.3378 249.343 42.4955 237.713 50.477C229.477 56.2609 222.708 63.4161 217.294 72.3733ZM279.44 109.441C286.683 121.22 296.168 129.967 308.149 136.014C317.739 140.884 327.9 143.468 339.09 143.662C331.663 131.689 322.011 122.846 309.854 116.737C300.37 112.079 290.331 109.696 279.44 109.441ZM278.552 253.811C267.046 269.3 267.169 307.036 278.711 321.75C290.217 308.354 290.173 269.739 278.552 253.811ZM277.269 324.3C263.952 324.766 251.76 328.449 240.676 335.595C231.455 341.537 223.965 349.158 218.269 358.748C238.452 360.506 270.975 341.502 277.269 324.3ZM217.953 215.469C238.258 217.121 269.947 198.662 276.715 181.31C258.845 178.392 225.794 197.572 217.953 215.469ZM402.687 253.416C391.102 268.491 391.198 306.825 402.775 321.364C413.666 303.537 415.31 275.33 402.687 253.416ZM341.956 215.135C352.188 215.53 367.667 211.768 380.43 203.004C388.834 197.141 395.84 189.915 401.219 180.774C387.058 181.222 374.436 185.222 363 192.887C354.394 198.706 347.388 205.993 341.956 215.135ZM91.9459 74.9752C85.2215 87.5276 82.3559 100.607 83.4107 114.505C84.1754 124.772 86.9971 134.353 92.1217 143.495C103.487 123.743 104.296 96.6078 91.9459 74.9752ZM32.041 251.86C51.4233 253.996 84.1403 234.939 90.7944 217.657C72.8185 214.8 40.6641 233.436 32.041 251.86ZM156.527 394.814C167.673 394.946 182.063 391.254 194.325 382.912C202.975 377.049 210.086 369.666 215.553 360.559C193.727 360.164 168.614 373.349 156.527 394.814ZM30.6873 322.568C36.0229 314.235 40.5498 298.852 39.3016 283.619C38.5369 273.317 35.7152 263.568 30.5818 254.374C18.1173 276.121 19.5765 303.775 30.6873 322.568ZM217.153 429.483C223.078 420.596 226.673 404.413 225.715 390.454C225.038 380.108 222.076 370.448 217.004 361.262C205.339 377.7 205.445 414.75 217.153 429.483ZM154.602 325.706C147.948 338.118 145.179 351.074 146.173 364.866C146.885 375.16 149.662 384.864 154.831 393.979C166.46 379.467 166.346 341.818 154.602 325.706ZM400.947 252.625C382.795 249.908 348.171 269.976 342.351 286.748C361.171 289.13 395.268 269.3 400.947 252.625ZM94.2753 361.043C107.355 383 132.047 395.148 153.424 394.814C145.97 377.208 112.058 357.773 94.2753 361.043ZM279.906 251.288C295.764 250.7 309.74 245.768 322.011 236.257C328.929 230.904 334.651 224.566 339.134 216.849C315.541 216.875 291.553 230.746 279.906 251.288ZM278.711 325.187C271.916 337.775 269.112 350.96 270.219 364.901C270.975 375.001 273.867 384.574 278.939 393.636C290.648 373.56 290.771 345.906 278.711 325.187ZM91.2515 289.13C77.3543 289.561 64.8371 293.525 53.489 301.023C44.7427 306.878 37.5788 314.27 32.1289 323.465C53.489 323.966 78.9892 310.903 91.2515 289.13ZM276.715 109.591C266.167 109.362 250.995 112.993 238.03 122.003C229.697 127.822 222.849 134.977 217.61 143.829C240.051 144.013 264.576 130.889 276.715 109.591ZM155.71 108.167C174.204 110.751 208.433 90.8151 214.472 74.0347C195.362 71.7316 161.775 91.3337 155.71 108.167ZM279.801 179.684C294.181 179.271 307.129 174.999 318.803 166.92C326.986 161.251 333.763 154.043 338.976 145.217C313.836 145.411 290.446 160.389 279.801 179.684ZM218.7 430.423C243.655 430.423 267.574 414.698 277.401 396.133C257.992 394.146 225.943 412.755 218.7 430.423ZM402.116 110.197C395.831 121.932 392.895 134.318 393.554 147.547C394.055 158.508 396.886 168.802 402.344 178.479C414.079 162.358 413.886 125.035 402.116 110.197ZM280.012 252.712C287.835 270.706 320.991 289.666 339.02 286.669C336.181 280.595 326.986 270.108 316.878 263.771C305.617 256.8 293.478 252.994 280.012 252.712ZM339.407 358.353C332.753 341.221 298.304 321.434 280.434 324.537C286.341 341.291 320.2 360.682 339.407 358.353ZM280.293 322.77C292.081 322.955 308.413 318.533 321.536 308.46C328.665 302.913 334.651 296.4 339.336 288.409C315.128 288.427 291.219 302.939 280.293 322.77ZM93.7216 144.207C113.702 145.973 146.498 126.881 152.519 110.013C134.508 107.147 101.299 126.424 93.7216 144.207ZM155.481 180.027C169.071 179.631 181.298 175.939 192.435 168.802C201.612 162.877 209.154 155.238 214.929 145.464C201.26 145.85 189.033 149.586 177.843 156.812C168.737 162.736 161.309 170.393 155.481 180.027ZM215.668 430.379C210.499 420.93 199.45 409.749 186.036 403.385C176.71 398.972 166.909 396.59 156.422 396.467C168.341 417.229 192.91 430.775 215.668 430.379ZM30.3269 182.98C18.759 197.115 18.8997 236.02 30.5027 250.919C42.0617 236.354 41.9387 197.686 30.3269 182.98ZM90.3725 74.4214C72.2999 71.5119 38.8533 90.9294 31.6014 108.501C49.8674 111.208 83.8326 91.5535 90.3725 74.4214ZM218.524 360.559C224.291 377.164 259.812 397.434 277.401 394.322C271.388 377.577 237.045 357.878 218.524 360.559ZM92.7459 358.353C104.349 343.348 104.252 304.733 92.6316 290.246C81.8109 308.152 79.9913 335.973 92.7459 358.353ZM92.5085 215.135C99.5231 202.143 102.266 188.579 100.842 174.137C99.9538 164.433 97.1146 155.353 92.2448 146.729C80.5627 163.677 80.677 199.321 92.5085 215.135ZM216.441 218.088C210.543 227.766 206.622 242.683 207.8 257.292C208.635 267.577 211.378 277.272 216.573 286.405C228.941 265.309 227.833 237.277 216.441 218.088ZM216.547 289.596C209.752 302.157 206.939 315.351 208.055 329.319C208.811 339.436 211.73 349 216.775 358.001C228.44 342.003 228.325 306.438 216.547 289.596ZM92.3239 218.317C86.0653 229.911 83.1909 242.024 83.6392 254.901C84.0348 266.179 86.9971 276.762 92.5085 286.862C104.753 266.126 103.997 237.901 92.3239 218.317ZM154.409 253.996C147.403 267.032 144.766 280.736 146.058 295.213C146.99 305.656 152.115 319.474 154.831 322.181C167.603 300.25 165.361 271.699 154.409 253.996ZM154.602 250.814C161.379 238.261 164.201 225.155 163.12 211.276C162.364 201.035 159.507 191.463 154.383 182.303C142.067 203.118 142.999 231.484 154.602 250.814ZM401.07 250.814C393.211 232.891 360.152 213.939 342.044 216.963C348.786 234.192 382.733 253.732 401.07 250.814ZM30.0544 111.314C18.5041 125.492 18.6096 164.864 30.239 179.235C41.7892 165.751 41.6926 125.009 30.0544 111.314ZM401.5 322.427C394.82 311.404 385.986 303.045 374.989 297.024C364.81 291.424 353.928 288.48 342.149 288.339C350.641 306.719 382.408 325.003 401.5 322.427ZM411.064 305.322C437.109 245.768 437.039 186.197 410.809 126.688C410.563 127.031 410.563 127.409 410.66 127.707C414.774 145.525 412.506 162.543 403.962 178.717C403.311 179.86 403.557 180.739 404.094 181.767C415.793 204.648 415.688 227.511 404.094 250.33C403.557 251.359 403.557 252.062 404.111 253.055C408.911 261.802 411.75 271.154 412.69 281.087C413.394 289.253 412.743 297.305 411.064 305.322ZM391.893 339.41C391.787 339.304 391.673 339.19 391.568 339.058C391.453 339.111 391.33 339.146 391.242 339.199C377.609 352.314 361.329 359.17 342.431 359.917C341.736 359.917 340.927 360.594 340.541 361.192C335.715 368.875 329.852 375.538 322.67 380.996C310.417 390.34 296.493 395.245 281.093 395.834C280.02 395.904 279.317 396.045 278.675 397.091C270.334 410.733 258.827 420.605 243.989 426.6C241.713 427.54 239.41 428.402 237.063 429.245C301.934 421.967 353.471 391.94 391.893 339.41ZM235.727 2.88703C235.639 3.03646 235.595 3.22985 235.481 3.43202C235.727 3.48476 236.043 3.60782 236.36 3.67815C254.072 9.09289 267.908 19.6763 277.709 35.4282C278.394 36.5182 279.203 36.4919 280.205 36.5182C305.89 37.8192 325.729 49.2903 339.714 70.8614C340.374 71.8547 340.989 72.1272 342.079 72.1448C358.745 72.7161 373.653 78.1924 386.531 88.8285C387.964 90.024 389.388 91.3337 390.768 92.5292C390.882 92.371 390.97 92.2303 391.084 92.1248C352.223 39.8673 300.475 10.0774 235.727 2.88703ZM41.2706 339.638C53.1725 356.639 67.3598 371.6 83.7271 384.486C100.05 397.372 117.921 407.71 137.286 415.366C154.919 422.319 191.222 430.81 197.34 429.298C196.874 429.14 196.435 428.999 196.057 428.876C178.608 423.488 165.045 413.045 155.367 397.601C154.796 396.634 154.163 396.344 153.046 396.291C127.23 395.06 107.267 383.686 93.2908 361.992C92.5788 360.963 91.902 360.682 90.7153 360.594C76.5895 360.164 63.5713 356.085 51.8979 348.059C48.2061 345.44 44.7691 342.425 41.2706 339.638ZM196.654 3.38807C187.407 2.59696 155.587 10.1389 136.574 17.6633C117.209 25.3459 99.3736 35.7007 83.1558 48.7366C67.439 61.2977 43.8286 86.7365 41.0948 93.7598C41.2882 93.6192 41.4376 93.5225 41.5871 93.417C55.203 80.3812 71.4033 73.5864 90.2495 72.7865C90.9351 72.7161 91.8756 72.1887 92.2448 71.6174C106.274 49.809 126.219 38.1444 152.115 36.861C153.301 36.8435 153.89 36.316 154.409 35.4282C159.173 27.5435 165.291 20.8629 172.701 15.3163C179.9 9.84884 187.952 5.89327 196.654 3.38807ZM22.0114 126.424C7.78009 157.664 1.16988 190.012 2.36535 223.863C3.36742 253.161 10.171 281.017 22.8376 308.029C22.0905 303.968 21.2994 300.426 20.8774 296.813C19.1458 281.738 21.8971 267.418 29.0699 253.934C29.3687 253.328 29.3687 252.282 29.0699 251.649C25.712 245.364 23.1101 238.78 21.7037 231.801C18.2492 214.563 20.5434 198.09 28.771 182.576C29.3687 181.442 29.2545 180.659 28.7271 179.684C21.7916 166.833 18.8997 153.217 20.1654 138.686C20.5698 134.757 21.3257 130.828 22.0114 126.424ZM421.023 148.734C458.487 263.524 395.998 385.514 281.313 421.853C167.656 457.77 45.9822 395.148 10.4259 279.654C-24.3656 166.595 37.8073 46.8203 151.552 10.8685C265.306 -25.0218 384.158 37.6873 421.023 148.734Z" fill="white"/>
</svg>
