<svg width="48" height="51" viewBox="0 0 48 51" fill="none" xmlns="http://www.w3.org/2000/svg">
<g clip-path="url(#clip0_101_13165)">
<path fill-rule="evenodd" clip-rule="evenodd" d="M3.41975 30.9202H44.5803C46.4608 30.9202 48 32.4377 48 34.2806V47.6396C48 49.4825 46.4557 51 44.5803 51H3.41975C1.5443 51 0 49.4875 0 47.6396V34.2806C0 32.4327 1.53924 30.9202 3.41975 30.9202ZM13.921 10.6255H15.0349V9.13188C15.0349 6.63422 16.0365 4.35647 17.6506 2.70364C19.278 1.03588 21.5251 0 24 0C26.4749 0 28.7241 1.03489 30.3504 2.70364C31.9656 4.35647 32.9671 6.63223 32.9671 9.13188V10.6255H34.08C34.8851 10.6255 35.5433 11.2733 35.5433 12.0644V26.2791C35.5433 27.0692 34.8851 27.716 34.08 27.716H13.921C13.1149 27.716 12.4587 27.0692 12.4587 26.2791V12.0644C12.4567 11.2733 13.1149 10.6255 13.921 10.6255ZM22.8405 19.8181L21.3175 23.7377H26.6815L25.2709 19.7624C26.1661 19.3106 26.7787 18.3941 26.7787 17.3353C26.7787 15.8268 25.5352 14.6058 23.999 14.6058C22.4648 14.6058 21.2213 15.8268 21.2213 17.3353C21.2213 18.4369 21.8846 19.3852 22.8405 19.8181ZM17.8035 10.6255H30.1965V9.13188C30.1965 7.35565 29.4916 5.7466 28.3585 4.58435C27.2375 3.43602 25.6952 2.72155 24 2.72155C22.3058 2.72155 20.7615 3.43602 19.6415 4.58435C18.5073 5.7466 17.8035 7.35565 17.8035 9.13188V10.6255ZM35.9716 37.4579C35.9716 36.8459 36.4759 36.3494 37.0997 36.3494C37.7225 36.3494 38.2268 36.8459 38.2268 37.4579V38.8908L39.437 38.0958C39.9524 37.7574 40.6511 37.8918 40.9965 38.3993C41.3428 38.9058 41.2041 39.5924 40.6886 39.9317L39.1271 40.9566L40.6896 41.9776C41.2071 42.3139 41.3499 43.0015 41.0066 43.51C40.6643 44.0195 39.9646 44.1578 39.4471 43.8215L38.2268 43.0254V44.4633C38.2268 45.0753 37.7225 45.5718 37.0997 45.5718C36.4759 45.5718 35.9716 45.0753 35.9716 44.4633V43.0304L34.7625 43.8255C34.2461 44.1638 33.5484 44.0284 33.202 43.5219C32.8567 43.0154 32.9944 42.3288 33.5109 41.9885L35.0714 40.9636L33.5099 39.9436C32.9914 39.6073 32.8496 38.9197 33.1929 38.4112C33.5352 37.9017 34.2339 37.7624 34.7514 38.0987L35.9716 38.8958V37.4579ZM9.77316 37.4579C9.77316 36.8459 10.2775 36.3494 10.9003 36.3494C11.523 36.3494 12.0284 36.8459 12.0284 37.4579V38.8908L13.2375 38.0958C13.7539 37.7574 14.4516 37.8918 14.798 38.3993C15.1433 38.9058 15.0056 39.5924 14.4891 39.9317L12.9286 40.9566L14.4911 41.9776C15.0086 42.3139 15.1504 43.0015 14.8071 43.51C14.4648 44.0195 13.7661 44.1578 13.2476 43.8215L12.0284 43.0254V44.4633C12.0284 45.0753 11.523 45.5718 10.9003 45.5718C10.2775 45.5718 9.77316 45.0753 9.77316 44.4633V43.0304L8.56304 43.8255C8.0476 44.1638 7.34886 44.0284 7.00354 43.5219C6.65722 43.0154 6.79595 42.3288 7.31241 41.9885L8.87291 40.9636L7.31038 39.9436C6.79291 39.6073 6.65114 38.9197 6.99443 38.4112C7.33671 37.9017 8.03544 37.7624 8.55291 38.0987L9.77316 38.8958V37.4579ZM22.8719 37.4579C22.8719 36.8459 23.3772 36.3494 24 36.3494C24.6228 36.3494 25.1281 36.8459 25.1281 37.4579V38.8908L26.3372 38.0958C26.8527 37.7574 27.5514 37.8918 27.8977 38.3993C28.243 38.9058 28.1043 39.5924 27.5889 39.9317L26.0284 40.9566L27.5899 41.9776C28.1084 42.3139 28.2501 43.0015 27.9068 43.51C27.5646 44.0195 26.8648 44.1578 26.3473 43.8215L25.1281 43.0254V44.4633C25.1281 45.0753 24.6228 45.5718 24 45.5718C23.3772 45.5718 22.8719 45.0753 22.8719 44.4633V43.0304L21.6628 43.8255C21.1473 44.1638 20.4486 44.0284 20.1033 43.5219C19.757 43.0154 19.8957 42.3288 20.4111 41.9885L21.9727 40.9636L20.4101 39.9436C19.8927 39.6073 19.7499 38.9197 20.0932 38.4112C20.4354 37.9017 21.1352 37.7624 21.6527 38.0987L22.8719 38.8958V37.4579Z" fill="#888EA8"/>
</g>
<defs>
<clipPath id="clip0_101_13165">
<rect width="48" height="51" fill="white"/>
</clipPath>
</defs>
</svg>
