<svg width="1920" height="552" viewBox="0 0 1920 552" fill="none" xmlns="http://www.w3.org/2000/svg">
<rect x="-100" y="-100" width="1920" height="350" fill="#006600"/>
<g opacity="0.2">
<path fill-rule="evenodd" clip-rule="evenodd" d="M 762.4 251.3 C 724.3 137 600.9 72.7 483.6 110.9 C 368 148.6 303.2 273.3 342.4 391.4 C 380.4 505.9 504 570 621.2 531.7 C 736.7 494.1 801.5 369.5 762.4 251.3 Z M 490.9 107 C 494.7 106.1 498.6 105.2 502.5 104.3 C 524.9 99.1 547.6 97.5 570.6 99.3 C 600.5 101.8 628.8 110 655.4 123.8 C 688.3 141.1 715.2 165 736.3 195.6 C 745.8 209.4 753.5 224.1 759.6 239.6 C 759.9 240.5 760.5 241.4 760.9 242.3 C 762.8 248.1 764.8 254 766.7 259.9 C 767.6 263.6 768.6 267.5 769.5 271.2 C 774.8 294.6 776.4 318.2 774.2 342.1 C 771.5 370.9 763.5 398.1 750.2 423.7 C 734.6 453.8 713.3 479.1 686 499.5 C 673.5 509 660 517 645.7 523.6 C 630.2 530.8 614 536.3 597.2 539.6 C 557.7 547.6 518.7 545.1 480.5 532.2 C 451.9 522.5 426.3 507.5 403.8 487.3 C 384.9 470.5 369.4 450.9 357.2 428.7 C 347 410.2 339.5 390.6 335 369.9 C 325.4 326.2 328.5 283.5 344.4 241.7 C 358.2 205.2 380.5 174.5 410.5 149.6 C 425.3 137.3 441.5 127.1 459.1 119.2 C 463.9 116.9 468.8 114.9 473.6 112.8 C 479.4 110.9 485.1 109 490.9 107 Z" fill="white"/>
<path fill-rule="evenodd" clip-rule="evenodd" d="M 769.5 248.9 C 730.1 130.7 602.5 64.3 481.2 103.8 C 361.8 142.7 294.7 271.7 335.3 393.8 C 374.6 512.1 502.3 578.4 623.5 538.9 C 742.9 499.9 809.9 371.1 769.5 248.9 Z M 488.8 99.7 C 492.8 98.8 496.8 97.8 500.7 96.9 C 524 91.5 547.5 89.8 571.2 91.8 C 602.1 94.4 631.4 102.8 658.9 117.2 C 692.9 135 720.8 159.7 742.5 191.4 C 752.3 205.6 760.3 220.8 766.6 236.8 C 767 237.8 767.5 238.7 767.9 239.6 C 769.9 245.6 772 251.7 774 257.8 C 774.9 261.7 775.9 265.6 776.8 269.5 C 782.4 293.7 784 318.2 781.7 342.9 C 778.9 372.5 770.7 400.7 756.9 427.2 C 740.8 458.3 718.6 484.5 690.6 505.6 C 677.6 515.3 663.7 523.6 648.9 530.5 C 632.8 538 616.1 543.5 598.7 547 C 557.8 555.2 517.6 552.7 478 539.3 C 448.5 529.3 422 513.8 398.7 493 C 379.3 475.5 363.2 455.3 350.6 432.3 C 340 413.2 332.2 392.9 327.6 371.5 C 317.7 326.4 320.9 282.2 337.3 239 C 351.7 201.3 374.6 169.6 405.7 143.8 C 421 131 437.7 120.5 455.9 112.3 C 460.9 110 465.9 107.9 471 105.7 C 476.9 103.7 482.9 101.7 488.8 99.7 Z" fill="white"/>
<path fill-rule="evenodd" clip-rule="evenodd" d="M 688 392.5 C 706.2 395.8 721.2 404.4 733.1 418.5 C 726.8 401.1 726.8 383.7 733.1 366.2 C 721.2 380.5 706.3 389.2 688 392.5 Z M 563.9 464.6 C 582.3 467.7 597.4 476.4 609.4 490.6 C 603 473.1 603 455.7 609.2 438.2 C 603.4 445.1 596.7 450.9 589 455.4 C 581.2 460 572.8 462.9 563.9 464.6 Z M 604.2 500.3 C 585.8 497.2 570.7 488.6 558.6 474.4 C 564.8 491.8 564.9 509.1 558.7 526.4 C 570.8 512.3 585.8 503.5 604.2 500.3 Z M 682.1 383.2 C 694 368.9 709 360.1 727.3 356.8 C 709 353.6 694 344.8 682 330.6 C 688.5 348.1 688.4 365.7 682.1 383.2 Z M 665.5 392.6 C 647.3 389.6 632.2 380.8 620.2 366.7 C 626.5 384.1 626.5 401.5 620.3 419 C 632.2 404.7 647.3 395.9 665.5 392.6 Z M 547.1 454.8 C 540.9 437.5 540.8 420.2 547 402.9 C 541.1 409.8 534.4 415.6 526.5 420 C 518.7 424.5 510.4 427.4 501.5 429 C 510.4 430.5 518.8 433.3 526.6 437.7 C 534.4 442.2 541.2 448 547.1 454.8 Z M 485 419.3 C 478.7 401.8 478.7 384.5 484.9 367.1 C 472.9 381.4 457.8 390.1 439.4 393.4 C 457.8 396.5 473 405.1 485 419.3 Z M 625.8 428.5 C 644.1 431.8 659.2 440.4 671.3 454.5 C 668.2 445.9 666.5 437.2 666.6 428.2 C 666.6 419.2 668.2 410.6 671.3 402.1 C 665.5 409 658.8 414.9 651.1 419.4 C 643.2 424 634.8 427 625.8 428.5 Z M 682.4 454.5 C 694.5 440.4 709.5 431.6 727.8 428.3 C 718.8 426.8 710.5 423.9 702.6 419.4 C 694.8 414.9 688.1 409.2 682.3 402.2 C 688.6 419.7 688.7 437 682.4 454.5 Z M 423.2 383.8 C 416.7 366.1 416.6 348.8 422.9 331.4 C 411 345.7 395.9 354.4 377.4 357.6 C 402 364.4 404.8 365.8 423.2 383.8 Z M 558.4 454.9 C 564.2 448.1 570.9 442.2 578.7 437.7 C 586.5 433.2 594.9 430.2 603.9 428.7 C 585.5 425.6 570.2 416.9 558.2 402.5 C 564.7 420 564.6 437.5 558.4 454.9 Z M 479.9 429.1 C 461.6 425.9 446.4 417.3 434.3 403.2 C 440.6 420.6 440.6 438 434.4 455.4 C 446.4 441.1 461.5 432.3 479.9 429.1 Z M 484.9 276.2 C 481.7 267.4 480 258.9 479.9 250 C 479.9 241.1 481.6 232.5 484.4 224 C 472.4 238.2 457.3 246.9 438.8 250 C 460.8 255.4 467.3 258.4 484.9 276.2 Z M 439.2 321.7 C 457.6 324.8 472.7 333.4 484.9 347.6 C 478.5 330.3 478.5 313 484.6 295.7 C 472.6 309.8 457.5 318.4 439.2 321.7 Z M 495.7 204.3 C 507.7 190.1 522.8 181.5 541 178.2 C 522.6 175 507.4 166.2 495.4 151.9 C 498.5 160.5 500.3 169.1 500.3 178.1 C 500.3 187.1 498.8 195.8 495.7 204.3 Z M 547.3 474.3 C 535.4 488.6 520.4 497.3 502.1 500.7 C 511 502.2 519.4 505.1 527.2 509.6 C 535 514 541.7 519.8 547.6 526.6 C 541.2 509.2 541.2 491.8 547.3 474.3 Z M 603.9 357 C 585.4 353.9 570.1 345.2 558 330.8 C 564.3 348.3 564.5 365.7 558.3 383.2 C 570.4 368.9 585.5 360.1 603.9 357 Z M 372.3 419.8 C 378.1 412.8 384.8 407 392.7 402.5 C 400.6 397.9 409 395 418.1 393.4 C 399.5 390.4 384.2 381.7 372 367.3 C 378.5 384.8 378.6 402.2 372.3 419.8 Z M 434 312.1 C 446 297.8 461.1 289 479.5 285.8 C 461.1 282.7 445.9 274 433.8 259.8 C 440.1 277.3 440.2 294.7 434 312.1 Z M 496.5 438.9 C 502.7 456.3 502.8 473.7 496.4 491.2 C 508.3 476.8 523.3 468.1 541.7 464.7 C 523.5 461.4 508.5 452.9 496.5 438.9 Z M 620.6 490.5 C 626.4 483.6 633.1 477.8 640.9 473.3 C 648.6 468.8 657 466 665.8 464.2 C 656.9 462.6 648.5 459.8 640.7 455.3 C 632.9 450.8 626.2 445 620.3 438.2 C 626.8 455.6 626.8 473 620.6 490.5 Z M 671.2 383.2 C 664.7 365.5 664.8 348 671.1 330.4 C 659.1 344.9 643.9 353.8 625.4 357 C 643.9 360.1 659.1 368.8 671.2 383.2 Z M 372.1 348.1 C 377.9 341.1 384.7 335.3 392.6 330.8 C 400.4 326.3 408.8 323.4 417.6 321.8 C 399.2 318.7 384 310 371.9 295.7 C 378.3 313.2 378.3 330.6 372.1 348.1 Z M 541.7 321.4 C 523.3 318.3 508.1 309.6 496 295.4 C 502.3 312.9 502.3 330.3 496.1 347.8 C 508.1 333.3 523.3 324.7 541.7 321.4 Z M 496.3 419.4 C 508.3 405 523.5 396.3 541.9 393.1 C 532.9 391.5 524.5 388.7 516.7 384.2 C 508.8 379.7 502.1 374 496.1 367.1 C 502.6 384.5 502.5 401.8 496.3 419.4 Z M 733 294.6 C 727.2 301.5 720.5 307.4 712.7 311.9 C 704.9 316.4 696.5 319.4 687.6 321 C 696.7 322.6 705.1 325.6 712.9 330.1 C 720.7 334.5 727.4 340.4 733.2 347.3 C 726.7 329.7 726.7 312.1 733 294.6 Z M 433.7 240.5 C 445.7 226.1 460.8 217.3 479.3 214.1 C 460.7 211 445.5 202.2 433.4 187.8 C 440 205.4 440 222.9 433.7 240.5 Z M 603.5 285.4 C 594.5 283.8 586 280.9 578.1 276.4 C 570.2 271.8 563.5 266 557.7 259.1 C 564.2 276.7 564.2 294.3 557.9 311.9 C 569.9 297.4 585.1 288.6 603.5 285.4 Z M 670.9 311.4 C 664.5 293.9 664.5 276.4 670.9 258.9 C 658.9 273.3 643.8 282.1 625.3 285.4 C 643.7 288.5 658.8 297.2 670.9 311.4 Z M 500.9 214.1 C 509.9 215.5 518.3 218.5 526.2 223 C 534 227.5 540.8 233.3 546.6 240.2 C 540.3 222.7 540.3 205.4 546.5 187.9 C 534.3 202.2 519.3 210.9 500.9 214.1 Z M 485.2 438.7 C 473.2 453.1 458 461.8 439.6 465 C 458.2 468.1 473.4 476.8 485.5 491.2 C 479 473.7 479 456.3 485.2 438.7 Z M 371.8 224.1 C 378.1 241.6 378.1 259 371.8 276.6 C 383.7 262.2 398.8 253.5 417 250.1 C 398.8 246.8 383.7 238.3 371.8 224.1 Z M 376.7 214.4 C 395.1 217.5 410.3 226.2 422.5 240.4 C 416.3 222.9 416.2 205.5 422.5 188.1 C 410.4 202.5 395.2 211.3 376.7 214.4 Z M 557.8 168.3 C 563.6 161.4 570.3 155.6 578.1 151.1 C 586 146.6 594.4 143.6 603.4 142.2 C 584.9 139.1 569.7 130.4 557.6 116.2 C 563.8 133.6 563.9 150.9 557.8 168.3 Z M 376.8 286.1 C 385.8 287.6 394.3 290.5 402.2 294.9 C 410 299.4 416.8 305.3 422.8 312 C 419.6 303.5 418.1 294.9 418 285.9 C 417.9 277 419.6 268.3 422.6 259.8 C 410.4 274.2 395.3 282.9 376.8 286.1 Z M 500.6 142.5 C 519.2 145.5 534.5 154.4 546.6 168.8 C 540.1 151.2 540.1 133.8 546.3 116.2 C 534.3 130.5 519.1 139.3 500.6 142.5 Z M 608.5 151.8 C 596.5 166 581.4 174.8 563.1 178.1 C 581.5 181.3 596.7 190 608.8 204.4 C 602.2 186.8 602.2 169.4 608.5 151.8 Z M 434.2 383.7 C 446.2 369.3 461.4 360.7 479.8 357.4 C 461.3 354.4 446.1 345.5 434 331.3 C 440.4 348.8 440.4 366.1 434.2 383.7 Z M 557.9 240 C 569.9 225.7 585.1 216.9 603.5 213.8 C 584.9 210.7 569.7 201.9 557.5 187.5 C 560.6 196 562.3 204.7 562.4 213.6 C 562.4 222.6 560.9 231.3 557.9 240 Z M 547 383.4 C 543.9 374.9 542.3 366.1 542.3 357.1 C 542.3 348.1 543.9 339.4 546.9 330.9 C 541.1 337.9 534.3 343.7 526.5 348.3 C 518.6 352.8 510.1 355.8 501.1 357.3 C 510.1 358.9 518.5 361.7 526.5 366.2 C 534.3 370.7 541.2 376.5 547 383.4 Z M 609 366.7 C 597 381 581.8 389.7 563.4 393 C 582 396.1 597.1 404.9 609.2 419.1 C 602.8 401.6 602.7 384.2 609 366.7 Z M 495.5 223.5 C 502 240.9 502.1 258.3 496 275.8 C 507.9 261.7 523 253 541.2 249.8 C 522.7 246.5 507.6 237.7 495.5 223.5 Z M 665.3 321.1 C 646.8 317.7 631.6 309 619.6 294.5 C 622.9 303 624.6 311.8 624.6 320.8 C 624.7 329.9 623.1 338.7 620.1 347.4 C 625.9 340.5 632.4 334.7 640.2 330.2 C 648 325.7 656.3 322.7 665.3 321.1 Z M 500.6 285.8 C 519.6 288.8 534.9 297.6 547 312 C 540.4 294.4 540.4 276.9 546.8 259.2 C 531.7 275.5 524 280 500.6 285.8 Z M 377.5 429.4 C 386.6 430.9 395 434 402.9 438.4 C 410.8 442.9 417.5 448.8 423.3 455.7 C 416.8 438.1 416.8 420.6 423.1 403.1 C 411.1 417.5 395.9 426.2 377.5 429.4 Z M 484.5 152 C 472.5 166.4 457.3 175.1 438.9 178.4 C 457.4 181.6 472.6 190.4 484.6 204.7 C 478.2 187.1 478.1 169.6 484.5 152 Z M 563.4 321.4 C 581.9 324.6 597.1 333.3 609.1 347.7 C 602.6 330.1 602.5 312.6 608.8 294.9 C 596.8 309.4 581.7 318 563.4 321.4 Z M 619.8 275.9 C 631.7 261.5 646.9 252.7 665.3 249.4 C 646.9 246.2 631.7 237.5 619.6 223.2 C 626.1 240.7 626.2 258.3 619.8 275.9 Z M 687.3 249.4 C 705.7 252.5 720.9 261.3 733 275.6 C 726.4 258 726.5 240.4 732.9 222.8 C 720.9 237.2 705.7 246 687.3 249.4 Z M 727.8 285.1 C 709.1 282 693.8 273.1 681.7 258.7 C 688.3 276.3 688.3 293.9 682 311.5 C 694.1 297.1 709.2 288.3 727.8 285.1 Z M 563.2 249.7 C 581.7 252.9 596.9 261.7 608.9 276 C 602.5 258.4 602.4 240.9 608.8 223.3 C 596.8 237.7 581.7 246.4 563.2 249.7 Z M 625 213.7 C 633.9 215.2 642.4 218.1 650.2 222.6 C 658.2 227.1 664.9 233 670.9 240 C 664.4 222.4 664.4 205 670.7 187.4 C 658.6 201.7 643.5 210.5 625 213.7 Z M 619.6 151.8 C 622.7 160.3 624.4 169.1 624.4 178.2 C 624.4 187.2 622.6 195.9 619.6 204.4 C 631.6 189.8 647 181 665.6 177.8 C 647 174.7 631.8 166 619.6 151.8 Z M 681.7 187.2 C 684.7 195.8 686.4 204.5 686.5 213.6 C 686.5 222.7 684.8 231.5 681.8 240 C 693.8 225.5 709.2 216.7 727.8 213.5 C 709.2 210.3 693.8 201.6 681.7 187.2 Z M 368.3 430.5 C 380.4 451.1 404.7 464.4 427.1 464.1 C 421.5 447.7 385.9 427.3 368.3 430.5 Z M 677.8 248.7 C 692.2 248.2 705.1 244 716.7 235.9 C 724.9 230.2 731.6 223.2 736.8 214.4 C 715.1 214.3 690.3 226.9 677.8 248.7 Z M 677.8 178.8 C 689.5 199.2 714.2 212.7 736.5 212.4 C 731 196 695 175.4 677.8 178.8 Z M 738.6 354.8 C 750.1 340.6 750 301.6 738.5 287.1 C 727.1 301 727.1 339.9 738.6 354.8 Z M 614.3 283.5 C 625.8 268.6 625.7 229.2 614.2 215.7 C 602.6 235.2 602.5 263.2 614.3 283.5 Z M 676.4 247.9 C 683.1 235.2 685.9 222.2 684.9 208.2 C 684.2 198.1 681.3 188.6 676.2 179.3 C 669.6 191.6 666.7 204.3 667.5 217.8 C 668.2 228.3 671.1 238.3 676.4 247.9 Z M 613.1 356 C 606.9 345.9 598.9 338 588.8 332 C 578.1 325.7 566.5 322.4 554 322.1 C 561.9 340.1 594.1 358.5 613.1 356 Z M 367.7 215.4 C 373.6 232 407.3 251.4 426.5 249.2 C 420.7 232.6 386.8 213 367.7 215.4 Z M 615.7 213 C 629.4 212.6 641.8 208.7 653.1 201.3 C 662 195.5 669.2 188 674.7 178.7 C 652.3 178.6 627.8 191.7 615.7 213 Z M 736.9 284.1 C 728.6 266.1 695.4 247.1 678 250.4 C 684.2 267.1 717.6 286.3 736.9 284.1 Z M 615.6 143 C 627.8 164.2 652.6 177.3 674.4 176.8 C 664.4 158.5 640.8 142.9 615.6 143 Z M 429.8 321 C 443.4 320.6 455.6 316.8 466.7 309.6 C 475.9 303.7 483.2 296.1 488.9 286.7 C 466.4 286.6 442.1 299.6 429.8 321 Z M 553.7 179 C 560.8 196.4 594.7 215.8 612.5 212.8 C 606.4 196 571.9 176.2 553.7 179 Z M 367.8 285.4 C 382.6 284.8 395.8 280.4 407.6 271.9 C 415.4 266.3 421.8 259.4 426.8 251 C 403 251.1 379.1 265 367.8 285.4 Z M 552.2 251.5 C 540.7 267.6 540.8 304.3 552.4 319.4 C 563.9 305.1 563.9 268.4 552.2 251.5 Z M 675.1 320.2 C 667.7 308.2 657.9 299.2 645.5 293.2 C 636.2 288.7 626.4 286.3 615.9 286.1 C 623.3 303.8 654.5 321.8 675.1 320.2 Z M 550.6 248.8 C 543.6 231.5 509.9 212.1 491.8 215 C 497.6 231.7 531.9 251.4 550.6 248.8 Z M 676.4 322.7 C 670 334.5 667.2 346.8 667.8 359.8 C 668.3 370.8 671.1 381.2 676.6 391 C 688.7 370.2 688 342.3 676.4 322.7 Z M 550.7 322.3 C 532.5 319.6 498.9 339.2 492.1 356.4 C 510.9 358.8 544.8 339.1 550.7 322.3 Z M 550.9 320.6 C 543.9 303.2 510.5 284.1 491.9 286.7 C 501.5 304.1 524.5 320.5 550.9 320.6 Z M 552.2 179.9 C 540.6 193.6 540.7 234.4 552.4 248 C 558.8 236.2 561.7 223.6 560.9 210.3 C 560.4 199.6 557.5 189.4 552.2 179.9 Z M 677 462.6 C 683.7 450.1 686.5 437.1 685.5 423.2 C 684.7 413 681.9 403.4 676.8 394.3 C 665.2 410.8 665.3 447 677 462.6 Z M 612.6 141.2 C 605.9 130.3 597.2 121.9 586.1 115.9 C 576 110.4 565.1 107.4 553.3 107.3 C 566.1 129.1 590.8 141.6 612.6 141.2 Z M 678.5 463.3 C 697.4 465.7 730.4 446.5 737.1 429.2 C 719 426.5 685.2 446.1 678.5 463.3 Z M 613.5 427.7 C 605.5 415.1 595 405.8 581.7 399.9 C 573 395.9 563.9 393.9 554.1 393.8 C 566 414.8 590.9 428.1 613.5 427.7 Z M 614.4 287.2 C 602.9 302.3 603 340.9 614.5 355.1 C 625 337.8 627.4 310 614.4 287.2 Z M 491.3 143.2 C 504.1 165 528.9 177.6 550.6 177.2 C 545.3 168.3 538.3 161.1 529.9 155.4 C 518.3 147.6 505.5 143.6 491.3 143.2 Z M 675.3 465 C 661.8 465.4 649.5 469.2 638.3 476.5 C 629.3 482.4 621.9 489.9 616.3 499.4 C 636.9 500.9 669.3 481.9 675.3 465 Z M 426.9 320.8 C 414.4 299.3 389.3 286.5 367.9 287.1 C 379 306.9 403.4 321.1 426.9 320.8 Z M 490.2 215.9 C 478.6 230.8 478.7 269.9 490.3 283.8 C 501.2 265.8 502.8 237.9 490.2 215.9 Z M 429.4 179.3 C 437 191.6 447.1 200.7 459.9 206.7 C 468.9 210.9 478.4 213.2 488.6 213.3 C 476.9 192.9 453 179.2 429.4 179.3 Z M 551.2 392.1 C 544.7 381.3 535.9 373 525 366.9 C 514.8 361.3 503.8 358.4 491.9 358.2 C 503.4 378.3 527.7 392.4 551.2 392.1 Z M 612.8 284.5 C 606.8 273.9 595.4 262.8 581.3 256.6 C 572.6 252.7 563.4 250.6 553.7 250.5 C 564.9 270.4 589.2 284.8 612.8 284.5 Z M 430.3 464.3 C 445.6 463.7 459.2 459.1 471.3 450 C 478.6 444.6 484.7 437.9 489.4 429.8 C 464.6 430.1 441.5 444.6 430.3 464.3 Z M 489 358.3 C 463.8 358.4 440.3 373.9 430.2 392.5 C 449.5 394.7 481.4 376.1 489 358.3 Z M 489 284.9 C 482.2 273.9 473.4 265.5 462.4 259.5 C 452.2 254 441.4 251.1 429.6 250.9 C 441.1 270.9 465.3 285.1 489 284.9 Z M 488.5 143.2 C 473.9 143.7 460.8 148 449.1 156.3 C 441.1 161.9 434.5 169 429.4 177.6 C 452.7 177.7 477.2 163.6 488.5 143.2 Z M 492.2 428.3 C 506.4 427.9 519.1 423.7 530.6 415.9 C 539.1 410.1 546 402.9 551.3 394 C 529.9 393.6 504.5 406.4 492.2 428.3 Z M 676.5 319.7 C 682.7 308.1 685.7 296.1 685.3 283.4 C 684.9 271.9 682.1 261.2 676.3 250.9 C 669.9 262.9 667.1 275.2 667.6 288.4 C 668.1 299.4 671.1 309.6 676.5 319.7 Z M 490.3 212.4 C 496.9 200.1 499.7 187.1 498.8 173.5 C 498.1 163.1 495.2 153.3 490.1 144.1 C 478.5 159.8 478.5 197.2 490.3 212.4 Z M 554 392.2 C 568.4 391.9 581.3 387.6 593 379.5 C 601.2 373.8 607.9 366.7 613.2 357.8 C 590.5 357.8 566 371.1 554 392.2 Z M 489 356.6 C 485.6 347.7 470 333.9 457.2 328.4 C 448.5 324.7 439.5 322.5 429.8 322.5 C 435.4 333.1 447.7 344.1 460.4 350 C 469.4 354.2 478.9 356.4 489 356.6 Z M 430 394.3 C 437.5 406.4 447.4 415.3 459.9 421.3 C 469.1 425.8 478.9 428.1 489.4 428.3 C 477.2 407.2 452.4 393.9 430 394.3 Z M 552.1 176.3 C 563.6 159.8 563.5 122.4 551.9 108.3 C 540.3 122.7 540.4 159.8 552.1 176.3 Z M 427.2 392.7 C 416.1 372.9 391.8 358.3 367.9 358.7 C 373 367.2 379.7 374.2 387.7 379.9 C 399.5 388.1 412.6 392.3 427.2 392.7 Z M 614.1 143.8 C 602.5 159.2 602.6 196.2 614.3 212 C 619.6 202.3 622.4 192.1 622.9 181.2 C 623.5 168 620.5 155.6 614.1 143.8 Z M 550.4 107.4 C 530.4 105.5 498.1 124.3 491.6 141.5 C 512.5 141.9 537.9 129.4 550.4 107.4 Z M 492.2 429.8 C 499 447 532.2 466.1 551.5 463.7 C 546.3 455.1 539.6 448.1 531.5 442.5 C 519.7 434.3 506.7 430.1 492.2 429.8 Z M 553.3 177.4 C 567.5 177 580.1 173 591.5 165.4 C 600.2 159.5 607.2 152.2 612.7 142.8 C 598.2 143.3 585.3 147.5 573.7 155.5 C 565.5 161.3 558.7 168.4 553.3 177.4 Z M 615.4 214.4 C 622.7 226.2 632.2 235 644.1 241 C 653.7 245.9 663.9 248.5 675.1 248.7 C 667.7 236.7 658 227.8 645.9 221.7 C 636.4 217.1 626.3 214.7 615.4 214.4 Z M 614.6 358.8 C 603 374.3 603.2 412 614.7 426.8 C 626.2 413.4 626.2 374.7 614.6 358.8 Z M 613.3 429.3 C 600 429.8 587.8 433.4 576.7 440.6 C 567.5 446.5 560 454.2 554.3 463.7 C 574.5 465.5 607 446.5 613.3 429.3 Z M 554 320.5 C 574.3 322.1 605.9 303.7 612.7 286.3 C 594.8 283.4 561.8 302.6 554 320.5 Z M 738.7 358.4 C 727.1 373.5 727.2 411.8 738.8 426.4 C 749.7 408.5 751.3 380.3 738.7 358.4 Z M 678 320.1 C 688.2 320.5 703.7 316.8 716.4 308 C 724.8 302.1 731.8 294.9 737.2 285.8 C 723.1 286.2 710.4 290.2 699 297.9 C 690.4 303.7 683.4 311 678 320.1 Z M 427.9 180 C 421.2 192.5 418.4 205.6 419.4 219.5 C 420.2 229.8 423 239.4 428.1 248.5 C 439.5 228.7 440.3 201.6 427.9 180 Z M 368 356.9 C 387.4 359 420.1 339.9 426.8 322.7 C 408.8 319.8 376.7 338.4 368 356.9 Z M 492.5 499.8 C 503.7 499.9 518.1 496.3 530.3 487.9 C 539 482 546.1 474.7 551.6 465.6 C 529.7 465.2 504.6 478.3 492.5 499.8 Z M 366.7 427.6 C 372 419.2 376.6 403.9 375.3 388.6 C 374.5 378.3 371.7 368.6 366.6 359.4 C 354.1 381.1 355.6 408.8 366.7 427.6 Z M 553.2 534.5 C 559.1 525.6 562.7 509.4 561.7 495.5 C 561 485.1 558.1 475.4 553 466.3 C 541.3 482.7 541.4 519.8 553.2 534.5 Z M 490.6 430.7 C 483.9 443.1 481.2 456.1 482.2 469.9 C 482.9 480.2 485.7 489.9 490.8 499 C 502.5 484.5 502.3 446.8 490.6 430.7 Z M 736.9 357.6 C 718.8 354.9 684.2 375 678.4 391.7 C 697.2 394.1 731.3 374.3 736.9 357.6 Z M 430.3 466 C 443.4 488 468 500.1 489.4 499.8 C 482 482.2 448.1 462.8 430.3 466 Z M 615.9 356.3 C 631.8 355.7 645.7 350.8 658 341.3 C 664.9 335.9 670.7 329.6 675.1 321.8 C 651.5 321.9 627.6 335.7 615.9 356.3 Z M 614.7 430.2 C 607.9 442.8 605.1 456 606.2 469.9 C 607 480 609.9 489.6 614.9 498.6 C 626.6 478.6 626.8 450.9 614.7 430.2 Z M 427.3 394.1 C 413.4 394.6 400.8 398.5 389.5 406 C 380.7 411.9 373.6 419.3 368.1 428.5 C 389.5 429 415 415.9 427.3 394.1 Z M 612.7 214.6 C 602.2 214.4 587 218 574 227 C 565.7 232.8 558.8 240 553.6 248.8 C 576.1 249 600.6 235.9 612.7 214.6 Z M 491.7 213.2 C 510.2 215.8 544.4 195.8 550.5 179 C 531.4 176.7 497.8 196.3 491.7 213.2 Z M 615.8 284.7 C 630.2 284.3 643.1 280 654.8 271.9 C 663 266.3 669.8 259 675 250.2 C 649.8 250.4 626.4 265.4 615.8 284.7 Z M 554.7 535.4 C 579.7 535.4 603.6 519.7 613.4 501.1 C 594 499.1 561.9 517.8 554.7 535.4 Z M 738.1 215.2 C 731.8 226.9 728.9 239.3 729.6 252.5 C 730.1 263.5 732.9 273.8 738.3 283.5 C 750.1 267.4 749.9 230 738.1 215.2 Z M 616 357.7 C 623.8 375.7 657 394.7 675 391.7 C 672.2 385.6 663 375.1 652.9 368.8 C 641.6 361.8 629.5 358 616 357.7 Z M 675.4 463.4 C 668.8 446.2 634.3 426.4 616.4 429.5 C 622.3 446.3 656.2 465.7 675.4 463.4 Z M 616.3 427.8 C 628.1 428 644.4 423.5 657.5 413.5 C 664.7 407.9 670.7 401.4 675.3 393.4 C 651.1 393.4 627.2 407.9 616.3 427.8 Z M 429.7 249.2 C 449.7 251 482.5 231.9 488.5 215 C 470.5 212.1 437.3 231.4 429.7 249.2 Z M 491.5 285 C 505.1 284.6 517.3 280.9 528.4 273.8 C 537.6 267.9 545.2 260.2 550.9 250.5 C 537.3 250.8 525 254.6 513.8 261.8 C 504.7 267.7 497.3 275.4 491.5 285 Z M 551.7 535.4 C 546.5 525.9 535.5 514.7 522 508.4 C 512.7 504 502.9 501.6 492.4 501.5 C 504.3 522.2 528.9 535.8 551.7 535.4 Z M 366.3 288 C 354.8 302.1 354.9 341 366.5 355.9 C 378.1 341.4 377.9 302.7 366.3 288 Z M 426.4 179.4 C 408.3 176.5 374.9 195.9 367.6 213.5 C 385.9 216.2 419.8 196.6 426.4 179.4 Z M 554.5 465.6 C 560.3 482.2 595.8 502.4 613.4 499.3 C 607.4 482.6 573 462.9 554.5 465.6 Z M 428.7 463.4 C 440.3 448.3 440.3 409.7 428.6 395.2 C 417.8 413.2 416 441 428.7 463.4 Z M 428.5 320.1 C 435.5 307.1 438.3 293.6 436.8 279.1 C 436 269.4 433.1 260.4 428.2 251.7 C 416.6 268.7 416.7 304.3 428.5 320.1 Z M 552.4 323.1 C 546.5 332.8 542.6 347.7 543.8 362.3 C 544.6 372.6 547.4 382.3 552.6 391.4 C 564.9 370.3 563.8 342.3 552.4 323.1 Z M 552.5 394.6 C 545.8 407.2 542.9 420.4 544.1 434.3 C 544.8 444.4 547.7 454 552.8 463 C 564.4 447 564.3 411.4 552.5 394.6 Z M 428.3 323.3 C 422.1 334.9 419.2 347 419.6 359.9 C 420 371.2 423 381.8 428.5 391.9 C 440.8 371.1 440 342.9 428.3 323.3 Z M 490.4 359 C 483.4 372 480.8 385.7 482.1 400.2 C 483 410.7 488.1 424.5 490.8 427.2 C 503.6 405.3 501.4 376.7 490.4 359 Z M 490.6 355.8 C 497.4 343.3 500.2 330.2 499.1 316.3 C 498.4 306 495.5 296.5 490.4 287.3 C 478.1 308.1 479 336.5 490.6 355.8 Z M 737.1 355.8 C 729.2 337.9 696.2 318.9 678 322 C 684.8 339.2 718.7 358.7 737.1 355.8 Z M 366.1 216.3 C 354.5 230.5 354.6 269.9 366.2 284.2 C 377.8 270.8 377.7 230 366.1 216.3 Z M 737.5 427.4 C 730.8 416.4 722 408 711 402 C 700.8 396.4 689.9 393.5 678.1 393.3 C 686.6 411.7 718.4 430 737.5 427.4 Z M 747.1 410.3 C 773.1 350.8 773 291.2 746.8 231.7 C 746.6 232 746.6 232.4 746.7 232.7 C 750.8 250.5 748.5 267.5 740 283.7 C 739.3 284.9 739.6 285.7 740.1 286.8 C 751.8 309.6 751.7 332.5 740.1 355.3 C 739.6 356.4 739.6 357.1 740.1 358.1 C 744.9 366.8 747.8 376.2 748.7 386.1 C 749.4 394.3 748.7 402.3 747.1 410.3 Z M 727.9 444.4 C 727.8 444.3 727.7 444.2 727.6 444.1 C 727.5 444.1 727.3 444.1 727.2 444.2 C 713.6 457.3 697.3 464.2 678.4 464.9 C 677.7 464.9 676.9 465.6 676.5 466.2 C 671.7 473.9 665.9 480.5 658.7 486 C 646.4 495.3 632.5 500.2 617.1 500.8 C 616 500.9 615.3 501 614.7 502.1 C 606.3 515.7 594.8 525.6 580 531.6 C 577.7 532.5 575.4 533.4 573.1 534.2 C 637.9 527 689.5 496.9 727.9 444.4 Z M 571.7 107.9 C 571.6 108 571.6 108.2 571.5 108.4 C 571.7 108.5 572 108.6 572.4 108.7 C 590.1 114.1 603.9 124.7 613.7 140.4 C 614.4 141.5 615.2 141.5 616.2 141.5 C 641.9 142.8 661.7 154.3 675.7 175.9 C 676.4 176.9 677 177.1 678.1 177.1 C 694.7 177.7 709.7 183.2 722.5 193.8 C 724 195 725.4 196.3 726.8 197.5 C 726.9 197.4 727 197.2 727.1 197.1 C 688.2 144.9 636.5 115.1 571.7 107.9 Z M 377.3 444.6 C 389.2 461.6 403.4 476.6 419.7 489.5 C 436.1 502.4 453.9 512.7 473.3 520.4 C 490.9 527.3 527.2 535.8 533.3 534.3 C 532.9 534.1 532.4 534 532.1 533.9 C 514.6 528.5 501 518 491.4 502.6 C 490.8 501.6 490.2 501.3 489 501.3 C 463.2 500.1 443.3 488.7 429.3 467 C 428.6 466 427.9 465.7 426.7 465.6 C 412.6 465.2 399.6 461.1 387.9 453.1 C 384.2 450.4 380.8 447.4 377.3 444.6 Z M 532.7 108.4 C 523.4 107.6 491.6 115.1 472.6 122.7 C 453.2 130.3 435.4 140.7 419.2 153.7 C 403.4 166.3 379.8 191.7 377.1 198.8 C 377.3 198.6 377.4 198.5 377.6 198.4 C 391.2 185.4 407.4 178.6 426.2 177.8 C 426.9 177.7 427.9 177.2 428.2 176.6 C 442.3 154.8 462.2 143.1 488.1 141.9 C 489.3 141.8 489.9 141.3 490.4 140.4 C 495.2 132.5 501.3 125.9 508.7 120.3 C 515.9 114.8 524 110.9 532.7 108.4 Z M 358 231.4 C 343.8 262.7 337.2 295 338.4 328.9 C 339.4 358.2 346.2 386 358.8 413 C 358.1 409 357.3 405.4 356.9 401.8 C 355.1 386.7 357.9 372.4 365.1 358.9 C 365.4 358.3 365.4 357.3 365.1 356.6 C 361.7 350.4 359.1 343.8 357.7 336.8 C 354.2 319.6 356.5 303.1 364.8 287.6 C 365.4 286.4 365.3 285.7 364.7 284.7 C 357.8 271.8 354.9 258.2 356.2 243.7 C 356.6 239.8 357.3 235.8 358 231.4 Z M 757 253.7 C 794.5 368.5 732 490.5 617.3 526.9 C 503.7 562.8 382 500.1 346.4 384.7 C 311.6 271.6 373.8 151.8 487.6 115.9 C 601.3 80 720.2 142.7 757 253.7 Z" fill="white"/>
</g>
<g opacity="0.2">
<path fill-rule="evenodd" clip-rule="evenodd" d="M 1558.4 251.3 C 1520.3 137 1396.8 72.7 1279.6 110.9 C 1164 148.6 1099.2 273.3 1138.4 391.4 C 1176.4 505.9 1300 570 1417.2 531.7 C 1532.7 494.1 1597.5 369.5 1558.4 251.3 Z M 1286.9 107 C 1290.7 106.1 1294.6 105.2 1298.5 104.3 C 1320.9 99.1 1343.6 97.5 1366.6 99.3 C 1396.5 101.8 1424.8 110 1451.4 123.8 C 1484.3 141.1 1511.2 165 1532.3 195.6 C 1541.8 209.4 1549.5 224.1 1555.6 239.6 C 1556 240.5 1556.5 241.4 1556.9 242.3 C 1558.8 248.1 1560.8 254 1562.7 259.9 C 1563.6 263.6 1564.5 267.5 1565.5 271.2 C 1570.8 294.6 1572.5 318.2 1570.2 342.1 C 1567.5 370.9 1559.5 398.1 1546.2 423.7 C 1530.6 453.8 1509.3 479.1 1482 499.5 C 1469.5 509 1456 517 1441.8 523.6 C 1426.2 530.8 1410 536.3 1393.2 539.6 C 1353.7 547.6 1314.7 545.1 1276.5 532.2 C 1247.8 522.5 1222.3 507.5 1199.8 487.3 C 1180.9 470.5 1165.4 450.9 1153.2 428.7 C 1143 410.2 1135.5 390.6 1131 369.9 C 1121.4 326.2 1124.5 283.5 1140.4 241.7 C 1154.3 205.2 1176.5 174.5 1206.5 149.6 C 1221.3 137.3 1237.5 127.1 1255 119.2 C 1259.8 116.9 1264.8 114.9 1269.6 112.8 C 1275.4 110.9 1281.2 109 1286.9 107 Z" fill="white"/>
<path fill-rule="evenodd" clip-rule="evenodd" d="M 1565.5 248.9 C 1526 130.7 1398.5 64.3 1277.2 103.8 C 1157.8 142.7 1090.7 271.7 1131.3 393.8 C 1170.6 512.1 1298.3 578.4 1419.5 538.9 C 1539 499.9 1605.9 371.1 1565.5 248.9 Z M 1284.8 99.7 C 1288.8 98.8 1292.8 97.8 1296.7 96.9 C 1320 91.5 1343.5 89.8 1367.2 91.8 C 1398.2 94.4 1427.4 102.8 1454.9 117.2 C 1488.9 135 1516.8 159.7 1538.5 191.4 C 1548.3 205.6 1556.3 220.8 1562.6 236.8 C 1563 237.8 1563.5 238.7 1563.9 239.6 C 1565.9 245.6 1568 251.7 1570 257.8 C 1570.9 261.7 1571.9 265.6 1572.8 269.5 C 1578.4 293.7 1580 318.2 1577.7 342.9 C 1574.9 372.5 1566.7 400.7 1552.9 427.2 C 1536.8 458.3 1514.6 484.5 1486.6 505.6 C 1473.6 515.3 1459.7 523.6 1444.9 530.5 C 1428.8 538 1412.1 543.5 1394.7 547 C 1353.8 555.2 1313.6 552.7 1274 539.3 C 1244.5 529.3 1218 513.8 1194.7 493 C 1175.3 475.5 1159.2 455.3 1146.6 432.3 C 1136 413.2 1128.2 392.9 1123.6 371.5 C 1113.7 326.4 1116.9 282.2 1133.3 239 C 1147.7 201.3 1170.6 169.6 1201.7 143.8 C 1217 131 1233.7 120.5 1251.8 112.3 C 1256.8 110 1261.9 107.9 1267 105.7 C 1272.9 103.7 1278.9 101.7 1284.8 99.7 Z" fill="white"/>
<path fill-rule="evenodd" clip-rule="evenodd" d="M 1484 392.5 C 1502.2 395.8 1517.2 404.4 1529.1 418.5 C 1522.8 401.1 1522.8 383.7 1529.1 366.2 C 1517.2 380.5 1502.3 389.2 1484 392.5 Z M 1360 464.6 C 1378.3 467.7 1393.4 476.4 1405.4 490.6 C 1399 473.1 1399 455.7 1405.2 438.2 C 1399.4 445.1 1392.7 450.9 1385 455.4 C 1377.2 460 1368.8 462.9 1360 464.6 Z M 1400.2 500.3 C 1381.8 497.2 1366.7 488.6 1354.6 474.4 C 1360.8 491.8 1360.9 509.1 1354.7 526.4 C 1366.8 512.3 1381.8 503.5 1400.2 500.3 Z M 1478.1 383.2 C 1490 368.9 1505 360.1 1523.3 356.8 C 1505 353.6 1490 344.8 1478 330.6 C 1484.5 348.1 1484.4 365.7 1478.1 383.2 Z M 1461.5 392.6 C 1443.3 389.6 1428.2 380.8 1416.2 366.7 C 1422.5 384.1 1422.5 401.5 1416.3 419 C 1428.2 404.7 1443.3 395.9 1461.5 392.6 Z M 1343.1 454.8 C 1336.9 437.5 1336.8 420.2 1343 402.9 C 1337.1 409.8 1330.4 415.6 1322.5 420 C 1314.7 424.5 1306.3 427.4 1297.5 429 C 1306.3 430.5 1314.8 433.3 1322.6 437.7 C 1330.4 442.2 1337.2 448 1343.1 454.8 Z M 1281 419.3 C 1274.7 401.8 1274.7 384.5 1281 367.1 C 1268.9 381.4 1253.8 390.1 1235.4 393.4 C 1253.8 396.5 1269 405.1 1281 419.3 Z M 1421.8 428.5 C 1440.1 431.8 1455.2 440.4 1467.3 454.5 C 1464.2 445.9 1462.5 437.2 1462.6 428.2 C 1462.6 419.2 1464.2 410.6 1467.3 402.1 C 1461.5 409 1454.8 414.9 1447.1 419.4 C 1439.2 424 1430.8 427 1421.8 428.5 Z M 1478.5 454.5 C 1490.5 440.4 1505.5 431.6 1523.8 428.3 C 1514.8 426.8 1506.5 423.9 1498.7 419.4 C 1490.8 414.9 1484.1 409.2 1478.3 402.2 C 1484.6 419.7 1484.7 437 1478.5 454.5 Z M 1219.2 383.8 C 1212.7 366.1 1212.6 348.8 1218.9 331.4 C 1207 345.7 1191.9 354.4 1173.4 357.6 C 1198 364.4 1200.8 365.8 1219.2 383.8 Z M 1354.4 454.9 C 1360.2 448.1 1366.9 442.2 1374.7 437.7 C 1382.5 433.2 1390.9 430.2 1399.9 428.7 C 1381.5 425.6 1366.2 416.9 1354.2 402.5 C 1360.7 420 1360.6 437.5 1354.4 454.9 Z M 1275.9 429.1 C 1257.5 425.9 1242.4 417.3 1230.3 403.2 C 1236.6 420.6 1236.7 438 1230.3 455.4 C 1242.4 441.1 1257.5 432.3 1275.9 429.1 Z M 1280.9 276.2 C 1277.7 267.4 1276 258.9 1275.9 250 C 1275.9 241.1 1277.6 232.5 1280.4 224 C 1268.4 238.2 1253.3 246.9 1234.8 250 C 1256.8 255.4 1263.3 258.4 1280.9 276.2 Z M 1235.2 321.7 C 1253.6 324.8 1268.7 333.4 1280.9 347.6 C 1274.5 330.3 1274.5 313 1280.6 295.7 C 1268.6 309.8 1253.5 318.4 1235.2 321.7 Z M 1291.7 204.3 C 1303.7 190.1 1318.8 181.5 1337 178.2 C 1318.6 175 1303.4 166.2 1291.4 151.9 C 1294.5 160.5 1296.3 169.1 1296.3 178.1 C 1296.3 187.1 1294.8 195.8 1291.7 204.3 Z M 1343.3 474.3 C 1331.4 488.6 1316.4 497.3 1298.1 500.7 C 1307 502.2 1315.4 505.1 1323.2 509.6 C 1331 514 1337.7 519.8 1343.6 526.6 C 1337.2 509.2 1337.2 491.8 1343.3 474.3 Z M 1399.9 357 C 1381.4 353.9 1366.1 345.2 1354 330.8 C 1360.3 348.3 1360.5 365.7 1354.3 383.2 C 1366.4 368.9 1381.5 360.1 1399.9 357 Z M 1168.3 419.8 C 1174.1 412.8 1180.8 407 1188.7 402.5 C 1196.6 397.9 1205 395 1214.1 393.4 C 1195.5 390.4 1180.2 381.7 1168 367.3 C 1174.5 384.8 1174.6 402.2 1168.3 419.8 Z M 1230 312.1 C 1242 297.8 1257.1 289 1275.5 285.8 C 1257.1 282.7 1241.9 274 1229.8 259.8 C 1236.1 277.3 1236.2 294.7 1230 312.1 Z M 1292.5 438.9 C 1298.7 456.3 1298.8 473.7 1292.4 491.2 C 1304.3 476.8 1319.3 468.1 1337.7 464.7 C 1319.5 461.4 1304.5 452.9 1292.5 438.9 Z M 1416.6 490.5 C 1422.5 483.6 1429.1 477.8 1436.9 473.3 C 1444.6 468.8 1453 466 1461.8 464.2 C 1452.9 462.6 1444.5 459.8 1436.7 455.3 C 1428.9 450.8 1422.2 445 1416.3 438.2 C 1422.8 455.6 1422.8 473 1416.6 490.5 Z M 1467.2 383.2 C 1460.7 365.5 1460.8 348 1467.1 330.4 C 1455.1 344.9 1439.9 353.8 1421.4 357 C 1439.9 360.1 1455.1 368.8 1467.2 383.2 Z M 1168.1 348.1 C 1173.9 341.1 1180.7 335.3 1188.6 330.8 C 1196.4 326.3 1204.8 323.4 1213.6 321.8 C 1195.2 318.7 1180 310 1167.9 295.7 C 1174.3 313.2 1174.3 330.6 1168.1 348.1 Z M 1337.7 321.4 C 1319.3 318.3 1304 309.6 1292 295.4 C 1298.3 312.9 1298.3 330.3 1292.1 347.8 C 1304.1 333.3 1319.3 324.7 1337.7 321.4 Z M 1292.3 419.4 C 1304.3 405 1319.5 396.3 1337.9 393.1 C 1328.9 391.5 1320.5 388.7 1312.7 384.2 C 1304.8 379.7 1298.1 374 1292.2 367.1 C 1298.6 384.5 1298.5 401.8 1292.3 419.4 Z M 1529 294.6 C 1523.2 301.5 1516.5 307.4 1508.7 311.9 C 1500.9 316.4 1492.5 319.4 1483.6 321 C 1492.7 322.6 1501.1 325.6 1508.9 330.1 C 1516.7 334.5 1523.4 340.4 1529.2 347.3 C 1522.7 329.7 1522.7 312.1 1529 294.6 Z M 1229.7 240.5 C 1241.7 226.1 1256.8 217.3 1275.3 214.1 C 1256.7 211 1241.5 202.2 1229.4 187.8 C 1236 205.4 1236 222.9 1229.7 240.5 Z M 1399.5 285.4 C 1390.5 283.8 1382 280.9 1374.1 276.4 C 1366.2 271.8 1359.5 266 1353.7 259.1 C 1360.2 276.7 1360.2 294.3 1353.9 311.9 C 1365.9 297.4 1381 288.6 1399.5 285.4 Z M 1466.9 311.4 C 1460.5 293.9 1460.5 276.4 1466.9 258.9 C 1454.9 273.3 1439.8 282.1 1421.3 285.4 C 1439.7 288.5 1454.8 297.2 1466.9 311.4 Z M 1296.9 214.1 C 1305.9 215.5 1314.3 218.5 1322.2 223 C 1330 227.5 1336.8 233.3 1342.7 240.2 C 1336.3 222.7 1336.3 205.4 1342.5 187.9 C 1330.3 202.2 1315.3 210.9 1296.9 214.1 Z M 1281.2 438.7 C 1269.2 453.1 1254 461.8 1235.6 465 C 1254.2 468.1 1269.4 476.8 1281.5 491.2 C 1275 473.7 1275 456.3 1281.2 438.7 Z M 1167.8 224.1 C 1174.1 241.6 1174.1 259 1167.8 276.6 C 1179.7 262.2 1194.8 253.5 1213 250.1 C 1194.8 246.8 1179.7 238.3 1167.8 224.1 Z M 1172.7 214.4 C 1191.1 217.5 1206.3 226.2 1218.5 240.4 C 1212.3 222.9 1212.2 205.5 1218.5 188.1 C 1206.4 202.5 1191.2 211.3 1172.7 214.4 Z M 1353.8 168.3 C 1359.6 161.4 1366.3 155.6 1374.1 151.1 C 1382 146.6 1390.4 143.6 1399.4 142.2 C 1380.9 139.1 1365.7 130.4 1353.6 116.2 C 1359.8 133.6 1359.9 150.9 1353.8 168.3 Z M 1172.8 286.1 C 1181.8 287.6 1190.3 290.5 1198.2 294.9 C 1206 299.4 1212.8 305.3 1218.8 312 C 1215.6 303.5 1214.1 294.9 1214 285.9 C 1213.9 277 1215.6 268.3 1218.6 259.8 C 1206.4 274.2 1191.3 282.9 1172.8 286.1 Z M 1296.7 142.5 C 1315.3 145.5 1330.5 154.4 1342.7 168.8 C 1336.1 151.2 1336.1 133.8 1342.3 116.2 C 1330.3 130.5 1315.1 139.3 1296.7 142.5 Z M 1404.5 151.8 C 1392.5 166 1377.4 174.8 1359.1 178.1 C 1377.5 181.3 1392.7 190 1404.8 204.4 C 1398.2 186.8 1398.2 169.4 1404.5 151.8 Z M 1230.2 383.7 C 1242.2 369.3 1257.4 360.7 1275.8 357.4 C 1257.3 354.4 1242.1 345.5 1230 331.3 C 1236.4 348.8 1236.5 366.1 1230.2 383.7 Z M 1353.9 240 C 1365.9 225.7 1381 216.9 1399.5 213.8 C 1381 210.7 1365.7 201.9 1353.5 187.5 C 1356.6 196 1358.3 204.7 1358.4 213.6 C 1358.4 222.6 1356.9 231.3 1353.9 240 Z M 1343 383.4 C 1339.9 374.9 1338.3 366.1 1338.3 357.1 C 1338.3 348.1 1339.9 339.4 1342.9 330.9 C 1337.1 337.9 1330.3 343.7 1322.5 348.3 C 1314.6 352.8 1306.1 355.8 1297.1 357.3 C 1306.1 358.9 1314.5 361.7 1322.5 366.2 C 1330.3 370.7 1337.2 376.5 1343 383.4 Z M 1405 366.7 C 1393 381 1377.8 389.7 1359.4 393 C 1378 396.1 1393.1 404.9 1405.2 419.1 C 1398.8 401.6 1398.7 384.2 1405 366.7 Z M 1291.5 223.5 C 1298 240.9 1298.1 258.3 1292 275.8 C 1303.9 261.7 1319 253 1337.2 249.8 C 1318.7 246.5 1303.6 237.7 1291.5 223.5 Z M 1461.3 321.1 C 1442.8 317.7 1427.7 309 1415.6 294.5 C 1418.9 303 1420.6 311.8 1420.6 320.8 C 1420.7 329.9 1419 338.7 1416.1 347.4 C 1421.9 340.5 1428.5 334.7 1436.2 330.2 C 1444 325.7 1452.3 322.7 1461.3 321.1 Z M 1296.6 285.8 C 1315.6 288.8 1330.9 297.6 1343 312 C 1336.4 294.4 1336.4 276.9 1342.8 259.2 C 1327.7 275.5 1320 280 1296.6 285.8 Z M 1173.5 429.4 C 1182.6 430.9 1191 434 1198.9 438.4 C 1206.8 442.9 1213.5 448.8 1219.3 455.7 C 1212.8 438.1 1212.8 420.6 1219.1 403.1 C 1207.1 417.5 1191.9 426.2 1173.5 429.4 Z M 1280.5 152 C 1268.5 166.4 1253.3 175.1 1234.9 178.4 C 1253.4 181.6 1268.6 190.4 1280.6 204.7 C 1274.2 187.1 1274.1 169.6 1280.5 152 Z M 1359.4 321.4 C 1377.9 324.6 1393.1 333.3 1405.1 347.7 C 1398.6 330.1 1398.5 312.6 1404.8 294.9 C 1392.8 309.4 1377.7 318 1359.4 321.4 Z M 1415.8 275.9 C 1427.7 261.5 1442.9 252.7 1461.3 249.4 C 1442.9 246.2 1427.7 237.5 1415.6 223.2 C 1422.2 240.7 1422.2 258.3 1415.8 275.9 Z M 1483.3 249.4 C 1501.7 252.5 1516.9 261.3 1529 275.6 C 1522.4 258 1522.5 240.4 1528.9 222.8 C 1516.9 237.2 1501.7 246 1483.3 249.4 Z M 1523.8 285.1 C 1505.1 282 1489.8 273.1 1477.7 258.7 C 1484.3 276.3 1484.3 293.9 1478 311.5 C 1490.1 297.1 1505.2 288.3 1523.8 285.1 Z M 1359.2 249.7 C 1377.7 252.9 1392.9 261.7 1404.9 276 C 1398.5 258.4 1398.4 240.9 1404.8 223.3 C 1392.8 237.7 1377.7 246.4 1359.2 249.7 Z M 1421 213.7 C 1429.9 215.2 1438.4 218.1 1446.2 222.6 C 1454.2 227.1 1460.9 233 1466.9 240 C 1460.4 222.4 1460.4 205 1466.7 187.4 C 1454.6 201.7 1439.5 210.5 1421 213.7 Z M 1415.6 151.8 C 1418.7 160.3 1420.4 169.1 1420.4 178.2 C 1420.4 187.2 1418.6 195.9 1415.6 204.4 C 1427.7 189.8 1443 181 1461.6 177.8 C 1443 174.7 1427.8 166 1415.6 151.8 Z M 1477.7 187.2 C 1480.7 195.8 1482.4 204.5 1482.5 213.6 C 1482.5 222.7 1480.8 231.5 1477.8 240 C 1489.8 225.5 1505.2 216.7 1523.8 213.5 C 1505.2 210.3 1489.8 201.6 1477.7 187.2 Z M 1164.3 430.5 C 1176.4 451.1 1200.7 464.4 1223.1 464.1 C 1217.5 447.7 1181.9 427.3 1164.3 430.5 Z M 1473.8 248.7 C 1488.2 248.2 1501.1 244 1512.8 235.9 C 1520.9 230.2 1527.6 223.2 1532.8 214.4 C 1511.1 214.3 1486.3 226.9 1473.8 248.7 Z M 1473.8 178.8 C 1485.5 199.2 1510.2 212.7 1532.5 212.4 C 1527 196 1491 175.4 1473.8 178.8 Z M 1534.6 354.8 C 1546.1 340.6 1546 301.6 1534.5 287.1 C 1523.1 301 1523.1 339.9 1534.6 354.8 Z M 1410.3 283.5 C 1421.8 268.6 1421.7 229.2 1410.2 215.7 C 1398.6 235.2 1398.5 263.2 1410.3 283.5 Z M 1472.4 247.9 C 1479.1 235.2 1481.9 222.2 1480.9 208.2 C 1480.2 198.1 1477.3 188.6 1472.2 179.3 C 1465.6 191.6 1462.7 204.3 1463.5 217.8 C 1464.2 228.3 1467.1 238.3 1472.4 247.9 Z M 1409.1 356 C 1403 345.9 1394.8 338 1384.8 332 C 1374.1 325.7 1362.5 322.4 1350 322.1 C 1357.9 340.1 1390.1 358.5 1409.1 356 Z M 1163.7 215.4 C 1169.6 232 1203.3 251.4 1222.5 249.2 C 1216.7 232.6 1182.8 213 1163.7 215.4 Z M 1411.7 213 C 1425.4 212.6 1437.8 208.7 1449.1 201.3 C 1458 195.5 1465.2 188 1470.8 178.7 C 1448.3 178.6 1423.8 191.7 1411.7 213 Z M 1532.8 284.1 C 1524.6 266.1 1491.4 247.1 1474 250.4 C 1480.2 267.1 1513.6 286.3 1532.8 284.1 Z M 1411.5 143 C 1423.8 164.2 1448.6 177.3 1470.4 176.8 C 1460.4 158.5 1436.8 142.9 1411.5 143 Z M 1225.8 321 C 1239.4 320.6 1251.6 316.8 1262.8 309.6 C 1271.8 303.7 1279.2 296.1 1284.8 286.7 C 1262.4 286.6 1238.1 299.6 1225.8 321 Z M 1349.7 179 C 1356.8 196.4 1390.7 215.8 1408.5 212.8 C 1402.4 196 1367.9 176.2 1349.7 179 Z M 1163.8 285.4 C 1178.6 284.8 1191.8 280.4 1203.6 271.9 C 1211.4 266.3 1217.8 259.4 1222.8 251 C 1199 251.1 1175.1 265 1163.8 285.4 Z M 1348.2 251.5 C 1336.7 267.6 1336.8 304.3 1348.4 319.4 C 1360 305.1 1359.9 268.4 1348.2 251.5 Z M 1471.1 320.2 C 1463.7 308.2 1453.9 299.2 1441.5 293.2 C 1432.2 288.7 1422.4 286.3 1411.9 286.1 C 1419.3 303.8 1450.5 321.8 1471.1 320.2 Z M 1346.6 248.8 C 1339.6 231.5 1305.9 212.1 1287.8 215 C 1293.6 231.7 1327.9 251.4 1346.6 248.8 Z M 1472.4 322.7 C 1466 334.5 1463.2 346.8 1463.8 359.8 C 1464.3 370.8 1467.1 381.2 1472.6 391 C 1484.7 370.2 1484 342.3 1472.4 322.7 Z M 1346.7 322.3 C 1328.5 319.6 1294.9 339.2 1288.1 356.4 C 1306.9 358.8 1340.8 339.1 1346.7 322.3 Z M 1346.9 320.6 C 1339.9 303.2 1306.5 284.1 1287.9 286.7 C 1297.5 304.1 1320.5 320.5 1346.9 320.6 Z M 1348.2 179.9 C 1336.6 193.6 1336.7 234.4 1348.4 248 C 1354.8 236.2 1357.7 223.6 1356.9 210.3 C 1356.4 199.6 1353.5 189.4 1348.2 179.9 Z M 1473 462.6 C 1479.7 450.1 1482.5 437.1 1481.5 423.2 C 1480.7 413 1477.9 403.4 1472.8 394.3 C 1461.2 410.8 1461.3 447 1473 462.6 Z M 1408.6 141.2 C 1402 130.3 1393.2 121.9 1382.1 115.9 C 1372 110.4 1361.1 107.4 1349.3 107.3 C 1362.1 129.1 1386.8 141.6 1408.6 141.2 Z M 1474.5 463.3 C 1493.4 465.7 1526.4 446.5 1533.2 429.2 C 1515 426.5 1481.2 446.1 1474.5 463.3 Z M 1409.5 427.7 C 1401.5 415.1 1391 405.8 1377.7 399.9 C 1369 395.9 1359.9 393.9 1350.1 393.8 C 1362 414.8 1386.9 428.1 1409.5 427.7 Z M 1410.4 287.2 C 1398.9 302.3 1399 340.9 1410.5 355.1 C 1421 337.8 1423.3 310 1410.4 287.2 Z M 1287.3 143.2 C 1300.1 165 1324.9 177.6 1346.6 177.2 C 1341.3 168.3 1334.3 161.1 1325.9 155.4 C 1314.3 147.6 1301.5 143.6 1287.3 143.2 Z M 1471.3 465 C 1457.8 465.4 1445.5 469.2 1434.3 476.5 C 1425.3 482.4 1417.9 489.9 1412.3 499.4 C 1432.9 500.9 1465.3 481.9 1471.3 465 Z M 1222.9 320.8 C 1210.4 299.3 1185.3 286.5 1163.9 287.1 C 1175 306.9 1199.4 321.1 1222.9 320.8 Z M 1286.2 215.9 C 1274.6 230.8 1274.7 269.9 1286.3 283.8 C 1297.2 265.8 1298.8 237.9 1286.2 215.9 Z M 1225.4 179.3 C 1233 191.6 1243.1 200.7 1255.9 206.7 C 1264.9 210.9 1274.4 213.2 1284.6 213.3 C 1272.8 192.9 1249 179.2 1225.4 179.3 Z M 1347.2 392.1 C 1340.7 381.3 1331.9 373 1321 366.9 C 1310.8 361.3 1299.8 358.4 1287.9 358.2 C 1299.4 378.3 1323.7 392.4 1347.2 392.1 Z M 1408.8 284.5 C 1402.8 273.9 1391.4 262.8 1377.3 256.6 C 1368.6 252.7 1359.4 250.6 1349.7 250.5 C 1360.9 270.4 1385.2 284.8 1408.8 284.5 Z M 1226.3 464.3 C 1241.6 463.7 1255.2 459.1 1267.3 450 C 1274.6 444.6 1280.7 437.9 1285.4 429.8 C 1260.6 430.1 1237.5 444.6 1226.3 464.3 Z M 1285 358.3 C 1259.8 358.4 1236.3 373.9 1226.2 392.5 C 1245.5 394.7 1277.4 376.1 1285 358.3 Z M 1285 284.9 C 1278.2 273.9 1269.4 265.5 1258.4 259.5 C 1248.2 254 1237.4 251.1 1225.6 250.9 C 1237.1 270.9 1261.3 285.1 1285 284.9 Z M 1284.5 143.2 C 1269.9 143.7 1256.8 148 1245 156.3 C 1237.1 161.9 1230.5 169 1225.4 177.6 C 1248.7 177.7 1273.2 163.6 1284.5 143.2 Z M 1288.2 428.3 C 1302.4 427.9 1315.1 423.7 1326.6 415.9 C 1335.1 410.1 1342 402.9 1347.3 394 C 1325.9 393.6 1300.5 406.4 1288.2 428.3 Z M 1472.5 319.7 C 1478.8 308.1 1481.7 296.1 1481.3 283.4 C 1480.9 271.9 1478.1 261.2 1472.3 250.9 C 1465.9 262.9 1463.1 275.2 1463.6 288.4 C 1464.1 299.4 1467.1 309.6 1472.5 319.7 Z M 1286.3 212.4 C 1292.9 200.1 1295.7 187.1 1294.8 173.5 C 1294.1 163.1 1291.2 153.3 1286.1 144.1 C 1274.5 159.8 1274.5 197.2 1286.3 212.4 Z M 1350 392.2 C 1364.5 391.9 1377.3 387.6 1389 379.5 C 1397.2 373.8 1403.9 366.7 1409.2 357.8 C 1386.5 357.8 1362 371.1 1350 392.2 Z M 1285 356.6 C 1281.6 347.7 1266 333.9 1253.2 328.4 C 1244.5 324.7 1235.5 322.5 1225.8 322.5 C 1231.4 333.1 1243.7 344.1 1256.4 350 C 1265.4 354.2 1274.9 356.4 1285 356.6 Z M 1226 394.3 C 1233.5 406.4 1243.4 415.3 1255.9 421.3 C 1265.1 425.8 1274.9 428.1 1285.4 428.3 C 1273.2 407.2 1248.4 393.9 1226 394.3 Z M 1348.1 176.3 C 1359.7 159.8 1359.5 122.4 1347.9 108.3 C 1336.3 122.7 1336.4 159.8 1348.1 176.3 Z M 1223.2 392.7 C 1212.1 372.9 1187.8 358.3 1163.9 358.7 C 1169 367.2 1175.7 374.2 1183.7 379.9 C 1195.5 388.1 1208.6 392.3 1223.2 392.7 Z M 1410.1 143.8 C 1398.5 159.2 1398.6 196.2 1410.3 212 C 1415.6 202.3 1418.4 192.1 1418.9 181.2 C 1419.5 168 1416.5 155.6 1410.1 143.8 Z M 1346.4 107.4 C 1326.4 105.5 1294.1 124.3 1287.6 141.5 C 1308.5 141.9 1334 129.4 1346.4 107.4 Z M 1288.2 429.8 C 1295 447 1328.2 466.1 1347.5 463.7 C 1342.3 455.1 1335.6 448.1 1327.5 442.5 C 1315.7 434.3 1302.7 430.1 1288.2 429.8 Z M 1349.3 177.4 C 1363.5 177 1376.1 173 1387.5 165.4 C 1396.2 159.5 1403.2 152.2 1408.7 142.8 C 1394.2 143.3 1381.3 147.5 1369.7 155.5 C 1361.5 161.3 1354.7 168.4 1349.3 177.4 Z M 1411.4 214.4 C 1418.7 226.2 1428.2 235 1440.2 241 C 1449.7 245.9 1459.9 248.5 1471.1 248.7 C 1463.7 236.7 1454 227.8 1441.8 221.7 C 1432.4 217.1 1422.3 214.7 1411.4 214.4 Z M 1410.5 358.8 C 1399 374.3 1399.2 412 1410.7 426.8 C 1422.2 413.4 1422.2 374.7 1410.5 358.8 Z M 1409.3 429.3 C 1396 429.8 1383.8 433.4 1372.7 440.6 C 1363.5 446.5 1356 454.2 1350.3 463.7 C 1370.5 465.5 1403 446.5 1409.3 429.3 Z M 1350 320.5 C 1370.3 322.1 1402 303.7 1408.7 286.3 C 1390.8 283.4 1357.8 302.6 1350 320.5 Z M 1534.7 358.4 C 1523.1 373.5 1523.2 411.8 1534.8 426.4 C 1545.7 408.5 1547.3 380.3 1534.7 358.4 Z M 1474 320.1 C 1484.2 320.5 1499.7 316.8 1512.4 308 C 1520.8 302.1 1527.8 294.9 1533.2 285.8 C 1519.1 286.2 1506.4 290.2 1495 297.9 C 1486.4 303.7 1479.4 311 1474 320.1 Z M 1224 180 C 1217.2 192.5 1214.4 205.6 1215.4 219.5 C 1216.2 229.8 1219 239.4 1224.1 248.5 C 1235.5 228.7 1236.3 201.6 1224 180 Z M 1164 356.9 C 1183.4 359 1216.1 339.9 1222.8 322.7 C 1204.8 319.8 1172.7 338.4 1164 356.9 Z M 1288.5 499.8 C 1299.7 499.9 1314.1 496.3 1326.3 487.9 C 1335 482 1342.1 474.7 1347.5 465.6 C 1325.7 465.2 1300.6 478.3 1288.5 499.8 Z M 1162.7 427.6 C 1168 419.2 1172.5 403.9 1171.3 388.6 C 1170.5 378.3 1167.7 368.6 1162.6 359.4 C 1150.1 381.1 1151.6 408.8 1162.7 427.6 Z M 1349.2 534.5 C 1355.1 525.6 1358.7 509.4 1357.7 495.5 C 1357 485.1 1354.1 475.4 1349 466.3 C 1337.3 482.7 1337.4 519.8 1349.2 534.5 Z M 1286.6 430.7 C 1280 443.1 1277.2 456.1 1278.2 469.9 C 1278.9 480.2 1281.7 489.9 1286.8 499 C 1298.5 484.5 1298.3 446.8 1286.6 430.7 Z M 1533 357.6 C 1514.8 354.9 1480.2 375 1474.3 391.7 C 1493.2 394.1 1527.3 374.3 1533 357.6 Z M 1226.3 466 C 1239.4 488 1264 500.1 1285.4 499.8 C 1278 482.2 1244.1 462.8 1226.3 466 Z M 1411.9 356.3 C 1427.8 355.7 1441.7 350.8 1454 341.3 C 1460.9 335.9 1466.7 329.6 1471.1 321.8 C 1447.5 321.9 1423.5 335.7 1411.9 356.3 Z M 1410.7 430.2 C 1403.9 442.8 1401.1 456 1402.2 469.9 C 1403 480 1405.9 489.6 1410.9 498.6 C 1422.7 478.6 1422.8 450.9 1410.7 430.2 Z M 1223.3 394.1 C 1209.3 394.6 1196.8 398.5 1185.5 406 C 1176.7 411.9 1169.6 419.3 1164.1 428.5 C 1185.5 429 1211 415.9 1223.3 394.1 Z M 1408.7 214.6 C 1398.2 214.4 1383 218 1370 227 C 1361.7 232.8 1354.8 240 1349.6 248.8 C 1372 249 1396.6 235.9 1408.7 214.6 Z M 1287.7 213.2 C 1306.2 215.8 1340.4 195.8 1346.5 179 C 1327.4 176.7 1293.8 196.3 1287.7 213.2 Z M 1411.8 284.7 C 1426.2 284.3 1439.1 280 1450.8 271.9 C 1459 266.3 1465.8 259 1471 250.2 C 1445.8 250.4 1422.5 265.4 1411.8 284.7 Z M 1350.7 535.4 C 1375.7 535.4 1399.6 519.7 1409.4 501.1 C 1390 499.1 1357.9 517.8 1350.7 535.4 Z M 1534.1 215.2 C 1527.8 226.9 1524.9 239.3 1525.5 252.5 C 1526.1 263.5 1528.9 273.8 1534.3 283.5 C 1546.1 267.4 1545.9 230 1534.1 215.2 Z M 1412 357.7 C 1419.8 375.7 1453 394.7 1471 391.7 C 1468.2 385.6 1459 375.1 1448.9 368.8 C 1437.6 361.8 1425.5 358 1412 357.7 Z M 1471.4 463.4 C 1464.8 446.2 1430.3 426.4 1412.4 429.5 C 1418.3 446.3 1452.2 465.7 1471.4 463.4 Z M 1412.3 427.8 C 1424.1 428 1440.4 423.5 1453.5 413.5 C 1460.7 407.9 1466.7 401.4 1471.3 393.4 C 1447.1 393.4 1423.2 407.9 1412.3 427.8 Z M 1225.7 249.2 C 1245.7 251 1278.5 231.9 1284.5 215 C 1266.5 212.1 1233.3 231.4 1225.7 249.2 Z M 1287.5 285 C 1301.1 284.6 1313.3 280.9 1324.4 273.8 C 1333.6 267.9 1341.2 260.2 1346.9 250.5 C 1333.3 250.8 1321 254.6 1309.8 261.8 C 1300.7 267.7 1293.3 275.4 1287.5 285 Z M 1347.7 535.4 C 1342.5 525.9 1331.5 514.7 1318 508.4 C 1308.7 504 1298.9 501.6 1288.4 501.5 C 1300.3 522.2 1324.9 535.8 1347.7 535.4 Z M 1162.3 288 C 1150.8 302.1 1150.9 341 1162.5 355.9 C 1174.1 341.4 1173.9 302.7 1162.3 288 Z M 1222.4 179.4 C 1204.3 176.5 1170.8 195.9 1163.6 213.5 C 1181.9 216.2 1215.8 196.6 1222.4 179.4 Z M 1350.5 465.6 C 1356.3 482.2 1391.8 502.4 1409.4 499.3 C 1403.4 482.6 1369 462.9 1350.5 465.6 Z M 1224.8 463.4 C 1236.3 448.3 1236.3 409.7 1224.6 395.2 C 1213.8 413.2 1212 441 1224.8 463.4 Z M 1224.5 320.1 C 1231.5 307.1 1234.3 293.6 1232.8 279.1 C 1232 269.4 1229.1 260.4 1224.2 251.7 C 1212.6 268.7 1212.7 304.3 1224.5 320.1 Z M 1348.4 323.1 C 1342.5 332.8 1338.6 347.7 1339.8 362.3 C 1340.6 372.6 1343.4 382.3 1348.6 391.4 C 1360.9 370.3 1359.8 342.3 1348.4 323.1 Z M 1348.5 394.6 C 1341.8 407.2 1338.9 420.4 1340.1 434.3 C 1340.8 444.4 1343.7 454 1348.8 463 C 1360.4 447 1360.3 411.4 1348.5 394.6 Z M 1224.3 323.3 C 1218.1 334.9 1215.2 347 1215.6 359.9 C 1216 371.2 1219 381.8 1224.5 391.9 C 1236.8 371.1 1236 342.9 1224.3 323.3 Z M 1286.4 359 C 1279.4 372 1276.8 385.7 1278.1 400.2 C 1279 410.7 1284.1 424.5 1286.8 427.2 C 1299.6 405.3 1297.4 376.7 1286.4 359 Z M 1286.6 355.8 C 1293.4 343.3 1296.2 330.2 1295.1 316.3 C 1294.4 306 1291.5 296.5 1286.4 287.3 C 1274.1 308.1 1275 336.5 1286.6 355.8 Z M 1533.1 355.8 C 1525.2 337.9 1492.2 318.9 1474 322 C 1480.8 339.2 1514.7 358.7 1533.1 355.8 Z M 1162 216.3 C 1150.5 230.5 1150.6 269.9 1162.2 284.2 C 1173.8 270.8 1173.7 230 1162 216.3 Z M 1533.5 427.4 C 1526.8 416.4 1518 408 1507 402 C 1496.8 396.4 1485.9 393.5 1474.2 393.3 C 1482.6 411.7 1514.4 430 1533.5 427.4 Z M 1543.1 410.3 C 1569.1 350.8 1569 291.2 1542.8 231.7 C 1542.6 232 1542.6 232.4 1542.7 232.7 C 1546.8 250.5 1544.5 267.5 1536 283.7 C 1535.3 284.9 1535.6 285.7 1536.1 286.8 C 1547.8 309.6 1547.7 332.5 1536.1 355.3 C 1535.6 356.4 1535.6 357.1 1536.1 358.1 C 1540.9 366.8 1543.8 376.2 1544.7 386.1 C 1545.4 394.3 1544.7 402.3 1543.1 410.3 Z M 1523.9 444.4 C 1523.8 444.3 1523.7 444.2 1523.6 444.1 C 1523.5 444.1 1523.3 444.1 1523.2 444.2 C 1509.6 457.3 1493.3 464.2 1474.4 464.9 C 1473.7 464.9 1472.9 465.6 1472.5 466.2 C 1467.7 473.9 1461.8 480.5 1454.7 486 C 1442.4 495.3 1428.5 500.2 1413.1 500.8 C 1412 500.9 1411.3 501 1410.7 502.1 C 1402.3 515.7 1390.8 525.6 1376 531.6 C 1373.7 532.5 1371.4 533.4 1369.1 534.2 C 1433.9 527 1485.5 496.9 1523.9 444.4 Z M 1367.7 107.9 C 1367.6 108 1367.6 108.2 1367.5 108.4 C 1367.7 108.5 1368 108.6 1368.4 108.7 C 1386.1 114.1 1399.9 124.7 1409.7 140.4 C 1410.4 141.5 1411.2 141.5 1412.2 141.5 C 1437.9 142.8 1457.7 154.3 1471.7 175.9 C 1472.4 176.9 1473 177.1 1474.1 177.1 C 1490.8 177.7 1505.7 183.2 1518.5 193.8 C 1520 195 1521.4 196.3 1522.8 197.5 C 1522.9 197.4 1523 197.2 1523.1 197.1 C 1484.2 144.9 1432.5 115.1 1367.7 107.9 Z M 1173.3 444.6 C 1185.2 461.6 1199.4 476.6 1215.7 489.5 C 1232 502.4 1249.9 512.7 1269.3 520.4 C 1286.9 527.3 1323.2 535.8 1329.3 534.3 C 1328.9 534.1 1328.4 534 1328.1 533.9 C 1310.6 528.5 1297 518 1287.4 502.6 C 1286.8 501.6 1286.2 501.3 1285 501.3 C 1259.2 500.1 1239.3 488.7 1225.3 467 C 1224.6 466 1223.9 465.7 1222.7 465.6 C 1208.6 465.2 1195.6 461.1 1183.9 453.1 C 1180.2 450.4 1176.8 447.4 1173.3 444.6 Z M 1328.7 108.4 C 1319.4 107.6 1287.6 115.1 1268.6 122.7 C 1249.2 130.3 1231.4 140.7 1215.2 153.7 C 1199.4 166.3 1175.8 191.7 1173.1 198.8 C 1173.3 198.6 1173.4 198.5 1173.6 198.4 C 1187.2 185.4 1203.4 178.6 1222.3 177.8 C 1222.9 177.7 1223.9 177.2 1224.2 176.6 C 1238.3 154.8 1258.2 143.1 1284.1 141.9 C 1285.3 141.8 1285.9 141.3 1286.4 140.4 C 1291.2 132.5 1297.3 125.9 1304.7 120.3 C 1311.9 114.8 1320 110.9 1328.7 108.4 Z M 1154 231.4 C 1139.8 262.7 1133.2 295 1134.4 328.9 C 1135.4 358.2 1142.2 386 1154.8 413 C 1154.1 409 1153.3 405.4 1152.9 401.8 C 1151.2 386.7 1153.9 372.4 1161.1 358.9 C 1161.4 358.3 1161.4 357.3 1161.1 356.6 C 1157.7 350.4 1155.1 343.8 1153.7 336.8 C 1150.3 319.6 1152.5 303.1 1160.8 287.6 C 1161.4 286.4 1161.3 285.7 1160.7 284.7 C 1153.8 271.8 1150.9 258.2 1152.2 243.7 C 1152.6 239.8 1153.3 235.8 1154 231.4 Z M 1553 253.7 C 1590.5 368.5 1528 490.5 1413.3 526.9 C 1299.7 562.8 1178 500.1 1142.4 384.7 C 1107.6 271.6 1169.8 151.8 1283.5 115.9 C 1397.3 80 1516.2 142.7 1553 253.7 Z" fill="white"/>
</g>
<g opacity="0.2">
<path fill-rule="evenodd" clip-rule="evenodd" d="M 2004.4 -101.7 C 1966.3 -216 1842.8 -280.3 1725.6 -242.1 C 1610 -204.4 1545.2 -79.7 1584.4 38.4 C 1622.4 152.9 1746 217 1863.2 178.7 C 1978.7 141.1 2043.5 16.5 2004.4 -101.7 Z M 1732.9 -246 C 1736.7 -246.9 1740.6 -247.8 1744.5 -248.7 C 1766.9 -253.9 1789.6 -255.5 1812.6 -253.7 C 1842.5 -251.2 1870.8 -243 1897.4 -229.2 C 1930.3 -211.9 1957.2 -188 1978.3 -157.4 C 1987.8 -143.6 1995.5 -128.9 2001.6 -113.4 C 2002 -112.5 2002.5 -111.6 2002.9 -110.7 C 2004.8 -104.9 2006.8 -99 2008.7 -93.1 C 2009.6 -89.4 2010.5 -85.5 2011.5 -81.8 C 2016.8 -58.4 2018.5 -34.8 2016.2 -10.9 C 2013.5 17.9 2005.5 45.1 1992.2 70.7 C 1976.6 100.8 1955.3 126.1 1928 146.5 C 1915.5 156 1902 164 1887.8 170.6 C 1872.2 177.8 1856 183.3 1839.2 186.6 C 1799.7 194.6 1760.7 192.1 1722.5 179.2 C 1693.8 169.5 1668.3 154.5 1645.8 134.3 C 1626.9 117.5 1611.4 97.9 1599.2 75.7 C 1589 57.2 1581.5 37.6 1577 16.9 C 1567.4 -26.8 1570.5 -69.5 1586.4 -111.3 C 1600.3 -147.8 1622.5 -178.5 1652.5 -203.4 C 1667.3 -215.7 1683.5 -225.9 1701 -233.8 C 1705.8 -236.1 1710.8 -238.1 1715.6 -240.2 C 1721.4 -242.1 1727.2 -244 1732.9 -246 Z" fill="white"/>
<path fill-rule="evenodd" clip-rule="evenodd" d="M 2011.5 -104.1 C 1972 -222.3 1844.5 -288.7 1723.2 -249.2 C 1603.8 -210.3 1536.7 -81.3 1577.3 40.8 C 1616.6 159.1 1744.3 225.4 1865.5 185.9 C 1985 146.9 2051.9 18.1 2011.5 -104.1 Z M 1730.8 -253.3 C 1734.8 -254.2 1738.8 -255.2 1742.7 -256.1 C 1766 -261.5 1789.5 -263.2 1813.2 -261.2 C 1844.2 -258.6 1873.4 -250.2 1900.9 -235.8 C 1934.9 -218 1962.8 -193.3 1984.5 -161.6 C 1994.3 -147.4 2002.3 -132.2 2008.6 -116.2 C 2009 -115.2 2009.5 -114.3 2009.9 -113.4 C 2011.9 -107.4 2014 -101.3 2016 -95.2 C 2016.9 -91.3 2017.9 -87.4 2018.8 -83.5 C 2024.4 -59.3 2026 -34.8 2023.7 -10.1 C 2020.9 19.5 2012.7 47.7 1998.9 74.2 C 1982.8 105.3 1960.6 131.5 1932.6 152.6 C 1919.6 162.3 1905.7 170.6 1890.9 177.5 C 1874.8 185 1858.1 190.5 1840.7 194 C 1799.8 202.2 1759.6 199.7 1720 186.3 C 1690.5 176.3 1664 160.8 1640.7 140 C 1621.3 122.5 1605.2 102.3 1592.6 79.3 C 1582 60.2 1574.2 39.9 1569.6 18.5 C 1559.7 -26.6 1562.9 -70.8 1579.3 -114 C 1593.7 -151.7 1616.6 -183.4 1647.7 -209.2 C 1663 -222 1679.7 -232.5 1697.8 -240.7 C 1702.8 -243 1707.9 -245.1 1713 -247.3 C 1718.9 -249.3 1724.9 -251.3 1730.8 -253.3 Z" fill="white"/>
<path fill-rule="evenodd" clip-rule="evenodd" d="M 1930 39.5 C 1948.2 42.8 1963.2 51.4 1975.1 65.5 C 1968.8 48.1 1968.8 30.7 1975.1 13.2 C 1963.2 27.5 1948.3 36.2 1930 39.5 Z M 1806 111.6 C 1824.3 114.7 1839.4 123.4 1851.4 137.6 C 1845 120.1 1845 102.7 1851.2 85.2 C 1845.4 92.1 1838.7 97.9 1831 102.4 C 1823.2 107 1814.8 109.9 1806 111.6 Z M 1846.2 147.3 C 1827.8 144.2 1812.7 135.6 1800.6 121.4 C 1806.8 138.8 1806.9 156.1 1800.7 173.4 C 1812.8 159.3 1827.8 150.5 1846.2 147.3 Z M 1924.1 30.2 C 1936 15.9 1951 7.1 1969.3 3.8 C 1951 0.6 1936 -8.2 1924 -22.4 C 1930.5 -4.9 1930.4 12.7 1924.1 30.2 Z M 1907.5 39.6 C 1889.3 36.6 1874.2 27.8 1862.2 13.7 C 1868.5 31.1 1868.5 48.5 1862.3 66 C 1874.2 51.7 1889.3 42.9 1907.5 39.6 Z M 1789.1 101.8 C 1782.9 84.5 1782.8 67.2 1789 49.9 C 1783.1 56.8 1776.4 62.6 1768.5 67 C 1760.7 71.5 1752.3 74.4 1743.5 76 C 1752.3 77.5 1760.8 80.3 1768.6 84.7 C 1776.4 89.2 1783.2 95 1789.1 101.8 Z M 1727 66.3 C 1720.7 48.8 1720.7 31.5 1727 14.1 C 1714.9 28.4 1699.8 37.1 1681.4 40.4 C 1699.8 43.5 1715 52.1 1727 66.3 Z M 1867.8 75.5 C 1886.1 78.8 1901.2 87.4 1913.3 101.5 C 1910.2 92.9 1908.5 84.2 1908.6 75.2 C 1908.6 66.2 1910.2 57.6 1913.3 49.1 C 1907.5 56 1900.8 61.9 1893.1 66.4 C 1885.2 71 1876.8 74 1867.8 75.5 Z M 1924.5 101.5 C 1936.5 87.4 1951.5 78.6 1969.8 75.3 C 1960.8 73.8 1952.5 70.9 1944.7 66.4 C 1936.8 61.9 1930.1 56.2 1924.3 49.2 C 1930.6 66.7 1930.7 84 1924.5 101.5 Z M 1665.2 30.8 C 1658.7 13.1 1658.6 -4.2 1664.9 -21.6 C 1653 -7.3 1637.9 1.4 1619.4 4.6 C 1644 11.4 1646.8 12.8 1665.2 30.8 Z M 1800.4 101.9 C 1806.2 95.1 1812.9 89.2 1820.7 84.7 C 1828.5 80.2 1836.9 77.2 1845.9 75.7 C 1827.5 72.6 1812.2 63.9 1800.2 49.5 C 1806.7 67 1806.6 84.5 1800.4 101.9 Z M 1721.9 76.1 C 1703.5 72.9 1688.4 64.3 1676.3 50.2 C 1682.6 67.6 1682.7 85 1676.3 102.4 C 1688.4 88.1 1703.5 79.3 1721.9 76.1 Z M 1726.9 -76.8 C 1723.7 -85.6 1722 -94.1 1721.9 -103 C 1721.9 -111.9 1723.6 -120.5 1726.4 -129 C 1714.4 -114.8 1699.3 -106.1 1680.8 -103 C 1702.8 -97.6 1709.3 -94.6 1726.9 -76.8 Z M 1681.2 -31.3 C 1699.6 -28.2 1714.7 -19.6 1726.9 -5.4 C 1720.5 -22.7 1720.5 -40 1726.6 -57.3 C 1714.6 -43.2 1699.5 -34.6 1681.2 -31.3 Z M 1737.7 -148.7 C 1749.7 -162.9 1764.8 -171.5 1783 -174.8 C 1764.6 -178 1749.4 -186.8 1737.4 -201.1 C 1740.5 -192.5 1742.3 -183.9 1742.3 -174.9 C 1742.3 -165.9 1740.8 -157.2 1737.7 -148.7 Z M 1789.3 121.3 C 1777.4 135.6 1762.4 144.3 1744.1 147.7 C 1753 149.2 1761.4 152.1 1769.2 156.6 C 1777 161 1783.7 166.8 1789.6 173.6 C 1783.2 156.2 1783.2 138.8 1789.3 121.3 Z M 1845.9 4 C 1827.4 0.9 1812.1 -7.8 1800 -22.2 C 1806.3 -4.7 1806.5 12.7 1800.3 30.2 C 1812.4 15.9 1827.5 7.1 1845.9 4 Z M 1614.3 66.8 C 1620.1 59.8 1626.8 54 1634.7 49.5 C 1642.6 44.9 1651 42 1660.1 40.4 C 1641.5 37.4 1626.2 28.7 1614 14.3 C 1620.5 31.8 1620.6 49.2 1614.3 66.8 Z M 1676 -40.9 C 1688 -55.2 1703.1 -64 1721.5 -67.2 C 1703.1 -70.3 1687.9 -79 1675.8 -93.2 C 1682.1 -75.7 1682.2 -58.3 1676 -40.9 Z M 1738.5 85.9 C 1744.7 103.3 1744.8 120.7 1738.4 138.2 C 1750.3 123.8 1765.3 115.1 1783.7 111.7 C 1765.5 108.4 1750.5 99.9 1738.5 85.9 Z M 1862.6 137.5 C 1868.5 130.6 1875.1 124.8 1882.9 120.3 C 1890.6 115.8 1899 113 1907.8 111.2 C 1898.9 109.7 1890.5 106.8 1882.7 102.3 C 1874.9 97.8 1868.2 92 1862.3 85.2 C 1868.8 102.6 1868.8 120 1862.6 137.5 Z M 1913.2 30.2 C 1906.7 12.5 1906.8 -5 1913.1 -22.6 C 1901.1 -8.1 1885.9 0.8 1867.4 4 C 1885.9 7.1 1901.1 15.8 1913.2 30.2 Z M 1614.1 -4.9 C 1619.9 -11.9 1626.7 -17.7 1634.6 -22.2 C 1642.4 -26.7 1650.8 -29.6 1659.6 -31.2 C 1641.2 -34.3 1626 -43 1613.9 -57.3 C 1620.3 -39.8 1620.3 -22.4 1614.1 -4.9 Z M 1783.7 -31.6 C 1765.3 -34.7 1750 -43.4 1738 -57.6 C 1744.3 -40.1 1744.3 -22.7 1738.1 -5.2 C 1750.1 -19.7 1765.3 -28.3 1783.7 -31.6 Z M 1738.3 66.4 C 1750.3 52 1765.5 43.3 1783.9 40.1 C 1774.9 38.5 1766.5 35.7 1758.7 31.2 C 1750.8 26.7 1744.1 21 1738.2 14.1 C 1744.6 31.5 1744.5 48.8 1738.3 66.4 Z M 1975 -58.4 C 1969.2 -51.5 1962.5 -45.6 1954.7 -41.1 C 1946.9 -36.6 1938.5 -33.6 1929.6 -32 C 1938.7 -30.4 1947.1 -27.4 1954.9 -22.9 C 1962.7 -18.5 1969.4 -12.6 1975.2 -5.7 C 1968.7 -23.3 1968.7 -40.9 1975 -58.4 Z M 1675.7 -112.5 C 1687.7 -126.9 1702.8 -135.7 1721.3 -138.9 C 1702.7 -142 1687.5 -150.8 1675.4 -165.2 C 1682 -147.6 1682 -130.1 1675.7 -112.5 Z M 1845.5 -67.6 C 1836.5 -69.2 1828 -72.1 1820.1 -76.6 C 1812.2 -81.2 1805.5 -87 1799.7 -93.9 C 1806.2 -76.3 1806.2 -58.7 1799.9 -41.1 C 1811.9 -55.6 1827 -64.4 1845.5 -67.6 Z M 1912.9 -41.6 C 1906.5 -59.1 1906.5 -76.6 1912.9 -94.1 C 1900.9 -79.7 1885.8 -70.9 1867.3 -67.6 C 1885.7 -64.5 1900.8 -55.8 1912.9 -41.6 Z M 1742.9 -138.9 C 1751.9 -137.5 1760.3 -134.5 1768.2 -130 C 1776 -125.5 1782.8 -119.7 1788.7 -112.8 C 1782.3 -130.3 1782.3 -147.6 1788.5 -165.1 C 1776.3 -150.8 1761.3 -142.1 1742.9 -138.9 Z M 1727.2 85.7 C 1715.2 100.1 1700 108.8 1681.6 112 C 1700.2 115.1 1715.4 123.8 1727.5 138.2 C 1721 120.7 1721 103.3 1727.2 85.7 Z M 1613.8 -128.9 C 1620.1 -111.4 1620.1 -94 1613.8 -76.4 C 1625.7 -90.8 1640.8 -99.5 1659 -102.9 C 1640.8 -106.2 1625.7 -114.7 1613.8 -128.9 Z M 1618.7 -138.6 C 1637.1 -135.5 1652.3 -126.8 1664.5 -112.6 C 1658.3 -130.1 1658.2 -147.5 1664.5 -164.9 C 1652.4 -150.5 1637.2 -141.7 1618.7 -138.6 Z M 1799.8 -184.7 C 1805.6 -191.6 1812.3 -197.4 1820.1 -201.9 C 1828 -206.4 1836.4 -209.4 1845.4 -210.8 C 1826.9 -213.9 1811.7 -222.6 1799.6 -236.8 C 1805.8 -219.4 1805.9 -202.1 1799.8 -184.7 Z M 1618.8 -66.9 C 1627.8 -65.4 1636.3 -62.5 1644.2 -58.1 C 1652 -53.6 1658.8 -47.7 1664.8 -41 C 1661.6 -49.5 1660.1 -58.1 1660 -67.1 C 1659.9 -76 1661.6 -84.7 1664.6 -93.2 C 1652.4 -78.8 1637.3 -70.1 1618.8 -66.9 Z M 1742.7 -210.5 C 1761.3 -207.5 1776.5 -198.6 1788.7 -184.2 C 1782.1 -201.8 1782.1 -219.2 1788.3 -236.8 C 1776.3 -222.5 1761.1 -213.7 1742.7 -210.5 Z M 1850.5 -201.2 C 1838.5 -187 1823.4 -178.2 1805.1 -174.9 C 1823.5 -171.7 1838.7 -163 1850.8 -148.6 C 1844.2 -166.2 1844.2 -183.6 1850.5 -201.2 Z M 1676.2 30.7 C 1688.2 16.3 1703.4 7.7 1721.8 4.4 C 1703.3 1.4 1688.1 -7.5 1676 -21.7 C 1682.4 -4.2 1682.5 13.1 1676.2 30.7 Z M 1799.9 -113 C 1811.9 -127.3 1827 -136.1 1845.5 -139.2 C 1827 -142.3 1811.7 -151.1 1799.5 -165.5 C 1802.6 -157 1804.3 -148.3 1804.4 -139.4 C 1804.4 -130.4 1802.9 -121.7 1799.9 -113 Z M 1789 30.4 C 1785.9 21.9 1784.3 13.1 1784.3 4.1 C 1784.3 -4.9 1785.9 -13.6 1788.9 -22.1 C 1783.1 -15.1 1776.3 -9.3 1768.5 -4.7 C 1760.6 -0.2 1752.1 2.8 1743.1 4.3 C 1752.1 5.9 1760.5 8.7 1768.5 13.2 C 1776.3 17.7 1783.2 23.5 1789 30.4 Z M 1851 13.7 C 1839 28 1823.8 36.7 1805.4 40 C 1824 43.1 1839.1 51.9 1851.2 66.1 C 1844.8 48.6 1844.7 31.2 1851 13.7 Z M 1737.5 -129.5 C 1744 -112.1 1744.1 -94.7 1738 -77.2 C 1749.9 -91.3 1765 -100 1783.2 -103.2 C 1764.7 -106.5 1749.6 -115.3 1737.5 -129.5 Z M 1907.3 -31.9 C 1888.8 -35.3 1873.7 -44 1861.6 -58.5 C 1864.9 -50 1866.6 -41.2 1866.6 -32.2 C 1866.7 -23.1 1865 -14.3 1862.1 -5.6 C 1867.9 -12.5 1874.5 -18.3 1882.2 -22.8 C 1890 -27.3 1898.3 -30.3 1907.3 -31.9 Z M 1742.6 -67.2 C 1761.6 -64.2 1776.9 -55.4 1789 -41 C 1782.4 -58.6 1782.4 -76.1 1788.8 -93.8 C 1773.7 -77.5 1766 -73 1742.6 -67.2 Z M 1619.5 76.4 C 1628.6 77.9 1637 81 1644.9 85.5 C 1652.8 89.9 1659.5 95.8 1665.3 102.7 C 1658.8 85.1 1658.8 67.6 1665.1 50.1 C 1653.1 64.5 1637.9 73.2 1619.5 76.4 Z M 1726.5 -201 C 1714.5 -186.6 1699.3 -177.9 1680.9 -174.6 C 1699.4 -171.4 1714.6 -162.6 1726.6 -148.3 C 1720.2 -165.9 1720.1 -183.4 1726.5 -201 Z M 1805.4 -31.6 C 1823.9 -28.4 1839.1 -19.7 1851.1 -5.3 C 1844.6 -22.9 1844.5 -40.4 1850.8 -58.1 C 1838.8 -43.6 1823.7 -35 1805.4 -31.6 Z M 1861.8 -77.1 C 1873.7 -91.5 1888.9 -100.3 1907.3 -103.6 C 1888.9 -106.8 1873.7 -115.5 1861.6 -129.8 C 1868.2 -112.3 1868.2 -94.7 1861.8 -77.1 Z M 1929.3 -103.6 C 1947.7 -100.5 1962.9 -91.7 1975 -77.4 C 1968.4 -95 1968.5 -112.6 1974.9 -130.2 C 1962.9 -115.8 1947.7 -107 1929.3 -103.6 Z M 1969.8 -67.9 C 1951.1 -71 1935.8 -79.9 1923.7 -94.3 C 1930.3 -76.7 1930.3 -59.1 1924 -41.5 C 1936.1 -55.9 1951.2 -64.7 1969.8 -67.9 Z M 1805.2 -103.3 C 1823.7 -100.1 1838.9 -91.3 1850.9 -77 C 1844.5 -94.6 1844.4 -112.1 1850.8 -129.7 C 1838.8 -115.3 1823.7 -106.6 1805.2 -103.3 Z M 1867 -139.3 C 1875.9 -137.8 1884.4 -134.9 1892.2 -130.4 C 1900.2 -125.9 1906.9 -120 1912.9 -113 C 1906.4 -130.6 1906.4 -148 1912.7 -165.6 C 1900.6 -151.3 1885.5 -142.5 1867 -139.3 Z M 1861.6 -201.2 C 1864.7 -192.7 1866.4 -183.9 1866.4 -174.8 C 1866.4 -165.8 1864.6 -157.1 1861.6 -148.6 C 1873.7 -163.2 1889 -172 1907.6 -175.2 C 1889 -178.3 1873.8 -187 1861.6 -201.2 Z M 1923.7 -165.8 C 1926.7 -157.2 1928.4 -148.5 1928.5 -139.4 C 1928.5 -130.3 1926.8 -121.5 1923.8 -113 C 1935.8 -127.5 1951.2 -136.3 1969.8 -139.5 C 1951.2 -142.7 1935.8 -151.4 1923.7 -165.8 Z M 1610.3 77.5 C 1622.4 98.1 1646.7 111.4 1669.1 111.1 C 1663.5 94.7 1627.9 74.3 1610.3 77.5 Z M 1919.8 -104.3 C 1934.2 -104.8 1947.1 -109 1958.8 -117.1 C 1966.9 -122.8 1973.6 -129.8 1978.8 -138.6 C 1957.1 -138.7 1932.3 -126.1 1919.8 -104.3 Z M 1919.8 -174.2 C 1931.5 -153.8 1956.2 -140.3 1978.5 -140.6 C 1973 -157 1937 -177.6 1919.8 -174.2 Z M 1980.6 1.8 C 1992.1 -12.4 1992 -51.4 1980.5 -65.9 C 1969.1 -52 1969.1 -13.1 1980.6 1.8 Z M 1856.3 -69.5 C 1867.8 -84.3 1867.7 -123.8 1856.2 -137.3 C 1844.6 -117.8 1844.5 -89.8 1856.3 -69.5 Z M 1918.4 -105.1 C 1925.1 -117.8 1927.9 -130.8 1926.9 -144.8 C 1926.2 -154.9 1923.3 -164.4 1918.2 -173.7 C 1911.6 -161.4 1908.7 -148.7 1909.5 -135.2 C 1910.2 -124.7 1913.1 -114.7 1918.4 -105.1 Z M 1855.1 3 C 1849 -7.1 1840.8 -15 1830.8 -21 C 1820.1 -27.3 1808.5 -30.6 1796 -30.9 C 1803.9 -12.9 1836.1 5.5 1855.1 3 Z M 1609.7 -137.6 C 1615.6 -121 1649.3 -101.6 1668.5 -103.8 C 1662.7 -120.4 1628.8 -140 1609.7 -137.6 Z M 1857.7 -140 C 1871.4 -140.4 1883.8 -144.3 1895.1 -151.7 C 1904 -157.5 1911.2 -165 1916.8 -174.3 C 1894.3 -174.4 1869.8 -161.3 1857.7 -140 Z M 1978.8 -68.9 C 1970.6 -86.9 1937.4 -105.9 1920 -102.6 C 1926.2 -85.9 1959.6 -66.7 1978.8 -68.9 Z M 1857.5 -210 C 1869.8 -188.8 1894.6 -175.8 1916.4 -176.2 C 1906.4 -194.5 1882.8 -210.1 1857.5 -210 Z M 1671.8 -32 C 1685.4 -32.4 1697.6 -36.2 1708.8 -43.4 C 1717.8 -49.3 1725.2 -56.9 1730.8 -66.3 C 1708.4 -66.4 1684.1 -53.4 1671.8 -32 Z M 1795.7 -174 C 1802.8 -156.6 1836.7 -137.2 1854.5 -140.2 C 1848.4 -157 1813.9 -176.8 1795.7 -174 Z M 1609.8 -67.6 C 1624.6 -68.2 1637.8 -72.6 1649.6 -81.1 C 1657.4 -86.7 1663.8 -93.6 1668.8 -102 C 1645 -101.9 1621.1 -88 1609.8 -67.6 Z M 1794.2 -101.5 C 1782.7 -85.4 1782.8 -48.7 1794.4 -33.6 C 1806 -47.9 1805.9 -84.6 1794.2 -101.5 Z M 1917.1 -32.8 C 1909.7 -44.8 1899.9 -53.8 1887.5 -59.8 C 1878.2 -64.3 1868.4 -66.7 1857.9 -66.9 C 1865.3 -49.2 1896.5 -31.2 1917.1 -32.8 Z M 1792.6 -104.2 C 1785.6 -121.5 1751.9 -140.9 1733.8 -138 C 1739.6 -121.3 1773.9 -101.6 1792.6 -104.2 Z M 1918.4 -30.3 C 1912 -18.5 1909.2 -6.2 1909.8 6.8 C 1910.3 17.8 1913.1 28.2 1918.6 38 C 1930.7 17.2 1930 -10.7 1918.4 -30.3 Z M 1792.7 -30.7 C 1774.5 -33.4 1740.9 -13.8 1734.1 3.4 C 1752.9 5.8 1786.8 -13.9 1792.7 -30.7 Z M 1792.9 -32.4 C 1785.9 -49.8 1752.5 -68.9 1733.9 -66.3 C 1743.5 -48.9 1766.5 -32.5 1792.9 -32.4 Z M 1794.2 -173.1 C 1782.6 -159.4 1782.7 -118.6 1794.4 -105 C 1800.8 -116.8 1803.7 -129.4 1802.9 -142.7 C 1802.4 -153.4 1799.5 -163.6 1794.2 -173.1 Z M 1919 109.6 C 1925.7 97.1 1928.5 84.1 1927.5 70.2 C 1926.7 60 1923.9 50.4 1918.8 41.3 C 1907.2 57.8 1907.3 94 1919 109.6 Z M 1854.6 -211.8 C 1848 -222.7 1839.2 -231.1 1828.1 -237.1 C 1818 -242.6 1807.1 -245.6 1795.3 -245.7 C 1808.1 -223.9 1832.8 -211.4 1854.6 -211.8 Z M 1920.5 110.3 C 1939.4 112.7 1972.4 93.5 1979.2 76.2 C 1961 73.5 1927.2 93.1 1920.5 110.3 Z M 1855.5 74.7 C 1847.5 62.1 1837 52.8 1823.7 46.9 C 1815 42.9 1805.9 40.9 1796.1 40.8 C 1808 61.8 1832.9 75.1 1855.5 74.7 Z M 1856.4 -65.8 C 1844.9 -50.7 1845 -12.1 1856.5 2.1 C 1867 -15.2 1869.3 -43 1856.4 -65.8 Z M 1733.3 -209.8 C 1746.1 -188 1770.9 -175.4 1792.6 -175.8 C 1787.3 -184.7 1780.3 -191.9 1771.9 -197.6 C 1760.3 -205.4 1747.5 -209.4 1733.3 -209.8 Z M 1917.3 112 C 1903.8 112.4 1891.5 116.2 1880.3 123.5 C 1871.3 129.4 1863.9 136.9 1858.3 146.4 C 1878.9 147.9 1911.3 128.9 1917.3 112 Z M 1668.9 -32.2 C 1656.4 -53.7 1631.3 -66.5 1609.9 -65.9 C 1621 -46.1 1645.4 -31.9 1668.9 -32.2 Z M 1732.2 -137.1 C 1720.6 -122.2 1720.7 -83.1 1732.3 -69.2 C 1743.2 -87.2 1744.8 -115.1 1732.2 -137.1 Z M 1671.4 -173.7 C 1679 -161.4 1689.1 -152.3 1701.9 -146.3 C 1710.9 -142.1 1720.4 -139.8 1730.6 -139.7 C 1718.8 -160.1 1695 -173.8 1671.4 -173.7 Z M 1793.2 39.1 C 1786.7 28.3 1777.9 20 1767 13.9 C 1756.8 8.3 1745.8 5.4 1733.9 5.2 C 1745.4 25.3 1769.7 39.4 1793.2 39.1 Z M 1854.8 -68.5 C 1848.8 -79.1 1837.4 -90.2 1823.3 -96.4 C 1814.6 -100.3 1805.4 -102.4 1795.7 -102.5 C 1806.9 -82.6 1831.2 -68.2 1854.8 -68.5 Z M 1672.3 111.3 C 1687.6 110.7 1701.2 106.1 1713.3 97 C 1720.6 91.6 1726.7 84.9 1731.4 76.8 C 1706.6 77.1 1683.5 91.6 1672.3 111.3 Z M 1731 5.3 C 1705.8 5.4 1682.3 20.9 1672.2 39.5 C 1691.5 41.7 1723.4 23.1 1731 5.3 Z M 1731 -68.1 C 1724.2 -79.1 1715.4 -87.5 1704.4 -93.5 C 1694.2 -99 1683.4 -101.9 1671.6 -102.1 C 1683.1 -82.1 1707.3 -67.9 1731 -68.1 Z M 1730.5 -209.8 C 1715.9 -209.3 1702.8 -205 1691 -196.7 C 1683.1 -191.1 1676.5 -184 1671.4 -175.4 C 1694.7 -175.3 1719.2 -189.4 1730.5 -209.8 Z M 1734.2 75.3 C 1748.4 74.9 1761.1 70.7 1772.6 62.9 C 1781.1 57.1 1788 49.9 1793.3 41 C 1771.9 40.6 1746.5 53.4 1734.2 75.3 Z M 1918.5 -33.3 C 1924.8 -44.9 1927.7 -56.9 1927.3 -69.6 C 1926.9 -81.1 1924.1 -91.8 1918.3 -102.1 C 1911.9 -90.1 1909.1 -77.8 1909.6 -64.6 C 1910.1 -53.6 1913.1 -43.4 1918.5 -33.3 Z M 1732.3 -140.6 C 1738.9 -152.9 1741.7 -165.9 1740.8 -179.5 C 1740.1 -189.9 1737.2 -199.7 1732.1 -208.9 C 1720.5 -193.2 1720.5 -155.8 1732.3 -140.6 Z M 1796 39.2 C 1810.5 38.9 1823.3 34.6 1835 26.5 C 1843.2 20.8 1849.9 13.7 1855.2 4.8 C 1832.5 4.8 1808 18.1 1796 39.2 Z M 1731 3.6 C 1727.6 -5.3 1712 -19.1 1699.2 -24.6 C 1690.5 -28.3 1681.5 -30.5 1671.8 -30.5 C 1677.4 -19.9 1689.7 -8.9 1702.4 -3 C 1711.4 1.2 1720.9 3.4 1731 3.6 Z M 1672 41.3 C 1679.5 53.4 1689.4 62.3 1701.9 68.3 C 1711.1 72.8 1720.9 75.1 1731.4 75.3 C 1719.2 54.2 1694.4 40.9 1672 41.3 Z M 1794.1 -176.7 C 1805.7 -193.2 1805.5 -230.6 1793.9 -244.7 C 1782.3 -230.3 1782.4 -193.2 1794.1 -176.7 Z M 1669.2 39.7 C 1658.1 19.9 1633.8 5.3 1609.9 5.7 C 1615 14.2 1621.7 21.2 1629.7 26.9 C 1641.5 35.1 1654.6 39.3 1669.2 39.7 Z M 1856.1 -209.2 C 1844.5 -193.8 1844.6 -156.8 1856.3 -141 C 1861.6 -150.7 1864.4 -160.9 1864.9 -171.8 C 1865.5 -185 1862.5 -197.4 1856.1 -209.2 Z M 1792.4 -245.6 C 1772.4 -247.5 1740.1 -228.7 1733.6 -211.5 C 1754.5 -211.1 1780 -223.6 1792.4 -245.6 Z M 1734.2 76.8 C 1741 94 1774.2 113.1 1793.5 110.7 C 1788.3 102.1 1781.6 95.1 1773.5 89.5 C 1761.7 81.3 1748.7 77.1 1734.2 76.8 Z M 1795.3 -175.6 C 1809.5 -176 1822.1 -180 1833.5 -187.6 C 1842.2 -193.5 1849.2 -200.8 1854.7 -210.2 C 1840.2 -209.7 1827.3 -205.5 1815.7 -197.5 C 1807.5 -191.7 1800.7 -184.6 1795.3 -175.6 Z M 1857.4 -138.6 C 1864.7 -126.8 1874.2 -118 1886.2 -112 C 1895.7 -107.1 1905.9 -104.5 1917.1 -104.3 C 1909.7 -116.3 1900 -125.2 1887.8 -131.3 C 1878.4 -135.9 1868.3 -138.3 1857.4 -138.6 Z M 1856.5 5.8 C 1845 21.3 1845.2 59 1856.7 73.8 C 1868.2 60.4 1868.2 21.7 1856.5 5.8 Z M 1855.3 76.3 C 1842 76.8 1829.8 80.4 1818.7 87.6 C 1809.5 93.5 1802 101.2 1796.3 110.7 C 1816.5 112.5 1849 93.5 1855.3 76.3 Z M 1796 -32.5 C 1816.3 -30.9 1848 -49.3 1854.7 -66.7 C 1836.8 -69.6 1803.8 -50.4 1796 -32.5 Z M 1980.7 5.4 C 1969.1 20.5 1969.2 58.8 1980.8 73.4 C 1991.7 55.5 1993.3 27.3 1980.7 5.4 Z M 1920 -32.9 C 1930.2 -32.5 1945.7 -36.2 1958.4 -45 C 1966.8 -50.9 1973.8 -58.1 1979.2 -67.2 C 1965.1 -66.8 1952.4 -62.8 1941 -55.1 C 1932.4 -49.3 1925.4 -42 1920 -32.9 Z M 1670 -173 C 1663.2 -160.5 1660.4 -147.4 1661.4 -133.5 C 1662.2 -123.2 1665 -113.6 1670.1 -104.5 C 1681.5 -124.3 1682.3 -151.4 1670 -173 Z M 1610 3.9 C 1629.4 6 1662.1 -13.1 1668.8 -30.3 C 1650.8 -33.2 1618.7 -14.6 1610 3.9 Z M 1734.5 146.8 C 1745.7 146.9 1760.1 143.3 1772.3 134.9 C 1781 129 1788.1 121.7 1793.5 112.6 C 1771.7 112.2 1746.6 125.3 1734.5 146.8 Z M 1608.7 74.6 C 1614 66.2 1618.5 50.9 1617.3 35.6 C 1616.5 25.3 1613.7 15.6 1608.6 6.4 C 1596.1 28.1 1597.6 55.8 1608.7 74.6 Z M 1795.2 181.5 C 1801.1 172.6 1804.7 156.4 1803.7 142.5 C 1803 132.1 1800.1 122.4 1795 113.3 C 1783.3 129.7 1783.4 166.8 1795.2 181.5 Z M 1732.6 77.7 C 1726 90.1 1723.2 103.1 1724.2 116.9 C 1724.9 127.2 1727.7 136.9 1732.8 146 C 1744.5 131.5 1744.3 93.8 1732.6 77.7 Z M 1979 4.6 C 1960.8 1.9 1926.2 22 1920.3 38.7 C 1939.2 41.1 1973.3 21.3 1979 4.6 Z M 1672.3 113 C 1685.4 135 1710 147.1 1731.4 146.8 C 1724 129.2 1690.1 109.8 1672.3 113 Z M 1857.9 3.3 C 1873.8 2.7 1887.7 -2.2 1900 -11.7 C 1906.9 -17.1 1912.7 -23.4 1917.1 -31.2 C 1893.5 -31.1 1869.5 -17.3 1857.9 3.3 Z M 1856.7 77.2 C 1849.9 89.8 1847.1 103 1848.2 116.9 C 1849 127 1851.9 136.6 1856.9 145.6 C 1868.7 125.6 1868.8 97.9 1856.7 77.2 Z M 1669.3 41.1 C 1655.3 41.6 1642.8 45.5 1631.5 53 C 1622.7 58.9 1615.6 66.3 1610.1 75.5 C 1631.5 76 1657 62.9 1669.3 41.1 Z M 1854.7 -138.4 C 1844.2 -138.6 1829 -135 1816 -126 C 1807.7 -120.2 1800.8 -113 1795.6 -104.2 C 1818 -104 1842.6 -117.1 1854.7 -138.4 Z M 1733.7 -139.8 C 1752.2 -137.2 1786.4 -157.2 1792.5 -174 C 1773.4 -176.3 1739.8 -156.7 1733.7 -139.8 Z M 1857.8 -68.3 C 1872.2 -68.7 1885.1 -73 1896.8 -81.1 C 1905 -86.7 1911.8 -94 1917 -102.8 C 1891.8 -102.6 1868.5 -87.6 1857.8 -68.3 Z M 1796.7 182.4 C 1821.7 182.4 1845.6 166.7 1855.4 148.1 C 1836 146.1 1803.9 164.8 1796.7 182.4 Z M 1980.1 -137.8 C 1973.8 -126.1 1970.9 -113.7 1971.5 -100.5 C 1972.1 -89.5 1974.9 -79.2 1980.3 -69.5 C 1992.1 -85.6 1991.9 -123 1980.1 -137.8 Z M 1858 4.7 C 1865.8 22.7 1899 41.7 1917 38.7 C 1914.2 32.6 1905 22.1 1894.9 15.8 C 1883.6 8.8 1871.5 5 1858 4.7 Z M 1917.4 110.4 C 1910.8 93.2 1876.3 73.4 1858.4 76.5 C 1864.3 93.3 1898.2 112.7 1917.4 110.4 Z M 1858.3 74.8 C 1870.1 75 1886.4 70.5 1899.5 60.5 C 1906.7 54.9 1912.7 48.4 1917.3 40.4 C 1893.1 40.4 1869.2 54.9 1858.3 74.8 Z M 1671.7 -103.8 C 1691.7 -102 1724.5 -121.1 1730.5 -138 C 1712.5 -140.9 1679.3 -121.6 1671.7 -103.8 Z M 1733.5 -68 C 1747.1 -68.4 1759.3 -72.1 1770.4 -79.2 C 1779.6 -85.1 1787.2 -92.8 1792.9 -102.5 C 1779.3 -102.2 1767 -98.4 1755.8 -91.2 C 1746.7 -85.3 1739.3 -77.6 1733.5 -68 Z M 1793.7 182.4 C 1788.5 172.9 1777.5 161.7 1764 155.4 C 1754.7 151 1744.9 148.6 1734.4 148.5 C 1746.3 169.2 1770.9 182.8 1793.7 182.4 Z M 1608.3 -65 C 1596.8 -50.9 1596.9 -12 1608.5 2.9 C 1620.1 -11.6 1619.9 -50.3 1608.3 -65 Z M 1668.4 -173.6 C 1650.3 -176.5 1616.8 -157.1 1609.6 -139.5 C 1627.9 -136.8 1661.8 -156.4 1668.4 -173.6 Z M 1796.5 112.6 C 1802.3 129.2 1837.8 149.4 1855.4 146.3 C 1849.4 129.6 1815 109.9 1796.5 112.6 Z M 1670.8 110.4 C 1682.3 95.3 1682.3 56.7 1670.6 42.2 C 1659.8 60.2 1658 88 1670.8 110.4 Z M 1670.5 -32.9 C 1677.5 -45.9 1680.3 -59.4 1678.8 -73.9 C 1678 -83.6 1675.1 -92.6 1670.2 -101.3 C 1658.6 -84.3 1658.7 -48.7 1670.5 -32.9 Z M 1794.4 -29.9 C 1788.5 -20.2 1784.6 -5.3 1785.8 9.3 C 1786.6 19.6 1789.4 29.3 1794.6 38.4 C 1806.9 17.3 1805.8 -10.7 1794.4 -29.9 Z M 1794.5 41.6 C 1787.8 54.2 1784.9 67.4 1786.1 81.3 C 1786.8 91.4 1789.7 101 1794.8 110 C 1806.4 94 1806.3 58.4 1794.5 41.6 Z M 1670.3 -29.7 C 1664.1 -18.1 1661.2 -6 1661.6 6.9 C 1662 18.2 1665 28.8 1670.5 38.9 C 1682.8 18.1 1682 -10.1 1670.3 -29.7 Z M 1732.4 6 C 1725.4 19 1722.8 32.7 1724.1 47.2 C 1725 57.7 1730.1 71.5 1732.8 74.2 C 1745.6 52.2 1743.4 23.7 1732.4 6 Z M 1732.6 2.8 C 1739.4 -9.7 1742.2 -22.8 1741.1 -36.7 C 1740.4 -47 1737.5 -56.5 1732.4 -65.7 C 1720.1 -44.9 1721 -16.5 1732.6 2.8 Z M 1979.1 2.8 C 1971.2 -15.1 1938.2 -34.1 1920 -31 C 1926.8 -13.8 1960.7 5.7 1979.1 2.8 Z M 1608 -136.7 C 1596.5 -122.5 1596.6 -83.1 1608.2 -68.8 C 1619.8 -82.2 1619.7 -123 1608 -136.7 Z M 1979.5 74.4 C 1972.8 63.4 1964 55 1953 49 C 1942.8 43.4 1931.9 40.5 1920.2 40.3 C 1928.6 58.7 1960.4 77 1979.5 74.4 Z M 1989.1 57.3 C 2015.1 -2.2 2015 -61.8 1988.8 -121.3 C 1988.6 -121 1988.6 -120.6 1988.7 -120.3 C 1992.8 -102.5 1990.5 -85.5 1982 -69.3 C 1981.3 -68.1 1981.6 -67.3 1982.1 -66.2 C 1993.8 -43.4 1993.7 -20.5 1982.1 2.3 C 1981.6 3.4 1981.6 4.1 1982.1 5.1 C 1986.9 13.8 1989.8 23.2 1990.7 33.1 C 1991.4 41.3 1990.7 49.3 1989.1 57.3 Z M 1969.9 91.4 C 1969.8 91.3 1969.7 91.2 1969.6 91.1 C 1969.5 91.1 1969.3 91.1 1969.2 91.2 C 1955.6 104.3 1939.3 111.2 1920.4 111.9 C 1919.7 111.9 1918.9 112.6 1918.5 113.2 C 1913.7 120.9 1907.8 127.5 1900.7 133 C 1888.4 142.3 1874.5 147.2 1859.1 147.8 C 1858 147.9 1857.3 148 1856.7 149.1 C 1848.3 162.7 1836.8 172.6 1822 178.6 C 1819.7 179.5 1817.4 180.4 1815.1 181.2 C 1879.9 174 1931.5 143.9 1969.9 91.4 Z M 1813.7 -245.1 C 1813.6 -245 1813.6 -244.8 1813.5 -244.6 C 1813.7 -244.5 1814 -244.4 1814.4 -244.3 C 1832.1 -238.9 1845.9 -228.3 1855.7 -212.6 C 1856.4 -211.5 1857.2 -211.5 1858.2 -211.5 C 1883.9 -210.2 1903.7 -198.7 1917.7 -177.1 C 1918.4 -176.1 1919 -175.9 1920.1 -175.9 C 1936.8 -175.3 1951.7 -169.8 1964.5 -159.2 C 1966 -158 1967.4 -156.7 1968.8 -155.5 C 1968.9 -155.6 1969 -155.8 1969.1 -155.9 C 1930.2 -208.1 1878.5 -237.9 1813.7 -245.1 Z M 1619.3 91.6 C 1631.2 108.6 1645.4 123.6 1661.7 136.5 C 1678 149.4 1695.9 159.7 1715.3 167.4 C 1732.9 174.3 1769.2 182.8 1775.3 181.3 C 1774.9 181.1 1774.4 181 1774.1 180.9 C 1756.6 175.5 1743 165 1733.4 149.6 C 1732.8 148.6 1732.2 148.3 1731 148.3 C 1705.2 147.1 1685.3 135.7 1671.3 114 C 1670.6 113 1669.9 112.7 1668.7 112.6 C 1654.6 112.2 1641.6 108.1 1629.9 100.1 C 1626.2 97.4 1622.8 94.4 1619.3 91.6 Z M 1774.7 -244.6 C 1765.4 -245.4 1733.6 -237.9 1714.6 -230.3 C 1695.2 -222.7 1677.4 -212.3 1661.2 -199.3 C 1645.4 -186.7 1621.8 -161.3 1619.1 -154.2 C 1619.3 -154.4 1619.4 -154.5 1619.6 -154.6 C 1633.2 -167.6 1649.4 -174.4 1668.3 -175.2 C 1668.9 -175.3 1669.9 -175.8 1670.2 -176.4 C 1684.3 -198.2 1704.2 -209.9 1730.1 -211.1 C 1731.3 -211.2 1731.9 -211.7 1732.4 -212.6 C 1737.2 -220.5 1743.3 -227.1 1750.7 -232.7 C 1757.9 -238.2 1766 -242.1 1774.7 -244.6 Z M 1600 -121.6 C 1585.8 -90.3 1579.2 -58 1580.4 -24.1 C 1581.4 5.2 1588.2 33 1600.8 60 C 1600.1 56 1599.3 52.4 1598.9 48.8 C 1597.2 33.7 1599.9 19.4 1607.1 5.9 C 1607.4 5.3 1607.4 4.3 1607.1 3.6 C 1603.7 -2.6 1601.1 -9.2 1599.7 -16.2 C 1596.3 -33.4 1598.5 -49.9 1606.8 -65.4 C 1607.4 -66.6 1607.3 -67.3 1606.7 -68.3 C 1599.8 -81.2 1596.9 -94.8 1598.2 -109.3 C 1598.6 -113.2 1599.3 -117.2 1600 -121.6 Z M 1999 -99.3 C 2036.5 15.5 1974 137.5 1859.3 173.9 C 1745.7 209.8 1624 147.1 1588.4 31.7 C 1553.6 -81.4 1615.8 -201.2 1729.5 -237.1 C 1843.3 -273 1962.2 -210.3 1999 -99.3 Z" fill="white"/>
</g>
<g opacity="0.2">
<path fill-rule="evenodd" clip-rule="evenodd" d="M 370.4 -116.7 C 332.3 -231 208.9 -295.3 91.6 -257.1 C -24 -219.4 -88.8 -94.7 -49.6 23.4 C -11.6 137.9 112 202 229.2 163.7 C 344.7 126.1 409.5 1.5 370.4 -116.7 Z M 98.9 -261 C 102.7 -261.9 106.6 -262.8 110.5 -263.7 C 132.9 -268.9 155.6 -270.5 178.6 -268.7 C 208.5 -266.2 236.8 -258 263.4 -244.2 C 296.3 -226.9 323.2 -203 344.3 -172.4 C 353.8 -158.6 361.5 -143.9 367.6 -128.4 C 367.9 -127.5 368.5 -126.6 368.9 -125.7 C 370.8 -119.9 372.8 -114 374.7 -108.1 C 375.6 -104.4 376.6 -100.5 377.4 -96.8 C 382.8 -73.4 384.4 -49.8 382.2 -25.9 C 379.5 2.9 371.5 30.1 358.2 55.7 C 342.6 85.8 321.3 111.1 294 131.5 C 281.5 141 268 149 253.7 155.6 C 238.2 162.8 222 168.3 205.2 171.6 C 165.7 179.6 126.7 177.1 88.5 164.2 C 59.9 154.5 34.3 139.5 11.8 119.3 C -7.1 102.5 -22.6 82.9 -34.8 60.7 C -45 42.2 -52.5 22.6 -57 1.9 C -66.6 -41.8 -63.5 -84.5 -47.6 -126.3 C -33.8 -162.8 -11.5 -193.5 18.5 -218.4 C 33.3 -230.7 49.5 -240.9 67.1 -248.8 C 71.9 -251.1 76.8 -253.1 81.6 -255.2 C 87.4 -257.1 93.1 -259 98.9 -261 Z" fill="white"/>
<path fill-rule="evenodd" clip-rule="evenodd" d="M 377.5 -119.1 C 338.1 -237.3 210.5 -303.7 89.2 -264.2 C -30.2 -225.3 -97.3 -96.3 -56.7 25.8 C -17.4 144.1 110.3 210.4 231.5 170.9 C 350.9 131.9 417.9 3.1 377.5 -119.1 Z M 96.8 -268.3 C 100.8 -269.2 104.8 -270.2 108.7 -271.1 C 132 -276.5 155.5 -278.2 179.2 -276.2 C 210.1 -273.6 239.4 -265.2 266.9 -250.8 C 300.9 -233 328.8 -208.3 350.5 -176.6 C 360.3 -162.4 368.3 -147.2 374.6 -131.2 C 375 -130.2 375.5 -129.3 375.9 -128.4 C 377.9 -122.4 380 -116.3 382 -110.2 C 382.9 -106.3 383.9 -102.4 384.8 -98.5 C 390.4 -74.3 392 -49.8 389.7 -25.1 C 386.9 4.5 378.7 32.7 364.9 59.2 C 348.8 90.3 326.6 116.5 298.6 137.6 C 285.6 147.3 271.7 155.6 256.9 162.5 C 240.8 170 224.1 175.5 206.7 179 C 165.8 187.2 125.6 184.7 86 171.3 C 56.5 161.3 30 145.8 6.7 125 C -12.7 107.5 -28.8 87.3 -41.4 64.3 C -52 45.2 -59.8 24.9 -64.4 3.5 C -74.3 -41.6 -71.1 -85.8 -54.7 -129 C -40.3 -166.7 -17.4 -198.4 13.7 -224.2 C 29 -237 45.7 -247.5 63.9 -255.7 C 68.9 -258 73.9 -260.1 79 -262.3 C 84.9 -264.3 90.9 -266.3 96.8 -268.3 Z" fill="white"/>
<path fill-rule="evenodd" clip-rule="evenodd" d="M 296 24.5 C 314.2 27.8 329.2 36.4 341.1 50.5 C 334.8 33.1 334.8 15.7 341.1 -1.8 C 329.2 12.5 314.3 21.2 296 24.5 Z M 171.9 96.6 C 190.3 99.7 205.4 108.4 217.4 122.6 C 211 105.1 211 87.7 217.2 70.2 C 211.4 77.1 204.7 82.9 197 87.4 C 189.2 92 180.8 94.9 171.9 96.6 Z M 212.2 132.3 C 193.8 129.2 178.7 120.6 166.6 106.4 C 172.8 123.8 172.9 141.1 166.7 158.4 C 178.8 144.3 193.8 135.5 212.2 132.3 Z M 290.1 15.2 C 302 0.9 317 -7.9 335.3 -11.2 C 317 -14.4 302 -23.2 290 -37.4 C 296.5 -19.9 296.4 -2.3 290.1 15.2 Z M 273.5 24.6 C 255.3 21.6 240.2 12.8 228.2 -1.3 C 234.5 16.1 234.5 33.5 228.3 51 C 240.2 36.7 255.3 27.9 273.5 24.6 Z M 155.1 86.8 C 148.9 69.5 148.8 52.2 155 34.9 C 149.1 41.8 142.4 47.6 134.5 52 C 126.7 56.5 118.4 59.4 109.5 61 C 118.4 62.5 126.8 65.3 134.6 69.7 C 142.4 74.2 149.2 80 155.1 86.8 Z M 93 51.3 C 86.7 33.8 86.7 16.5 93 -0.9 C 80.9 13.4 65.8 22.1 47.4 25.4 C 65.8 28.5 81 37.1 93 51.3 Z M 233.8 60.5 C 252.1 63.8 267.2 72.4 279.3 86.5 C 276.2 77.9 274.5 69.2 274.6 60.2 C 274.6 51.2 276.2 42.6 279.3 34.1 C 273.5 41 266.8 46.9 259.1 51.4 C 251.2 56 242.8 59 233.8 60.5 Z M 290.4 86.5 C 302.5 72.4 317.5 63.6 335.8 60.3 C 326.8 58.8 318.5 55.9 310.6 51.4 C 302.8 46.9 296.1 41.2 290.3 34.2 C 296.6 51.7 296.7 69 290.4 86.5 Z M 31.2 15.8 C 24.7 -1.9 24.6 -19.2 30.9 -36.6 C 19 -22.3 3.9 -13.6 -14.6 -10.4 C 10 -3.6 12.8 -2.2 31.2 15.8 Z M 166.4 86.9 C 172.2 80.1 178.9 74.2 186.7 69.7 C 194.5 65.2 202.9 62.2 211.9 60.7 C 193.5 57.6 178.2 48.9 166.2 34.5 C 172.7 52 172.6 69.5 166.4 86.9 Z M 87.9 61.1 C 69.6 57.9 54.4 49.3 42.3 35.2 C 48.6 52.6 48.6 70 42.4 87.4 C 54.4 73.1 69.5 64.3 87.9 61.1 Z M 92.9 -91.8 C 89.7 -100.6 88 -109.1 87.9 -118 C 87.9 -126.9 89.6 -135.5 92.4 -144 C 80.4 -129.8 65.3 -121.1 46.8 -118 C 68.8 -112.6 75.3 -109.6 92.9 -91.8 Z M 47.2 -46.3 C 65.6 -43.2 80.7 -34.6 92.9 -20.4 C 86.5 -37.7 86.5 -55 92.6 -72.3 C 80.6 -58.2 65.5 -49.6 47.2 -46.3 Z M 103.7 -163.7 C 115.7 -177.9 130.8 -186.5 149 -189.8 C 130.6 -193 115.4 -201.8 103.4 -216.1 C 106.5 -207.5 108.3 -198.9 108.3 -189.9 C 108.3 -180.9 106.8 -172.2 103.7 -163.7 Z M 155.3 106.3 C 143.4 120.6 128.4 129.3 110.1 132.7 C 119 134.2 127.4 137.1 135.2 141.6 C 143 146 149.7 151.8 155.6 158.6 C 149.2 141.2 149.2 123.8 155.3 106.3 Z M 211.9 -11 C 193.4 -14.1 178.1 -22.8 166 -37.2 C 172.3 -19.7 172.5 -2.3 166.3 15.2 C 178.4 0.9 193.5 -7.9 211.9 -11 Z M -19.7 51.8 C -13.9 44.8 -7.2 39 0.7 34.5 C 8.6 29.9 17 27 26.1 25.4 C 7.5 22.4 -7.8 13.7 -20 -0.7 C -13.5 16.8 -13.4 34.2 -19.7 51.8 Z M 42 -55.9 C 54 -70.2 69.1 -79 87.5 -82.2 C 69.1 -85.3 53.9 -94 41.8 -108.2 C 48.1 -90.7 48.2 -73.3 42 -55.9 Z M 104.5 70.9 C 110.7 88.3 110.8 105.7 104.4 123.2 C 116.3 108.8 131.3 100.1 149.7 96.7 C 131.5 93.4 116.5 84.9 104.5 70.9 Z M 228.6 122.5 C 234.4 115.6 241.1 109.8 248.9 105.3 C 256.6 100.8 265 98 273.8 96.2 C 264.9 94.6 256.5 91.8 248.7 87.3 C 240.9 82.8 234.2 77 228.3 70.2 C 234.8 87.6 234.8 105 228.6 122.5 Z M 279.2 15.2 C 272.7 -2.5 272.8 -20 279.1 -37.6 C 267.1 -23.1 251.9 -14.2 233.4 -11 C 251.9 -7.9 267.1 0.8 279.2 15.2 Z M -19.9 -19.9 C -14.1 -26.9 -7.3 -32.7 0.6 -37.2 C 8.4 -41.7 16.8 -44.6 25.6 -46.2 C 7.2 -49.3 -8 -58 -20.1 -72.3 C -13.7 -54.8 -13.7 -37.4 -19.9 -19.9 Z M 149.7 -46.6 C 131.3 -49.7 116.1 -58.4 104 -72.6 C 110.3 -55.1 110.3 -37.7 104.1 -20.2 C 116.1 -34.7 131.3 -43.3 149.7 -46.6 Z M 104.3 51.4 C 116.3 37 131.5 28.3 149.9 25.1 C 140.9 23.5 132.5 20.7 124.7 16.2 C 116.8 11.7 110.1 6 104.1 -0.9 C 110.6 16.5 110.5 33.8 104.3 51.4 Z M 341 -73.4 C 335.2 -66.5 328.5 -60.6 320.7 -56.1 C 312.9 -51.6 304.5 -48.6 295.6 -47 C 304.7 -45.4 313.1 -42.4 320.9 -37.9 C 328.7 -33.5 335.4 -27.6 341.2 -20.7 C 334.7 -38.3 334.7 -55.9 341 -73.4 Z M 41.7 -127.5 C 53.7 -141.9 68.8 -150.7 87.3 -153.9 C 68.7 -157 53.5 -165.8 41.4 -180.2 C 48 -162.6 48 -145.1 41.7 -127.5 Z M 211.5 -82.6 C 202.5 -84.2 194 -87.1 186.1 -91.6 C 178.2 -96.2 171.5 -102 165.7 -108.9 C 172.2 -91.3 172.2 -73.7 165.9 -56.1 C 177.9 -70.6 193.1 -79.4 211.5 -82.6 Z M 278.9 -56.6 C 272.5 -74.1 272.5 -91.6 278.9 -109.1 C 266.9 -94.7 251.8 -85.9 233.3 -82.6 C 251.7 -79.5 266.8 -70.8 278.9 -56.6 Z M 108.9 -153.9 C 117.9 -152.5 126.3 -149.5 134.2 -145 C 142 -140.5 148.8 -134.7 154.6 -127.8 C 148.3 -145.3 148.3 -162.6 154.5 -180.1 C 142.3 -165.8 127.3 -157.1 108.9 -153.9 Z M 93.2 70.7 C 81.2 85.1 66 93.8 47.6 97 C 66.2 100.1 81.4 108.8 93.5 123.2 C 87 105.7 87 88.3 93.2 70.7 Z M -20.2 -143.9 C -13.9 -126.4 -13.9 -109 -20.2 -91.4 C -8.3 -105.8 6.8 -114.5 25 -117.9 C 6.8 -121.2 -8.3 -129.7 -20.2 -143.9 Z M -15.3 -153.6 C 3.1 -150.5 18.3 -141.8 30.5 -127.6 C 24.3 -145.1 24.2 -162.5 30.5 -179.9 C 18.4 -165.5 3.2 -156.7 -15.3 -153.6 Z M 165.8 -199.7 C 171.6 -206.6 178.3 -212.4 186.1 -216.9 C 194 -221.4 202.4 -224.4 211.4 -225.8 C 192.9 -228.9 177.7 -237.6 165.6 -251.8 C 171.8 -234.4 171.9 -217.1 165.8 -199.7 Z M -15.2 -81.9 C -6.2 -80.4 2.3 -77.5 10.2 -73.1 C 18 -68.6 24.8 -62.7 30.8 -56 C 27.6 -64.5 26.1 -73.1 26 -82.1 C 25.9 -91 27.6 -99.7 30.6 -108.2 C 18.4 -93.8 3.3 -85.1 -15.2 -81.9 Z M 108.6 -225.5 C 127.2 -222.5 142.5 -213.6 154.6 -199.2 C 148.1 -216.8 148.1 -234.2 154.3 -251.8 C 142.3 -237.5 127.1 -228.7 108.6 -225.5 Z M 216.5 -216.2 C 204.5 -202 189.4 -193.2 171.1 -189.9 C 189.5 -186.7 204.7 -178 216.8 -163.6 C 210.2 -181.2 210.2 -198.6 216.5 -216.2 Z M 42.2 15.7 C 54.2 1.3 69.4 -7.3 87.8 -10.6 C 69.3 -13.6 54.1 -22.5 42 -36.7 C 48.4 -19.2 48.4 -1.9 42.2 15.7 Z M 165.9 -128 C 177.9 -142.3 193.1 -151.1 211.5 -154.2 C 192.9 -157.3 177.7 -166.1 165.5 -180.5 C 168.6 -172 170.3 -163.3 170.4 -154.4 C 170.4 -145.4 168.9 -136.7 165.9 -128 Z M 155 15.4 C 151.9 6.9 150.3 -1.9 150.3 -10.9 C 150.3 -19.9 151.9 -28.6 154.9 -37.1 C 149.1 -30.1 142.3 -24.3 134.5 -19.7 C 126.6 -15.2 118.1 -12.2 109.1 -10.7 C 118.1 -9.1 126.5 -6.3 134.5 -1.8 C 142.3 2.7 149.2 8.5 155 15.4 Z M 217 -1.3 C 205 13 189.8 21.7 171.4 25 C 190 28.1 205.1 36.9 217.2 51.1 C 210.8 33.6 210.7 16.2 217 -1.3 Z M 103.5 -144.5 C 110 -127.1 110.1 -109.7 104 -92.2 C 115.9 -106.3 131 -115 149.2 -118.2 C 130.7 -121.5 115.6 -130.3 103.5 -144.5 Z M 273.3 -46.9 C 254.8 -50.3 239.6 -59 227.6 -73.5 C 230.9 -65 232.6 -56.2 232.6 -47.2 C 232.7 -38.1 231.1 -29.3 228.1 -20.6 C 233.9 -27.5 240.4 -33.3 248.2 -37.8 C 256 -42.3 264.3 -45.3 273.3 -46.9 Z M 108.6 -82.2 C 127.6 -79.2 142.9 -70.4 155 -56 C 148.4 -73.6 148.4 -91.1 154.8 -108.8 C 139.7 -92.5 132 -88 108.6 -82.2 Z M -14.5 61.4 C -5.4 62.9 3 66 10.9 70.5 C 18.8 74.9 25.5 80.8 31.3 87.7 C 24.8 70.1 24.8 52.6 31.1 35.1 C 19.1 49.5 3.9 58.2 -14.5 61.4 Z M 92.5 -216 C 80.5 -201.6 65.3 -192.9 46.9 -189.6 C 65.4 -186.4 80.6 -177.6 92.6 -163.3 C 86.2 -180.9 86.1 -198.4 92.5 -216 Z M 171.4 -46.6 C 189.9 -43.4 205.1 -34.7 217.1 -20.3 C 210.6 -37.9 210.5 -55.4 216.8 -73.1 C 204.8 -58.6 189.7 -50 171.4 -46.6 Z M 227.8 -92.1 C 239.7 -106.5 254.9 -115.3 273.3 -118.6 C 254.9 -121.8 239.7 -130.5 227.6 -144.8 C 234.1 -127.3 234.2 -109.7 227.8 -92.1 Z M 295.3 -118.6 C 313.7 -115.5 328.9 -106.7 341 -92.4 C 334.4 -110 334.5 -127.6 340.9 -145.2 C 328.9 -130.8 313.7 -122 295.3 -118.6 Z M 335.8 -82.9 C 317.1 -86 301.8 -94.9 289.7 -109.3 C 296.3 -91.7 296.3 -74.1 290 -56.5 C 302.1 -70.9 317.2 -79.7 335.8 -82.9 Z M 171.2 -118.3 C 189.7 -115.1 204.9 -106.3 216.9 -92 C 210.5 -109.6 210.4 -127.1 216.8 -144.7 C 204.8 -130.3 189.7 -121.6 171.2 -118.3 Z M 233 -154.3 C 241.9 -152.8 250.4 -149.9 258.2 -145.4 C 266.2 -140.9 272.9 -135 278.9 -128 C 272.4 -145.6 272.4 -163 278.7 -180.6 C 266.6 -166.3 251.5 -157.5 233 -154.3 Z M 227.6 -216.2 C 230.7 -207.7 232.4 -198.9 232.4 -189.8 C 232.4 -180.8 230.6 -172.1 227.6 -163.6 C 239.6 -178.2 255 -187 273.6 -190.2 C 255.1 -193.3 239.8 -202 227.6 -216.2 Z M 289.7 -180.8 C 292.7 -172.2 294.4 -163.5 294.5 -154.4 C 294.5 -145.3 292.8 -136.5 289.8 -128 C 301.8 -142.5 317.2 -151.3 335.8 -154.5 C 317.2 -157.7 301.8 -166.4 289.7 -180.8 Z M -23.7 62.5 C -11.6 83.1 12.7 96.4 35.1 96.1 C 29.5 79.7 -6.1 59.3 -23.7 62.5 Z M 285.8 -119.3 C 300.2 -119.8 313.1 -124 324.7 -132.1 C 332.9 -137.8 339.6 -144.8 344.8 -153.6 C 323.1 -153.7 298.3 -141.1 285.8 -119.3 Z M 285.8 -189.2 C 297.5 -168.8 322.2 -155.3 344.5 -155.6 C 339 -172 303 -192.6 285.8 -189.2 Z M 346.6 -13.2 C 358.1 -27.4 358 -66.4 346.5 -80.9 C 335.1 -67 335.1 -28.1 346.6 -13.2 Z M 222.3 -84.5 C 233.8 -99.3 233.7 -138.8 222.2 -152.3 C 210.6 -132.8 210.5 -104.8 222.3 -84.5 Z M 284.4 -120.1 C 291.1 -132.8 293.9 -145.8 292.9 -159.8 C 292.2 -169.9 289.3 -179.4 284.2 -188.7 C 277.6 -176.4 274.7 -163.7 275.5 -150.2 C 276.2 -139.7 279.1 -129.7 284.4 -120.1 Z M 221.1 -12 C 214.9 -22.1 206.9 -30 196.8 -36 C 186.1 -42.3 174.5 -45.6 162 -45.9 C 169.9 -27.9 202.1 -9.5 221.1 -12 Z M -24.3 -152.6 C -18.4 -136 15.3 -116.6 34.5 -118.8 C 28.7 -135.4 -5.2 -155 -24.3 -152.6 Z M 223.7 -155 C 237.4 -155.4 249.8 -159.3 261.1 -166.7 C 270 -172.5 277.2 -180 282.7 -189.3 C 260.3 -189.4 235.8 -176.3 223.7 -155 Z M 344.9 -83.9 C 336.6 -101.9 303.4 -120.9 286 -117.6 C 292.2 -100.9 325.6 -81.7 344.9 -83.9 Z M 223.6 -225 C 235.8 -203.8 260.6 -190.8 282.4 -191.2 C 272.4 -209.5 248.8 -225.1 223.6 -225 Z M 37.8 -47 C 51.4 -47.4 63.6 -51.2 74.7 -58.4 C 83.9 -64.3 91.2 -71.9 96.9 -81.3 C 74.4 -81.4 50.1 -68.4 37.8 -47 Z M 161.7 -189 C 168.8 -171.6 202.7 -152.2 220.5 -155.2 C 214.4 -172 179.9 -191.8 161.7 -189 Z M -24.2 -82.6 C -9.4 -83.2 3.8 -87.6 15.6 -96.1 C 23.4 -101.7 29.8 -108.6 34.8 -117 C 11 -116.9 -12.9 -103 -24.2 -82.6 Z M 160.2 -116.5 C 148.7 -100.4 148.8 -63.7 160.4 -48.6 C 171.9 -62.9 171.9 -99.6 160.2 -116.5 Z M 283.1 -47.8 C 275.7 -59.8 265.9 -68.8 253.5 -74.8 C 244.2 -79.3 234.4 -81.7 223.9 -81.9 C 231.3 -64.2 262.5 -46.2 283.1 -47.8 Z M 158.6 -119.2 C 151.6 -136.5 117.9 -155.9 99.8 -153 C 105.6 -136.3 139.9 -116.6 158.6 -119.2 Z M 284.4 -45.3 C 278 -33.5 275.2 -21.2 275.8 -8.2 C 276.3 2.8 279.1 13.2 284.6 23 C 296.7 2.2 295.9 -25.7 284.4 -45.3 Z M 158.7 -45.7 C 140.5 -48.4 106.9 -28.8 100.1 -11.6 C 118.9 -9.2 152.8 -28.9 158.7 -45.7 Z M 158.9 -47.4 C 151.9 -64.8 118.5 -83.9 99.9 -81.3 C 109.5 -63.9 132.5 -47.5 158.9 -47.4 Z M 160.2 -188.1 C 148.6 -174.4 148.7 -133.6 160.4 -120 C 166.8 -131.8 169.7 -144.4 168.9 -157.7 C 168.4 -168.4 165.5 -178.6 160.2 -188.1 Z M 285 94.6 C 291.7 82.1 294.5 69.1 293.5 55.2 C 292.7 45 289.9 35.4 284.8 26.3 C 273.2 42.8 273.3 79 285 94.6 Z M 220.6 -226.8 C 213.9 -237.7 205.2 -246.1 194.1 -252.1 C 184 -257.6 173.1 -260.6 161.3 -260.7 C 174.1 -238.9 198.8 -226.4 220.6 -226.8 Z M 286.5 95.3 C 305.4 97.7 338.4 78.5 345.1 61.2 C 327 58.5 293.2 78.1 286.5 95.3 Z M 221.5 59.7 C 213.5 47.1 203 37.8 189.7 31.9 C 181 27.9 171.9 25.9 162.1 25.8 C 174 46.8 198.9 60.1 221.5 59.7 Z M 222.4 -80.8 C 210.9 -65.7 211 -27.1 222.5 -12.9 C 233 -30.2 235.4 -58 222.4 -80.8 Z M 99.3 -224.8 C 112.1 -203 136.9 -190.4 158.6 -190.8 C 153.3 -199.7 146.3 -206.9 137.9 -212.6 C 126.3 -220.4 113.5 -224.4 99.3 -224.8 Z M 283.3 97 C 269.8 97.4 257.5 101.2 246.3 108.5 C 237.3 114.4 229.9 121.9 224.3 131.4 C 244.9 132.9 277.3 113.9 283.3 97 Z M 34.9 -47.2 C 22.4 -68.7 -2.7 -81.5 -24.1 -80.9 C -13 -61.1 11.4 -46.9 34.9 -47.2 Z M 98.2 -152.1 C 86.6 -137.2 86.7 -98.1 98.3 -84.2 C 109.2 -102.2 110.8 -130.1 98.2 -152.1 Z M 37.4 -188.7 C 45 -176.4 55.1 -167.3 67.9 -161.3 C 76.9 -157.1 86.4 -154.8 96.6 -154.7 C 84.9 -175.1 61 -188.8 37.4 -188.7 Z M 159.2 24.1 C 152.7 13.3 143.9 5 133 -1.1 C 122.8 -6.7 111.8 -9.6 99.9 -9.8 C 111.4 10.3 135.7 24.4 159.2 24.1 Z M 220.8 -83.5 C 214.8 -94.1 203.4 -105.2 189.3 -111.4 C 180.6 -115.3 171.4 -117.4 161.7 -117.5 C 172.9 -97.6 197.2 -83.2 220.8 -83.5 Z M 38.3 96.3 C 53.6 95.7 67.2 91.1 79.3 82 C 86.6 76.6 92.7 69.9 97.4 61.8 C 72.6 62.1 49.5 76.6 38.3 96.3 Z M 97 -9.7 C 71.8 -9.6 48.3 5.9 38.2 24.5 C 57.5 26.7 89.4 8.1 97 -9.7 Z M 97 -83.1 C 90.2 -94.1 81.4 -102.5 70.4 -108.5 C 60.2 -114 49.4 -116.9 37.6 -117.1 C 49.1 -97.1 73.3 -82.9 97 -83.1 Z M 96.5 -224.8 C 81.9 -224.3 68.8 -220 57.1 -211.7 C 49.1 -206.1 42.5 -199 37.4 -190.4 C 60.7 -190.3 85.2 -204.4 96.5 -224.8 Z M 100.2 60.3 C 114.4 59.9 127.1 55.7 138.6 47.9 C 147.1 42.1 154 34.9 159.3 26 C 137.9 25.6 112.5 38.4 100.2 60.3 Z M 284.5 -48.3 C 290.7 -59.9 293.7 -71.9 293.3 -84.6 C 292.9 -96.1 290.1 -106.8 284.3 -117.1 C 277.9 -105.1 275.1 -92.8 275.6 -79.6 C 276.1 -68.6 279.1 -58.4 284.5 -48.3 Z M 98.3 -155.6 C 104.9 -167.9 107.7 -180.9 106.8 -194.5 C 106.1 -204.9 103.2 -214.7 98.1 -223.9 C 86.5 -208.2 86.5 -170.8 98.3 -155.6 Z M 162 24.2 C 176.4 23.9 189.3 19.6 201 11.5 C 209.2 5.8 215.9 -1.3 221.2 -10.2 C 198.5 -10.2 174 3.1 162 24.2 Z M 97 -11.4 C 93.6 -20.3 78 -34.1 65.2 -39.6 C 56.5 -43.3 47.5 -45.5 37.8 -45.5 C 43.4 -34.9 55.7 -23.9 68.4 -18 C 77.4 -13.8 86.9 -11.6 97 -11.4 Z M 38 26.3 C 45.5 38.4 55.4 47.3 67.9 53.3 C 77.1 57.8 86.9 60.1 97.4 60.3 C 85.2 39.2 60.4 25.9 38 26.3 Z M 160.1 -191.7 C 171.6 -208.2 171.5 -245.6 159.9 -259.7 C 148.3 -245.3 148.4 -208.2 160.1 -191.7 Z M 35.2 24.7 C 24.1 4.9 -0.2 -9.7 -24.1 -9.3 C -19 -0.8 -12.3 6.2 -4.3 11.9 C 7.5 20.1 20.6 24.3 35.2 24.7 Z M 222.1 -224.2 C 210.5 -208.8 210.6 -171.8 222.3 -156 C 227.6 -165.7 230.4 -175.9 230.9 -186.8 C 231.5 -200 228.5 -212.4 222.1 -224.2 Z M 158.4 -260.6 C 138.4 -262.5 106.1 -243.7 99.6 -226.5 C 120.5 -226.1 145.9 -238.6 158.4 -260.6 Z M 100.2 61.8 C 107 79 140.2 98.1 159.5 95.7 C 154.3 87.1 147.6 80.1 139.5 74.5 C 127.7 66.3 114.7 62.1 100.2 61.8 Z M 161.3 -190.6 C 175.5 -191 188.1 -195 199.5 -202.6 C 208.2 -208.5 215.2 -215.8 220.7 -225.2 C 206.2 -224.7 193.3 -220.5 181.7 -212.5 C 173.5 -206.7 166.7 -199.6 161.3 -190.6 Z M 223.4 -153.6 C 230.7 -141.8 240.2 -133 252.1 -127 C 261.7 -122.1 271.9 -119.5 283.1 -119.3 C 275.7 -131.3 266 -140.2 253.9 -146.3 C 244.4 -150.9 234.3 -153.3 223.4 -153.6 Z M 222.6 -9.2 C 211 6.3 211.2 44 222.7 58.8 C 234.2 45.4 234.2 6.7 222.6 -9.2 Z M 221.3 61.3 C 208 61.8 195.8 65.4 184.7 72.6 C 175.5 78.5 168 86.2 162.3 95.7 C 182.5 97.5 215 78.5 221.3 61.3 Z M 162 -47.5 C 182.3 -45.9 213.9 -64.3 220.7 -81.7 C 202.8 -84.6 169.8 -65.4 162 -47.5 Z M 346.7 -9.6 C 335.1 5.5 335.2 43.8 346.8 58.4 C 357.7 40.5 359.3 12.3 346.7 -9.6 Z M 286 -47.9 C 296.2 -47.5 311.7 -51.2 324.4 -60 C 332.8 -65.9 339.8 -73.1 345.2 -82.2 C 331.1 -81.8 318.4 -77.8 307 -70.1 C 298.4 -64.3 291.4 -57 286 -47.9 Z M 35.9 -188 C 29.2 -175.5 26.4 -162.4 27.4 -148.5 C 28.2 -138.2 31 -128.6 36.1 -119.5 C 47.5 -139.3 48.3 -166.4 35.9 -188 Z M -24 -11.1 C -4.6 -9 28.1 -28.1 34.8 -45.3 C 16.8 -48.2 -15.3 -29.6 -24 -11.1 Z M 100.5 131.8 C 111.7 131.9 126.1 128.3 138.3 119.9 C 147 114 154.1 106.7 159.6 97.6 C 137.7 97.2 112.6 110.3 100.5 131.8 Z M -25.3 59.6 C -20 51.2 -15.5 35.9 -16.7 20.6 C -17.5 10.3 -20.3 0.6 -25.4 -8.6 C -37.9 13.1 -36.4 40.8 -25.3 59.6 Z M 161.2 166.5 C 167.1 157.6 170.7 141.4 169.7 127.5 C 169 117.1 166.1 107.4 161 98.3 C 149.3 114.7 149.4 151.8 161.2 166.5 Z M 98.6 62.7 C 91.9 75.1 89.2 88.1 90.2 101.9 C 90.9 112.2 93.7 121.9 98.8 131 C 110.5 116.5 110.3 78.8 98.6 62.7 Z M 344.9 -10.4 C 326.8 -13.1 292.2 7 286.4 23.7 C 305.2 26.1 339.3 6.3 344.9 -10.4 Z M 38.3 98 C 51.4 120 76 132.1 97.4 131.8 C 90 114.2 56.1 94.8 38.3 98 Z M 223.9 -11.7 C 239.8 -12.3 253.7 -17.2 266 -26.7 C 272.9 -32.1 278.7 -38.4 283.1 -46.2 C 259.5 -46.1 235.6 -32.3 223.9 -11.7 Z M 222.7 62.2 C 215.9 74.8 213.1 88 214.2 101.9 C 215 112 217.9 121.6 222.9 130.6 C 234.6 110.6 234.8 82.9 222.7 62.2 Z M 35.3 26.1 C 21.4 26.6 8.8 30.5 -2.5 38 C -11.3 43.9 -18.4 51.3 -23.9 60.5 C -2.5 61 23 47.9 35.3 26.1 Z M 220.7 -153.4 C 210.2 -153.6 195 -150 182 -141 C 173.7 -135.2 166.8 -128 161.6 -119.2 C 184.1 -119 208.6 -132.1 220.7 -153.4 Z M 99.7 -154.8 C 118.2 -152.2 152.4 -172.2 158.5 -189 C 139.4 -191.3 105.8 -171.7 99.7 -154.8 Z M 223.8 -83.3 C 238.2 -83.7 251.1 -88 262.8 -96.1 C 271 -101.7 277.8 -109 283 -117.8 C 257.8 -117.6 234.4 -102.6 223.8 -83.3 Z M 162.7 167.4 C 187.7 167.4 211.6 151.7 221.4 133.1 C 202 131.1 169.9 149.8 162.7 167.4 Z M 346.1 -152.8 C 339.8 -141.1 336.9 -128.7 337.6 -115.5 C 338.1 -104.5 340.9 -94.2 346.3 -84.5 C 358.1 -100.6 357.9 -138 346.1 -152.8 Z M 224 -10.3 C 231.8 7.7 265 26.7 283 23.7 C 280.2 17.6 271 7.1 260.9 0.8 C 249.6 -6.2 237.5 -10 224 -10.3 Z M 283.4 95.4 C 276.8 78.2 242.3 58.4 224.4 61.5 C 230.3 78.3 264.2 97.7 283.4 95.4 Z M 224.3 59.8 C 236.1 60 252.4 55.5 265.5 45.5 C 272.7 39.9 278.7 33.4 283.3 25.4 C 259.1 25.4 235.2 39.9 224.3 59.8 Z M 37.7 -118.8 C 57.7 -117 90.5 -136.1 96.5 -153 C 78.5 -155.9 45.3 -136.6 37.7 -118.8 Z M 99.5 -83 C 113.1 -83.4 125.3 -87.1 136.4 -94.2 C 145.6 -100.1 153.2 -107.8 158.9 -117.5 C 145.3 -117.2 133 -113.4 121.8 -106.2 C 112.7 -100.3 105.3 -92.6 99.5 -83 Z M 159.7 167.4 C 154.5 157.9 143.4 146.7 130 140.4 C 120.7 136 110.9 133.6 100.4 133.5 C 112.3 154.2 136.9 167.8 159.7 167.4 Z M -25.7 -80 C -37.2 -65.9 -37.1 -27 -25.5 -12.1 C -13.9 -26.6 -14.1 -65.3 -25.7 -80 Z M 34.4 -188.6 C 16.3 -191.5 -17.1 -172.1 -24.4 -154.5 C -6.1 -151.8 27.8 -171.4 34.4 -188.6 Z M 162.5 97.6 C 168.3 114.2 203.8 134.4 221.4 131.3 C 215.4 114.6 181 94.9 162.5 97.6 Z M 36.7 95.4 C 48.3 80.3 48.3 41.7 36.6 27.2 C 25.8 45.2 24 73 36.7 95.4 Z M 36.5 -47.9 C 43.5 -60.9 46.3 -74.4 44.8 -88.9 C 44 -98.6 41.1 -107.6 36.2 -116.3 C 24.6 -99.3 24.7 -63.7 36.5 -47.9 Z M 160.4 -44.9 C 154.5 -35.2 150.6 -20.3 151.8 -5.7 C 152.6 4.6 155.4 14.3 160.6 23.4 C 172.9 2.3 171.8 -25.7 160.4 -44.9 Z M 160.5 26.6 C 153.8 39.2 150.9 52.4 152.1 66.3 C 152.8 76.4 155.7 86 160.8 95 C 172.4 79 172.3 43.4 160.5 26.6 Z M 36.3 -44.7 C 30.1 -33.1 27.2 -21 27.6 -8.1 C 28 3.2 31 13.8 36.5 23.9 C 48.8 3.1 48 -25.1 36.3 -44.7 Z M 98.4 -9 C 91.4 4 88.8 17.7 90.1 32.2 C 91 42.7 96.1 56.5 98.8 59.2 C 111.6 37.2 109.4 8.7 98.4 -9 Z M 98.6 -12.2 C 105.4 -24.7 108.2 -37.8 107.1 -51.7 C 106.4 -62 103.5 -71.5 98.4 -80.7 C 86.1 -59.9 87 -31.5 98.6 -12.2 Z M 345.1 -12.2 C 337.2 -30.1 304.2 -49.1 286 -46 C 292.8 -28.8 326.7 -9.3 345.1 -12.2 Z M -25.9 -151.7 C -37.5 -137.5 -37.4 -98.1 -25.8 -83.8 C -14.2 -97.2 -14.3 -138 -25.9 -151.7 Z M 345.5 59.4 C 338.8 48.4 330 40 319 34 C 308.8 28.4 297.9 25.5 286.1 25.3 C 294.6 43.7 326.4 62 345.5 59.4 Z M 355.1 42.3 C 381.1 -17.2 381 -76.8 354.8 -136.3 C 354.6 -136 354.6 -135.6 354.7 -135.3 C 358.8 -117.5 356.5 -100.5 348 -84.3 C 347.3 -83.1 347.6 -82.3 348.1 -81.2 C 359.8 -58.4 359.7 -35.5 348.1 -12.7 C 347.6 -11.6 347.6 -10.9 348.1 -9.9 C 352.9 -1.2 355.8 8.2 356.7 18.1 C 357.4 26.3 356.7 34.3 355.1 42.3 Z M 335.9 76.4 C 335.8 76.3 335.7 76.2 335.6 76.1 C 335.5 76.1 335.3 76.1 335.2 76.2 C 321.6 89.3 305.3 96.2 286.4 96.9 C 285.7 96.9 284.9 97.6 284.5 98.2 C 279.7 105.9 273.9 112.5 266.7 118 C 254.4 127.3 240.5 132.2 225.1 132.8 C 224 132.9 223.3 133 222.7 134.1 C 214.3 147.7 202.8 157.6 188 163.6 C 185.7 164.5 183.4 165.4 181.1 166.2 C 245.9 159 297.5 128.9 335.9 76.4 Z M 179.7 -260.1 C 179.6 -260 179.6 -259.8 179.5 -259.6 C 179.7 -259.5 180 -259.4 180.4 -259.3 C 198.1 -253.9 211.9 -243.3 221.7 -227.6 C 222.4 -226.5 223.2 -226.5 224.2 -226.5 C 249.9 -225.2 269.7 -213.7 283.7 -192.1 C 284.4 -191.1 285 -190.9 286.1 -190.9 C 302.7 -190.3 317.7 -184.8 330.5 -174.2 C 332 -173 333.4 -171.7 334.8 -170.5 C 334.9 -170.6 335 -170.8 335.1 -170.9 C 296.2 -223.1 244.5 -252.9 179.7 -260.1 Z M -14.7 76.6 C -2.8 93.6 11.4 108.6 27.7 121.5 C 44.1 134.4 61.9 144.7 81.3 152.4 C 98.9 159.3 135.2 167.8 141.3 166.3 C 140.9 166.1 140.4 166 140.1 165.9 C 122.6 160.5 109 150 99.4 134.6 C 98.8 133.6 98.2 133.3 97 133.3 C 71.2 132.1 51.3 120.7 37.3 99 C 36.6 98 35.9 97.7 34.7 97.6 C 20.6 97.2 7.6 93.1 -4.1 85.1 C -7.8 82.4 -11.2 79.4 -14.7 76.6 Z M 140.7 -259.6 C 131.4 -260.4 99.6 -252.9 80.6 -245.3 C 61.2 -237.7 43.4 -227.3 27.2 -214.3 C 11.4 -201.7 -12.2 -176.3 -14.9 -169.2 C -14.7 -169.4 -14.6 -169.5 -14.4 -169.6 C -0.8 -182.6 15.4 -189.4 34.2 -190.2 C 34.9 -190.3 35.9 -190.8 36.2 -191.4 C 50.3 -213.2 70.2 -224.9 96.1 -226.1 C 97.3 -226.2 97.9 -226.7 98.4 -227.6 C 103.2 -235.5 109.3 -242.1 116.7 -247.7 C 123.9 -253.2 132 -257.1 140.7 -259.6 Z M -34 -136.6 C -48.2 -105.3 -54.8 -73 -53.6 -39.1 C -52.6 -9.8 -45.8 18 -33.2 45 C -33.9 41 -34.7 37.4 -35.1 33.8 C -36.9 18.7 -34.1 4.4 -26.9 -9.1 C -26.6 -9.7 -26.6 -10.7 -26.9 -11.4 C -30.3 -17.6 -32.9 -24.2 -34.3 -31.2 C -37.8 -48.4 -35.5 -64.9 -27.2 -80.4 C -26.6 -81.6 -26.7 -82.3 -27.3 -83.3 C -34.2 -96.2 -37.1 -109.8 -35.8 -124.3 C -35.4 -128.2 -34.7 -132.2 -34 -136.6 Z M 365 -114.3 C 402.5 0.5 340 122.5 225.3 158.9 C 111.7 194.8 -10 132.1 -45.6 16.7 C -80.4 -96.4 -18.2 -216.2 95.6 -252.1 C 209.3 -288 328.2 -225.3 365 -114.3 Z" fill="white"/>
</g>
</svg>
