<svg width="24" height="24" viewBox="0 0 24 24" fill="none" xmlns="http://www.w3.org/2000/svg">
<path d="M21 22.75H3C2.59 22.75 2.25 22.41 2.25 22C2.25 21.59 2.59 21.25 3 21.25H21C21.41 21.25 21.75 21.59 21.75 22C21.75 22.41 21.41 22.75 21 22.75ZM21 2.75H3C2.59 2.75 2.25 2.41 2.25 2C2.25 1.59 2.59 1.25 3 1.25H21C21.41 1.25 21.75 1.59 21.75 2C21.75 2.41 21.41 2.75 21 2.75ZM12 18.75C11.59 18.75 11.25 18.41 11.25 18V6C11.25 5.59 11.59 5.25 12 5.25C12.41 5.25 12.75 5.59 12.75 6V18C12.75 18.41 12.41 18.75 12 18.75Z" fill="white"/>
<path d="M14.8296 8.46795C14.6396 8.46795 14.4496 8.39795 14.2996 8.24795L11.9996 5.94795L9.69958 8.24795C9.40958 8.53795 8.92958 8.53795 8.63958 8.24795C8.5001 8.10681 8.42188 7.91638 8.42188 7.71795C8.42188 7.51952 8.5001 7.32909 8.63958 7.18795L11.4696 4.35795C11.7496 4.07795 12.2496 4.07795 12.5296 4.35795L15.3596 7.18795C15.6496 7.47795 15.6496 7.95795 15.3596 8.24795C15.2096 8.39795 15.0196 8.46795 14.8296 8.46795ZM11.9996 19.4679C11.8007 19.4678 11.6101 19.3886 11.4696 19.2479L8.63958 16.4179C8.5001 16.2768 8.42188 16.0864 8.42188 15.8879C8.42188 15.6895 8.5001 15.4991 8.63958 15.3579C8.92958 15.0679 9.40958 15.0679 9.69958 15.3579L11.9996 17.658L14.2996 15.3579C14.5896 15.0679 15.0696 15.0679 15.3596 15.3579C15.6496 15.6479 15.6496 16.1279 15.3596 16.4179L12.5296 19.2479C12.3891 19.3886 12.1984 19.4678 11.9996 19.4679Z" fill="white"/>
</svg>
