<svg width="24" height="24" viewBox="0 0 24 24" fill="none" xmlns="http://www.w3.org/2000/svg">
<path d="M17.54 9.05989C15.77 9.05989 14.33 7.61989 14.33 5.84989C14.33 4.07989 15.77 2.63989 17.54 2.63989C19.31 2.63989 20.75 4.07989 20.75 5.84989C20.75 7.61989 19.31 9.05989 17.54 9.05989ZM17.54 4.12989C16.6 4.12989 15.83 4.89989 15.83 5.83989C15.83 6.77989 16.6 7.54989 17.54 7.54989C18.48 7.54989 19.25 6.77989 19.25 5.83989C19.25 4.89989 18.48 4.12989 17.54 4.12989ZM6.46 9.05989C4.69 9.05989 3.25 7.61989 3.25 5.84989C3.25 4.07989 4.69 2.63989 6.46 2.63989C8.23 2.63989 9.67 4.07989 9.67 5.84989C9.67 7.61989 8.23 9.05989 6.46 9.05989ZM6.46 4.12989C5.52 4.12989 4.75 4.89989 4.75 5.83989C4.75 6.77989 5.52 7.54989 6.46 7.54989C7.4 7.54989 8.17 6.77989 8.17 5.83989C8.17 4.89989 7.41 4.12989 6.46 4.12989ZM17.54 21.3699C15.77 21.3699 14.33 19.9299 14.33 18.1599C14.33 16.3899 15.77 14.9499 17.54 14.9499C19.31 14.9499 20.75 16.3899 20.75 18.1599C20.75 19.9299 19.31 21.3699 17.54 21.3699ZM17.54 16.4399C16.6 16.4399 15.83 17.2099 15.83 18.1499C15.83 19.0899 16.6 19.8599 17.54 19.8599C18.48 19.8599 19.25 19.0899 19.25 18.1499C19.25 17.2099 18.48 16.4399 17.54 16.4399ZM6.46 21.3699C4.69 21.3699 3.25 19.9299 3.25 18.1599C3.25 16.3899 4.69 14.9499 6.46 14.9499C8.23 14.9499 9.67 16.3899 9.67 18.1599C9.67 19.9299 8.23 21.3699 6.46 21.3699ZM6.46 16.4399C5.52 16.4399 4.75 17.2099 4.75 18.1499C4.75 19.0899 5.52 19.8599 6.46 19.8599C7.4 19.8599 8.17 19.0899 8.17 18.1499C8.17 17.2099 7.41 16.4399 6.46 16.4399Z" fill="#888EA8"/>
</svg>
