<svg width="24" height="24" viewBox="0 0 24 24" fill="none" xmlns="http://www.w3.org/2000/svg">
<path d="M7 14.6898C6.59 14.6898 6.25 14.3498 6.25 13.9398V10.7298C6.25 10.3198 6.59 9.97976 7 9.97976C7.41 9.97976 7.75 10.3198 7.75 10.7298V13.9398C7.75 14.3598 7.41 14.6898 7 14.6898ZM12 16.4298C11.59 16.4298 11.25 16.0898 11.25 15.6798V8.99976C11.25 8.58976 11.59 8.24976 12 8.24976C12.41 8.24976 12.75 8.58976 12.75 8.99976V15.6798C12.75 16.0898 12.41 16.4298 12 16.4298ZM17 14.6898C16.59 14.6898 16.25 14.3498 16.25 13.9398V10.7298C16.25 10.3198 16.59 9.97976 17 9.97976C17.41 9.97976 17.75 10.3198 17.75 10.7298V13.9398C17.75 14.3598 17.41 14.6898 17 14.6898Z" fill="#888EA8"/>
<path d="M15 22.7498H9C3.57 22.7498 1.25 20.4298 1.25 14.9998V8.99976C1.25 3.56976 3.57 1.24976 9 1.24976H15C20.43 1.24976 22.75 3.56976 22.75 8.99976V14.9998C22.75 20.4298 20.43 22.7498 15 22.7498ZM9 2.74976C4.39 2.74976 2.75 4.38976 2.75 8.99976V14.9998C2.75 19.6098 4.39 21.2498 9 21.2498H15C19.61 21.2498 21.25 19.6098 21.25 14.9998V8.99976C21.25 4.38976 19.61 2.74976 15 2.74976H9Z" fill="#888EA8"/>
</svg>
