<?xml version="1.0" standalone="no"?>
<!DOCTYPE svg PUBLIC "-//W3C//DTD SVG 20010904//EN"
 "http://www.w3.org/TR/2001/REC-SVG-20010904/DTD/svg10.dtd">
<svg version="1.0" xmlns="http://www.w3.org/2000/svg"
 width="225.000000pt" height="225.000000pt" viewBox="0 0 225.000000 225.000000"
 preserveAspectRatio="xMidYMid meet">

<g transform="translate(0.000000,225.000000) scale(0.100000,-0.100000)"
fill="#000000" stroke="none">
<path d="M785 2221 c-223 -65 -365 -248 -365 -472 0 -137 50 -249 155 -348 62
-59 177 -118 247 -127 27 -4 47 -8 45 -10 -2 -2 -37 -10 -78 -18 -277 -53
-513 -244 -626 -506 -38 -88 -61 -172 -70 -252 -5 -54 -4 -58 25 -87 l30 -31
504 0 505 0 20 22 c14 16 23 44 27 85 8 69 31 145 66 213 30 59 153 179 212
208 54 26 78 54 71 83 -3 11 -28 39 -55 64 -116 104 -256 172 -423 205 -49 10
-78 18 -63 19 41 2 150 44 207 81 63 40 135 118 167 182 96 189 62 398 -88
554 -66 69 -165 124 -256 143 -76 16 -188 12 -257 -8z"/>
<path d="M1640 824 c-141 -38 -247 -141 -290 -282 -34 -109 -20 -232 36 -327
39 -67 134 -150 201 -175 290 -112 591 106 570 411 -18 260 -267 440 -517 373z
m261 -167 c72 -48 98 -153 52 -216 -24 -33 -79 -61 -118 -61 -27 0 -43 -14
-120 -104 l-90 -105 -47 0 c-26 -1 -49 2 -51 7 -3 4 -7 27 -8 52 -3 42 -2 45
22 48 22 3 25 7 21 28 -4 20 -1 24 22 24 21 0 26 5 26 24 0 17 7 26 25 30 19
5 25 13 25 35 0 16 7 34 15 41 10 8 15 31 15 69 0 67 23 110 71 134 48 23 100
21 140 -6z"/>
<path d="M1820 590 c-21 -39 32 -87 65 -60 18 15 19 52 3 68 -19 19 -56 14
-68 -8z"/>
</g>
</svg>
