<svg width="24" height="24" viewBox="0 0 24 24" fill="none" xmlns="http://www.w3.org/2000/svg">
<path d="M12.0004 22.76C10.9104 22.76 9.83039 22.4399 8.98039 21.8099L4.68039 18.6C3.54039 17.75 2.65039 15.98 2.65039 14.56V7.12995C2.65039 5.58995 3.78039 3.94995 5.23039 3.40995L10.2204 1.53995C11.2104 1.16995 12.7704 1.16995 13.7604 1.53995L18.7604 3.40995C20.2104 3.94995 21.3404 5.58995 21.3404 7.12995V14.56C21.3404 15.98 20.4504 17.75 19.3104 18.6L15.0104 21.8099C14.1704 22.4399 13.0904 22.76 12.0004 22.76ZM10.7504 2.93995L5.76039 4.80995C4.90039 5.12995 4.15039 6.20995 4.15039 7.12995V14.56C4.15039 15.51 4.82039 16.8399 5.57039 17.4L9.87039 20.61C11.0204 21.47 12.9704 21.47 14.1204 20.61L18.4204 17.4C19.1804 16.83 19.8404 15.5 19.8404 14.56V7.12995C19.8404 6.21995 19.0904 5.13995 18.2304 4.80995L13.2404 2.93995C12.5804 2.68995 11.4204 2.68995 10.7504 2.93995Z" fill="#888EA8"/>
<path d="M11.9998 11.6699H11.9298C10.4798 11.6299 9.4198 10.5199 9.4198 9.16991C9.4198 7.78991 10.5498 6.65991 11.9298 6.65991C13.3098 6.65991 14.4398 7.78991 14.4398 9.16991C14.4392 9.82 14.1868 10.4446 13.7356 10.9126C13.2844 11.3806 12.6694 11.6556 12.0198 11.6799C12.0098 11.6699 12.0098 11.6699 11.9998 11.6699ZM11.9298 8.15991C11.3698 8.15991 10.9198 8.60991 10.9198 9.16991C10.9198 9.71991 11.3498 10.1599 11.8898 10.1799H11.9998C12.2562 10.1645 12.4969 10.051 12.6719 9.86299C12.8469 9.67495 12.9428 9.42677 12.9398 9.16991C12.9411 9.03691 12.9159 8.90497 12.8656 8.78183C12.8154 8.65868 12.741 8.54681 12.647 8.45275C12.5529 8.3587 12.441 8.28435 12.3179 8.23407C12.1947 8.18379 12.0628 8.15858 11.9298 8.15991ZM11.9998 17.3499C11.1398 17.3499 10.2698 17.1199 9.5998 16.6699C8.9298 16.2299 8.5498 15.5809 8.5498 14.8909C8.5498 14.2009 8.9298 13.5509 9.5998 13.1009C10.9498 12.2009 13.0598 12.2109 14.3998 13.1009C15.0698 13.5409 15.4498 14.1909 15.4498 14.8809C15.4498 15.5709 15.0698 16.2209 14.3998 16.6709C13.7298 17.1209 12.8598 17.3499 11.9998 17.3499ZM10.4298 14.3399C10.1798 14.4999 10.0398 14.6999 10.0498 14.8799C10.0498 15.0599 10.1898 15.2599 10.4298 15.4199C11.2698 15.9799 12.7298 15.9799 13.5698 15.4199C13.8198 15.2599 13.9598 15.0599 13.9598 14.8799C13.9598 14.6999 13.8198 14.4999 13.5798 14.3399C12.7398 13.7899 11.2698 13.7899 10.4298 14.3399Z" fill="#888EA8"/>
</svg>
