<svg width="342" height="52" viewBox="0 0 342 52" fill="none" xmlns="http://www.w3.org/2000/svg">
<path d="M5.17207 51.6402C3.51229 51.6402 2.23189 51.1897 1.33087 50.2887C0.477267 49.3402 0.0504672 48.0124 0.0504672 46.3052V5.75919C0.0504672 3.95715 0.477267 2.58191 1.33087 1.63346C2.23189 0.685016 3.41745 0.210793 4.88754 0.210793C6.16793 0.210793 7.14009 0.471616 7.804 0.993262C8.51533 1.46748 9.32151 2.27366 10.2225 3.41179L35.1903 35.2084H33.2697V5.47466C33.2697 3.81488 33.6965 2.53448 34.5501 1.63346C35.4512 0.685016 36.7316 0.210793 38.3913 0.210793C40.0511 0.210793 41.3078 0.685016 42.1614 1.63346C43.0624 2.53448 43.5129 3.81488 43.5129 5.47466V46.5186C43.5129 48.0835 43.1099 49.3402 42.3037 50.2887C41.4975 51.1897 40.4068 51.6402 39.0315 51.6402C37.7037 51.6402 36.6367 51.3794 35.8305 50.8577C35.0718 50.3361 34.2419 49.5062 33.3409 48.3681L8.4442 16.5715H10.2937V46.3052C10.2937 48.0124 9.86687 49.3402 9.01327 50.2887C8.15967 51.1897 6.87927 51.6402 5.17207 51.6402ZM55.0315 51.6402C53.7037 51.6402 52.613 51.332 51.7594 50.7155C50.9532 50.099 50.4316 49.2691 50.1945 48.2258C50.0048 47.1825 50.2182 46.0207 50.8347 44.7403L69.0448 4.83446C69.8036 3.2221 70.7046 2.06026 71.7479 1.34893C72.7912 0.590171 74.0004 0.210793 75.3757 0.210793C76.7509 0.210793 77.9602 0.590171 79.0035 1.34893C80.0468 2.06026 80.9241 3.2221 81.6354 4.83446L99.9878 44.7403C100.604 46.0207 100.818 47.2062 100.628 48.2969C100.486 49.3402 100.012 50.1701 99.2053 50.7866C98.3992 51.3557 97.3559 51.6402 96.0755 51.6402C94.4631 51.6402 93.2064 51.2608 92.3054 50.5021C91.4518 49.7433 90.6931 48.5578 90.0291 46.9454L85.7611 37.0579L90.1714 40.1166H60.5088L64.9191 37.0579L60.7222 46.9454C60.0109 48.6052 59.2521 49.8144 58.4459 50.5732C57.6872 51.2845 56.549 51.6402 55.0315 51.6402ZM75.2334 12.588L66.1283 34.2837L64.2077 31.5095H86.4725L84.5519 34.2837L75.3757 12.588H75.2334ZM112.929 51C111.08 51 109.657 50.5021 108.661 49.5062C107.665 48.5103 107.167 47.0877 107.167 45.2382V6.6128C107.167 4.76333 107.665 3.34066 108.661 2.3448C109.657 1.34893 111.08 0.850993 112.929 0.850993H130.143C133.7 0.850993 136.735 1.37264 139.248 2.41593C141.762 3.45922 143.659 4.95302 144.939 6.89733C146.267 8.84164 146.931 11.1653 146.931 13.8684C146.931 16.856 146.077 19.3931 144.37 21.4797C142.663 23.5662 140.315 24.9652 137.328 25.6765V24.5384C140.79 25.1549 143.469 26.5301 145.366 28.6641C147.31 30.7507 148.282 33.4775 148.282 36.8445C148.282 41.3022 146.741 44.7877 143.659 47.3011C140.576 49.767 136.332 51 130.926 51H112.929ZM117.695 42.8197H129.432C132.277 42.8197 134.364 42.2743 135.692 41.1836C137.02 40.0455 137.683 38.3857 137.683 36.2043C137.683 34.0228 137.02 32.3868 135.692 31.2961C134.364 30.2054 132.277 29.66 129.432 29.66H117.695V42.8197ZM117.695 21.4797H128.223C130.973 21.4797 133.012 20.958 134.34 19.9147C135.668 18.8714 136.332 17.3065 136.332 15.2199C136.332 13.1808 135.668 11.6396 134.34 10.5963C133.012 9.55297 130.973 9.03133 128.223 9.03133H117.695V21.4797Z" fill="white"/>
<path d="M161.749 51.6402C160.089 51.6402 158.809 51.1897 157.908 50.2887C157.054 49.3402 156.627 48.0124 156.627 46.3052V5.75919C156.627 3.95715 157.054 2.58191 157.908 1.63346C158.809 0.685016 159.994 0.210793 161.464 0.210793C162.745 0.210793 163.717 0.471616 164.381 0.993262C165.092 1.46748 165.898 2.27366 166.799 3.41179L191.767 35.2084H189.846V5.47466C189.846 3.81488 190.273 2.53448 191.127 1.63346C192.028 0.685016 193.308 0.210793 194.968 0.210793C196.628 0.210793 197.885 0.685016 198.738 1.63346C199.639 2.53448 200.09 3.81488 200.09 5.47466V46.5186C200.09 48.0835 199.687 49.3402 198.88 50.2887C198.074 51.1897 196.983 51.6402 195.608 51.6402C194.28 51.6402 193.213 51.3794 192.407 50.8577C191.648 50.3361 190.819 49.5062 189.918 48.3681L165.021 16.5715H166.87V46.3052C166.87 48.0124 166.444 49.3402 165.59 50.2887C164.736 51.1897 163.456 51.6402 161.749 51.6402ZM215.947 51C214.098 51 212.675 50.5021 211.679 49.5062C210.684 48.5103 210.186 47.0877 210.186 45.2382V6.6128C210.186 4.76333 210.684 3.34066 211.679 2.3448C212.675 1.34893 214.098 0.850993 215.947 0.850993H240.773C242.196 0.850993 243.263 1.23037 243.974 1.98913C244.733 2.70046 245.112 3.74375 245.112 5.11899C245.112 6.54166 244.733 7.63237 243.974 8.39113C243.263 9.10246 242.196 9.45813 240.773 9.45813H220.713V21.1951H239.137C240.607 21.1951 241.698 21.5745 242.409 22.3333C243.168 23.0446 243.547 24.1116 243.547 25.5343C243.547 26.9569 243.168 28.0476 242.409 28.8064C241.698 29.5177 240.607 29.8734 239.137 29.8734H220.713V42.3929H240.773C242.196 42.3929 243.263 42.7722 243.974 43.531C244.733 44.2423 245.112 45.2856 245.112 46.6609C245.112 48.0835 244.733 49.1742 243.974 49.933C243.263 50.6443 242.196 51 240.773 51H215.947ZM256.176 51.6402C254.753 51.6402 253.568 51.2608 252.619 50.5021C251.718 49.6959 251.197 48.7237 251.054 47.5856C250.912 46.4 251.292 45.1908 252.193 43.9578L267.913 23.1157V28.0239L252.833 7.96433C251.932 6.68393 251.529 5.47466 251.624 4.33653C251.766 3.15097 252.287 2.17882 253.188 1.42006C254.137 0.613882 255.299 0.210793 256.674 0.210793C257.86 0.210793 258.879 0.495327 259.733 1.06439C260.634 1.63346 261.535 2.53448 262.436 3.76746L274.173 19.9859H270.616L282.282 3.76746C283.183 2.48706 284.084 1.58604 284.985 1.06439C285.886 0.495327 286.929 0.210793 288.115 0.210793C289.538 0.210793 290.699 0.590171 291.6 1.34893C292.549 2.10768 293.071 3.07984 293.165 4.2654C293.308 5.40353 292.905 6.63651 291.956 7.96433L276.805 28.0239V23.1157L292.454 43.9578C293.403 45.1908 293.806 46.4 293.663 47.5856C293.568 48.7237 293.047 49.6959 292.098 50.5021C291.197 51.2608 290.012 51.6402 288.542 51.6402C287.404 51.6402 286.384 51.3557 285.483 50.7866C284.629 50.2175 283.728 49.2928 282.78 48.0124L270.545 31.1538H274.173L261.938 48.0124C261.037 49.2928 260.136 50.2175 259.235 50.7866C258.334 51.3557 257.314 51.6402 256.176 51.6402ZM319.241 51.6402C317.439 51.6402 316.063 51.1423 315.115 50.1464C314.167 49.1505 313.692 47.7516 313.692 45.9495V9.95606H301.102C299.632 9.95606 298.494 9.55297 297.687 8.74679C296.881 7.94062 296.478 6.8262 296.478 5.40353C296.478 3.93344 296.881 2.81902 297.687 2.06026C298.494 1.25408 299.632 0.850993 301.102 0.850993H337.309C338.779 0.850993 339.917 1.25408 340.723 2.06026C341.529 2.81902 341.932 3.93344 341.932 5.40353C341.932 6.8262 341.529 7.94062 340.723 8.74679C339.917 9.55297 338.779 9.95606 337.309 9.95606H324.718V45.9495C324.718 47.7516 324.244 49.1505 323.295 50.1464C322.394 51.1423 321.043 51.6402 319.241 51.6402Z" fill="#FFCF09"/>
</svg>
