<svg width="45" height="45" viewBox="0 0 70 70" fill="none" xmlns="http://www.w3.org/2000/svg">
<circle cx="35" cy="35" r="35" fill="#286435"/>
<path d="M49.9862 30.26C49.9815 30.2196 49.9746 30.1827 49.9619 30.1435C49.9504 30.1077 49.9342 30.0765 49.9158 30.0454C49.8973 30.0142 49.88 29.9842 49.8558 29.9554C49.8315 29.9254 49.8015 29.9012 49.7692 29.8769C49.7508 29.8619 49.7415 29.8435 49.7208 29.8319L37.2765 22.3642C36.0015 21.5981 34.0008 21.5981 32.7258 22.3642L20.2815 29.8319C20.2619 29.8435 20.2504 29.8619 20.2331 29.8769C20.2008 29.9012 20.1708 29.9254 20.1454 29.9554C20.1212 29.9842 20.1027 30.0142 20.0854 30.0465C20.0669 30.0777 20.0508 30.1112 20.0392 30.1446C20.0265 30.1827 20.0208 30.2196 20.0162 30.2612C20.0104 30.2831 20 30.3027 20 30.3258V45.3258C20 46.9158 21.2946 48.2104 22.8846 48.2104H47.1154C48.7054 48.2104 50 46.9158 50 45.3258V30.3258C50 30.3027 49.9896 30.2831 49.9862 30.26ZM33.3177 23.3542C34.2292 22.8062 35.7696 22.8062 36.6812 23.3542L48.8462 30.6523V30.6719L37.5385 37.4565L45.4908 42.2704C45.7631 42.4365 45.8508 42.7896 45.6869 43.0642C45.5773 43.2431 45.3869 43.3423 45.1919 43.3423C45.0904 43.3423 44.9877 43.3158 44.8942 43.2592L36.3073 38.0612C35.4846 38.3254 34.5188 38.3254 33.695 38.0612L25.1092 43.2592C25.0158 43.3158 24.9131 43.3423 24.8115 43.3423C24.6165 43.3423 24.4262 43.2431 24.3177 43.0642C24.1527 42.7919 24.2404 42.4377 24.5127 42.2704L32.465 37.4565L21.1573 30.6719V30.6523L33.3177 23.3542Z" fill="white"/>
</svg>
