<svg width="321" height="600" viewBox="0 0 491 762" fill="none" xmlns="http://www.w3.org/2000/svg">
<g opacity="0.5">
<path d="M127.967 331.602C127.88 327.859 124.863 324.429 121.556 322.89C118.249 321.351 114.502 321.445 111.015 321.39C109.68 321.471 108.604 321.403 107.269 321.484C103.263 321.728 99.1876 323.046 97.0134 327.06C95.5771 329.958 95.1069 333.333 94.4874 336.449C94.3073 337.932 93.868 339.565 94.5047 341.266C94.733 342.859 95.6288 344.41 96.7838 345.812C100.398 350.277 106.305 352.729 111.606 351.737C114.386 351.166 116.978 349.67 119.718 348.433C121.94 347.494 124.163 346.556 125.937 344.842C127.712 343.128 129.038 340.638 128.472 337.862C128.283 336.936 127.686 335.902 127.756 334.827C127.826 333.752 127.897 332.677 127.967 331.602Z" fill="#286435"/>
<path d="M81.4741 266.035C79.9502 265.191 77.8376 265.721 76.4322 266.877C75.0267 268.033 74.179 269.557 73.5903 270.931C73.2214 271.489 73.1116 271.897 72.7426 272.455C72.0442 274.238 71.4951 276.279 72.7994 277.939C73.5459 279.232 75.0698 280.077 76.3346 281.07C76.8924 281.438 77.5994 282.064 78.267 282.024C79.0839 282.242 79.7515 282.201 80.6782 282.011C83.4583 281.44 85.9003 279.686 86.5592 277.236C86.8887 276.012 87.0689 274.528 86.9899 273.195C87.0602 272.12 87.1306 271.045 87.0516 269.711C86.7135 268.527 86.1163 267.492 84.7416 266.907C84.3332 266.798 83.6656 266.838 83.2572 266.729C82.1812 266.661 82.0319 266.402 81.4741 266.035Z" fill="#286435"/>
<path d="M52.2865 381.847C48.7598 381.125 45.6194 384.662 45.4084 387.887C45.3775 389.629 46.3129 391.847 47.8368 392.691C49.51 393.794 51.6621 393.931 53.2169 393.033C55.0308 391.986 56.0982 389.646 56.2388 387.496C56.3092 386.421 56.2302 385.087 55.4837 383.794C55.0357 383.018 53.7709 382.024 52.2865 381.847Z" fill="#286435"/>
<path d="M154.945 354.99C153.421 354.146 151.308 354.676 149.903 355.832C148.497 356.988 147.65 358.512 147.061 359.886C146.692 360.444 146.582 360.852 146.213 361.41C145.515 363.193 144.966 365.234 146.27 366.894C147.017 368.188 148.541 369.032 149.805 370.026C150.363 370.393 151.07 371.019 151.738 370.979C152.555 371.197 153.222 371.156 154.149 370.966C156.929 370.395 159.371 368.641 160.03 366.191C160.359 364.967 160.54 363.483 160.461 362.15C160.531 361.075 160.601 360 160.522 358.666C160.184 357.482 159.587 356.447 158.212 355.862C157.804 355.753 157.136 355.793 156.728 355.684C155.911 355.466 155.353 355.099 154.945 354.99Z" fill="#286435"/>
<path d="M32.109 330.74C31.8894 331.557 32.3373 332.333 32.8951 332.7C33.4528 333.068 34.2697 333.286 34.6781 333.395C35.0866 333.504 35.0866 333.504 35.495 333.613C36.3119 333.831 36.9795 333.79 37.6076 333.083C37.9765 332.525 38.3455 331.967 38.4553 331.559C38.5651 331.151 38.8242 331.001 38.6749 330.743C38.7848 330.334 38.6354 330.076 38.4861 329.817C37.8889 328.783 37.0325 327.898 36.1058 328.088C35.4383 328.129 35.0298 328.02 34.5116 328.319C33.9538 327.951 33.4356 328.251 33.0271 328.142C32.6187 328.033 32.1399 328.999 32.1794 329.665C32.3287 329.924 32.0696 330.074 32.2189 330.332C32.2189 330.332 32.2189 330.332 32.109 330.74Z" fill="#286435"/>
<path d="M80.1906 352.979C79.971 353.795 80.4189 354.571 80.9767 354.939C81.5344 355.306 82.3513 355.524 82.7597 355.633C83.1682 355.742 83.1682 355.742 83.5766 355.851C84.3935 356.069 85.0611 356.029 85.6891 355.321C86.0581 354.764 86.4271 354.206 86.5369 353.798C86.6467 353.389 86.9058 353.24 86.7565 352.981C86.8663 352.573 86.717 352.314 86.5677 352.056C85.9705 351.021 85.1141 350.136 84.1874 350.327C83.5199 350.367 83.1114 350.258 82.5932 350.557C82.1847 350.448 81.6665 350.748 81.1482 351.047C80.6299 351.346 80.5201 351.754 80.4103 352.163C80.5596 352.421 80.3005 352.571 80.4498 352.829C80.3005 352.571 80.0413 352.72 80.1906 352.979Z" fill="#286435"/>
<path d="M600.722 562.772C599.339 559.777 597.956 556.783 596.572 553.789C595.15 550.128 593.727 546.466 592.304 542.805C591.479 540.179 590.653 537.552 589.828 534.925C588.853 532.04 588.137 529.005 587.571 526.229C586.736 521.193 585.753 515.899 585.178 510.714C583.989 499.677 584.393 488.41 585.615 477.36C586.147 470.502 587.087 463.752 588.695 456.962C589.424 453.438 590.303 450.172 591.181 446.906C591.291 446.498 591.401 446.09 591.511 445.681C591.102 445.572 591.102 445.572 591.102 445.572C586.768 447.041 582.244 447.584 577.571 447.868C572.898 448.152 568.185 447.77 563.583 446.979C560.873 446.474 558.422 445.82 555.822 444.908C549.248 442.497 542.783 439.678 536.279 436.192C530.741 433.183 525.831 429.466 521.4 424.783C516.521 419.325 512.828 413.526 510.022 406.871C508.599 403.21 507.694 399.25 507.198 395.398C506.018 386.77 506.69 377.761 507.92 369.12C508.391 365.746 508.861 362.371 509.59 358.847C510.789 351.948 511.321 345.089 511.594 338.38C511.568 331.154 512.1 324.296 513.409 316.988C515.189 306.306 518.602 296.06 523.39 286.4C530.312 272.058 538.649 258.97 549.475 247.202C553.762 242.658 557.9 237.856 562.037 233.053C565.547 228.958 568.757 224.346 571.858 220.142C575.069 215.53 577.981 210.4 580.485 205.162C582.769 200.74 584.904 196.059 587.447 191.488C588.185 190.372 588.923 189.256 589.402 188.29C589.661 188.141 589.771 187.732 590.03 187.583C590.289 187.433 590.807 187.134 591.215 187.243C592.032 187.461 592.59 187.829 593.407 188.047C598.646 190.539 603.996 192.622 609.345 194.706C613.06 196.354 616.626 197.743 620.342 199.391C630.97 204.634 639.863 212.257 647.5 221.296C650.965 225.502 654.32 230.116 657.675 234.731C662.075 241.155 666.326 247.321 671.245 253.447C675.307 258.687 679.738 263.37 684.059 268.461C689.645 274.546 694.823 280.522 700.15 286.756C703.874 290.813 707.488 295.277 710.694 299.633C713.452 303.213 715.951 306.942 717.931 310.971C719.464 314.224 720.737 317.627 721.602 320.92C722.805 325.398 723.6 329.766 724.544 334.393C724.961 336.911 725.527 339.687 725.945 342.205C726.59 346.315 727.086 350.167 727.472 354.426C728.008 358.944 728.284 363.612 728.411 368.021C728.573 382.065 725.875 395.346 720.209 408.272C717.266 415.144 713.616 421.389 709.149 427.416C703.724 435.375 696.737 441.823 688.594 446.869C683.042 450.419 677.043 453.194 670.744 455.451C663.52 457.898 656.255 459.678 648.842 461.2C641.687 462.572 634.603 462.869 627.479 462.499C621.282 461.94 615.156 460.305 609.618 457.295C607.686 456.342 605.863 454.981 604.04 453.619C601.511 451.632 599.649 449.603 597.747 446.908C597.449 446.391 597.15 445.874 596.742 445.765C596.632 446.173 596.373 446.323 596.522 446.581C596.193 447.806 595.973 448.622 595.643 449.847C591.47 465.359 589.598 481.267 589.211 497.352C588.969 502.319 589.394 507.245 589.82 512.172C590.435 518.024 591.308 523.726 592.441 529.279C593.345 533.239 594.509 537.05 595.822 541.119C598.11 548.074 600.916 554.729 603.722 561.385C603.871 561.643 604.17 562.16 604.06 562.569C602.167 562.282 601.39 562.731 600.722 562.772ZM715.011 313.692C714.343 313.733 714.084 313.882 713.416 313.923C708.783 314.874 704.338 316.75 700.192 319.144C694.64 322.694 689.387 326.761 684.433 331.346C682.14 333.359 679.997 335.631 677.854 337.903C670.018 345.875 661.585 352.813 651.738 358.498C645.778 361.939 640.117 365.897 635.013 370.223C630.168 374.399 625.214 378.984 620.778 383.269C618.635 385.541 616.75 387.663 615.015 390.044C614.387 390.751 614.168 391.568 613.689 392.534C613.289 394.834 612.74 396.875 612.081 399.324C611.093 402.998 610.214 406.264 609.076 409.679C608.967 410.087 608.857 410.496 608.747 410.904C609.006 410.754 609.006 410.754 609.265 410.605C611.338 409.408 613.71 408.728 615.822 408.198C619.38 407.178 622.828 406.567 626.385 405.548C628.498 405.018 630.61 404.488 632.832 403.549C638.612 401.592 644.392 399.634 650.023 397.417C654.727 395.391 659.022 393.256 663.278 390.454C664.833 389.557 666.497 388.251 667.903 387.094C672.897 383.177 678.04 379.518 682.884 375.342C690.171 369.411 697.308 363.221 703.738 356.405C707.028 353.127 710.318 349.848 714.016 346.679C716.049 344.815 717.973 343.359 720.305 342.013C720.565 341.863 720.824 341.714 721.083 341.564C720.894 340.639 720.855 339.972 720.815 339.305C720.249 336.529 719.682 333.752 719.375 330.826C718.69 326.05 717.487 321.572 715.876 316.985C716.354 316.019 715.867 314.577 715.011 313.692ZM523.855 291.993C523.336 292.292 523.227 292.7 523.117 293.108C521.83 296.265 520.543 299.422 519.664 302.688C518.087 307.736 516.659 313.043 515.899 318.309C515.68 319.125 515.978 319.643 516.536 320.01C518.249 321.78 520.071 323.141 521.894 324.503C523.159 325.497 524.423 326.49 525.688 327.484C530.339 331.351 535.618 334.509 541.007 337.26C545.28 339.276 549.702 341.55 553.975 343.565C555.499 344.409 557.432 345.362 558.956 346.207C564.792 349.733 569.632 354.525 573.176 360.065C574.48 361.725 575.525 363.536 576.57 365.346C578.362 368.449 580.413 371.403 582.723 374.207C588.498 381.217 595.011 387.112 602.67 392C604.343 393.102 606.275 394.056 608.318 394.601C608.726 394.71 608.726 394.71 609.134 394.819C609.244 394.41 609.464 393.594 609.574 393.186C610.303 389.661 610.773 386.287 611.502 382.762C612.702 375.863 613.084 368.746 612.54 361.819C612.351 360.894 612.163 359.968 611.715 359.193C608.061 354.061 603.002 350.086 597.205 347.226C595.422 346.531 593.638 345.837 592.115 344.993C590.182 344.039 588.399 343.345 586.467 342.392C583.977 341.071 581.596 339.342 579.475 337.463C578.47 336.32 577.205 335.326 576.348 334.441C571.658 329.908 569.726 328.955 563.56 326.653C561.368 325.849 559.585 325.155 557.394 324.351C550.968 322.199 546.318 318.332 542.883 312.384C542.137 311.091 541.39 309.798 540.644 308.505C539.001 305.661 537.1 302.966 534.83 300.828C531.703 297.806 528.576 294.784 525.598 292.021C524.412 292.36 524.263 292.102 523.855 291.993ZM604.227 422.823C604.486 422.674 604.894 422.783 605.154 422.633C606.858 421.994 608.452 421.763 610.046 421.532C613.235 421.071 616.722 421.126 619.801 421.073C623.029 421.278 626.257 421.483 629.595 421.28C633.49 421.445 637.346 420.942 641.352 420.699C646.951 420.224 652.661 419.342 658.331 417.792C661.888 416.773 665.297 415.494 668.705 414.216C672.482 412.38 676.259 410.544 679.887 408.45C684.551 405.757 689.106 403.472 693.81 401.446C697.218 400.168 700.626 398.89 704.034 397.612C707.851 396.443 711.927 395.124 715.893 394.213C717.078 393.874 718.523 393.384 719.709 393.044C721.413 392.405 721.304 392.814 721.593 390.922C724.3 380.05 724.704 368.782 723.774 357.596C723.577 354.262 723.12 351.077 722.663 347.892C722.475 346.967 722.545 345.892 722.207 344.708L722.058 344.449C721.39 344.49 720.872 344.789 720.354 345.088C718.54 346.136 716.765 347.85 715.25 349.414C711.073 353.55 706.786 358.094 702.609 362.229C699.579 365.358 696.658 368.079 693.478 370.949C685.713 377.846 677.649 384.226 669.585 390.606C662.926 395.829 655.521 399.76 647.37 402.397C644.739 403.227 642.108 404.056 639.627 405.144C635.551 406.462 631.475 407.781 627.509 408.692C625.397 409.222 623.543 409.602 621.431 410.132C619.577 410.513 617.724 410.893 616.02 411.532C612.981 412.252 610.499 413.34 607.908 414.836C607.39 415.136 607.13 415.285 606.911 416.102C606.102 418.292 605.404 420.075 604.596 422.265C604.337 422.415 604.337 422.415 604.227 422.823ZM514.602 339.402C514.642 340.069 514.532 340.477 514.422 340.885C514.391 342.627 514.36 344.369 514.33 346.111C513.969 349.077 513.609 352.044 513.398 355.269C513.437 355.936 513.328 356.344 513.367 357.011C514.153 358.971 514.939 360.93 515.466 363.04C516.59 366.184 518.123 369.437 519.506 372.431C522.681 378.529 526.374 384.327 530.436 389.568C533.344 393.406 536.51 397.095 539.935 400.634C544.626 405.168 549.795 408.735 555.592 411.594C558.49 413.024 561.499 414.046 564.358 414.809C565.175 415.027 566.251 415.095 567.068 415.313C571.819 416.362 576.053 417.711 580.845 419.427C583.853 420.449 586.492 422.028 589.022 424.016C591.143 425.895 593.414 428.032 595.166 430.468C595.315 430.727 595.873 431.095 596.022 431.353C596.132 430.945 596.501 430.387 596.76 430.238C597.349 428.863 597.937 427.489 598.526 426.115C600.511 421.175 602.238 416.386 604.223 411.447C604.553 410.222 605.141 408.848 605.471 407.623C605.581 407.215 605.69 406.807 605.541 406.548C604.983 406.18 604.575 406.071 604.426 405.813C601.378 404.124 598.33 402.436 595.133 400.489C591.378 398.174 587.662 396.526 583.429 395.178C580.42 394.156 577.522 392.726 574.513 391.705C569.573 389.73 564.742 387.347 560.28 384.406C554.851 380.989 549.643 376.755 544.953 372.222C540.969 368.315 536.986 364.408 533.372 359.943C531.211 357.397 528.901 354.593 526.741 352.048C524.431 349.244 522.121 346.44 519.293 343.935C518.287 342.791 517.132 341.389 515.867 340.396C515.309 340.028 515.16 339.769 514.602 339.402ZM599.448 434.892C599.856 435.001 599.856 435.001 599.856 435.001C601.191 434.92 602.417 435.247 603.642 435.574C604.459 435.792 605.425 436.269 606.391 436.745C612.597 439.714 618.543 442.832 624.121 446.508C625.794 447.611 627.467 448.714 629.4 449.667C630.515 450.403 631.89 450.988 633.264 451.574C636.681 452.704 640.247 454.094 643.774 454.816C644.999 455.143 646.633 455.579 647.599 456.056C648.416 456.274 649.233 456.492 649.751 456.192C656.646 454.97 663.243 453.23 669.8 450.823C676.099 448.567 681.949 445.534 687.5 441.984C693.052 438.434 697.896 434.257 702.293 429.305C706.8 423.945 710.34 418.108 713.472 412.162C713.731 412.013 713.581 411.754 713.841 411.604C713.542 411.087 712.874 411.128 712.615 411.277C711.131 411.1 709.128 411.222 707.534 411.453C702.751 412.145 698.267 413.355 693.971 415.49C689.935 417.476 685.749 419.203 681.713 421.188C677.677 423.174 673.342 424.642 669.007 426.11C662.669 427.7 656.332 429.291 649.805 429.955C645.282 430.498 640.609 430.782 636.046 430.658C632.15 430.494 628.254 430.329 624.21 429.906C619.905 429.633 615.861 429.209 611.596 429.603C608.258 429.806 605.07 430.267 602.14 430.579C601.732 430.47 601.213 430.77 600.954 430.919C600.476 431.885 599.777 433.668 599.448 434.892ZM603.864 321.658L604.124 321.508C603.974 321.25 604.233 321.1 604.084 320.841C603.509 315.656 603.083 310.73 603.325 305.763C603.317 303.354 603.716 301.055 603.708 298.646C603.668 297.979 603.629 297.312 603.181 296.536C602.882 296.019 602.584 295.502 602.434 295.243C600.603 291.473 598.144 288.411 595.425 285.497C594.718 284.871 594.42 284.354 593.972 283.578C591.811 281.033 589.76 278.079 587.969 274.976C587.073 273.424 586.326 272.131 585.43 270.579C581.698 264.114 577.188 258.098 571.79 252.938C570.934 252.054 569.928 250.91 569.072 250.025C565.796 246.745 563.297 243.015 561.317 238.986C561.167 238.728 561.018 238.469 560.609 238.36C558.317 240.373 544.758 255.787 543.172 258.427L543.322 258.686C543.471 258.944 543.77 259.461 543.919 259.72C547.84 267.111 552.131 273.944 557.199 280.328C564.019 289.148 572.503 296.663 581.836 302.653C583.918 303.865 586.149 305.336 587.971 306.697C591.168 308.644 594.256 310.999 596.825 313.654C599.095 315.791 601.256 318.337 603.157 321.032C603.715 321.399 603.864 321.658 603.864 321.658ZM611.716 338.848C611.865 339.106 611.755 339.515 611.905 339.773C612.73 342.4 613.297 345.176 613.973 347.544C614.539 350.321 615.106 353.097 615.523 355.615C615.79 357.874 616.058 360.133 616.177 362.133C616.326 362.392 616.216 362.8 616.625 362.909C616.884 362.76 616.994 362.351 617.253 362.202C618.838 359.562 620.982 357.29 623.125 355.018C625.159 353.155 626.933 351.441 629.116 349.836C633.223 346.775 637.329 343.714 641.436 340.654C649.021 335.24 656.308 329.309 663.594 323.378C668.329 319.61 672.616 315.066 677.311 310.631C680.232 307.911 682.744 305.081 685.515 302.102C688.028 299.272 689.982 296.075 692.345 292.986C693.711 291.163 695.336 289.19 697.409 287.993C697.26 287.735 697.111 287.476 696.962 287.218C694.652 284.414 692.232 282.018 689.922 279.214C689.773 278.955 689.513 279.105 689.364 278.846C689.105 278.996 688.846 279.145 688.736 279.553C687.59 280.56 686.184 281.716 685.038 282.723C680.193 286.899 675.349 291.075 670.206 294.734C663.767 299.142 657.029 303.031 649.993 306.404C646.735 307.941 643.735 309.328 640.625 311.123C636.738 313.367 633.299 316.387 630.717 320.292C629.61 321.966 628.762 323.489 627.506 324.904C626.03 327.136 624.405 329.108 622.371 330.972C619.71 333.543 616.749 335.597 613.64 337.392C612.753 338.249 612.234 338.549 611.716 338.848ZM608.106 397.826C607.698 397.717 607.698 397.717 607.29 397.608C604.878 397.621 602.687 396.817 601.014 395.714C598.783 394.244 596.552 392.773 594.321 391.303C592.09 389.832 590.377 388.063 588.664 386.293C586.245 383.897 584.084 381.352 582.073 379.065C579.205 375.893 576.855 372.422 574.765 368.802C574.168 367.767 573.571 366.733 573.123 365.957C568.046 357.164 560.976 350.902 551.872 346.504C548.973 345.074 546.074 343.644 543.325 342.473C535.745 338.919 528.942 334.916 522.728 329.538C520.607 327.66 518.077 325.672 516.325 323.235C516.176 322.977 515.917 323.126 515.618 322.609C515.657 323.276 515.288 323.834 515.328 324.501C514.858 327.875 514.906 330.951 514.844 334.435C514.774 335.51 515.073 336.027 515.78 336.653C517.94 339.199 520.36 341.595 522.63 343.732C525.459 346.237 528.177 349.15 530.487 351.954C531.493 353.097 532.349 353.982 533.096 355.275C538.014 361.401 543.302 366.968 548.738 372.794C554.434 378.471 560.609 383.181 567.781 386.627C569.713 387.58 571.496 388.274 573.429 389.228C577.553 390.985 581.527 392.483 585.761 393.831C588.769 394.853 591.927 396.133 594.975 397.822C598.431 399.619 602.037 401.675 605.383 403.881C605.792 403.99 606.09 404.507 606.608 404.208C607.158 402.167 607.707 400.125 608.106 397.826ZM593.637 438.592C592.671 438.116 592.113 437.748 591.406 437.122C589.733 436.019 588.06 434.916 586.237 433.555C581.736 429.947 577.014 427.156 571.555 425.48C570.181 424.894 568.547 424.458 566.913 424.022C560.378 422.278 554.212 419.977 547.897 417.416C546.671 417.089 545.556 416.354 544.44 415.619C540.984 413.821 537.897 411.466 534.809 409.111C532.838 407.491 530.716 405.612 529.263 403.693C525.947 399.745 523.15 395.499 521.02 391.211C518.293 385.889 514.789 381.016 510.766 376.443C510.617 376.184 510.208 376.075 510.059 375.817C509.69 376.374 509.729 377.041 509.62 377.449C509.268 382.825 509.065 388.458 509.79 393.902C510.137 397.495 510.892 401.197 512.424 404.45C515.12 411.513 519.371 417.679 524.51 422.988C528.493 426.895 532.696 429.986 537.527 432.369C543.622 435.745 550.087 438.564 556.512 440.717C559.67 441.997 563.047 442.461 566.425 442.924C568.985 443.17 571.805 443.266 574.365 443.512C579.855 443.446 585.196 443.121 590.457 441.462C590.716 441.313 591.384 441.272 591.643 441.123C591.902 440.973 592.42 440.674 592.53 440.266C593.198 440.225 593.417 439.409 593.637 438.592ZM609.441 345.679C609.471 343.937 608.984 342.494 608.497 341.051C607.632 337.758 606.617 334.206 606.011 330.763C605.823 329.837 605.524 329.32 605.076 328.544C604.777 328.027 604.628 327.768 604.33 327.251C602.836 324.665 600.935 321.97 598.924 319.683C595.349 315.885 590.997 312.536 586.535 309.595C583.746 307.757 581.366 306.028 578.726 304.449C574.414 301.766 570.47 298.526 566.785 295.137C559.715 288.874 554.05 281.456 548.903 273.738C546.404 270.009 544.164 266.13 542.294 261.693C542.144 261.434 542.254 261.026 541.587 261.066C541.587 261.066 541.328 261.216 541.068 261.366C537.23 266.685 533.689 272.522 530.408 278.21C529.561 279.733 528.713 281.257 528.124 282.632C528.572 283.407 529.279 284.034 529.876 285.068C531.031 286.47 532.186 287.872 533.86 288.975C536.091 290.445 538.431 291.508 540.772 292.57C542.296 293.414 543.671 294 545.454 294.694C548.502 296.383 551.29 298.221 553.6 301.025C554.755 302.427 555.91 303.829 557.215 305.49C558.37 306.892 559.674 308.552 560.829 309.954C562.84 312.241 564.852 314.528 567.381 316.516C569.204 317.877 570.877 318.98 572.55 320.083C576.454 322.656 580.469 324.821 584.632 327.245C587.829 329.192 591.435 331.248 594.632 333.195C599.911 336.354 604.711 340.479 608.883 345.311C608.883 345.311 609.032 345.57 609.441 345.679ZM671.49 259.856C671.121 260.414 670.603 260.713 670.234 261.271C669.865 261.829 669.347 262.128 668.978 262.686C665.209 266.931 661.292 270.917 657.115 275.052C649.02 283.174 640.776 291.037 632.123 298.791C630.09 300.655 627.797 302.668 625.913 304.79C623.251 307.362 620.739 310.191 618.486 312.872C614.497 317.933 611.774 323.987 609.31 329.893C608.941 330.451 609.239 330.968 609.279 331.635C609.766 333.077 610.104 334.261 610.333 335.854C610.482 336.112 610.372 336.52 610.631 336.371C611.778 335.364 613.073 334.616 614.22 333.609C615.366 332.603 616.921 331.705 618.217 330.957C619.881 329.651 621.396 328.087 622.653 326.672C623.65 325.407 624.647 324.141 625.235 322.767C626.342 321.094 627.449 319.42 628.705 318.005C630.699 315.475 633.102 313.053 635.803 311.149C637.099 310.401 638.245 309.394 639.541 308.646C642.909 306.701 646.427 305.015 649.945 303.329C657.24 299.806 664.237 295.767 670.377 290.843C675.63 286.775 680.993 282.3 686.246 278.233C686.505 278.083 686.356 277.824 686.615 277.675C682.105 271.658 676.817 266.091 671.49 259.856ZM606.922 305.41C607.181 305.261 607.44 305.111 607.55 304.703C609.434 302.581 611.319 300.458 613.502 298.853C615.685 297.248 617.718 295.384 619.901 293.779C622.861 291.725 625.821 289.671 628.632 287.359C634.035 283.55 639.138 279.224 643.684 274.531C645.459 272.817 647.233 271.103 649.008 269.389C654.59 264.097 659.764 258.696 665.645 253.921C665.904 253.772 665.755 253.513 666.014 253.363C665.865 253.105 665.715 252.846 665.566 252.588C661.504 247.347 657.552 241.698 653.749 236.308C652.295 234.389 650.991 232.728 649.796 230.659C649.647 230.401 649.498 230.142 649.089 230.033C647.574 231.598 646.208 233.421 645.101 235.094C641.631 239.856 638.719 244.985 635.807 250.115C633.742 253.72 631.827 257.585 629.763 261.19C627 266.578 623.789 271.19 620.17 275.694C616.182 280.755 612.194 285.816 608.504 291.394C608.135 291.952 608.025 292.36 607.806 293.177C607.226 296.96 607.054 300.852 606.883 304.744C606.474 304.635 606.624 304.893 606.922 305.41ZM614.888 385.635C615.407 385.336 615.666 385.186 615.925 385.036C616.922 383.771 617.809 382.914 618.806 381.649C620.69 379.526 622.983 377.513 624.867 375.391C632.334 367.977 640.508 361.189 649.837 355.803C657.611 351.314 664.787 345.792 671.406 339.901C673.699 337.888 676.101 335.467 678.394 333.453C683.089 329.018 687.934 324.842 693.077 321.183C696.815 318.68 700.552 316.178 704.738 314.451C707.369 313.621 710.109 312.384 713.039 312.072C713.298 311.922 713.706 312.031 714.225 311.732C713.917 308.806 704.489 296.664 701.213 293.384C700.953 293.533 700.953 293.533 700.694 293.683C699.697 294.948 698.81 295.805 698.072 296.921C695.23 300.975 692.239 304.771 688.989 308.716C685.629 313.07 682.01 317.573 678.65 321.927C673.884 327.437 669.009 333.355 663.387 337.98C660.466 340.701 657.655 343.013 654.585 345.475C650.887 348.645 647.039 351.556 642.933 354.617C636.792 359.541 630.542 364.873 625.259 370.682C621.859 374.369 618.459 378.056 616.026 382.219C614.88 383.226 614.809 384.301 614.888 385.635ZM593.235 191.939C593.126 192.347 593.275 192.605 593.275 192.605C593.613 193.789 593.951 194.973 594.03 196.307C595.532 201.302 597.442 206.406 599.352 211.509C601.262 216.613 603.581 221.826 605.232 227.079C606.545 231.149 608.007 235.477 608.802 239.845C608.951 240.104 608.99 240.771 609.14 241.029C609.289 241.288 609.289 241.288 609.438 241.547C609.548 241.138 609.807 240.989 609.917 240.581C610.506 239.206 611.094 237.832 611.683 236.458C612.97 233.301 614.665 230.253 616.361 227.206C620.05 221.627 624.148 216.158 628.804 211.056C629.063 210.907 629.173 210.498 629.432 210.349C628.875 209.981 628.317 209.614 627.759 209.246C622.59 205.679 617.311 202.52 611.554 200.327C605.647 197.876 599.331 195.315 593.534 192.456C594.052 192.157 593.903 191.898 593.235 191.939ZM608.352 259.414C608.721 258.856 608.831 258.448 608.533 257.931C608.375 255.264 608.217 252.596 607.8 250.079C607.343 246.894 606.737 243.451 605.872 240.157C604.968 236.197 603.655 232.128 602.083 228.208C601.894 227.282 601.556 226.098 600.849 225.472C598.649 222.26 595.93 219.347 592.474 217.549C591.359 216.814 589.984 216.229 588.868 215.493C586.229 213.914 583.849 212.185 581.837 209.898C581.688 209.639 581.539 209.381 581.28 209.53C581.02 209.68 580.911 210.088 580.911 210.088C578.996 213.952 576.672 217.708 573.94 221.354C573.681 221.503 573.571 221.912 573.72 222.17C574.168 222.946 574.875 223.572 575.473 224.607C577.523 227.56 579.425 230.256 581.735 233.06C583.188 234.979 584.901 236.749 587.132 238.219C589.104 239.839 591.186 241.051 593.158 242.671C598.177 245.979 602.459 250.403 605.704 255.426C606.302 256.46 607.307 257.604 607.905 258.638C607.795 259.047 607.944 259.305 608.352 259.414ZM605.619 283.405C605.729 282.997 605.839 282.589 605.949 282.18C606.788 278.248 607.218 274.206 608.058 270.274C608.347 268.382 608.488 266.232 608.778 264.341C608.739 263.674 608.849 263.266 608.291 262.898C606.389 260.203 604.747 257.358 602.845 254.663C600.496 251.192 597.518 248.429 593.913 246.373C592.389 245.528 591.273 244.793 589.749 243.949C588.634 243.214 587.668 242.737 586.552 242.002C580.158 238.108 575.797 232.35 573.101 225.286C572.952 225.028 572.802 224.769 572.802 224.769C572.543 224.919 572.543 224.919 572.543 224.919C570.29 227.599 568.445 230.388 566.192 233.068C565.933 233.218 566.082 233.476 565.823 233.626C566.57 234.919 567.167 235.954 568.172 237.097C569.516 239.424 570.97 241.344 573.091 243.222C575.361 245.36 577.632 247.497 580.311 249.743C582.133 251.105 583.846 252.874 585.41 254.385C588.945 257.516 591.852 261.355 594.241 265.493C596.779 269.889 599.577 274.136 602.374 278.382C603.529 279.785 604.425 281.336 605.321 282.888C605.022 282.371 605.321 282.888 605.619 283.405ZM611.447 356.933C611.557 356.525 611.557 356.525 611.557 356.525C611.179 354.674 611.21 352.932 610.832 351.082C610.942 350.673 610.385 350.306 610.235 350.047C609.528 349.421 608.821 348.795 608.373 348.019C604.201 343.187 599.291 339.47 593.863 336.052C590.666 334.105 587.469 332.158 584.012 330.361C580.815 328.414 577.767 326.725 574.311 324.928C570.705 322.872 566.951 320.557 563.714 317.943C561.334 316.214 559.063 314.077 557.162 311.382C556.007 309.98 555.26 308.687 554.105 307.285C552.652 305.366 551.198 303.446 549.336 301.418C547.623 299.648 545.801 298.287 543.719 297.075C542.344 296.49 540.97 295.904 539.854 295.169C537.922 294.216 535.84 293.004 533.908 292.05C531.009 290.621 528.739 288.483 526.986 286.047C526.837 285.788 526.578 285.938 526.429 285.679C525.691 286.795 525.102 288.169 524.773 289.394C524.922 289.652 525.331 289.761 525.629 290.279C528.308 292.525 530.728 294.921 533.407 297.167C537.5 300.666 540.815 304.613 543.244 309.418C544.289 311.228 545.334 313.038 546.638 314.699C548.391 317.136 550.771 318.865 553.41 320.444C555.343 321.397 557.126 322.092 558.909 322.786C561.509 323.699 563.7 324.503 566.3 325.415C569.458 326.695 572.506 328.384 575.185 330.63C576.041 331.515 576.748 332.141 577.605 333.026C578.869 334.02 579.875 335.163 581.14 336.157C582.853 337.927 585.083 339.397 587.016 340.35C588.54 341.195 590.323 341.889 592.255 342.842C594.188 343.796 595.971 344.49 597.903 345.444C602.883 348.085 607.235 351.434 610.591 356.049C610.889 356.566 611.298 356.675 611.447 356.933ZM610.596 274.67C610.855 274.52 611.114 274.371 611.224 273.963C611.593 273.405 612.072 272.439 612.441 271.881C616.13 266.303 619.003 260.506 621.318 254.342C622.824 250.369 624.221 246.804 625.728 242.831C627.015 239.674 628.302 236.518 629.738 233.619C632.242 228.381 635.303 223.51 638.923 219.007C639.182 218.857 639.032 218.599 639.292 218.449C638.545 217.156 637.28 216.162 633.745 213.031C633.187 212.664 632.889 212.146 632.221 212.187C631.852 212.745 631.483 213.303 630.965 213.602C628.712 216.282 626.458 218.962 624.205 221.642C620.806 225.329 617.964 229.383 615.829 234.064C615.091 235.18 614.762 236.404 614.024 237.52C612.697 240.01 611.371 242.5 610.303 244.84C610.194 245.248 610.084 245.657 610.233 245.915C610.461 247.507 610.839 249.358 610.808 251.1C611.304 254.952 611.541 258.953 611.369 262.844C611.308 266.328 610.838 269.703 610.367 273.078C610.258 273.486 610.148 273.894 610.596 274.67ZM720.166 396.229C719.498 396.27 719.498 396.27 719.239 396.419C717.276 397.208 715.163 397.738 713.051 398.268C712.383 398.309 711.865 398.608 711.606 398.757C709.643 399.546 707.939 400.185 705.826 400.715C702.418 401.993 699.01 403.271 695.342 404.699C690.379 406.875 685.306 409.459 680.642 412.152C673.646 416.191 666.61 419.564 658.976 421.902C656.605 422.582 654.084 423.003 651.563 423.424C647.447 424.076 642.924 424.618 638.659 425.012C633.986 425.296 629.572 425.431 625.009 425.307C621.781 425.102 618.812 424.747 615.584 424.542C611.948 424.227 608.351 424.58 604.903 425.191C602.531 425.871 602.9 425.313 602.092 427.504C601.982 427.912 601.464 428.211 601.763 428.729L602.171 428.838C603.357 428.498 604.692 428.417 605.878 428.077C611.179 427.085 616.52 426.76 621.75 426.843C625.237 426.899 628.874 427.213 632.361 427.269C639.335 427.38 646.42 427.083 653.574 425.711C657.022 425.099 660.579 424.08 664.027 423.469C669.587 422.327 674.699 420.41 679.921 418.085C684.107 416.358 688.293 414.631 692.478 412.904C696.923 411.027 701.407 409.818 706.19 409.125C709.119 408.813 711.79 408.651 714.499 409.155C714.499 409.155 714.759 409.006 715.167 409.115C717.231 405.509 718.848 401.128 720.166 396.229ZM616.048 378.069C616.307 377.919 616.417 377.511 616.676 377.361C618.042 375.538 619.408 373.715 620.774 371.892C623.397 368.654 626.317 365.933 629.238 363.213C634.821 357.921 640.961 352.996 647.101 348.072C652.095 344.155 657.089 340.237 661.674 336.21C668.552 330.17 674.574 323.246 680.336 316.47C685.322 310.144 690.456 304.076 695.441 297.75C696.807 295.927 698.173 294.104 700.097 292.648C700.097 292.648 700.356 292.499 700.207 292.24C699.908 291.723 699.201 291.097 698.903 290.58C698.753 290.321 698.196 289.953 698.046 289.695C697.787 289.844 697.528 289.994 697.418 290.402C695.534 292.524 694.058 294.756 692.582 296.987C690 300.892 687.417 304.797 684.276 308.334C682.023 311.014 679.362 313.585 676.959 316.007C669.492 323.421 661.468 330.468 653.145 336.997C648.151 340.915 643.008 344.574 637.865 348.233C634.276 350.994 630.429 353.905 626.841 356.666C622.624 360.135 619.523 364.339 616.721 369.06C616.611 369.469 616.501 369.877 616.391 370.285C616.141 372.843 616.149 375.252 615.899 377.81C615.75 377.552 615.75 377.552 616.048 378.069ZM608.515 325.524C608.884 324.966 608.735 324.708 608.845 324.299C609.543 322.517 610.351 320.326 611.199 318.802C613.593 313.972 616.694 309.768 620.203 305.673C623.234 302.544 626.673 299.524 630.112 296.504C632.664 294.341 635.216 292.178 637.767 290.016C646.679 282.112 655.441 273.95 663.795 265.678C665.68 263.556 667.713 261.692 669.857 259.42C670.116 259.271 670.116 259.271 670.225 258.863C669.479 257.57 668.623 256.685 667.617 255.541C667.358 255.691 667.099 255.841 666.84 255.99C664.437 258.412 661.626 260.724 659.224 263.146C655.306 267.132 651.129 271.267 647.211 275.253C643.034 279.389 638.598 283.674 633.714 287.184C630.754 289.238 628.202 291.4 625.242 293.454C621.912 296.066 618.175 298.569 614.995 301.439C612.184 303.752 609.522 306.323 607.159 309.411C606.531 310.119 606.57 310.786 606.351 311.602C606.588 315.603 606.974 319.863 607.619 323.972C607.918 324.49 608.067 324.748 608.515 325.524ZM512.638 360.535C512.269 361.093 512.159 361.501 512.308 361.76C512.018 363.651 511.619 365.951 511.329 367.842C511.148 369.326 510.968 370.809 510.639 372.034C510.419 372.85 510.867 373.626 511.166 374.143C511.464 374.66 511.873 374.769 512.171 375.286C516.901 380.486 520.853 386.135 524.028 392.233C526.308 396.779 529.215 400.617 532.899 404.007C537.032 408.173 541.902 411.222 546.882 413.864C547.849 414.341 548.406 414.708 549.632 415.035C552.789 416.316 556.206 417.446 559.474 418.318C563.15 419.299 566.826 420.28 570.242 421.411C577.335 423.522 583.69 426.75 589.197 431.501C590.611 432.753 591.766 434.155 593.18 435.408C593.33 435.666 593.888 436.034 594.186 436.551C594.924 435.435 595.253 434.211 595.324 433.136C593.91 431.883 592.496 430.631 591.082 429.378C589.817 428.385 588.96 427.5 587.696 426.506C585.574 424.627 583.343 423.157 580.743 422.244C577.735 421.223 574.836 419.793 571.828 418.771C569.228 417.859 566.778 417.205 564.068 416.7C561.358 416.196 558.758 415.283 556.268 413.962C549.803 411.143 543.817 407.358 538.828 402.308C534.138 397.775 529.817 392.684 526.273 387.144C522.171 381.237 518.847 374.88 516.19 368.484C515.106 366.006 514.43 363.638 513.345 361.161C513.086 361.311 512.936 361.052 512.638 360.535ZM640.855 219.96C640.745 220.368 640.227 220.668 640.117 221.076C639.01 222.749 637.903 224.423 636.946 226.355C635.101 229.144 633.665 232.042 632.378 235.199C630.761 239.58 628.736 243.853 627.12 248.234C626.202 250.833 625.284 253.432 624.366 256.031C622.529 261.229 619.986 265.8 616.925 270.671C615.708 272.753 614.342 274.576 613.125 276.658C612.387 277.773 611.65 278.889 610.613 279.487C609.836 279.936 609.467 280.494 609.506 281.161C609.326 282.644 609.146 284.127 608.966 285.611C608.856 286.019 609.005 286.277 609.045 286.944C609.414 286.386 609.932 286.087 610.042 285.679C611.886 282.89 613.621 280.509 615.615 277.978C616.612 276.713 617.61 275.448 618.497 274.591C622.006 270.496 624.699 266.183 626.943 261.094C627.053 260.686 627.422 260.128 627.791 259.57C629.596 256.114 631.252 252.4 633.058 248.944C636.519 241.773 641.504 235.447 647.047 229.488C647.416 228.93 647.934 228.631 648.303 228.073C647.557 226.78 646.103 224.861 643.086 221.431C641.861 221.104 641.562 220.586 640.855 219.96ZM597.133 441.056C598.288 442.458 599.443 443.86 600.747 445.521C602.499 447.958 604.88 449.687 607.111 451.157C612.539 454.575 618.296 456.767 624.643 457.586C630.58 458.295 636.18 457.821 642.039 457.197C642.298 457.047 642.298 457.047 642.966 457.007C642.557 456.898 642.149 456.789 642.149 456.789C639.031 456.175 636.171 455.412 632.904 454.54C631.27 454.104 629.487 453.41 627.963 452.565C625.882 451.354 623.8 450.142 621.718 448.93C615.881 445.404 610.045 441.877 604.208 438.351C603.093 437.615 601.718 437.03 600.493 436.703C600.084 436.594 599.527 436.226 599.008 436.525C598.161 438.049 597.721 439.682 597.133 441.056ZM604.209 293.529C604.319 293.121 604.319 293.121 604.319 293.121C604.538 292.305 604.609 291.23 604.569 290.563C604.749 289.079 604.82 288.004 604.073 286.711C603.287 284.752 602.242 282.941 601.346 281.39C599.892 279.47 598.588 277.81 597.134 275.89C594.934 272.678 592.734 269.466 590.793 266.104C588.742 263.15 586.542 259.938 583.714 257.433C581.593 255.554 579.88 253.785 577.759 251.906C575.787 250.286 573.666 248.407 571.953 246.638C568.826 243.616 566.477 240.145 564.756 235.966C564.606 235.708 564.457 235.449 564.308 235.19C563.42 236.048 562.792 236.755 562.314 237.721C562.463 237.98 562.612 238.238 562.762 238.497C565.449 243.152 568.246 247.399 572.08 251.047C573.494 252.299 574.649 253.701 575.914 254.695C578.035 256.574 579.788 259.01 581.65 261.039C584.408 264.619 587.056 268.607 589.295 272.486C591.833 276.882 594.481 280.87 598.056 284.668C600.217 287.214 602.228 289.501 603.871 292.345C603.611 292.495 603.91 293.012 604.209 293.529ZM598.64 219.851C598.75 219.443 598.601 219.184 598.71 218.776C597.476 216.04 596.392 213.563 595.417 210.678C594.442 207.793 593.059 204.798 592.084 201.913C591.259 199.286 590.433 196.66 590.016 194.142C589.867 193.883 589.977 193.475 589.568 193.366C589.309 193.516 589.199 193.924 588.94 194.074C587.025 197.938 585 202.21 583.085 206.074C582.975 206.483 582.975 206.483 582.865 206.891C583.871 208.034 584.877 209.178 585.733 210.063C586.44 210.689 587.147 211.315 587.854 211.941C589.677 213.303 591.908 214.773 593.989 215.985C595.254 216.979 596.778 217.823 597.784 218.966C598.082 219.484 598.232 219.742 598.64 219.851Z" fill="#286435"/>
<path d="M494.649 443.677C492.018 444.506 489.387 445.335 486.607 445.906C480.528 447.346 474.45 448.787 468.371 450.228C453.434 453.679 438.647 457.39 423.859 461.1C406.849 465.749 389.909 469.322 372.859 473.304C366.781 474.744 360.514 475.26 354.207 475.108C352.463 475.08 350.57 474.794 348.678 474.507C346.785 474.221 344.892 473.934 343.219 472.832C342.252 472.355 341.286 471.878 340.171 471.143C337.641 469.156 337.075 466.379 339.069 463.849C339.328 463.699 339.438 463.291 339.697 463.141C340.694 461.876 341.99 461.128 343.136 460.121C347.133 457.469 351.428 455.334 355.464 453.348C364.872 449.296 375.026 446.537 385.22 444.444C393.969 442.841 402.608 441.647 411.247 440.452C419.218 439.298 427.488 438.661 435.648 438.432C443.4 438.094 451.152 437.757 459.013 437.011C470.621 436.171 482.268 435.998 493.885 437.566C494.293 437.675 494.552 437.526 494.662 437.118C494.364 436.6 494.065 436.083 493.507 435.715C492.352 434.313 490.789 432.802 489.634 431.4C484.197 425.574 478.76 419.748 473.064 414.071C467.219 408.136 461.115 402.351 454.751 396.715C453.188 395.204 453.188 395.204 450.926 395.475C450.258 395.516 449.999 395.665 449.481 395.964C447.777 396.604 446.073 397.243 444.369 397.882C439.625 399.241 435.181 401.117 431.034 403.511C426.37 406.204 421.855 409.156 417.191 411.849C407.493 417.793 397.387 423.627 387.54 429.312C381.062 433.053 374.135 436.017 367.06 438.723C360.244 441.279 353.168 443.985 346.202 446.283C341.2 447.791 336.197 449.3 331.046 450.551C324.967 451.991 318.998 453.024 312.841 453.13C310.43 453.143 308.019 453.156 305.458 452.91C302.749 452.406 300.039 451.901 297.29 450.73C295.915 450.145 295.059 449.26 293.943 448.525C292.38 447.014 291.743 445.312 292.292 443.271C292.512 442.455 292.731 441.638 292.951 440.822C293.799 439.298 294.646 437.774 295.793 436.767C297.457 435.462 298.863 434.305 300.527 433C305.561 429.749 310.634 427.165 316.264 424.948C325.413 421.046 334.601 417.81 343.938 414.833C355.388 411.325 366.689 407.559 377.691 403.276C384.248 400.87 390.546 398.613 397.402 396.723C411.114 392.945 424.904 390.5 439.002 390.98C441.822 391.077 444.641 391.173 447.76 391.786C447.76 391.786 448.168 391.895 448.427 391.746C448.278 391.487 448.129 391.228 447.979 390.97C442.621 386.477 437.264 381.985 431.906 377.492C427.554 374.143 422.793 370.685 418.441 367.336C413.68 363.878 409.069 360.678 404.199 357.628C402.675 356.784 401.26 355.532 399.477 354.837C398.88 353.803 398.103 354.252 397.585 354.551C395.362 355.489 393.25 356.019 391.027 356.957C390.509 357.257 389.582 357.447 389.064 357.746C379.915 361.649 370.956 366.477 362.554 371.673C358.926 373.767 355.447 376.12 351.56 378.364C344.305 382.553 337.308 386.593 329.903 390.523C320.834 395.76 311.764 400.996 302.545 405.974C296.436 409.156 290.476 412.597 284.217 415.521C276.254 419.084 267.993 422.129 259.134 424.141C253.315 425.432 247.606 426.314 241.558 426.013C239.814 425.985 237.921 425.699 236.029 425.412C234.395 424.976 232.761 424.54 231.496 423.547C228.708 421.708 227.583 418.565 228.462 415.299C228.791 414.074 229.38 412.7 230.377 411.435C232.85 407.938 236.289 404.918 239.618 402.306C243.207 399.545 247.502 397.41 251.688 395.683C258.355 392.868 265.171 390.312 272.027 388.423C281.105 385.595 290.073 383.175 299.152 380.348C307.044 377.86 314.787 375.114 322.232 371.85C329.417 368.736 336.194 365.513 343.379 362.399C348.86 359.924 354.491 357.708 360.271 355.75C370.904 352.025 381.695 350.967 392.863 351.76C393.272 351.869 393.531 351.719 393.939 351.828C393.491 351.052 393.083 350.943 392.525 350.575C384.756 346.096 376.987 341.616 368.849 337.694C364.018 335.311 359.188 332.928 354.097 330.695C352.723 330.109 351.647 330.041 350.202 330.53C349.943 330.68 349.424 330.979 349.016 330.87C347.571 331.359 346.275 332.107 345.09 332.447C337.715 334.636 330.64 337.342 323.863 340.565C316.05 344.386 308.087 347.949 300.313 352.437C295.13 355.429 289.838 358.83 284.805 362.081C275.107 368.024 265.559 374.227 255.861 380.171C249.273 384.319 242.794 388.059 235.868 391.024C228.573 394.546 221.238 397.401 213.754 399.998C210.605 401.127 206.899 401.888 203.561 402.091C201.966 402.321 200.223 402.294 198.479 402.266C196.068 402.279 193.877 401.475 192.054 400.114C189.823 398.643 188.738 396.166 189.657 393.567C189.876 392.751 190.355 391.785 190.983 391.077C191.98 389.812 192.977 388.547 194.233 387.132C197.892 383.295 202.108 379.827 206.623 376.875C212.175 373.325 217.876 370.034 223.875 367.259C243.947 357.74 263.869 347.962 283.831 338.851C289.831 336.077 295.979 333.561 301.979 330.787C304.46 329.699 306.832 329.019 309.204 328.34C315.392 326.491 321.879 325.159 328.186 325.311C332.599 325.176 336.904 325.45 341.467 325.574C341.875 325.683 342.284 325.792 342.802 325.493C342.653 325.234 342.653 325.234 342.653 325.234C339.903 324.063 336.746 322.783 333.737 321.761C333.329 321.652 332.92 321.543 332.512 321.434C325.05 319.88 317.329 318.476 309.687 318.406C309.02 318.446 308.203 318.228 307.535 318.269C291.804 317.352 275.852 317.251 260.09 318.077C250.335 318.536 240.172 318.887 230.418 319.346C211.427 319.966 192.099 319.402 173.1 317.613C165.677 316.726 158.106 315.58 151.013 313.469C149.788 313.142 148.413 312.556 147.188 312.229C146.371 312.011 145.664 311.385 145.106 311.017C143.134 309.397 142.309 306.771 144.193 304.648C144.931 303.533 145.967 302.934 146.855 302.077C148.519 300.771 150.482 299.983 152.186 299.344C156.372 297.617 160.448 296.298 164.932 295.088C173.641 292.819 182.539 291.474 191.885 290.906C200.305 290.527 208.614 290.557 217.073 290.846C234.399 291.532 251.395 293.442 268.251 297.503C280.206 300.256 292.05 303.417 303.636 306.728C315.63 310.147 327.664 314.234 339.069 319.027C343.601 320.893 347.725 322.65 352.258 324.516C352.666 324.625 352.815 324.883 353.224 324.992C353.224 324.992 353.483 324.843 353.742 324.693C352.886 323.808 352.179 323.182 351.212 322.706C348.832 320.977 346.303 318.989 343.922 317.26C338.305 312.917 332.798 308.166 327.7 303.524C318.916 295.492 310.392 287.31 301.978 278.721C297.845 274.555 293.713 270.39 289.58 266.224C288.017 264.713 286.453 263.202 285 261.283C281.724 258.002 278.298 254.463 275.281 251.032C271.706 247.235 268.132 243.437 264.408 239.38C261.241 235.691 257.816 232.152 254.649 228.463C251.334 224.515 248.018 220.568 244.812 216.212C243.807 215.069 243.06 213.776 242.314 212.483C241.866 211.707 241.418 210.931 241.08 209.747C240.553 207.637 241.55 206.372 243.403 205.992C244.071 205.951 244.738 205.911 245.406 205.87C246.223 206.088 247.15 205.898 247.966 206.116C249.6 206.552 250.826 206.879 252.459 207.315C257.251 209.031 261.673 211.305 266.245 213.838C272.082 217.364 277.659 221.04 283.237 224.716C287.141 227.29 290.935 230.271 294.47 233.402C304.071 241.652 313.153 250.201 321.497 259.866C325.818 264.957 329.731 269.939 333.793 275.179C339.348 283.006 344.644 290.982 349.532 298.849C354.27 306.458 359.268 313.917 364.524 321.227C367.432 325.065 370.189 328.645 372.319 332.932C372.767 333.708 373.325 334.076 373.883 334.443C376.224 335.506 378.305 336.717 380.387 337.929C390.607 343.063 400.606 349.013 410.088 355.262C410.238 355.521 410.497 355.371 411.054 355.739C410.756 355.222 410.606 354.963 410.457 354.705C407.699 351.125 404.533 347.436 401.775 343.856C396.149 337.104 391.042 330.053 385.786 322.744C380.529 315.435 375.531 307.975 370.165 301.074C365.356 294.541 360.398 287.748 355.33 281.364C347.465 270.734 340.267 260.062 333.957 248.534C329.776 241.293 326.523 233.862 323.638 225.872C322.663 222.987 321.798 219.694 321.082 216.659C320.854 215.066 320.625 213.474 320.656 211.732C320.577 210.399 320.758 208.915 321.495 207.8C322.453 205.868 324.008 204.97 326.01 204.848C327.087 204.916 328.312 205.243 329.278 205.72C330.802 206.564 332.326 207.409 333.591 208.402C338.351 211.86 342.484 216.026 346.098 220.491C350.011 225.473 353.665 230.604 357.059 235.885C363.848 246.448 369.97 257.051 375.982 268.062C381.695 278.556 387.518 288.642 393.231 299.136C398.795 309.371 404.249 320.015 409.036 330.699C411.354 335.912 413.673 341.124 416.4 346.446C419.764 353.469 423.496 359.935 426.86 366.958C427.308 367.733 427.866 368.101 428.573 368.727C432.069 371.191 435.455 374.064 438.95 376.528C444.418 380.612 449.367 384.996 454.725 389.489C460.382 394.498 466.187 399.767 471.585 404.926C473.148 406.437 474.562 407.69 476.126 409.201C476.275 409.459 476.424 409.718 477.092 409.677C476.943 409.419 477.052 409.01 476.754 408.493C475.63 405.349 474.914 402.314 473.79 399.17C470.158 389.888 466.676 380.865 463.045 371.582C457.881 359.047 452.716 346.512 447.812 333.828C443.543 322.844 439.534 311.711 435.376 300.32C431.257 289.595 426.989 278.611 423.129 267.737C421.03 261.708 418.523 255.57 416.942 249.241C416.116 246.614 415.699 244.097 415.282 241.579C415.203 240.245 415.014 239.32 414.935 237.986C415.006 236.911 415.225 236.095 415.445 235.278C416.034 233.904 417.07 233.306 418.555 233.483C419.222 233.442 420.039 233.66 420.597 234.028C421.972 234.614 423.236 235.607 424.352 236.343C427.18 238.848 429.898 241.761 432.208 244.565C435.673 248.771 438.471 253.018 441.158 257.673C448.883 270.453 455.312 283.982 460.445 298.259C464.414 308.725 467.457 319.382 470.5 330.038C474.597 344.914 478.175 360.088 480.16 375.494C481.073 381.863 481.876 388.64 481.862 395.199C481.919 400.684 481.717 406.317 480.847 411.992C480.517 413.216 480.855 414.4 481.712 415.285C483.425 417.055 485.137 418.825 486.701 420.336C490.275 424.134 493.85 427.932 497.425 431.729C501.856 436.412 506.028 441.245 510.2 446.077C514.223 450.651 518.395 455.483 522.158 460.206C526.629 465.556 561.098 509.101 565.569 514.45C570.338 520.317 575.257 526.442 579.767 532.459C585.432 539.877 591.097 547.296 596.872 554.306C598.176 555.966 599.331 557.368 600.376 559.179C600.675 559.696 600.973 560.213 601.421 560.989C601.869 561.765 601.092 562.214 600.424 562.254C599.607 562.036 598.79 561.818 598.233 561.451C597.526 560.824 596.41 560.089 595.703 559.463C591.869 555.815 588.035 552.166 584.72 548.219C580.1 542.611 575.48 537.003 570.97 530.986C567.355 526.521 563.741 522.057 560.127 517.592C556.811 513.644 523.497 471.502 520.032 467.296C516.717 463.348 513.401 459.401 510.085 455.453C507.068 452.023 504.051 448.592 501.034 445.162C500.029 444.019 499.023 442.875 497.13 442.589C496.612 442.888 495.685 443.078 494.649 443.677ZM317.745 341.338C317.078 341.379 316.41 341.42 316.19 342.236C315.633 341.868 315.264 342.426 315.004 342.576C313.041 343.365 310.968 344.561 309.005 345.35C306.005 346.737 303.414 348.233 300.414 349.62C293.527 353.252 286.083 356.515 278.748 359.371C267.487 363.803 256.375 368.495 245.264 373.186C239.115 375.702 233.265 378.734 227.414 381.767C221.823 384.65 216.232 387.534 210.343 389.9C207.602 391.137 204.712 392.116 201.673 392.836C200.487 393.176 199.042 393.665 197.856 394.005C195.744 394.535 194.04 395.174 191.927 395.704C191.668 395.854 191.707 396.521 191.857 396.779C191.896 397.446 192.195 397.964 192.753 398.331C193.31 398.699 193.868 399.066 194.685 399.284C196.06 399.87 197.285 400.197 198.62 400.116C200.364 400.144 202.366 400.022 203.961 399.791C206.89 399.479 209.67 398.908 212.56 397.929C226.122 393.892 238.899 387.895 250.929 380.604C256.999 376.755 262.919 372.647 269.547 369.166C274.988 366.024 280.43 362.882 285.723 359.482C289.46 356.979 293.088 354.884 296.975 352.64C302.786 348.941 308.785 346.167 314.895 342.984C315.413 342.685 315.931 342.386 316.709 341.937C316.709 341.937 317.227 341.638 317.745 341.338C318.154 341.447 318.263 341.039 318.522 340.89C318.522 340.89 318.672 341.148 318.931 340.999C318.931 340.999 318.672 341.148 318.522 340.89C318.263 341.039 318.004 341.189 317.745 341.338ZM320.336 339.842C320.596 339.693 320.596 339.693 320.596 339.693L320.336 339.842ZM473.067 445.793C472.509 445.425 472.509 445.425 471.731 445.874C471.174 445.506 470.915 445.656 470.247 445.697C467.726 446.118 465.205 446.539 462.276 446.851C452.042 448.276 441.55 449.851 431.317 451.277C417.377 453.464 403.696 455.5 389.646 458.095C388.46 458.435 387.125 458.516 385.68 459.006C376.822 461.017 368.222 462.878 359.513 465.148C357.4 465.678 355.029 466.358 352.916 466.888C350.285 467.717 347.505 468.288 344.875 469.117C344.615 469.267 344.615 469.267 344.097 469.566C344.655 469.934 344.804 470.192 345.063 470.043C347.106 470.588 349.148 471.132 351.3 471.269C357.905 471.938 364.432 471.274 370.918 469.942C373.439 469.521 376.07 468.692 378.591 468.271C391.675 465.199 404.499 462.278 417.693 458.798C426.402 456.528 435.37 454.109 444.229 452.098C452.679 449.978 461.279 448.116 470.137 446.105C470.805 446.064 471.472 446.024 471.841 445.466C472.289 446.242 472.807 445.942 473.067 445.793ZM302.876 311.994C302.876 311.994 303.135 311.844 302.876 311.994C302.986 311.586 303.135 311.844 302.876 311.994C302.986 311.586 302.727 311.735 302.876 311.994C302.318 311.626 301.76 311.259 301.352 311.15C287.575 307.035 273.947 303.18 259.95 299.882C246.103 296.843 232.185 294.879 217.938 294.139C210.147 293.81 202.355 293.481 194.195 293.71C184.032 294.06 174.317 295.187 164.422 297.796C160.456 298.707 156.53 300.284 152.604 301.861C150.64 302.65 148.826 303.697 147.421 304.854C146.903 305.153 146.534 305.711 146.314 306.527C146.722 306.636 146.723 306.636 147.131 306.745C148.207 306.813 149.542 306.732 150.767 307.059C157.263 308.136 164.088 307.989 170.614 307.324C177.4 306.51 184.036 305.437 190.822 304.623C194.937 303.971 199.052 303.319 203.167 302.667C213.401 301.241 223.304 301.04 233.656 301.615C243.749 302.34 253.731 303.473 263.903 305.531C267.429 306.253 270.956 306.976 274.483 307.698C278.268 308.271 282.054 308.843 285.84 309.416C291.11 310.166 296.38 310.917 301.651 311.667C301.8 311.925 302.358 312.293 302.876 311.994C302.727 311.735 302.727 311.735 302.876 311.994ZM423.665 396.732C419.809 397.234 416.102 397.995 412.396 398.756C401.275 401.038 390.084 404.396 379.342 408.53C372.525 411.086 365.45 413.792 358.484 416.089C353.481 417.598 348.479 419.107 343.477 420.616C334.657 423.294 326.247 426.081 317.876 429.535C312.245 431.751 307.023 434.077 301.99 437.327C300.953 437.926 299.917 438.524 299.289 439.232C298.401 440.089 297.514 440.946 296.627 441.803C296.258 442.361 295.889 442.919 295.52 443.476C295.191 444.701 295.529 445.885 296.385 446.77C296.943 447.138 297.092 447.396 297.501 447.505C298.208 448.131 299.024 448.349 300.061 447.751C300.579 447.452 301.247 447.411 301.765 447.112C308.103 445.522 314.849 444.041 321.186 442.45C327.265 441.01 332.935 439.46 339.013 438.02C348.39 435.709 357.429 432.215 366.169 428.203C373.873 424.79 381.387 420.451 388.494 416.004C394.045 412.454 399.746 409.162 405.298 405.612C411.109 401.913 417.516 399.247 424.223 397.099C424.482 396.95 425.15 396.909 425.409 396.76C425.409 396.76 425.26 396.501 425.519 396.351C425 396.651 424.333 396.691 423.665 396.732ZM319.402 317.279C317.101 316.884 314.8 316.488 312.349 315.834C304.628 314.43 296.947 313.693 289.116 312.697C279.95 311.782 271.004 310.051 261.909 308.061C257.824 306.971 253.63 306.289 249.287 305.349C241.157 303.836 233.067 302.99 224.868 302.551C216.817 302.372 208.547 303.009 200.725 304.422C192.495 305.725 184.414 307.288 176.034 308.333C171.251 309.025 166.578 309.31 161.756 309.335C159.345 309.348 156.784 309.102 154.373 309.115C153.965 309.006 153.556 308.897 153.038 309.196C153.596 309.564 154.004 309.673 154.821 309.891C160.28 311.567 165.7 312.575 171.119 313.584C181.809 315.343 192.718 316.286 203.588 316.561C214.866 316.946 225.846 316.813 237.085 316.531C246.172 316.112 255.149 316.102 264.236 315.683C273.064 315.413 282.041 315.403 290.908 315.8C294.395 315.856 298.291 316.02 301.927 316.335C305.155 316.54 308.383 316.745 311.611 316.95C314.172 317.196 316.732 317.442 319.293 317.687C319.96 317.647 320.777 317.865 321.185 317.974C321.185 317.974 321.036 317.715 321.295 317.566C320.628 317.606 320.07 317.239 319.402 317.279ZM245.454 208.945C249.17 210.593 252.516 212.799 255.603 215.154C257.575 216.774 259.657 217.986 261.629 219.606C266.539 223.323 271.08 227.597 275.212 231.763C280.201 236.813 285.08 242.272 289.551 247.621C293.165 252.086 297.038 256.401 300.653 260.866C303.819 264.555 306.726 268.393 309.892 272.082C312.202 274.886 314.921 277.8 317.49 280.454C320.358 283.626 323.484 286.648 326.352 289.82C328.214 291.848 330.076 293.876 332.048 295.496C336.888 300.288 341.468 305.229 345.789 310.32C349.105 314.268 352.421 318.215 355.736 322.163C356.891 323.565 358.195 325.225 359.869 326.328C360.576 326.954 361.283 327.581 362.139 328.465C362.996 329.35 364.37 329.936 365.595 330.263C365.705 329.855 365.407 329.338 365.257 329.079C364.252 327.935 363.097 326.533 362.091 325.39C355.31 317.236 349.307 308.634 343.673 299.473C338.487 291.089 333.041 282.854 327.486 275.027C323.683 269.637 319.77 264.655 315.598 259.823C311.426 254.991 306.995 250.308 302.305 245.775C299.327 243.011 296.609 240.098 293.372 237.484C287.417 231.957 280.685 226.879 273.842 222.209C268.414 218.792 262.837 215.116 257.299 212.106C253.843 210.309 250.276 208.92 246.6 207.939C245.784 207.721 245.226 207.353 244.448 207.802C244.896 208.578 245.046 208.836 245.454 208.945ZM378.98 359.43C377.017 360.219 374.904 360.749 372.941 361.538C368.088 363.305 363.086 364.814 358.232 366.582C351.785 368.58 345.785 371.354 339.975 375.054C337.533 376.808 334.941 378.305 332.499 380.059C319.363 389.023 305.291 395.768 290.582 400.812C281.135 404.198 271.389 407.066 261.643 409.934C253.751 412.422 245.709 414.651 237.518 416.622C235.665 417.002 233.552 417.532 231.589 418.321C231.369 419.137 231.558 420.063 232.116 420.43C232.673 420.798 233.38 421.424 233.938 421.792C235.313 422.377 236.687 422.963 238.172 423.14C241.958 423.713 245.704 423.619 249.45 423.525C255.05 423.051 260.202 421.8 265.613 420.4C275.508 417.791 284.915 413.738 294.134 408.761C306.612 402.246 318.532 395.364 330.711 388.333C337.967 384.144 345.482 379.805 352.738 375.616C355.847 373.82 359.067 371.617 362.027 369.563C367.469 366.421 373.169 363.13 378.76 360.247C379.279 359.947 380.056 359.499 380.574 359.199L380.425 358.941C380.017 358.832 379.498 359.131 378.98 359.43ZM335.067 330.648C331.321 330.742 327.575 330.836 323.978 331.188C317.97 331.554 311.891 332.995 306.261 335.211C300.63 337.427 294.89 340.052 289.408 342.527C273.483 349.652 257.707 357.037 241.781 364.162C234.337 367.426 226.892 370.69 219.597 374.212C213.857 376.837 208.674 379.829 203.531 383.488C200.053 385.841 196.873 388.711 194.101 391.691C193.732 392.248 193.214 392.548 192.845 393.106C192.586 393.255 192.735 393.514 192.366 394.072C192.775 394.181 193.034 394.031 193.293 393.881C203.856 391.231 213.782 386.88 223.37 381.344C228.552 378.352 233.994 375.21 239.326 372.476C243.362 370.491 247.807 368.614 251.992 366.887C257.364 364.821 262.994 362.604 268.216 360.279C271.625 359.001 275.143 357.315 278.551 356.036C283.663 354.119 288.885 351.794 293.809 348.951C303.656 343.266 313.951 338.357 324.694 334.223C327.843 333.095 331.251 331.817 334.549 330.947C334.808 330.797 335.476 330.757 335.994 330.458L335.845 330.199C335.327 330.498 335.327 330.498 335.067 330.648ZM472.521 386.8C469.777 376.661 468.069 365.923 465.993 355.743C465.426 352.967 465.119 350.041 464.553 347.265C463.53 341.304 462.248 335.493 460.298 329.722C459.284 326.17 457.9 323.176 455.85 320.222C451.26 312.872 446.931 305.372 443.119 297.573C441.288 293.803 439.716 289.883 438.144 285.964C434.402 277.09 430.92 268.066 426.92 259.342C424.9 254.646 422.621 250.1 420.192 245.296C419.257 243.077 417.803 241.158 416.868 238.939C416.719 238.681 416.719 238.681 416.161 238.313C416.051 238.721 415.941 239.13 416.09 239.388C416.169 240.722 416.248 242.056 416.736 243.498C417.342 246.941 418.356 250.494 419.48 253.637C422.106 261.776 424.991 269.765 428.135 277.605C435.438 296.836 442.591 315.808 450.152 334.89C454.57 346.132 459.396 357.483 464.073 368.575C466.58 374.714 469.237 381.11 471.744 387.249C472.043 387.766 472.231 388.691 472.53 389.209L472.789 389.059C473.009 388.242 472.82 387.317 472.521 386.8ZM232.287 416.538C239.661 414.35 247.035 412.161 254.41 409.973C266.786 406.275 279.163 402.578 291.351 397.955C303.02 393.631 313.983 388.681 324.717 382.139C328.345 380.044 331.823 377.691 335.043 375.488C341.481 371.081 348.627 367.3 355.852 364.853C362.409 362.446 368.967 360.039 375.375 357.374C375.893 357.075 376.411 356.776 377.079 356.735C376.78 356.218 376.262 356.517 375.853 356.408C370.811 357.25 365.919 358.351 361.325 359.969C357.139 361.696 353.063 363.014 349.027 365C340.397 368.603 331.916 372.466 323.285 376.069C314.655 379.672 305.876 383.017 296.648 385.586C286.643 388.604 276.638 391.622 266.892 394.49C261.372 396.298 255.851 398.107 250.629 400.432C247.37 401.969 244.111 403.505 240.892 405.709C238.19 407.613 235.639 409.776 233.385 412.456C232.498 413.313 231.76 414.429 231.321 416.062C231.879 416.429 232.287 416.538 232.287 416.538ZM418.973 360.477C413.786 352.093 409.377 343.26 405.636 334.386C400.512 322.517 394.869 310.948 388.708 299.679C379.969 283.346 370.821 266.904 361.823 250.72C357.643 243.479 353.462 236.238 348.763 229.296C345.966 225.05 342.909 220.952 339.484 217.413C336.208 214.132 332.932 210.852 328.768 208.428C327.802 207.951 326.836 207.475 325.76 207.406C325.352 207.297 324.943 207.188 324.574 207.746C324.723 208.005 324.723 208.005 324.873 208.263C329.862 213.314 334.332 218.663 338.175 224.72C342.724 231.404 346.646 238.794 350.159 246.076C358.191 261.783 366.332 277.081 375.66 292.04C379.204 297.58 382.748 303.12 386.291 308.659C390.99 315.601 395.43 322.693 399.87 329.784C403.264 335.065 406.4 340.496 409.426 346.335C410.809 349.329 412.71 352.024 414.203 354.611C415.099 356.162 416.144 357.972 417.04 359.524C417.638 360.559 418.494 361.443 419.719 361.77C419.421 361.253 419.271 360.995 418.973 360.477ZM406.826 345.422C404.059 339.434 400.625 333.486 397.081 327.946C392.94 321.372 388.799 314.798 383.99 308.264C375.08 295.823 366.688 283.083 358.445 270.601C352.701 261.849 347.883 252.907 343.435 243.407C340.071 236.383 336.448 229.51 332.566 222.786C330.028 218.39 327.231 214.143 323.766 209.937C323.617 209.678 323.467 209.42 323.467 209.42C323.059 209.311 322.949 209.719 322.839 210.127C322.769 211.202 322.699 212.277 322.778 213.611C322.786 216.02 323.462 218.388 324.139 220.756C326.018 227.601 328.565 234.407 331.889 240.763C338.278 253.625 345.704 265.888 354.426 277.404C358.936 283.42 363.446 289.437 368.215 295.304C373.88 302.722 379.545 310.141 384.951 317.709C391.512 326.679 397.665 335.54 404.485 344.36C404.933 345.136 405.64 345.762 406.088 346.538C406.237 346.797 406.795 347.164 406.944 347.423L407.203 347.273C407.274 346.198 407.124 345.94 406.826 345.422ZM423.811 240.792C428.062 246.958 431.277 253.723 433.305 260.827C435.294 267.265 437.134 273.443 439.123 279.881C441.868 290.02 446.057 299.67 451.432 308.98C453.373 312.342 455.314 315.704 457.255 319.066C458.897 321.91 460.281 324.905 461.256 327.79C463.205 333.56 464.896 339.481 466.068 345.7C468.074 356.955 470.599 367.911 473.532 378.975C474.696 382.786 475.451 386.488 476.355 390.448C476.505 390.707 476.505 390.707 476.654 390.965C477.172 390.666 477.023 390.408 476.874 390.149C476.566 387.223 476.369 383.889 476.062 380.963C474.227 365.816 471.206 351.009 467.259 336.392C464.365 325.995 461.471 315.597 458.169 305.09C453.216 289.33 446.559 274.209 438.088 260.135C435.401 255.48 432.454 250.974 429.397 246.877C427.645 244.441 425.783 242.412 423.921 240.384C423.772 240.126 423.363 240.017 423.214 239.758L422.955 239.908C423.363 240.017 423.662 240.534 423.811 240.792ZM243.499 212.143C245.252 214.579 247.004 217.016 249.015 219.303C252.928 224.285 257.249 229.376 261.421 234.208C265.036 238.673 268.76 242.729 272.892 246.895C278.03 252.204 283.169 257.513 288.307 262.822C292.589 267.246 296.98 271.262 301.372 275.278C309.338 283.091 317.674 290.347 325.75 297.753C330.699 302.137 335.649 306.52 340.449 310.645C342.57 312.524 344.691 314.402 347.071 316.131C347.221 316.39 347.629 316.499 348.038 316.608C348.556 316.309 348.147 316.2 347.998 315.941C345.688 313.137 343.268 310.741 340.958 307.937C334.516 300.967 327.296 294.447 320.335 287.776C315.794 283.502 311.363 278.819 307.081 274.395C303.059 269.821 298.777 265.397 294.495 260.973C290.622 256.658 287.007 252.193 283.134 247.878C280.675 244.815 278.106 242.161 275.387 239.248C272.52 236.076 269.243 232.795 266.376 229.624C262.801 225.826 258.857 222.585 254.914 219.345C252.792 217.467 250.412 215.738 248.44 214.118C246.618 212.756 244.795 211.395 242.973 210.033L242.713 210.183C243.052 211.367 243.35 211.884 243.499 212.143ZM471.754 441.723C466.413 442.048 460.813 442.523 455.473 442.848C449.465 443.213 443.865 443.688 437.857 444.053C428.102 444.513 418.238 445.38 408.673 446.765C400.96 447.77 393.657 448.883 385.944 449.888C377.455 451.341 369.005 453.462 361.002 456.358C355.631 458.424 350.668 460.6 345.894 463.701C344.857 464.3 343.97 465.157 343.193 465.606C342.674 465.905 342.565 466.313 342.046 466.612C341.677 467.17 341.567 467.578 341.866 468.095C342.314 468.871 342.722 468.98 343.5 468.531C350.984 465.935 358.358 463.746 366.141 461.666C375.777 459.206 385.004 456.637 394.679 454.844C403.428 453.241 412.436 451.489 421.185 449.886C430.601 448.242 439.908 447.007 449.324 445.363C457.295 444.209 465.377 442.647 473.238 441.901C473.497 441.751 473.906 441.86 474.165 441.711C474.165 441.711 474.016 441.452 474.275 441.302C473.238 441.901 472.421 441.683 471.754 441.723ZM304.075 449.916C308.01 450.747 312.055 451.171 315.801 451.076C321.142 450.752 326.592 450.018 331.744 448.768C336.487 447.409 340.972 446.199 345.566 444.581C353.199 442.243 360.534 439.388 367.719 436.274C374.386 433.459 380.645 430.535 386.864 426.944C396.86 421.518 406.707 415.833 416.255 409.63C419.993 407.128 423.88 404.883 427.767 402.639C429.84 401.442 431.654 400.395 433.876 399.457C434.395 399.158 434.803 399.267 435.172 398.709C434.355 398.491 433.837 398.79 433.169 398.831C426.274 400.053 419.717 402.46 413.458 405.384C409.163 407.519 405.166 410.171 400.761 412.714C392.877 417.611 384.993 422.507 376.811 426.887C369.924 430.518 362.739 433.632 355.663 436.338C351.478 438.065 346.734 439.424 342.101 440.375C333.651 442.495 325.051 444.357 316.302 445.96C311.928 446.761 307.294 447.712 303.069 448.773C302.81 448.922 302.402 448.813 301.884 449.112C302.85 449.589 303.258 449.698 304.075 449.916Z" fill="#286435"/>
</g>
</svg>
