 <svg width="196" height="502" viewBox="0 0 196 502" fill="none" xmlns="http://www.w3.org/2000/svg">
        <path d="M-233.535 197.327C-231.261 198.486 -228.987 199.645 -226.712 200.804C-224.095 202.349 -221.478 203.895 -218.861 205.441C-217.102 206.643 -215.343 207.846 -213.584 209.048C-211.61 210.336 -209.722 211.839 -208.049 213.257C-205.132 215.92 -202.001 218.669 -199.17 221.547C-193.165 227.69 -188.019 234.736 -183.474 242.041C-180.516 246.466 -177.858 251.021 -175.586 255.92C-174.343 258.412 -173.315 260.819 -172.286 263.225C-172.158 263.526 -172.029 263.827 -171.9 264.128C-171.6 263.998 -171.6 263.999 -171.6 263.999C-169.666 261.031 -167.175 258.536 -164.469 256.127C-161.763 253.718 -158.714 251.695 -155.537 249.974C-153.647 248.984 -151.844 248.209 -149.826 247.52C-144.674 245.84 -139.394 244.46 -133.77 243.468C-128.962 242.648 -124.197 242.559 -119.262 243.286C-113.682 244.271 -108.661 246.03 -103.77 248.735C-101.153 250.28 -98.7075 252.256 -96.5628 254.361C-91.7157 259.043 -87.8137 264.843 -84.4269 270.687C-83.0978 272.964 -81.7688 275.242 -80.5258 277.734C-77.9537 282.504 -74.9951 286.929 -71.9505 291.14C-68.4767 295.522 -65.5181 299.948 -62.8175 305.018C-58.7878 312.366 -55.9604 320.231 -54.2491 328.397C-51.5963 340.431 -50.4028 352.381 -51.3558 364.718C-51.7884 369.533 -52.0065 374.434 -52.2245 379.334C-52.3991 383.504 -52.1446 387.845 -52.0187 391.886C-51.7642 396.228 -51.0806 400.741 -50.0964 405.125C-49.3694 408.907 -48.4278 412.775 -47.7867 416.772C-47.7016 417.804 -47.6165 418.835 -47.4453 419.652C-47.5313 419.867 -47.4028 420.168 -47.4888 420.383C-47.5748 420.598 -47.7468 421.028 -48.0473 421.157C-48.6484 421.415 -49.1635 421.459 -49.7647 421.717C-54.1435 422.709 -58.3939 424.001 -62.6442 425.294C-65.6923 426.07 -68.5259 426.931 -71.574 427.707C-80.5464 429.605 -89.603 429.224 -98.5727 427.382C-102.693 426.482 -106.941 425.281 -111.19 424.081C-116.94 422.279 -122.476 420.564 -128.399 419.192C-133.377 417.949 -138.313 417.222 -143.377 416.193C-149.686 415.166 -155.695 414.01 -161.918 412.767C-166.124 412.082 -170.458 411.097 -174.492 409.982C-177.883 409.125 -181.187 408.052 -184.319 406.55C-186.808 405.305 -189.211 403.845 -191.313 402.256C-194.187 400.109 -196.761 397.832 -199.549 395.47C-201.008 394.138 -202.681 392.721 -204.139 391.389C-206.499 389.199 -208.643 387.094 -210.917 384.688C-213.404 382.197 -215.806 379.49 -217.993 376.87C-224.812 368.406 -229.527 359.038 -232.267 348.465C-233.766 342.878 -234.534 337.334 -234.702 331.531C-235.212 324.094 -234.048 316.829 -231.51 309.863C-229.833 305.048 -227.512 300.489 -224.762 296.103C-221.539 291.157 -217.973 286.598 -214.193 282.125C-210.498 277.867 -206.332 274.296 -201.823 271.112C-197.786 268.487 -193.278 266.55 -188.47 265.73C-186.839 265.385 -185.079 265.34 -183.319 265.296C-180.829 265.294 -178.726 265.637 -176.28 266.366C-175.851 266.538 -175.422 266.709 -175.121 266.58C-175.25 266.279 -175.164 266.064 -175.379 265.978C-175.764 265.076 -176.021 264.474 -176.407 263.572C-181.292 252.141 -187.766 241.571 -195.228 231.603C-197.458 228.467 -200.074 225.674 -202.691 222.882C-205.865 219.617 -209.125 216.568 -212.471 213.733C-214.916 211.757 -217.447 209.996 -220.193 208.15C-224.913 205.015 -229.804 202.31 -234.695 199.606C-234.91 199.52 -235.339 199.348 -235.468 199.047C-234.179 198.316 -233.921 197.671 -233.535 197.327ZM-183.845 403.497C-183.458 403.153 -183.372 402.938 -182.986 402.594C-180.623 399.798 -178.818 396.53 -177.442 393.09C-175.765 388.275 -174.516 383.287 -173.697 378.129C-173.266 375.807 -173.05 373.4 -172.834 370.992C-171.883 362.394 -170.075 354.14 -166.807 345.97C-164.829 341.025 -163.28 335.909 -162.246 330.836C-161.299 325.978 -160.48 320.819 -159.832 316.09C-159.616 313.682 -159.486 311.49 -159.57 309.212C-159.527 308.481 -159.784 307.879 -159.955 307.063C-160.812 305.473 -161.455 303.969 -162.226 302.164C-163.383 299.456 -164.412 297.05 -165.354 294.428C-165.483 294.128 -165.612 293.827 -165.74 293.526C-165.826 293.741 -165.826 293.741 -165.912 293.956C-166.6 295.676 -167.717 297.224 -168.748 298.557C-170.424 300.88 -172.228 302.902 -173.904 305.224C-174.935 306.557 -175.966 307.891 -176.868 309.525C-179.447 313.481 -182.025 317.438 -184.388 321.48C-186.28 324.963 -187.87 328.317 -189.117 332.058C-189.633 333.348 -190.021 334.939 -190.322 336.314C-191.485 341.087 -192.861 345.773 -193.809 350.631C-195.402 357.725 -196.781 364.905 -197.43 372.127C-197.862 375.695 -198.293 379.263 -199.026 382.96C-199.37 385.067 -199.844 386.873 -200.618 388.808C-200.704 389.023 -200.79 389.238 -200.876 389.453C-200.318 389.925 -199.975 390.312 -199.632 390.698C-197.959 392.116 -196.286 393.533 -194.699 395.166C-191.996 397.743 -189.122 399.89 -185.947 401.908C-185.776 402.725 -184.789 403.369 -183.845 403.497ZM-57.2087 325.218C-57.0367 324.788 -57.1652 324.487 -57.2938 324.186C-58.0217 321.651 -58.7496 319.115 -59.7781 316.708C-61.2348 312.884 -62.9061 308.973 -64.9639 305.407C-65.221 304.805 -65.6502 304.633 -66.1653 304.677C-68.0537 304.42 -69.8136 304.464 -71.5735 304.508C-72.8183 304.509 -74.0631 304.51 -75.3078 304.511C-79.9864 304.385 -84.7085 304.99 -89.3019 305.896C-92.8652 306.715 -96.6429 307.449 -100.206 308.268C-101.537 308.484 -103.168 308.829 -104.499 309.045C-109.736 309.693 -114.972 309.095 -119.779 307.422C-121.367 307.036 -122.868 306.435 -124.37 305.835C-126.945 304.805 -129.606 303.99 -132.352 303.39C-139.219 301.89 -146.001 301.422 -152.998 302.114C-154.543 302.244 -156.174 302.59 -157.677 303.235C-157.978 303.365 -157.978 303.365 -158.278 303.494C-158.15 303.795 -157.893 304.396 -157.764 304.697C-156.521 307.189 -155.192 309.467 -153.949 311.959C-151.377 316.729 -148.204 321.24 -144.558 325.192C-144 325.665 -143.443 326.137 -142.799 326.395C-138.121 327.767 -133.142 327.764 -128.248 326.729C-126.831 326.298 -125.415 325.867 -124.084 325.651C-122.452 325.306 -121.036 324.875 -119.404 324.53C-117.258 324.142 -114.983 324.054 -112.794 324.182C-111.635 324.396 -110.39 324.395 -109.446 324.523C-104.424 325.036 -102.793 324.691 -97.9416 323.14C-96.2243 322.58 -94.8075 322.149 -93.0902 321.589C-88.1528 319.823 -83.4741 319.949 -78.5393 321.923C-77.4665 322.352 -76.3937 322.781 -75.321 323.21C-72.9608 324.154 -70.5147 324.883 -68.1111 325.097C-64.7633 325.438 -61.4155 325.78 -58.2823 326.035C-57.7237 325.261 -57.5092 325.347 -57.2087 325.218ZM-168.695 284.114C-168.781 284.329 -169.082 284.458 -169.168 284.673C-169.898 285.877 -170.757 286.781 -171.617 287.684C-173.335 289.491 -175.482 291.126 -177.329 292.631C-179.39 294.051 -181.451 295.471 -183.384 297.192C-185.832 298.956 -187.937 301.107 -190.256 303.172C-193.435 306.14 -196.484 309.409 -199.191 313.065C-200.867 315.387 -202.328 317.796 -203.789 320.204C-205.208 323.128 -206.626 326.052 -207.83 329.062C-209.378 332.932 -211.055 336.501 -212.946 339.984C-214.407 342.392 -215.868 344.8 -217.329 347.209C-219.09 349.746 -220.938 352.498 -222.914 354.95C-223.473 355.724 -224.117 356.713 -224.676 357.487C-225.407 358.691 -225.535 358.391 -224.806 359.68C-221.249 367.587 -216.103 374.633 -210.184 380.991C-208.469 382.924 -206.667 384.642 -204.866 386.36C-204.308 386.833 -203.836 387.52 -203.064 388.079L-202.849 388.164C-202.463 387.82 -202.291 387.39 -202.119 386.96C-201.517 385.455 -201.258 383.564 -201.085 381.887C-200.524 377.373 -200.091 372.559 -199.53 368.045C-199.184 364.691 -198.71 361.639 -198.15 358.372C-196.728 350.461 -194.877 342.722 -193.026 334.984C-191.476 328.621 -188.853 322.687 -185.158 317.182C-183.955 315.419 -182.752 313.655 -181.763 311.806C-179.916 309.054 -178.068 306.301 -176.092 303.85C-175.061 302.517 -174.116 301.398 -173.085 300.065C-172.139 298.947 -171.194 297.828 -170.464 296.624C-168.96 294.732 -167.972 292.883 -167.112 290.733C-166.94 290.303 -166.854 290.088 -167.111 289.486C-167.668 287.767 -168.096 286.349 -168.653 284.63C-168.567 284.415 -168.567 284.415 -168.695 284.114ZM-74.2689 291.958C-74.612 291.572 -74.7406 291.271 -74.8691 290.97C-75.6839 289.896 -76.4987 288.822 -77.3135 287.748C-78.514 285.771 -79.7145 283.795 -81.1295 281.732C-81.4726 281.346 -81.6012 281.045 -81.9443 280.658C-83.3602 279.842 -84.7761 279.027 -86.106 277.996C-88.2942 276.622 -90.7828 275.377 -93.057 274.218C-97.9058 272.029 -102.927 270.27 -107.905 269.027C-111.51 268.084 -115.201 267.355 -118.978 266.842C-123.999 266.33 -128.85 266.634 -133.744 267.669C-136.191 268.187 -138.509 269.005 -140.613 269.909C-141.214 270.168 -141.901 270.641 -142.503 270.899C-145.895 272.535 -149.115 273.741 -152.85 274.99C-155.168 275.808 -157.529 276.111 -160.019 276.113C-162.208 275.985 -164.612 275.772 -166.843 275.129C-167.058 275.043 -167.573 275.086 -167.787 275C-167.659 275.301 -167.616 275.817 -167.702 276.032C-167.403 277.149 -167.103 278.267 -166.803 279.384C-165.647 283.338 -164.405 287.077 -163.249 291.031C-162.863 291.934 -162.563 293.051 -162.178 293.953C-162.049 294.254 -161.921 294.555 -161.706 294.641C-161.191 294.598 -160.89 294.468 -160.676 294.554C-158.014 294.123 -155.353 293.691 -152.477 293.345C-149.085 292.956 -146.037 292.18 -142.817 290.974C-140.499 290.156 -138.052 289.638 -135.733 288.82C-131.783 287.656 -127.705 286.794 -123.584 286.447C-118.648 285.928 -113.454 286.01 -108.432 286.523C-104.14 286.993 -99.8482 287.462 -95.5136 288.448C-92.9814 288.962 -90.2348 289.562 -87.7027 290.076C-84.956 290.676 -82.2093 291.276 -79.2906 291.446C-78.1318 291.66 -76.7585 291.96 -75.5137 291.959C-74.9986 291.916 -74.784 292.002 -74.2689 291.958ZM-171.564 274.487C-171.865 274.616 -171.865 274.616 -171.865 274.616C-172.638 275.305 -173.54 275.692 -174.441 276.08C-175.042 276.338 -175.858 276.51 -176.674 276.683C-181.868 277.847 -186.977 278.796 -192.128 279.23C-193.673 279.36 -195.219 279.49 -196.85 279.835C-197.88 279.922 -198.996 280.223 -200.113 280.525C-202.732 281.472 -205.565 282.334 -208.056 283.582C-208.957 283.97 -210.16 284.487 -210.975 284.659C-211.576 284.917 -212.178 285.176 -212.349 285.606C-215.958 289.649 -219.137 293.864 -221.973 298.465C-224.724 302.852 -226.83 307.496 -228.507 312.311C-230.185 317.127 -231.133 321.985 -231.437 327.101C-231.612 332.517 -230.972 337.761 -230.031 342.876C-230.117 343.091 -229.903 343.177 -229.989 343.392C-229.56 343.563 -229.173 343.219 -229.087 343.004C-228.099 342.402 -226.94 341.369 -226.081 340.466C-223.503 337.756 -221.355 334.874 -219.764 331.52C-218.26 328.381 -216.541 325.328 -215.036 322.189C-213.532 319.05 -211.598 316.082 -209.665 313.115C-206.571 309.115 -203.478 305.115 -199.827 301.588C-197.336 299.093 -194.63 296.684 -191.795 294.576C-189.348 292.812 -186.9 291.047 -184.237 289.369C-181.489 287.476 -178.826 285.798 -176.421 283.518C-174.488 281.797 -172.77 279.99 -171.138 278.399C-170.837 278.269 -170.665 277.839 -170.579 277.624C-170.75 276.808 -171.179 275.39 -171.564 274.487ZM-120.063 345.465L-120.149 345.68C-119.934 345.766 -120.02 345.981 -119.806 346.067C-116.975 348.945 -114.358 351.737 -112.129 354.873C-110.971 356.334 -110.113 357.924 -108.955 359.385C-108.612 359.771 -108.269 360.158 -107.626 360.416C-107.196 360.587 -106.767 360.759 -106.553 360.845C-103.635 362.261 -100.674 362.947 -97.6265 363.418C-96.8968 363.46 -96.4677 363.632 -95.824 363.889C-93.2919 364.403 -90.6312 365.218 -88.0565 366.248C-86.7691 366.763 -85.6964 367.192 -84.409 367.707C-79.0451 369.853 -73.4232 371.353 -67.6718 371.908C-66.7276 372.037 -65.5688 372.251 -64.6245 372.379C-61.0622 372.806 -57.7578 373.879 -54.6255 375.381C-54.4109 375.467 -54.1963 375.553 -53.8958 375.424C-53.4649 373.102 -52.5954 357.24 -52.8942 354.876L-53.1087 354.79C-53.3233 354.704 -53.7524 354.532 -53.9669 354.446C-59.8886 351.828 -65.7676 349.726 -71.9047 348.269C-80.2733 346.168 -89.0293 345.658 -97.5717 346.481C-99.4176 346.74 -101.478 346.914 -103.238 346.958C-106.114 347.304 -109.119 347.349 -111.951 346.964C-114.355 346.751 -116.887 346.236 -119.333 345.507C-119.848 345.551 -120.063 345.465 -120.063 345.465ZM-133.064 338.768C-133.279 338.682 -133.407 338.381 -133.622 338.296C-135.381 337.093 -137.054 335.676 -138.598 334.559C-140.271 333.142 -141.944 331.724 -143.403 330.393C-144.647 329.147 -145.891 327.901 -146.92 326.741C-147.134 326.656 -147.263 326.355 -147.564 326.484C-147.65 326.699 -147.521 327 -147.607 327.215C-147.308 329.579 -147.525 331.986 -147.741 334.394C-148.086 336.5 -148.345 338.392 -148.904 340.412C-149.937 344.239 -150.97 348.065 -152.003 351.892C-154.025 358.814 -155.618 365.908 -157.211 373.002C-158.287 377.559 -158.72 382.374 -159.453 387.318C-159.927 390.37 -160.101 393.293 -160.361 396.431C-160.535 399.355 -160.193 402.235 -160.152 405.244C-160.111 407.006 -160.155 408.983 -160.843 410.703C-160.628 410.789 -160.414 410.875 -160.199 410.961C-157.453 411.561 -154.835 411.86 -152.088 412.46C-151.873 412.546 -151.787 412.331 -151.573 412.416C-151.487 412.201 -151.401 411.986 -151.529 411.686C-151.314 410.525 -151.012 409.149 -150.797 407.988C-149.849 403.13 -148.902 398.272 -147.525 393.586C-145.718 387.824 -143.482 382.234 -140.817 376.816C-139.57 374.322 -138.41 372.043 -137.378 369.463C-136.088 366.238 -135.442 362.756 -135.74 359.145C-135.867 357.598 -136.081 356.266 -135.994 354.804C-136.164 352.741 -136.12 350.763 -135.775 348.657C-135.387 345.819 -134.569 343.154 -133.537 340.574C-133.408 339.628 -133.236 339.198 -133.064 338.768ZM-159.092 301.173C-158.792 301.044 -158.792 301.044 -158.491 300.915C-157.031 299.753 -155.314 299.193 -153.768 299.063C-151.708 298.89 -149.647 298.716 -147.587 298.543C-145.526 298.37 -143.638 298.626 -141.75 298.883C-139.131 299.182 -136.599 299.696 -134.282 300.124C-131.02 300.681 -127.93 301.667 -124.926 302.869C-124.068 303.212 -123.21 303.555 -122.566 303.813C-115.271 306.731 -107.975 307.156 -100.333 305.474C-97.886 304.957 -95.439 304.439 -93.2065 303.836C-86.8957 302.37 -80.8429 301.549 -74.4905 301.845C-72.3014 301.973 -69.8119 301.971 -67.5803 302.614C-67.3657 302.7 -67.2798 302.485 -66.8506 302.657C-67.1938 302.27 -67.2363 301.754 -67.5794 301.368C-68.9085 299.09 -70.4095 297.243 -72.0391 295.095C-72.5107 294.407 -72.9399 294.236 -73.6695 294.193C-76.2017 293.679 -78.8198 293.38 -81.2234 293.167C-84.142 292.997 -87.1893 292.526 -89.936 291.926C-91.0948 291.712 -92.039 291.584 -93.1118 291.155C-99.0343 289.783 -104.914 288.927 -111.009 287.986C-117.189 287.259 -123.198 287.35 -129.209 288.686C-130.84 289.031 -132.257 289.462 -133.888 289.807C-137.237 290.712 -140.371 291.703 -143.591 292.909C-145.91 293.727 -148.443 294.46 -151.104 294.891C-154.066 295.452 -157.243 295.927 -160.334 296.187C-160.634 296.317 -161.063 296.145 -161.235 296.575C-160.592 298.079 -159.95 299.583 -159.092 301.173ZM-169.801 269.456C-168.985 269.284 -168.47 269.241 -167.74 269.283C-166.195 269.153 -164.65 269.023 -162.89 268.979C-158.426 269.019 -154.219 268.457 -150.097 266.864C-148.981 266.562 -147.779 266.045 -146.577 265.529C-141.768 263.462 -136.916 261.911 -131.85 260.446C-130.949 260.059 -129.918 259.972 -128.888 259.885C-125.926 259.324 -122.921 259.279 -119.917 259.234C-117.942 259.276 -115.753 259.403 -113.951 259.875C-110.045 260.689 -106.312 261.933 -102.965 263.521C-98.7596 265.453 -94.2965 266.739 -89.6614 267.596C-89.4468 267.682 -89.1463 267.552 -88.9317 267.638C-88.9743 267.122 -89.3174 266.736 -89.4459 266.435C-91.8043 262.998 -94.3773 259.475 -97.4228 256.511C-99.3529 254.492 -101.584 252.602 -104.072 251.357C-109.092 248.351 -114.628 246.636 -120.294 245.866C-124.586 245.396 -128.621 245.528 -132.699 246.39C-138.022 247.254 -143.303 248.633 -148.24 250.399C-150.773 251.131 -153.049 252.465 -155.325 253.799C-156.999 254.875 -158.76 256.166 -160.435 257.242C-163.742 259.909 -166.834 262.663 -169.241 266.189C-169.327 266.404 -169.713 266.748 -169.799 266.963C-169.885 267.178 -170.057 267.608 -169.929 267.909C-170.315 268.253 -170.058 268.855 -169.801 269.456ZM-134.949 333.525C-134.134 334.599 -133.147 335.243 -132.161 335.887C-130.058 337.476 -127.742 339.151 -125.726 340.955C-125.168 341.428 -124.739 341.599 -124.095 341.857C-123.666 342.028 -123.452 342.114 -123.022 342.286C-120.877 343.144 -118.431 343.873 -116.113 344.302C-112.122 344.901 -107.872 344.855 -103.751 344.508C-101.176 344.291 -98.9007 344.204 -96.5397 343.901C-92.6333 343.469 -88.6844 343.552 -84.8215 343.85C-77.5248 344.275 -70.5296 346.076 -63.7063 348.306C-60.4019 349.378 -57.1835 350.666 -53.9226 352.469C-53.7081 352.555 -53.5795 352.856 -53.193 352.511C-53.193 352.511 -53.107 352.296 -53.021 352.081C-53.232 347.009 -53.8722 341.765 -54.5984 336.736C-54.8121 335.404 -55.0258 334.072 -55.3254 332.954C-55.9691 332.697 -56.6988 332.654 -57.557 332.311C-58.9304 332.011 -60.3037 331.711 -61.849 331.841C-63.9095 332.014 -65.8414 332.489 -67.7733 332.963C-69.1041 333.179 -70.2203 333.48 -71.637 333.911C-74.2986 334.343 -76.8742 334.56 -79.6208 333.96C-80.9942 333.66 -82.3676 333.36 -83.9555 332.974C-85.3288 332.674 -86.9167 332.288 -88.29 331.988C-90.6076 331.56 -92.9252 331.132 -95.4147 331.133C-97.1746 331.178 -98.72 331.308 -100.265 331.438C-103.871 331.741 -107.348 332.345 -111.04 332.864C-113.916 333.21 -117.093 333.685 -119.969 334.03C-124.691 334.636 -129.584 334.424 -134.434 333.482C-134.434 333.482 -134.648 333.396 -134.949 333.525ZM-131.615 415.412C-131.658 414.896 -131.486 414.466 -131.529 413.95C-131.571 413.434 -131.399 413.004 -131.442 412.488C-131.181 408.104 -130.706 403.805 -130.145 399.291C-129.108 390.478 -127.857 381.751 -126.306 372.894C-125.961 370.788 -125.53 368.466 -125.4 366.274C-125.012 363.437 -124.838 360.513 -124.75 357.805C-124.747 352.819 -125.988 347.833 -127.315 343.063C-127.358 342.547 -127.787 342.375 -128.13 341.989C-129.117 341.344 -129.889 340.786 -130.79 339.927C-131.004 339.841 -131.133 339.54 -131.219 339.755C-131.434 340.916 -131.864 341.991 -132.08 343.152C-132.295 344.313 -132.811 345.603 -133.241 346.678C-133.629 348.268 -133.802 349.945 -133.888 351.407C-133.889 352.653 -133.89 353.9 -133.591 355.017C-133.463 356.565 -133.335 358.112 -133.422 359.574C-133.424 362.067 -133.726 364.689 -134.457 367.14C-134.887 368.215 -135.103 369.376 -135.533 370.451C-136.651 373.246 -137.983 375.955 -139.316 378.664C-142.067 384.297 -144.389 390.101 -145.767 396.035C-147.015 401.022 -148.135 406.31 -149.383 411.297C-149.469 411.512 -149.254 411.598 -149.34 411.813C-143.718 413.314 -137.838 414.169 -131.615 415.412ZM-114.147 356.809C-114.233 357.024 -114.319 357.239 -114.191 357.54C-114.321 359.732 -114.451 361.925 -115.011 363.946C-115.57 365.966 -115.915 368.073 -116.475 370.094C-117.292 372.759 -118.109 375.425 -118.712 378.177C-120.175 383.078 -121.209 388.151 -121.727 393.181C-121.986 395.072 -122.245 396.964 -122.504 398.856C-123.367 404.745 -123.929 410.506 -125.22 416.224C-125.306 416.439 -125.092 416.525 -125.178 416.74C-124.963 416.826 -124.749 416.911 -124.534 416.997C-119.556 418.24 -114.449 419.784 -109.557 421.242C-107.754 421.714 -106.166 422.1 -104.45 422.786C-104.235 422.872 -104.021 422.958 -103.72 422.829C-103.547 421.152 -103.589 419.39 -103.717 417.843C-103.885 413.286 -104.569 408.773 -105.253 404.26C-105.722 401.079 -106.407 397.813 -106.877 394.632C-107.775 390.033 -108.03 385.692 -107.984 381.221C-107.98 376.235 -107.977 371.248 -108.402 366.09C-108.445 365.574 -108.573 365.274 -108.83 364.672C-110.288 362.094 -112.046 359.645 -113.804 357.196C-113.504 357.067 -113.718 356.981 -114.147 356.809ZM-157.383 311.832C-157.555 312.262 -157.641 312.477 -157.727 312.692C-157.728 313.939 -157.857 314.885 -157.858 316.131C-157.988 318.324 -158.419 320.645 -158.549 322.838C-159.542 330.92 -161.265 338.959 -164.361 346.699C-166.941 353.149 -168.662 359.942 -169.869 366.692C-170.3 369.013 -170.602 371.635 -171.033 373.957C-171.766 378.901 -172.714 383.759 -174.091 388.446C-175.166 391.756 -176.242 395.067 -177.961 398.12C-179.164 399.883 -180.238 401.947 -181.871 403.539C-181.957 403.754 -182.257 403.883 -182.429 404.313C-180.842 405.946 -169.298 408.818 -165.735 409.245C-165.649 409.03 -165.649 409.03 -165.563 408.815C-165.562 407.569 -165.433 406.623 -165.518 405.591C-165.73 401.766 -165.727 398.026 -165.639 394.071C-165.679 389.815 -165.633 385.345 -165.673 381.089C-165.411 375.458 -165.278 369.525 -164.073 364.022C-163.598 360.97 -162.995 358.218 -162.307 355.252C-161.574 351.555 -160.627 347.943 -159.595 344.117C-158.217 338.184 -156.968 331.95 -156.534 325.888C-156.231 322.019 -155.928 318.15 -156.44 314.454C-156.225 313.293 -156.697 312.606 -157.383 311.832ZM-51.5228 419.268C-51.6514 418.967 -51.8659 418.881 -51.8659 418.881C-52.6382 418.323 -53.4104 417.765 -54.0966 416.992C-57.4001 414.673 -61.0042 412.483 -64.6082 410.293C-68.2122 408.103 -72.1168 406.042 -75.6349 403.638C-78.3807 401.791 -81.3411 399.859 -83.9149 397.582C-84.1294 397.497 -84.4726 397.11 -84.6871 397.024C-84.9017 396.938 -84.9017 396.938 -85.1162 396.852C-84.9877 397.153 -85.0737 397.368 -84.9451 397.669C-84.6454 398.786 -84.3457 399.904 -84.0461 401.021C-83.3181 403.557 -82.8908 406.222 -82.4634 408.887C-82.0378 414.045 -81.9127 419.332 -82.3027 424.663C-82.3888 424.878 -82.2602 425.178 -82.3462 425.393C-81.8311 425.35 -81.316 425.307 -80.8009 425.263C-75.9503 424.959 -71.2283 424.354 -66.6774 422.932C-61.9119 421.596 -56.8459 420.131 -51.9519 419.096C-52.1239 419.526 -51.9094 419.612 -51.5228 419.268ZM-93.0062 385.466C-92.9636 385.982 -92.835 386.283 -92.4059 386.455C-91.0335 388.001 -89.661 389.548 -88.2025 390.879C-86.401 392.598 -84.3848 394.402 -82.2827 395.991C-79.8374 397.966 -77.0916 399.813 -74.2598 401.444C-73.7021 401.917 -72.9299 402.475 -72.2002 402.518C-69.325 403.418 -66.2777 403.889 -63.3156 403.328C-62.2854 403.242 -61.1692 402.94 -60.1389 402.853C-57.7779 402.551 -55.5029 402.463 -53.1853 402.891C-52.9708 402.977 -52.7562 403.063 -52.6702 402.848C-52.5842 402.633 -52.7128 402.332 -52.7128 402.332C-53.3973 399.066 -53.7812 395.67 -53.8646 392.145C-53.7786 391.93 -53.9071 391.629 -54.1217 391.544C-54.7654 391.286 -55.495 391.244 -56.3533 390.9C-59.014 390.086 -61.4601 389.356 -64.2068 388.757C-66.0092 388.285 -67.8977 388.028 -69.9582 388.202C-71.9326 388.16 -73.7785 388.419 -75.7529 388.378C-80.389 388.768 -85.1101 388.126 -89.4873 386.625C-90.3455 386.281 -91.5043 386.067 -92.3625 385.724C-92.4911 385.423 -92.7056 385.337 -93.0062 385.466ZM-102.825 369.568C-102.696 369.869 -102.567 370.17 -102.439 370.471C-101.067 373.264 -99.3951 375.928 -98.0235 378.721C-97.2947 380.01 -96.3514 381.385 -95.6226 382.674C-95.2794 383.061 -95.1509 383.362 -94.6358 383.318C-92.1896 384.047 -89.8295 384.991 -87.3834 385.72C-84.2936 386.707 -81.1603 386.963 -77.9837 386.488C-76.6529 386.272 -75.6226 386.185 -74.2919 385.969C-73.2616 385.883 -72.446 385.71 -71.4158 385.624C-65.6635 384.932 -60.2561 386.347 -55.2362 389.352C-55.0216 389.438 -54.8071 389.524 -54.8071 389.524C-54.7211 389.309 -54.7211 389.309 -54.7211 389.309C-54.6333 386.601 -54.8461 384.022 -54.7584 381.313C-54.6724 381.098 -54.8869 381.013 -54.8009 380.798C-55.8737 380.368 -56.732 380.025 -57.8908 379.811C-59.8218 379.039 -61.6242 378.567 -63.8132 378.44C-66.2168 378.226 -68.6204 378.013 -71.3245 377.929C-73.0844 377.973 -74.9729 377.716 -76.6468 377.546C-80.2951 377.333 -83.9 376.39 -87.3329 375.017C-90.9804 373.558 -94.7139 372.314 -98.4474 371.07C-99.8207 370.77 -101.108 370.255 -102.395 369.74C-101.966 369.912 -102.395 369.74 -102.825 369.568ZM-141.555 327.64C-141.427 327.941 -141.427 327.941 -141.427 327.941C-140.311 328.886 -139.496 329.96 -138.381 330.905C-138.253 331.206 -137.737 331.163 -137.523 331.249C-136.793 331.291 -136.063 331.333 -135.42 331.591C-130.57 332.533 -125.806 332.444 -120.869 331.925C-117.993 331.579 -115.117 331.233 -112.155 330.672C-109.278 330.326 -106.617 329.895 -103.655 329.334C-100.478 328.859 -97.0869 328.469 -93.8677 328.51C-91.5927 328.423 -89.1891 328.636 -86.7429 329.365C-85.3696 329.665 -84.2968 330.094 -82.9235 330.394C-81.121 330.866 -79.3186 331.337 -77.2156 331.68C-75.3271 331.936 -73.5672 331.892 -71.7213 331.633C-70.6051 331.331 -69.4888 331.03 -68.4586 330.943C-66.8273 330.598 -64.9814 330.339 -63.3501 329.994C-60.9031 329.476 -58.4995 329.689 -56.2679 330.333C-56.0533 330.418 -55.9674 330.204 -55.7528 330.289C-55.8379 329.258 -56.1376 328.14 -56.5233 327.238C-56.7378 327.152 -57.0384 327.281 -57.4675 327.11C-60.1716 327.025 -62.7897 326.726 -65.4939 326.642C-69.6573 326.473 -73.5628 325.659 -77.3388 323.899C-78.8407 323.299 -80.3427 322.698 -81.9306 322.312C-84.1621 321.669 -86.4372 321.756 -88.7982 322.059C-90.4295 322.404 -91.8463 322.835 -93.263 323.265C-95.2809 323.955 -96.9983 324.515 -99.0161 325.204C-101.549 325.936 -104.211 326.368 -106.915 326.284C-107.859 326.156 -108.589 326.113 -109.533 325.985C-110.778 325.986 -111.937 325.772 -113.181 325.772C-115.07 325.516 -117.13 325.689 -118.762 326.034C-120.092 326.25 -121.509 326.681 -123.14 327.026C-124.772 327.371 -126.189 327.802 -127.82 328.147C-132.113 328.924 -136.362 328.969 -140.611 327.769C-141.04 327.597 -141.341 327.726 -141.555 327.64ZM-101.671 377.262C-101.757 377.477 -101.843 377.692 -101.714 377.993C-101.672 378.509 -101.501 379.325 -101.458 379.841C-101.033 384.999 -100.006 389.899 -98.464 394.755C-97.4789 397.893 -96.6224 400.729 -95.6374 403.866C-94.9095 406.402 -94.1815 408.938 -93.6682 411.388C-92.684 415.772 -92.215 420.199 -92.261 424.669C-92.347 424.884 -92.1325 424.97 -92.2185 425.185C-91.1457 425.614 -89.9009 425.614 -86.2526 425.826C-85.7374 425.783 -85.3083 425.954 -84.9218 425.61C-84.9643 425.094 -85.0069 424.578 -84.8349 424.148C-84.7471 421.44 -84.6594 418.732 -84.5717 416.024C-84.2685 412.155 -84.4804 408.329 -85.422 404.461C-85.5071 403.43 -85.8928 402.527 -85.9779 401.496C-86.3627 399.346 -86.7475 397.197 -87.2184 395.263C-87.3469 394.963 -87.4755 394.662 -87.69 394.576C-88.5908 393.717 -89.7062 392.772 -90.521 391.698C-92.6657 389.593 -94.7244 387.273 -96.4825 384.824C-98.1121 382.676 -99.4412 380.399 -100.77 378.121C-100.899 377.82 -101.027 377.52 -101.671 377.262ZM-226.478 355.769C-226.091 355.425 -226.091 355.425 -226.005 355.21C-225.189 353.791 -224.157 352.458 -223.126 351.124C-222.74 350.78 -222.568 350.35 -222.482 350.135C-221.665 348.716 -220.935 347.512 -219.904 346.179C-218.442 343.77 -216.981 341.362 -215.434 338.739C-213.457 335.041 -211.609 331.042 -210.061 327.172C-207.739 321.367 -205.074 315.949 -201.55 310.874C-200.433 309.326 -199.102 307.863 -197.77 306.401C-195.579 304.035 -193.088 301.54 -190.683 299.26C-187.977 296.851 -185.357 294.657 -182.522 292.549C-180.461 291.129 -178.486 289.924 -176.424 288.504C-174.063 286.955 -172.044 285.019 -170.24 282.997C-169.123 281.449 -169.08 281.965 -169.637 280.246C-169.765 279.945 -169.593 279.515 -170.022 279.343L-170.323 279.473C-170.882 280.247 -171.655 280.935 -172.213 281.709C-174.963 284.849 -178.055 287.602 -181.276 290.055C-183.423 291.69 -185.785 293.239 -187.932 294.874C-192.227 298.144 -196.393 301.715 -200.088 305.973C-201.892 307.994 -203.567 310.317 -205.372 312.338C-208.207 315.693 -210.399 319.306 -212.462 323.219C-214.181 326.272 -215.9 329.325 -217.619 332.378C-219.424 335.647 -221.572 338.528 -224.15 341.238C-225.782 342.83 -227.328 344.206 -229.217 345.196C-229.217 345.196 -229.303 345.411 -229.604 345.541C-229.134 348.721 -228.02 352.159 -226.478 355.769ZM-154.468 316.989C-154.554 317.204 -154.425 317.505 -154.511 317.72C-154.469 319.482 -154.428 321.244 -154.386 323.007C-154.431 326.231 -154.905 329.283 -155.38 332.335C-156.242 338.225 -157.62 344.158 -158.998 350.091C-160.16 354.864 -161.322 359.636 -162.184 364.279C-163.477 371.244 -163.825 378.337 -164.087 385.215C-164.092 391.448 -164.311 397.595 -164.315 403.828C-164.273 405.59 -164.232 407.353 -164.705 409.158C-164.705 409.158 -164.791 409.373 -164.577 409.459C-164.147 409.631 -163.418 409.673 -162.989 409.845C-162.774 409.931 -162.259 409.888 -162.044 409.973C-161.958 409.758 -161.872 409.543 -162.001 409.243C-161.871 407.05 -162.041 404.987 -162.211 402.924C-162.509 399.313 -162.807 395.702 -162.59 392.048C-162.502 389.34 -162.114 386.503 -161.812 383.881C-160.819 375.798 -159.311 367.673 -157.373 359.719C-156.211 354.947 -154.834 350.26 -153.457 345.574C-152.597 342.177 -151.65 338.566 -150.789 335.169C-149.885 331.042 -150.011 327.001 -150.566 322.789C-150.694 322.488 -150.823 322.188 -150.951 321.887C-152.023 320.211 -153.181 318.75 -154.253 317.075C-154.039 317.16 -154.039 317.16 -154.468 316.989ZM-124.741 345.339C-124.699 345.855 -124.484 345.941 -124.356 346.242C-123.928 347.66 -123.371 349.379 -123.157 350.711C-122.301 354.795 -122.176 358.835 -122.35 363.005C-122.696 366.358 -123.342 369.84 -123.988 373.323C-124.505 375.859 -125.022 378.396 -125.539 380.932C-127.177 390.004 -128.599 399.161 -129.722 408.189C-129.852 410.381 -130.197 412.488 -130.413 414.895C-130.499 415.11 -130.499 415.11 -130.371 415.411C-129.298 415.84 -128.354 415.968 -127.195 416.182C-127.109 415.967 -127.023 415.752 -126.937 415.537C-126.635 412.915 -126.032 410.163 -125.729 407.541C-125.254 403.242 -124.693 398.728 -124.218 394.429C-123.657 389.915 -123.01 385.186 -121.719 380.715C-120.901 378.049 -120.384 375.513 -119.567 372.847C-118.792 369.665 -117.717 366.355 -117.156 363.087C-116.554 360.336 -116.165 357.498 -116.206 354.489C-116.163 353.759 -116.506 353.372 -116.763 352.77C-118.822 350.45 -121.095 348.045 -123.454 345.854C-123.883 345.682 -124.098 345.597 -124.741 345.339ZM-83.1873 278.166C-83.2299 277.65 -83.3584 277.349 -83.573 277.263C-84.3018 275.974 -85.1592 274.384 -85.888 273.095C-86.4882 272.107 -87.0885 271.119 -87.4741 270.216C-87.7313 269.615 -88.3749 269.357 -88.804 269.186C-89.2331 269.014 -89.5337 269.143 -89.9628 268.972C-95.3276 268.072 -100.434 266.529 -105.283 264.34C-108.845 262.666 -112.45 261.722 -116.313 261.424C-120.819 260.868 -125.241 261.344 -129.534 262.121C-130.349 262.294 -130.864 262.337 -131.766 262.724C-134.299 263.457 -136.918 264.404 -139.322 265.438C-142.027 266.6 -144.732 267.763 -147.351 268.71C-152.675 270.82 -158.085 271.899 -163.707 271.645C-165.167 271.56 -166.54 271.26 -167.999 271.175C-168.214 271.089 -168.729 271.132 -169.158 270.961C-169.073 271.992 -168.687 272.895 -168.216 273.582C-166.756 273.667 -165.297 273.752 -163.838 273.837C-162.593 273.836 -161.649 273.964 -160.404 273.964C-158.215 274.091 -156.154 273.918 -154.136 273.228C-151.818 272.41 -149.371 271.893 -147.053 271.074C-145.035 270.385 -143.231 269.61 -141.342 268.62C-139.453 267.63 -137.435 266.941 -135.288 266.553C-130.008 265.173 -124.556 264.611 -119.105 265.295C-114.084 265.807 -109.019 266.835 -104.213 268.509C-98.8917 270.138 -93.8283 272.413 -89.1515 275.032C-87.3065 276.019 -85.762 277.136 -83.917 278.123C-83.831 277.908 -83.6165 277.994 -83.1873 278.166ZM-93.8924 425.014C-94.0209 424.714 -93.8489 424.284 -93.9775 423.983C-94.1052 422.435 -94.2329 420.888 -94.5751 419.255C-94.7879 416.676 -95.3013 414.226 -96.0292 411.69C-97.1428 408.252 -97.9558 404.685 -99.0694 401.247C-99.7548 399.227 -100.44 397.207 -101.126 395.187C-102.496 391.147 -103.137 387.15 -103.606 382.723C-103.863 380.874 -103.904 379.112 -104.161 377.264C-104.246 376.232 -104.331 375.201 -103.987 374.341C-103.729 373.696 -103.771 373.18 -104.114 372.793C-104.715 371.805 -105.315 370.817 -105.915 369.828C-106.044 369.528 -106.258 369.442 -106.601 369.055C-106.559 369.571 -106.731 370.001 -106.602 370.302C-106.389 372.881 -106.305 375.159 -106.307 377.652C-106.308 378.899 -106.309 380.145 -106.438 381.091C-106.613 385.261 -106.186 389.172 -105.116 393.341C-104.988 393.642 -104.945 394.158 -104.902 394.674C-104.347 397.639 -103.576 400.691 -103.02 403.657C-101.694 409.674 -101.698 415.907 -102.218 422.183C-102.175 422.699 -102.347 423.129 -102.304 423.645C-101.232 424.074 -99.4292 424.545 -95.9528 425.188C-95.0512 424.8 -94.622 424.972 -93.8924 425.014ZM-173.106 269.631C-174.48 269.331 -175.853 269.031 -177.441 268.645C-179.672 268.002 -181.947 268.089 -184.008 268.263C-188.944 268.782 -193.495 270.204 -197.746 272.743C-201.697 275.153 -204.876 278.121 -208.14 281.304C-208.226 281.519 -208.226 281.519 -208.612 281.863C-208.312 281.734 -208.011 281.605 -208.011 281.605C-205.822 280.486 -203.718 279.582 -201.313 278.548C-200.111 278.032 -198.694 277.601 -197.363 277.385C-195.518 277.126 -193.672 276.867 -191.826 276.607C-186.589 275.959 -181.351 275.311 -176.114 274.662C-175.084 274.576 -173.968 274.274 -173.066 273.886C-172.766 273.757 -172.251 273.714 -172.079 273.284C-172.292 271.951 -172.807 270.748 -173.106 269.631ZM-106.812 362.736C-106.683 363.037 -106.683 363.037 -106.683 363.037C-106.426 363.639 -105.954 364.326 -105.611 364.713C-105.011 365.701 -104.539 366.389 -103.466 366.818C-102.051 367.633 -100.549 368.234 -99.2613 368.749C-97.4588 369.221 -95.8709 369.606 -94.0685 370.078C-91.1932 370.979 -88.318 371.88 -85.5287 372.995C-82.8681 373.81 -79.9928 374.711 -77.0741 374.881C-74.8851 375.008 -72.9967 375.265 -70.8077 375.392C-68.8332 375.434 -66.6442 375.561 -64.7557 375.818C-61.4079 376.16 -58.3181 377.146 -55.2717 378.864C-55.0572 378.949 -54.8426 379.035 -54.6281 379.121C-54.4986 378.175 -54.4552 377.444 -54.6263 376.628C-54.8409 376.542 -55.0555 376.456 -55.27 376.37C-59.1321 374.825 -62.8655 373.581 -66.943 373.197C-68.4023 373.112 -69.7757 372.812 -71.0205 372.813C-73.2095 372.686 -75.441 372.043 -77.5441 371.7C-80.9344 370.843 -84.4533 369.685 -87.6717 368.397C-91.3192 366.938 -94.8381 365.78 -98.8295 365.181C-101.362 364.667 -103.679 364.239 -106.039 363.295C-105.953 363.08 -106.383 362.908 -106.812 362.736ZM-68.167 404.879C-68.0385 405.18 -67.8239 405.266 -67.6954 405.567C-65.6358 406.64 -63.7908 407.627 -61.8172 408.915C-59.8436 410.204 -57.5695 411.363 -55.5959 412.651C-53.8369 413.853 -52.0779 415.056 -50.6194 416.387C-50.4048 416.473 -50.2763 416.774 -49.9757 416.645C-49.8897 416.43 -50.0183 416.129 -49.9323 415.914C-50.6168 412.648 -51.4298 409.08 -52.1143 405.814C-52.2429 405.513 -52.2429 405.513 -52.3714 405.212C-53.5302 404.998 -54.689 404.784 -55.6332 404.656C-56.3629 404.613 -57.0926 404.571 -57.8222 404.528C-59.5821 404.572 -61.6426 404.746 -63.4885 405.005C-64.7333 405.006 -66.064 405.222 -67.2228 405.007C-67.6519 404.836 -67.8665 404.75 -68.167 404.879Z" fill="#286435" />
        <path d="M-112.034 218.994C-110.831 217.231 -109.628 215.468 -108.21 213.79C-105.203 210.005 -102.196 206.22 -99.1883 202.436C-91.756 193.188 -84.5383 183.855 -77.3206 174.522C-69.2004 163.555 -60.6085 153.276 -52.1451 142.695C-49.1378 138.91 -45.5729 135.598 -41.6648 132.672C-40.5911 131.855 -39.3029 131.123 -38.0146 130.391C-36.7264 129.66 -35.4382 128.928 -33.8929 128.798C-33.0772 128.625 -32.2615 128.453 -31.2313 128.366C-28.7418 128.365 -27.0687 129.782 -27.0705 132.275C-27.1565 132.49 -27.0279 132.791 -27.1139 133.006C-27.1148 134.253 -27.5448 135.327 -27.7602 136.488C-28.9216 140.014 -30.5121 143.368 -32.0166 146.507C-35.7988 153.473 -40.6537 160.011 -45.8518 166.161C-50.4053 171.323 -55.0874 176.183 -59.7695 181.044C-64.065 185.561 -68.7896 189.906 -73.6428 193.95C-78.1955 197.865 -82.7481 201.779 -87.1722 205.995C-93.8296 212.061 -100.83 217.74 -108.645 222.345C-108.946 222.474 -109.032 222.689 -108.903 222.99C-108.474 223.161 -108.045 223.333 -107.53 223.29C-106.157 223.59 -104.483 223.76 -103.109 224.06C-97.015 225.002 -90.9205 225.943 -84.74 226.67C-78.345 227.482 -71.8639 228.08 -65.2969 228.462C-63.623 228.633 -63.623 228.633 -62.3773 227.385C-61.9908 227.041 -61.9048 226.826 -61.7328 226.396C-61.0023 225.192 -60.2717 223.988 -59.5412 222.784C-57.307 219.687 -55.5019 216.419 -54.1259 212.979C-52.578 209.109 -51.2446 205.154 -49.6966 201.284C-46.6433 193.028 -43.2894 184.644 -40.0214 176.474C-37.8715 171.099 -35.0779 165.982 -32.0697 160.95C-29.1475 156.134 -26.1394 151.102 -23.0026 146.372C-20.6824 143.06 -18.3622 139.749 -15.8275 136.523C-12.8202 132.738 -9.68432 129.254 -5.99078 126.242C-4.53057 125.081 -3.07034 123.919 -1.39558 122.843C0.493757 121.853 2.38309 120.863 4.61554 120.26C5.73176 119.958 6.67598 120.087 7.70621 120C9.38011 120.171 10.5815 120.901 11.2243 122.405C11.4814 123.006 11.7385 123.608 11.9956 124.21C12.2093 125.542 12.423 126.875 12.2076 128.035C11.8201 129.626 11.5187 131.002 11.1312 132.593C9.62586 136.978 7.77736 140.977 5.41374 145.02C1.71758 151.771 -2.32172 158.136 -6.57555 164.415C-11.8605 172.027 -16.9308 179.725 -21.5721 187.595C-24.4083 192.196 -27.1585 196.583 -30.4237 201.012C-36.9543 209.872 -44.1712 217.959 -52.975 224.413C-54.7358 225.703 -56.4965 226.994 -58.6864 228.113C-58.6864 228.113 -58.987 228.243 -59.073 228.458C-58.8584 228.543 -58.6439 228.629 -58.4293 228.715C-53.0211 228.883 -47.6128 229.051 -42.2046 229.22C-37.9551 229.174 -33.4051 228.999 -29.1556 228.953C-24.6056 228.778 -20.2702 228.517 -15.8487 228.041C-14.5179 227.825 -13.0586 227.91 -11.6418 227.479C-10.7836 227.822 -10.5256 227.177 -10.3536 226.747C-9.45103 225.113 -8.41991 223.78 -7.51737 222.146C-7.34537 221.716 -6.87284 221.157 -6.70085 220.727C-3.00469 213.975 0.133799 206.752 2.75717 199.571C3.96114 196.561 4.95055 193.465 6.24051 190.241C8.64845 184.221 10.9704 178.416 13.5929 172.482C16.6028 164.958 19.6127 157.433 22.8372 149.994C25.0297 145.135 27.0076 140.19 29.4147 135.417C32.5523 129.44 36.119 123.634 40.544 118.172C43.4653 114.602 46.5152 111.333 50.3373 108.622C51.4109 107.805 52.6991 107.073 53.9874 106.341C55.1896 105.825 56.3918 105.308 57.6366 105.307C60.2122 105.091 62.4003 106.465 63.4288 108.871C63.8144 109.774 64.1141 110.891 64.1133 112.138C64.2826 115.447 63.6363 118.93 62.8615 122.111C62.0006 125.508 60.4101 128.862 58.691 131.915C55.9834 136.817 53.0612 141.634 49.7959 146.064C45.6281 152.128 41.3317 157.891 37.1639 163.955C33.5546 169.244 30.1599 174.62 27.1943 180.167C24.3147 185.5 21.7356 190.703 18.856 196.035C16.7069 200.163 14.3433 204.206 11.7651 208.162C7.08128 215.516 1.02498 221.323 -6.14665 226.186C-6.44721 226.315 -6.5332 226.53 -6.83376 226.659C-6.19008 226.917 -5.88954 226.787 -5.37443 226.744C1.49403 225.751 8.36251 224.757 15.1884 223.248C19.2667 222.385 23.3451 221.523 27.5094 220.445C28.6257 220.144 29.3128 219.67 29.9573 218.681C30.0433 218.466 30.2153 218.036 30.5159 217.907C31.1604 216.918 31.5904 215.843 32.1489 215.069C35.5862 210.209 38.5944 205.178 41.1735 199.974C44.0965 193.911 47.2341 187.934 49.8141 181.484C51.534 177.185 53.1254 172.584 54.6308 168.198C57.6842 159.943 60.523 151.601 63.5763 143.346C65.5977 137.67 67.7476 132.296 70.5413 127.178C73.2923 121.545 76.3865 116.299 79.6952 111.138C81.0703 108.945 82.9605 106.708 84.8933 104.988C85.7524 104.084 86.826 103.267 87.8997 102.449C89.3599 101.288 91.0772 100.728 92.8371 100.683C94.8976 100.51 96.7426 101.497 97.428 103.517C97.6851 104.119 97.8562 104.936 97.8128 105.666C97.8119 106.913 97.811 108.16 97.7242 109.621C97.335 113.705 96.4307 117.832 95.0973 121.788C93.4199 126.604 91.528 131.334 89.2069 135.892C81.5557 151.286 74.1191 166.766 66.3394 181.86C64.0183 186.418 61.4827 190.89 59.1616 195.448C58.1731 197.298 57.056 198.846 55.9389 200.394C53.0601 204.48 49.7523 208.394 45.8442 211.32C43.2243 213.514 40.4759 215.407 37.6414 217.515C37.3409 217.644 37.0403 217.774 36.8683 218.204C37.0829 218.289 37.0829 218.289 37.0829 218.289C39.3153 217.686 41.8483 216.954 44.1668 216.135C44.4673 216.006 44.7679 215.877 45.0685 215.748C50.3499 213.122 55.7173 210.281 60.3985 206.667C60.7851 206.323 61.3862 206.064 61.7727 205.72C71.7788 198.75 81.5278 191.177 90.7191 183.133C96.4313 178.185 102.444 173.109 108.156 168.161C119.409 158.697 131.434 149.79 143.844 141.786C148.783 138.774 153.936 135.847 159.26 133.737C160.161 133.349 161.278 133.048 162.179 132.66C162.78 132.402 163.51 132.444 164.025 132.401C166 132.443 167.759 133.645 167.628 135.838C167.713 136.869 167.369 137.729 167.24 138.675C166.853 140.266 166.036 141.685 165.305 142.889C163.586 145.942 161.739 148.694 159.591 151.576C155.38 157.124 150.612 162.2 145.2 167.018C140.261 171.277 135.193 175.235 129.911 179.108C119.046 186.982 107.795 193.953 95.6008 199.55C87.0133 203.597 78.2972 207.342 69.6671 210.873C60.7364 214.533 51.4626 217.807 42.2323 220.349C38.5831 221.383 35.2344 222.288 31.5852 223.323C31.2846 223.452 31.0701 223.366 30.7695 223.495C30.7695 223.495 30.6835 223.71 30.5975 223.925C31.5417 224.053 32.2714 224.096 33.0871 223.923C35.3621 223.836 37.8516 223.834 40.1266 223.747C45.6209 223.7 51.2437 223.954 56.566 224.337C65.7511 225.018 74.8503 225.915 84.078 227.112C88.5846 227.668 93.0912 228.224 97.5978 228.779C99.2717 228.95 100.946 229.121 102.748 229.592C106.31 230.02 110.087 230.533 113.564 231.175C117.555 231.774 121.547 232.374 125.753 233.058C129.444 233.787 133.22 234.3 136.911 235.028C140.817 235.842 144.722 236.656 148.756 237.771C149.915 237.985 150.988 238.414 152.061 238.843C152.704 239.101 153.348 239.358 154.12 239.917C155.45 240.947 155.449 242.194 154.504 243.312C154.118 243.656 153.731 244.001 153.345 244.345C152.743 244.603 152.271 245.162 151.67 245.421C150.468 245.937 149.566 246.325 148.364 246.841C144.628 248.091 140.851 248.824 136.858 249.472C131.621 250.12 126.47 250.553 121.319 250.987C117.713 251.29 113.979 251.293 110.33 251.08C100.544 250.657 90.9299 249.804 81.2305 247.919C76.1662 246.891 71.4025 245.734 66.4242 244.491C59.3004 242.389 52.2626 240.073 45.5253 237.627C39.0026 235.268 32.3938 233.123 25.6991 231.193C22.0942 230.25 18.7039 229.393 15.3569 227.804C14.7133 227.547 14.1981 227.59 13.683 227.634C11.7511 228.108 9.90522 228.367 8.05933 228.626C-0.612466 230.395 -9.54138 231.561 -18.2983 232.298C-18.5129 232.212 -18.5988 232.427 -19.114 232.471C-18.6848 232.642 -18.4703 232.728 -18.2557 232.814C-14.8654 233.671 -11.1745 234.4 -7.7841 235.257C-1.13195 236.671 5.34823 238.515 12.0429 240.445C18.7377 242.374 25.3464 244.519 31.9126 246.148C37.9636 247.82 44.2292 249.578 50.3662 251.036C60.2368 253.737 69.7208 256.783 79.0753 260.774C85.0829 263.177 90.618 266.139 96.1956 269.617C98.1692 270.905 100.271 272.494 102.159 273.998C103.06 274.857 103.96 275.716 104.775 276.79C105.461 277.563 106.062 278.552 106.147 279.583C106.489 281.216 105.973 282.506 104.813 283.539C104.126 284.012 103.225 284.4 102.409 284.572C101.078 284.788 99.7475 285.004 98.5027 285.005C93.9527 285.18 89.4461 284.624 85.1115 283.638C80.3478 282.481 75.6701 281.109 71.0784 279.521C61.895 276.347 53.0981 272.828 44.1727 269.008C35.6764 265.36 27.3086 262.013 18.8123 258.365C10.5306 254.803 2.12024 250.94 -5.90352 246.733C-9.80812 244.672 -13.7127 242.612 -17.9178 240.68C-23.3243 238.019 -28.6883 235.873 -34.0948 233.212C-34.7385 232.954 -35.2536 232.998 -35.9833 232.955C-39.2885 233.129 -42.7223 233.003 -46.0275 233.177C-51.3072 233.31 -56.4149 233.012 -61.8232 232.844C-67.6605 232.504 -73.7125 232.078 -79.4638 231.524C-81.1377 231.353 -82.5971 231.268 -84.271 231.097C-84.4855 231.011 -84.7 230.925 -85.0866 231.27C-84.872 231.355 -84.7435 231.656 -84.3144 231.828C-82.1263 233.202 -80.2387 234.705 -78.0505 236.079C-71.4001 239.986 -64.9643 243.808 -58.3139 247.715C-49.1747 252.867 -40.0356 258.019 -30.9825 263.386C-23.1308 268.023 -15.365 272.875 -7.38467 277.813C0.252521 282.364 8.10429 287.001 15.6555 291.768C19.8172 294.43 24.2795 296.963 28.2692 300.055C30.0282 301.258 31.4867 302.589 32.9452 303.921C33.6314 304.694 34.1891 305.167 34.8753 305.94C35.347 306.627 35.6041 307.229 35.8612 307.831C36.1609 308.948 35.8169 309.808 34.8292 310.411C34.4427 310.755 33.8416 311.013 33.3265 311.056C32.2102 311.358 30.9655 311.359 29.9352 311.446C27.0166 311.276 23.9693 310.805 21.2226 310.205C17.1026 309.305 13.3691 308.061 9.50708 306.516C-1.3068 302.44 -11.6907 297.289 -21.6446 291.063C-29.0672 286.597 -36.0173 281.573 -42.9674 276.548C-52.5773 269.462 -62.0152 261.946 -70.5941 253.526C-74.1972 250.09 -77.929 246.353 -81.0596 242.357C-83.7185 239.049 -86.2915 235.526 -88.4778 231.659C-88.8635 230.756 -89.6358 230.198 -90.58 230.07C-92.4685 229.813 -94.3569 229.557 -96.0308 229.386C-100.022 228.787 -104.014 228.188 -108.005 227.589C-112.941 226.861 -117.791 225.919 -122.64 224.977C-127.275 224.12 -132.125 223.178 -136.674 222.106C-141.953 220.992 -183.754 211.005 -189.032 209.891C-194.74 208.606 -200.663 207.234 -206.285 205.733C-213.28 203.933 -220.275 202.132 -227.142 200.632C-228.73 200.247 -230.103 199.947 -231.605 199.346C-232.034 199.174 -232.463 199.003 -233.107 198.745C-233.751 198.488 -233.493 197.843 -233.106 197.499C-232.505 197.24 -231.904 196.982 -231.389 196.939C-230.659 196.981 -229.629 196.894 -228.899 196.937C-224.822 197.321 -220.744 197.705 -216.839 198.519C-211.346 199.719 -205.852 200.919 -200.23 202.419C-195.896 203.405 -191.561 204.391 -187.227 205.376C-183.321 206.19 -142.894 215.877 -138.774 216.777C-134.868 217.591 -130.963 218.405 -127.057 219.219C-123.581 219.862 -120.105 220.504 -116.628 221.147C-115.47 221.361 -114.311 221.575 -113.023 220.843C-112.851 220.413 -112.378 219.854 -112.034 218.994ZM44.5239 196.576C44.9104 196.232 45.297 195.888 45.0399 195.286C45.555 195.243 45.5124 194.727 45.5984 194.512C46.415 193.093 47.103 191.373 47.9195 189.954C49.08 187.675 49.94 185.525 51.1005 183.246C53.551 177.742 56.5166 172.195 59.6108 166.948C64.3381 158.864 68.8508 150.693 73.3635 142.522C75.8991 138.05 78.0056 133.406 80.1121 128.762C82.1326 124.333 84.1531 119.904 86.6027 115.647C87.6773 113.583 88.9664 111.605 90.47 109.712C91.0286 108.938 91.6731 107.949 92.2317 107.175C93.2628 105.841 93.9933 104.637 95.0244 103.304C95.1104 103.089 94.7673 102.702 94.5527 102.617C94.2096 102.23 93.7805 102.058 93.2654 102.102C92.7503 102.145 92.2352 102.188 91.6341 102.447C90.5178 102.748 89.6162 103.136 88.8431 103.824C87.7694 104.642 86.6097 105.674 85.7506 106.577C84.1184 108.169 82.7008 109.846 81.4117 111.825C75.0957 120.77 70.1955 130.532 66.3682 140.722C64.5188 145.968 62.884 151.299 60.5195 156.588C58.7135 161.103 56.9076 165.617 55.3162 170.218C54.2408 173.529 53.0368 176.539 51.7468 179.764C49.9834 184.794 47.6624 189.352 45.4699 194.211C45.2979 194.641 45.1259 195.071 44.8679 195.716C44.8679 195.716 44.6959 196.146 44.5239 196.576C44.2233 196.705 44.3519 197.006 44.2659 197.221C44.2659 197.221 44.0513 197.135 43.9653 197.35C43.9653 197.35 44.0513 197.135 44.2659 197.221C44.3519 197.006 44.4379 196.791 44.5239 196.576ZM43.6639 198.726C43.5779 198.941 43.5779 198.941 43.5779 198.941L43.6639 198.726ZM-99.9214 207.379C-99.4063 207.336 -99.4063 207.336 -99.1483 206.691C-98.6332 206.648 -98.5472 206.433 -98.1607 206.089C-96.829 204.626 -95.4973 203.164 -93.8651 201.572C-88.3239 195.808 -82.6968 189.829 -77.1556 184.065C-69.7242 176.065 -62.3789 168.279 -55.076 159.978C-54.5175 159.203 -53.7444 158.515 -53.0998 157.526C-48.6749 152.064 -44.3359 146.816 -40.1255 141.268C-39.0944 139.935 -37.9773 138.387 -36.9462 137.053C-35.7431 135.29 -34.3255 133.613 -33.1224 131.849C-33.0364 131.634 -33.0364 131.634 -32.8644 131.204C-33.3795 131.248 -33.5941 131.162 -33.6801 131.377C-35.1828 132.023 -36.6856 132.669 -38.0598 133.615C-42.397 136.369 -46.048 139.897 -49.3559 143.811C-50.6875 145.273 -51.8906 147.037 -53.2223 148.499C-59.7094 156.628 -66.1106 164.542 -72.4692 172.971C-76.6796 178.52 -80.9759 184.283 -85.4009 189.745C-89.5253 195.078 -93.8643 200.326 -98.2892 205.788C-98.6758 206.132 -99.0623 206.476 -99.0198 206.992C-99.6634 206.735 -99.8354 207.164 -99.9214 207.379ZM67.6092 207.307C67.6092 207.307 67.5232 207.522 67.6092 207.307C67.7378 207.608 67.5232 207.522 67.6092 207.307C67.7378 207.608 67.8238 207.393 67.6092 207.307C68.1243 207.263 68.6395 207.22 68.94 207.091C79.2875 203 89.4204 198.823 99.5107 194.131C109.386 189.353 118.791 183.887 127.809 177.519C132.705 173.99 137.6 170.462 142.454 166.418C148.466 161.342 153.836 156.008 158.605 149.685C160.581 147.234 162.214 144.396 163.847 141.557C164.664 140.138 165.265 138.633 165.567 137.257C165.739 136.828 165.696 136.312 165.439 135.71C165.139 135.839 165.139 135.839 164.838 135.968C164.151 136.442 163.378 137.13 162.476 137.518C158.01 139.971 153.93 143.327 150.279 146.854C146.542 150.596 143.02 154.425 139.283 158.167C137.092 160.533 134.902 162.899 132.711 165.264C127.17 171.028 121.243 175.89 114.672 180.494C108.188 184.883 101.575 188.971 94.4038 192.587C91.9134 193.835 89.423 195.084 86.9325 196.332C84.3561 197.795 81.7796 199.259 79.2032 200.722C75.6391 202.788 72.075 204.853 68.5109 206.919C68.2964 206.833 67.7812 206.877 67.6092 207.307C67.8238 207.393 67.8238 207.393 67.6092 207.307ZM-46.4001 213.576C-44.2953 211.425 -42.4051 209.188 -40.5149 206.952C-34.8443 200.242 -29.6454 192.845 -25.0901 185.19C-22.1679 180.373 -19.1598 175.342 -16.023 170.611C-13.7028 167.3 -11.3827 163.988 -9.06247 160.677C-4.98063 154.828 -1.19936 149.108 2.23881 143.001C4.60243 138.959 6.66548 135.046 8.17089 130.66C8.51488 129.8 8.85889 128.94 8.90233 128.21C9.03176 127.264 9.16118 126.318 9.29062 125.372C9.24805 124.856 9.20548 124.341 9.16292 123.825C8.77723 122.922 8.00503 122.364 7.0608 122.236C6.54568 122.279 6.3311 122.193 6.03056 122.322C5.30089 122.28 4.69978 122.538 4.35579 123.398C4.18379 123.828 3.79726 124.172 3.62527 124.602C0.531964 128.602 -2.86192 132.731 -5.95522 136.731C-8.96251 140.516 -11.6692 144.172 -14.6766 147.957C-19.2735 153.849 -23.0982 160.299 -26.4938 166.922C-29.5454 172.684 -32.0393 178.919 -34.2327 185.024C-35.9101 189.84 -37.8021 194.57 -39.4795 199.385C-41.2429 204.416 -43.8645 209.103 -46.9152 213.619C-47.0012 213.834 -47.3878 214.178 -47.4738 214.393C-47.4738 214.393 -47.2592 214.479 -47.3452 214.694C-47.1732 214.264 -46.7867 213.92 -46.4001 213.576ZM55.0294 212.001C56.6181 211.14 58.2069 210.279 60.0102 209.504C65.3777 206.664 70.402 203.436 75.6408 200.294C81.6528 196.465 87.9219 193.236 94.4056 190.094C97.4111 188.802 100.288 187.21 103.38 185.703C109.048 182.733 114.373 179.376 119.569 175.719C124.551 171.976 129.275 167.631 133.356 163.029C137.738 158.297 141.905 153.48 146.501 148.834C149.078 146.124 151.784 143.715 154.704 141.392C156.165 140.23 157.839 139.154 159.3 137.993C159.6 137.863 159.901 137.734 160.073 137.304C159.558 137.348 159.257 137.477 158.656 137.735C154.534 139.328 150.755 141.308 146.977 143.288C139.634 147.334 132.548 151.982 125.806 157.016C118.763 162.179 112.149 167.514 105.449 173.064C100.123 177.667 94.6688 181.969 89.3431 186.572C84.1033 190.961 78.649 195.263 73.0662 199.265C70.9188 200.9 68.471 202.664 66.1091 204.213C64.0478 205.633 61.9864 207.053 59.9251 208.473C58.2503 209.549 56.5756 210.624 54.9008 211.7C54.5142 212.044 53.9131 212.303 53.6126 212.432C53.6126 212.432 53.8271 212.518 53.7411 212.733C54.1277 212.388 54.6428 212.345 55.0294 212.001ZM151.844 242.497C148.795 243.273 145.705 243.533 142.7 243.578C140.726 243.537 138.88 243.796 136.905 243.754C132.141 243.844 127.334 243.417 122.827 242.861C117.376 242.177 111.797 241.192 106.518 240.078C102.183 239.093 97.7628 238.322 93.4282 237.336C89.7373 236.608 86.1323 235.665 82.4414 234.937C79.6947 234.337 76.6475 233.866 73.8148 233.481C70.553 232.925 67.2052 232.583 63.9434 232.026C61.8404 231.684 59.7374 231.342 57.7629 231.3C52.5267 230.702 47.3764 229.889 42.3122 228.86C38.4067 228.046 34.5012 227.232 30.5958 226.418C29.2224 226.118 27.6345 225.733 26.0892 225.863C25.3595 225.82 24.6298 225.778 23.6856 225.649C22.7414 225.521 21.6252 225.823 20.7235 226.21C20.852 226.511 21.2812 226.683 21.4957 226.768C22.6545 226.983 24.0278 227.283 25.1866 227.497C33.2121 229.211 40.9796 231.569 48.7897 234.444C55.9561 237.061 63.2085 239.464 70.3323 241.565C75.2246 243.023 79.9883 244.18 84.838 245.123C89.6877 246.065 94.6234 246.793 99.6451 247.305C102.778 247.561 105.826 248.031 109.045 248.072C115.311 248.584 121.836 248.45 128.232 248.016C133.168 247.497 138.319 247.063 143.127 246.243C146.09 245.682 148.923 244.821 151.628 243.658C152.229 243.4 152.744 243.357 153.002 242.712C152.359 242.454 152.144 242.368 151.844 242.497ZM-1.3742 214.877C-0.557652 213.458 0.473433 212.125 1.28997 210.706C3.3956 207.308 5.71579 203.997 7.82143 200.599C10.7862 196.299 13.1073 191.74 14.8706 186.71C15.5161 184.474 16.376 182.324 17.0214 180.088C20.7211 168.351 26.0512 157.514 32.5826 147.408C36.7079 140.828 41.2623 134.42 45.8167 128.012C49.426 122.722 53.2498 117.518 57.2882 112.4C58.2333 111.282 59.2644 109.949 60.081 108.53C59.8238 107.928 59.2662 107.455 58.7511 107.499C58.236 107.542 57.5063 107.5 56.9912 107.543C55.875 107.845 54.7587 108.146 53.7711 108.749C51.1946 110.212 48.9613 112.062 46.728 113.912C43.5495 116.88 41.0148 120.106 38.394 123.547C33.6251 129.869 29.843 136.835 26.6185 144.274C22.1475 154.207 18.1916 164.097 14.1497 174.201C11.7417 180.221 9.24782 186.456 6.83988 192.475C5.80791 195.055 4.90449 197.936 4.08708 200.602C2.28113 205.117 0.389163 209.846 -1.63136 214.275C-1.80335 214.705 -2.06134 215.35 -2.23333 215.78L-2.01875 215.866C-1.7182 215.737 -1.5462 215.307 -1.3742 214.877ZM39.1052 211.367C41.3385 209.517 43.5718 207.667 45.5906 205.732C49.0695 202.634 52.0769 198.849 54.4405 194.807C56.8041 190.765 59.0392 186.421 61.1882 182.293C67.4635 170.339 73.5241 158.298 79.7993 146.344C82.7649 140.797 85.7305 135.249 88.4816 129.616C90.7167 125.273 92.4366 120.973 93.8135 116.287C94.8029 113.191 95.3631 109.924 95.6229 106.786C95.5803 106.27 95.7523 105.84 95.7098 105.324C95.7958 105.109 95.5812 105.023 95.5387 104.507C95.2381 104.636 95.1521 104.851 95.0661 105.066C89.9106 111.733 85.9565 119.129 82.7745 127.084C81.0546 131.384 79.2486 135.899 77.3141 140.113C75.8096 143.252 74.0045 146.52 72.2854 149.573C70.0078 153.4 67.6442 157.443 65.5811 161.356C64.12 163.764 62.7875 166.473 61.3264 168.881C59.1348 172.494 57.0717 176.407 55.4377 180.492C52.1698 188.661 48.2582 196.574 43.703 204.228C42.3279 206.422 40.8668 208.83 39.2772 210.937C39.1912 211.152 38.8046 211.496 38.6326 211.926L38.8472 212.012C39.0192 211.582 39.0192 211.582 39.1052 211.367ZM-71.3593 242.995C-64.8383 247.848 -58.6613 253.561 -52.5269 258.758C-50.8539 260.176 -49.2668 261.808 -47.5938 263.226C-44.1192 266.361 -40.5586 269.282 -36.6114 271.858C-34.2947 273.533 -32.0206 274.692 -29.3599 275.507C-23.0517 277.781 -16.8296 280.27 -10.7794 283.189C-7.86159 284.605 -5.02978 286.237 -2.19798 287.868C4.32388 291.475 10.7597 295.296 17.3676 298.687C20.8431 300.576 24.4045 302.25 28.1806 304.01C29.811 304.912 31.6135 305.383 33.244 306.285C33.4585 306.371 33.4585 306.371 33.9736 306.327C33.8451 306.027 33.7165 305.726 33.502 305.64C32.8157 304.867 32.1295 304.093 31.1427 303.449C29.1266 301.645 26.8099 299.97 24.6217 298.596C19.1301 294.903 13.5525 291.425 7.88885 288.162C-5.75509 279.961 -19.1845 271.846 -32.9144 263.86C-40.9807 259.137 -49.3476 254.543 -57.4999 250.036C-61.9622 247.502 -66.639 244.884 -71.1013 242.35C-71.5304 242.179 -72.0881 241.706 -72.5172 241.535L-72.6032 241.75C-72.3461 242.351 -71.7884 242.824 -71.3593 242.995ZM60.5092 109.948C57.0719 114.808 53.6347 119.667 50.1974 124.527C44.4399 132.699 38.6824 140.87 33.4826 149.514C28.4548 157.728 24.1566 165.984 20.7593 175.099C19.5553 178.109 18.5659 181.205 17.6625 184.086C15.8557 189.847 13.3192 195.566 10.0964 200.512C7.26024 205.113 4.42409 209.715 1.80246 214.402C1.63047 214.832 1.45846 215.262 1.07191 215.606C1.50103 215.778 1.67303 215.348 1.97359 215.219C4.63689 212.294 7.08563 209.283 9.10526 206.101C10.8243 203.047 12.672 200.295 14.1765 197.156C17.7007 190.835 21.0103 184.427 24.5345 178.106C28.0586 171.784 31.7973 165.549 36.1797 159.571C40.8201 152.948 45.4605 146.325 50.0149 139.916C52.5071 136.175 54.9993 132.433 57.0623 128.52C58.3088 126.026 59.5554 123.532 60.4588 120.651C61.1902 118.201 61.7071 115.664 61.7948 112.956C61.9243 112.01 61.8391 110.979 61.3249 109.775C60.8098 109.819 60.5092 109.948 60.5092 109.948ZM-26.197 233.378C-19.0306 235.995 -12.1222 239.258 -5.60035 242.864C3.19564 247.629 12.1637 251.965 21.3036 255.87C34.4342 261.621 47.8653 267.243 61.0819 272.779C67.0895 275.183 73.0971 277.586 79.2767 279.559C83.0102 280.803 86.8297 281.832 90.6066 282.345C94.169 282.772 97.7313 283.2 101.423 282.681C102.239 282.509 103.054 282.336 103.742 281.863C104.042 281.734 104.343 281.605 104.3 281.089C104.086 281.003 104.086 281.003 103.871 280.917C98.4202 280.233 93.1414 279.119 87.906 277.274C81.9409 275.387 76.0193 272.769 70.3983 270.022C57.9974 264.313 45.725 258.905 32.8941 254.272C28.0878 252.599 23.2816 250.925 18.4753 249.252C12.2957 247.279 6.20209 245.091 0.108475 242.903C-4.48324 241.316 -8.98894 239.513 -13.6232 237.41C-15.8973 236.251 -18.3435 235.522 -20.4891 234.664C-21.7764 234.149 -23.2783 233.548 -24.5657 233.033C-25.4239 232.69 -26.3681 232.562 -27.2698 232.949C-26.8407 233.121 -26.6261 233.207 -26.197 233.378ZM-11.6053 236.721C-7.05705 239.039 -2.12223 241.013 2.68403 242.686C8.34853 244.703 14.013 246.719 20.0641 248.392C31.4365 251.694 42.6369 255.426 53.6228 259.072C61.3043 261.646 68.5133 264.779 75.7648 268.428C81.1713 271.089 86.6638 273.536 92.2423 275.767C95.8898 277.226 99.6233 278.47 103.743 279.37C103.958 279.456 104.172 279.542 104.172 279.542C104.473 279.412 104.344 279.112 104.216 278.811C103.744 278.123 103.273 277.436 102.586 276.663C101.428 275.202 99.8839 274.085 98.3394 272.969C93.9206 269.705 89.1152 266.785 84.0518 264.51C74.011 259.746 63.6263 255.841 52.8115 253.011C47.1896 251.511 41.5677 250.01 35.8597 248.725C28.8644 246.924 21.8692 245.123 14.9599 243.108C6.67724 240.792 -1.30483 238.347 -9.67345 236.247C-10.3171 235.989 -11.0468 235.947 -11.6904 235.69C-11.905 235.604 -12.4201 235.647 -12.6347 235.561L-12.7207 235.776C-12.249 236.464 -12.0344 236.549 -11.6053 236.721ZM28.1345 308.481C22.5986 306.765 17.4066 304.19 12.7732 300.84C8.48298 297.877 4.40725 294.999 0.116971 292.036C-6.40401 287.183 -13.5695 283.32 -21.2936 280.23C-24.0828 279.114 -26.8721 277.998 -29.6614 276.883C-32.0215 275.939 -34.2956 274.78 -36.2692 273.491C-40.2164 270.915 -44.0775 268.124 -47.7667 264.902C-54.3728 259.018 -61.1509 253.563 -68.2295 248.238C-70.7608 246.477 -72.9915 244.587 -75.4368 242.611C-75.6513 242.526 -75.6513 242.526 -75.8659 242.44C-76.0379 242.87 -75.8233 242.955 -75.6088 243.041C-74.0217 244.674 -72.3061 246.607 -70.7191 248.239C-62.3549 256.573 -53.4321 264.132 -44.0367 271.133C-37.3012 276.071 -30.5656 281.01 -23.5295 285.82C-12.9754 293.034 -1.69073 299.044 10.1959 303.55C14.058 305.095 18.006 306.424 21.8255 307.453C24.0571 308.097 26.1601 308.439 28.2631 308.782C28.4776 308.867 28.7782 308.738 28.9928 308.824L29.0788 308.609C28.7782 308.738 28.3491 308.567 28.1345 308.481ZM151.502 239.618C149.271 238.974 147.039 238.331 144.721 237.903C139.958 236.745 134.893 235.717 130.044 234.775C125.709 233.789 121.503 233.104 116.997 232.549C111.331 231.779 105.666 231.009 100 230.239C95.2793 229.598 90.6867 229.257 86.0941 228.916C77.5101 227.976 68.9686 227.552 60.5131 226.913C55.4054 226.616 50.2977 226.319 45.4046 226.107C43.2156 225.98 41.0266 225.852 38.7516 225.94C38.537 225.854 38.2364 225.983 37.9359 226.112C37.7639 226.542 38.0645 226.413 38.279 226.499C41.0257 227.099 43.6438 227.398 46.3905 227.998C53.6438 229.153 61.155 229.664 68.5803 230.39C73.3874 230.816 78.3231 231.544 83.0443 232.185C87.6794 233.042 92.4006 233.683 97.1217 234.325C101.542 235.095 105.877 236.081 110.297 236.852C113.259 237.538 116.091 237.923 119.139 238.393C122.4 238.95 125.963 239.377 129.225 239.934C133.216 240.533 137.165 240.616 141.114 240.699C143.303 240.827 145.578 240.739 147.552 240.781C149.312 240.737 151.072 240.693 152.832 240.648L152.918 240.433C152.146 239.875 151.717 239.703 151.502 239.618ZM-97.1756 209.226C-94.0832 206.473 -90.9048 203.504 -87.8123 200.751C-84.3334 197.654 -81.155 194.686 -77.676 191.588C-71.9637 186.641 -66.3799 181.393 -61.2253 175.973C-57.0158 171.671 -53.1068 167.499 -48.8973 163.197C-44.4298 158.251 -40.3054 152.918 -36.8246 147.327C-34.547 143.5 -32.57 139.802 -31.1506 135.631C-30.8066 134.771 -30.6771 133.825 -30.4191 133.18C-30.2471 132.75 -30.3757 132.449 -30.2037 132.019C-30.2463 131.504 -30.3748 131.203 -30.8039 131.031C-31.4476 130.774 -31.7482 130.903 -32.0062 131.548C-35.3149 136.708 -38.7522 141.568 -42.49 146.557C-47.173 152.665 -51.5554 158.643 -56.5814 164.363C-61.1349 169.525 -65.7744 174.901 -70.328 180.063C-75.268 185.568 -80.3367 190.773 -85.2767 196.279C-89.5722 200.795 -93.7392 205.613 -98.1633 209.828C-98.2493 210.043 -98.5498 210.173 -98.6358 210.388C-98.6358 210.388 -98.4213 210.473 -98.5073 210.688C-98.1633 209.828 -97.5622 209.57 -97.1756 209.226ZM0.87854 124.002C-1.91245 125.38 -4.57486 127.058 -6.80819 128.908C-9.9006 131.661 -12.8645 134.716 -15.3992 137.941C-17.6334 141.038 -19.7816 143.919 -21.8013 147.102C-25.3245 152.177 -28.4187 157.423 -31.2983 162.755C-34.006 167.658 -36.413 172.431 -38.477 177.591C-41.9594 185.674 -45.2273 193.844 -48.0661 202.185C-49.1415 205.496 -50.4315 208.721 -51.7215 211.946C-52.4095 213.666 -53.0115 215.171 -53.914 216.805C-54.086 217.235 -54.3865 217.364 -54.344 217.88C-53.7429 217.621 -53.5709 217.191 -53.1843 216.847C-49.5759 212.804 -46.7397 208.202 -44.3327 203.429C-42.7421 200.075 -41.5807 196.55 -40.1188 192.895C-37.6674 186.144 -35.216 179.394 -32.3356 172.815C-29.8851 167.311 -27.0054 161.979 -23.9973 156.947C-22.2782 153.894 -20.044 150.797 -17.6812 148.002C-13.5568 142.668 -9.21788 137.421 -4.66436 132.26C-2.38761 129.679 -0.0248602 126.883 2.03733 124.217C2.12332 124.002 2.4239 123.872 2.59589 123.442C1.78021 123.615 1.47965 123.744 0.87854 124.002Z" fill="#286435" />
    </svg>