  <svg width="25" height="23" viewBox="0 0 25 23" fill="none" xmlns="http://www.w3.org/2000/svg">
    <g clip-path="url(#clip0_71_8580)">
    <path fill-rule="evenodd" clip-rule="evenodd" d="M20.1288 6.98514H16.0999C15.8716 6.9937 15.6439 6.95728 15.4308 6.87813C15.2177 6.79899 15.0237 6.67879 14.8608 6.52493C14.6978 6.37108 14.5694 6.18682 14.4834 5.9835C14.3974 5.78018 14.3556 5.56211 14.3606 5.34269V1.42157H4.12708C4.11198 1.42182 4.09707 1.42496 4.08324 1.43079C4.06941 1.43663 4.05692 1.44504 4.0465 1.45555C4.03377 1.46453 4.02378 1.47662 4.01756 1.49056C4.01134 1.50451 4.00912 1.5198 4.01113 1.53484V21.467C4.01378 21.4959 4.02621 21.5231 4.0465 21.5444C4.05636 21.5556 4.06874 21.5645 4.0827 21.5704C4.09667 21.5763 4.11184 21.579 4.12708 21.5784H20.0148C20.0502 21.5784 20.0482 21.5614 20.0659 21.5444C20.0836 21.5275 20.1327 21.4916 20.1327 21.467V6.98514H20.1288ZM21.5969 21.9145C21.5964 22.2027 21.477 22.479 21.2648 22.6828C21.0526 22.8867 20.765 23.0014 20.4649 23.0019H3.66719C3.36712 23.0014 3.07949 22.8867 2.8673 22.6828C2.65512 22.479 2.53568 22.2027 2.53516 21.9145V1.08742C2.53467 0.944578 2.56378 0.803072 2.6208 0.671153C2.67783 0.539233 2.76162 0.41954 2.8673 0.319051C3.07949 0.115229 3.36712 0.000500609 3.66719 0L15.1133 0C15.2874 0.00158256 15.4565 0.0557422 15.5968 0.154806L21.4436 5.84109C21.5143 5.90101 21.5661 5.97874 21.5932 6.06549C21.6203 6.15223 21.6216 6.24453 21.5969 6.33194V21.9126V21.9145ZM15.7225 5.22753L15.638 1.81803L19.7829 5.85242L16.2178 5.6995C16.1522 5.70271 16.0867 5.69273 16.0253 5.6702C15.964 5.64767 15.9082 5.61308 15.8616 5.56865C15.815 5.52423 15.7785 5.47093 15.7546 5.41219C15.7306 5.35345 15.7197 5.29056 15.7225 5.22753Z" fill="black"/>
    <path fill-rule="evenodd" clip-rule="evenodd" d="M1.31874 8.73706H22.8313C23.181 8.73806 23.5162 8.8721 23.7633 9.10986C24.0104 9.34761 24.1495 9.66973 24.15 10.0057V18.52C24.149 18.8557 24.0097 19.1773 23.7626 19.4147C23.5155 19.652 23.1807 19.7858 22.8313 19.7868H1.31874C0.968966 19.7858 0.633846 19.6518 0.386703 19.414C0.13956 19.1763 0.000518179 18.8541 0 18.5182L0 10.0057C0.0010369 9.67005 0.140308 9.34843 0.387395 9.11108C0.634482 8.87373 0.969306 8.73994 1.31874 8.73895V8.73706Z" fill="#FF0000"/>
    <path d="M3.20898 11.2858H6.39282C7.08658 11.2858 7.60543 11.4425 7.9533 11.7597C8.30116 12.0769 8.47018 12.53 8.47018 13.1152C8.48562 13.3754 8.44312 13.6358 8.34552 13.879C8.24792 14.1221 8.09745 14.3425 7.90416 14.5254C7.52878 14.8653 6.95294 15.0333 6.18057 15.0333H5.12911V17.2364H3.20898V11.2858ZM5.12911 13.8288H5.60079C5.87756 13.8536 6.15485 13.787 6.38693 13.64C6.459 13.5823 6.51659 13.5098 6.55538 13.4277C6.59418 13.3457 6.61318 13.2563 6.61097 13.1662C6.61269 13.0783 6.5962 12.991 6.56246 12.9093C6.52872 12.8277 6.4784 12.7532 6.41444 12.6904C6.28473 12.5602 6.03906 12.5016 5.67744 12.5016H5.12911V13.8231V13.8288ZM9.49215 11.2858H12.338C12.802 11.2697 13.2647 11.3442 13.698 11.5048C14.0326 11.6434 14.3263 11.8594 14.5529 12.1335C14.7819 12.4124 14.9486 12.7338 15.0422 13.0774C15.1461 13.4537 15.1977 13.8416 15.1955 14.2309C15.2179 14.7336 15.1412 15.2357 14.9695 15.711C14.8326 16.0479 14.6199 16.3515 14.3465 16.6002C14.104 16.8241 13.8076 16.9869 13.4837 17.0741C13.1122 17.1761 12.7283 17.2307 12.3419 17.2364H9.49215V11.2858ZM11.3985 12.6319V15.8828H11.8702C12.1622 15.9008 12.4547 15.857 12.7271 15.7544C12.9072 15.6534 13.0459 15.4962 13.1202 15.3089C13.235 14.9757 13.2837 14.6248 13.2636 14.2744C13.2636 13.6451 13.1568 13.214 12.9433 12.9812C12.7291 12.7489 12.3714 12.6319 11.8741 12.6319H11.3985ZM16.1998 11.2858H20.9343V12.5658H18.1278V13.6042H20.5334V14.8105H18.1278V17.2364H16.2057V11.2858H16.1998Z" fill="white"/>
    </g>
    <defs>
    <clipPath id="clip0_71_8580">
    <rect width="24.15" height="23" fill="white"/>
    </clipPath>
    </defs>
    </svg>