<svg width="45" height="45" viewBox="0 0 70 70" fill="none" xmlns="http://www.w3.org/2000/svg">
<circle cx="35" cy="35" r="35" fill="#286435"/>
<path d="M46.3216 40.6136L42.9723 37.2643C41.7761 36.0681 39.7426 36.5466 39.2642 38.1016C38.9053 39.1782 37.7092 39.7763 36.6326 39.537C34.2403 38.9389 31.0106 35.8289 30.4125 33.3169C30.0537 32.2403 30.7714 31.0442 31.8479 30.6854C33.403 30.2069 33.8814 28.1734 32.6853 26.9773L29.336 23.628C28.3791 22.7907 26.9437 22.7907 26.1063 23.628L23.8336 25.9007C21.5609 28.293 24.0729 34.6327 29.6948 40.2547C35.3168 45.8767 41.6565 48.5083 44.0488 46.1159L46.3216 43.8432C47.1589 42.8863 47.1589 41.4509 46.3216 40.6136Z" fill="white"/>
</svg>
