<svg width="233" height="502" viewBox="0 0 233 502" fill="none" xmlns="http://www.w3.org/2000/svg">
        <path d="M429.075 197.327C426.801 198.486 424.527 199.645 422.252 200.804C419.635 202.349 417.018 203.895 414.401 205.441C412.642 206.643 410.883 207.846 409.124 209.048C407.15 210.336 405.262 211.839 403.589 213.257C400.672 215.92 397.541 218.669 394.71 221.547C388.705 227.69 383.559 234.736 379.014 242.041C376.056 246.466 373.398 251.021 371.126 255.92C369.883 258.412 368.855 260.819 367.826 263.225C367.698 263.526 367.569 263.827 367.44 264.128C367.14 263.998 367.14 263.999 367.14 263.999C365.206 261.031 362.715 258.536 360.009 256.127C357.303 253.718 354.254 251.695 351.077 249.974C349.187 248.984 347.384 248.209 345.366 247.52C340.214 245.84 334.934 244.46 329.31 243.468C324.502 242.648 319.737 242.559 314.802 243.286C309.222 244.271 304.201 246.03 299.31 248.735C296.693 250.28 294.248 252.256 292.103 254.361C287.256 259.043 283.354 264.843 279.967 270.687C278.638 272.964 277.309 275.242 276.066 277.734C273.494 282.504 270.535 286.929 267.49 291.14C264.017 295.522 261.058 299.948 258.358 305.018C254.328 312.366 251.5 320.231 249.789 328.397C247.136 340.431 245.943 352.381 246.896 364.718C247.328 369.533 247.547 374.434 247.765 379.334C247.939 383.504 247.685 387.845 247.559 391.886C247.304 396.228 246.621 400.741 245.636 405.125C244.909 408.907 243.968 412.775 243.327 416.772C243.242 417.804 243.157 418.835 242.985 419.652C243.071 419.867 242.943 420.168 243.029 420.383C243.115 420.598 243.287 421.028 243.587 421.157C244.188 421.415 244.704 421.459 245.305 421.717C249.684 422.709 253.934 424.001 258.184 425.294C261.232 426.07 264.066 426.931 267.114 427.707C276.086 429.605 285.143 429.224 294.113 427.382C298.233 426.482 302.481 425.281 306.73 424.081C312.48 422.279 318.016 420.564 323.939 419.192C328.917 417.949 333.853 417.222 338.917 416.193C345.226 415.166 351.235 414.01 357.458 412.767C361.664 412.082 365.998 411.097 370.032 409.982C373.423 409.125 376.727 408.052 379.859 406.55C382.348 405.305 384.751 403.845 386.853 402.256C389.727 400.109 392.301 397.832 395.089 395.47C396.548 394.138 398.221 392.721 399.679 391.389C402.039 389.199 404.183 387.094 406.457 384.688C408.944 382.197 411.346 379.49 413.534 376.87C420.352 368.406 425.067 359.038 427.807 348.465C429.306 342.878 430.074 337.334 430.242 331.531C430.752 324.094 429.588 316.829 427.05 309.863C425.373 305.048 423.052 300.489 420.302 296.103C417.079 291.157 413.513 286.598 409.733 282.125C406.038 277.867 401.872 274.296 397.363 271.112C393.326 268.487 388.818 266.55 384.01 265.73C382.379 265.385 380.619 265.34 378.859 265.296C376.369 265.294 374.266 265.637 371.82 266.366C371.391 266.538 370.962 266.709 370.661 266.58C370.79 266.279 370.704 266.064 370.919 265.978C371.304 265.076 371.561 264.474 371.947 263.572C376.832 252.141 383.306 241.571 390.768 231.603C392.998 228.467 395.614 225.674 398.231 222.882C401.405 219.617 404.665 216.568 408.011 213.733C410.456 211.757 412.987 209.996 415.733 208.15C420.453 205.015 425.344 202.31 430.235 199.606C430.45 199.52 430.879 199.348 431.008 199.047C429.719 198.316 429.461 197.671 429.075 197.327ZM379.385 403.497C378.999 403.153 378.913 402.938 378.526 402.594C376.163 399.798 374.358 396.53 372.982 393.09C371.305 388.275 370.056 383.287 369.237 378.129C368.806 375.807 368.59 373.4 368.374 370.992C367.424 362.394 365.615 354.14 362.347 345.97C360.369 341.025 358.82 335.909 357.787 330.836C356.839 325.978 356.02 320.819 355.372 316.09C355.156 313.682 355.026 311.49 355.11 309.212C355.067 308.481 355.324 307.879 355.495 307.063C356.352 305.473 356.995 303.969 357.766 302.164C358.923 299.456 359.952 297.05 360.894 294.428C361.023 294.128 361.152 293.827 361.28 293.526C361.366 293.741 361.366 293.741 361.452 293.956C362.14 295.676 363.257 297.224 364.288 298.557C365.964 300.88 367.768 302.902 369.444 305.224C370.475 306.557 371.506 307.891 372.409 309.525C374.987 313.481 377.565 317.438 379.929 321.48C381.82 324.963 383.41 328.317 384.658 332.058C385.174 333.348 385.561 334.939 385.862 336.314C387.025 341.087 388.401 345.773 389.349 350.631C390.942 357.725 392.321 364.905 392.97 372.127C393.402 375.695 393.833 379.263 394.566 382.96C394.91 385.067 395.384 386.873 396.158 388.808C396.244 389.023 396.33 389.238 396.416 389.453C395.858 389.925 395.515 390.312 395.172 390.698C393.499 392.116 391.826 393.533 390.239 395.166C387.537 397.743 384.662 399.89 381.487 401.908C381.316 402.725 380.329 403.369 379.385 403.497ZM252.749 325.218C252.577 324.788 252.705 324.487 252.834 324.186C253.562 321.651 254.29 319.115 255.318 316.708C256.775 312.884 258.446 308.973 260.504 305.407C260.761 304.805 261.19 304.633 261.705 304.677C263.594 304.42 265.354 304.464 267.114 304.508C268.358 304.509 269.603 304.51 270.848 304.511C275.526 304.385 280.249 304.99 284.842 305.896C288.405 306.715 292.183 307.449 295.746 308.268C297.077 308.484 298.708 308.829 300.039 309.045C305.276 309.693 310.512 309.095 315.319 307.422C316.907 307.036 318.409 306.435 319.91 305.835C322.485 304.805 325.146 303.99 327.893 303.39C334.759 301.89 341.541 301.422 348.538 302.114C350.083 302.244 351.715 302.59 353.217 303.235C353.518 303.365 353.518 303.365 353.818 303.494C353.69 303.795 353.433 304.396 353.304 304.697C352.061 307.189 350.732 309.467 349.489 311.959C346.917 316.729 343.744 321.24 340.098 325.192C339.54 325.665 338.983 326.137 338.339 326.395C333.661 327.767 328.682 327.764 323.788 326.729C322.371 326.298 320.955 325.867 319.624 325.651C317.993 325.306 316.576 324.875 314.944 324.53C312.798 324.142 310.523 324.054 308.334 324.182C307.175 324.396 305.93 324.395 304.986 324.523C299.964 325.036 298.333 324.691 293.482 323.14C291.764 322.58 290.348 322.149 288.63 321.589C283.693 319.823 279.014 319.949 274.079 321.923C273.007 322.352 271.934 322.781 270.861 323.21C268.501 324.154 266.055 324.883 263.651 325.097C260.303 325.438 256.956 325.78 253.822 326.035C253.264 325.261 253.049 325.347 252.749 325.218ZM364.235 284.114C364.321 284.329 364.622 284.458 364.708 284.673C365.438 285.877 366.297 286.781 367.157 287.684C368.875 289.491 371.022 291.126 372.869 292.631C374.93 294.051 376.992 295.471 378.924 297.192C381.372 298.956 383.477 301.107 385.796 303.172C388.975 306.14 392.024 309.409 394.731 313.065C396.407 315.387 397.868 317.796 399.329 320.204C400.748 323.128 402.166 326.052 403.37 329.062C404.918 332.932 406.595 336.501 408.486 339.984C409.947 342.392 411.408 344.8 412.869 347.209C414.631 349.746 416.478 352.498 418.454 354.95C419.013 355.724 419.657 356.713 420.216 357.487C420.947 358.691 421.075 358.391 420.346 359.68C416.789 367.587 411.643 374.633 405.724 380.991C404.009 382.924 402.207 384.642 400.406 386.36C399.848 386.833 399.376 387.52 398.604 388.079L398.389 388.164C398.003 387.82 397.831 387.39 397.659 386.96C397.057 385.455 396.798 383.564 396.625 381.887C396.064 377.373 395.631 372.559 395.07 368.045C394.724 364.691 394.25 361.639 393.69 358.372C392.268 350.461 390.417 342.722 388.566 334.984C387.016 328.621 384.393 322.687 380.698 317.182C379.495 315.419 378.292 313.655 377.303 311.806C375.456 309.054 373.608 306.301 371.632 303.85C370.601 302.517 369.656 301.398 368.625 300.065C367.68 298.947 366.734 297.828 366.004 296.624C364.5 294.732 363.512 292.883 362.652 290.733C362.48 290.303 362.394 290.088 362.651 289.486C363.208 287.767 363.636 286.349 364.193 284.63C364.107 284.415 364.107 284.415 364.235 284.114ZM269.809 291.958C270.152 291.572 270.281 291.271 270.409 290.97C271.224 289.896 272.039 288.822 272.854 287.748C274.054 285.771 275.254 283.795 276.67 281.732C277.013 281.346 277.141 281.045 277.484 280.658C278.9 279.842 280.316 279.027 281.646 277.996C283.834 276.622 286.323 275.377 288.597 274.218C293.446 272.029 298.467 270.27 303.445 269.027C307.05 268.084 310.741 267.355 314.518 266.842C319.539 266.33 324.39 266.634 329.284 267.669C331.731 268.187 334.049 269.005 336.153 269.909C336.754 270.168 337.442 270.641 338.043 270.899C341.435 272.535 344.655 273.741 348.39 274.99C350.709 275.808 353.07 276.111 355.559 276.113C357.748 275.985 360.152 275.772 362.383 275.129C362.598 275.043 363.113 275.086 363.327 275C363.199 275.301 363.156 275.817 363.242 276.032C362.943 277.149 362.643 278.267 362.343 279.384C361.187 283.338 359.945 287.077 358.789 291.031C358.403 291.934 358.103 293.051 357.718 293.953C357.589 294.254 357.461 294.555 357.246 294.641C356.731 294.598 356.43 294.468 356.216 294.554C353.554 294.123 350.893 293.691 348.017 293.345C344.625 292.956 341.577 292.18 338.357 290.974C336.039 290.156 333.592 289.638 331.273 288.82C327.323 287.656 323.245 286.794 319.124 286.447C314.188 285.928 308.994 286.01 303.972 286.523C299.68 286.993 295.388 287.462 291.054 288.448C288.521 288.962 285.775 289.562 283.243 290.076C280.496 290.676 277.749 291.276 274.831 291.446C273.672 291.66 272.299 291.96 271.054 291.959C270.539 291.916 270.324 292.002 269.809 291.958ZM367.104 274.487C367.405 274.616 367.405 274.616 367.405 274.616C368.178 275.305 369.08 275.692 369.981 276.08C370.582 276.338 371.398 276.51 372.214 276.683C377.408 277.847 382.517 278.796 387.668 279.23C389.213 279.36 390.759 279.49 392.39 279.835C393.42 279.922 394.537 280.223 395.653 280.525C398.272 281.472 401.105 282.334 403.596 283.582C404.497 283.97 405.7 284.487 406.515 284.659C407.116 284.917 407.718 285.176 407.89 285.606C411.498 289.649 414.677 293.864 417.513 298.465C420.264 302.852 422.37 307.496 424.047 312.311C425.725 317.127 426.673 321.985 426.977 327.101C427.152 332.517 426.512 337.761 425.571 342.876C425.657 343.091 425.443 343.177 425.529 343.392C425.1 343.563 424.713 343.219 424.627 343.004C423.639 342.402 422.48 341.369 421.621 340.466C419.043 337.756 416.895 334.874 415.305 331.52C413.8 328.381 412.081 325.328 410.576 322.189C409.072 319.05 407.138 316.082 405.205 313.115C402.111 309.115 399.018 305.115 395.367 301.588C392.876 299.093 390.17 296.684 387.335 294.576C384.888 292.812 382.44 291.047 379.777 289.369C377.029 287.476 374.366 285.798 371.961 283.518C370.028 281.797 368.31 279.99 366.678 278.399C366.377 278.269 366.205 277.839 366.119 277.624C366.29 276.808 366.719 275.39 367.104 274.487ZM315.603 345.465L315.689 345.68C315.474 345.766 315.56 345.981 315.346 346.067C312.515 348.945 309.898 351.737 307.669 354.873C306.511 356.334 305.653 357.924 304.495 359.385C304.152 359.771 303.809 360.158 303.166 360.416C302.736 360.587 302.307 360.759 302.093 360.845C299.175 362.261 296.214 362.947 293.167 363.418C292.437 363.46 292.008 363.632 291.364 363.889C288.832 364.403 286.171 365.218 283.597 366.248C282.309 366.763 281.236 367.192 279.949 367.707C274.585 369.853 268.963 371.353 263.212 371.908C262.268 372.037 261.109 372.251 260.165 372.379C256.602 372.806 253.298 373.879 250.166 375.381C249.951 375.467 249.736 375.553 249.436 375.424C249.005 373.102 248.135 357.24 248.434 354.876L248.649 354.79C248.863 354.704 249.292 354.532 249.507 354.446C255.429 351.828 261.308 349.726 267.445 348.269C275.813 346.168 284.569 345.658 293.112 346.481C294.958 346.74 297.018 346.914 298.778 346.958C301.654 347.304 304.659 347.349 307.491 346.964C309.895 346.751 312.427 346.236 314.873 345.507C315.388 345.551 315.603 345.465 315.603 345.465ZM328.604 338.768C328.819 338.682 328.947 338.381 329.162 338.296C330.921 337.093 332.594 335.676 334.138 334.559C335.811 333.142 337.484 331.724 338.943 330.393C340.187 329.147 341.431 327.901 342.46 326.741C342.674 326.656 342.803 326.355 343.104 326.484C343.19 326.699 343.061 327 343.147 327.215C342.848 329.579 343.065 331.986 343.281 334.394C343.626 336.5 343.885 338.392 344.444 340.412C345.477 344.239 346.51 348.065 347.543 351.892C349.565 358.814 351.158 365.908 352.751 373.002C353.827 377.559 354.26 382.374 354.993 387.318C355.467 390.37 355.641 393.293 355.901 396.431C356.075 399.355 355.733 402.235 355.693 405.244C355.651 407.006 355.695 408.983 356.383 410.703C356.169 410.789 355.954 410.875 355.739 410.961C352.993 411.561 350.375 411.86 347.628 412.46C347.413 412.546 347.327 412.331 347.113 412.416C347.027 412.201 346.941 411.986 347.069 411.686C346.854 410.525 346.553 409.149 346.337 407.988C345.389 403.13 344.442 398.272 343.065 393.586C341.258 387.824 339.022 382.234 336.357 376.816C335.11 374.322 333.95 372.043 332.918 369.463C331.628 366.238 330.982 362.756 331.28 359.145C331.407 357.598 331.621 356.266 331.534 354.804C331.704 352.741 331.66 350.763 331.315 348.657C330.927 345.819 330.109 343.154 329.078 340.574C328.948 339.628 328.776 339.198 328.604 338.768ZM354.632 301.173C354.332 301.044 354.332 301.044 354.031 300.915C352.571 299.753 350.854 299.193 349.308 299.063C347.248 298.89 345.187 298.716 343.127 298.543C341.067 298.37 339.178 298.626 337.29 298.883C334.671 299.182 332.139 299.696 329.822 300.124C326.56 300.681 323.47 301.667 320.466 302.869C319.608 303.212 318.75 303.555 318.106 303.813C310.811 306.731 303.515 307.156 295.873 305.474C293.426 304.957 290.979 304.439 288.747 303.836C282.436 302.37 276.383 301.549 270.03 301.845C267.841 301.973 265.352 301.971 263.12 302.614C262.906 302.7 262.82 302.485 262.391 302.657C262.734 302.27 262.776 301.754 263.119 301.368C264.449 299.09 265.95 297.243 267.579 295.095C268.051 294.407 268.48 294.236 269.21 294.193C271.742 293.679 274.36 293.38 276.763 293.167C279.682 292.997 282.729 292.526 285.476 291.926C286.635 291.712 287.579 291.584 288.652 291.155C294.574 289.783 300.454 288.927 306.549 287.986C312.729 287.259 318.739 287.35 324.749 288.686C326.38 289.031 327.797 289.462 329.428 289.807C332.777 290.712 335.911 291.703 339.131 292.909C341.45 293.727 343.983 294.46 346.644 294.891C349.606 295.452 352.783 295.927 355.874 296.187C356.174 296.317 356.603 296.145 356.775 296.575C356.132 298.079 355.49 299.583 354.632 301.173ZM365.341 269.456C364.525 269.284 364.01 269.241 363.281 269.283C361.735 269.153 360.19 269.023 358.43 268.979C353.966 269.019 349.759 268.457 345.637 266.864C344.521 266.562 343.319 266.045 342.117 265.529C337.308 263.462 332.456 261.911 327.39 260.446C326.489 260.059 325.458 259.972 324.428 259.885C321.466 259.324 318.461 259.279 315.457 259.234C313.482 259.276 311.293 259.403 309.491 259.875C305.585 260.689 301.852 261.933 298.505 263.521C294.3 265.453 289.837 266.739 285.201 267.596C284.987 267.682 284.686 267.552 284.472 267.638C284.514 267.122 284.857 266.736 284.986 266.435C287.344 262.998 289.917 259.475 292.963 256.511C294.893 254.492 297.124 252.602 299.612 251.357C304.632 248.351 310.168 246.636 315.834 245.866C320.126 245.396 324.161 245.528 328.239 246.39C333.562 247.254 338.843 248.633 343.78 250.399C346.313 251.131 348.589 252.465 350.865 253.799C352.54 254.875 354.3 256.166 355.975 257.242C359.282 259.909 362.375 262.663 364.781 266.189C364.867 266.404 365.253 266.748 365.339 266.963C365.425 267.178 365.597 267.608 365.469 267.909C365.855 268.253 365.598 268.855 365.341 269.456ZM330.489 333.525C329.674 334.599 328.687 335.243 327.701 335.887C325.599 337.476 323.282 339.151 321.266 340.955C320.708 341.428 320.279 341.599 319.635 341.857C319.206 342.028 318.992 342.114 318.562 342.286C316.417 343.144 313.971 343.873 311.653 344.302C307.662 344.901 303.412 344.855 299.291 344.508C296.716 344.291 294.441 344.204 292.08 343.901C288.173 343.469 284.224 343.552 280.362 343.85C273.065 344.275 266.07 346.076 259.246 348.306C255.942 349.378 252.724 350.666 249.463 352.469C249.248 352.555 249.12 352.856 248.733 352.511C248.733 352.511 248.647 352.296 248.561 352.081C248.772 347.009 249.412 341.765 250.138 336.736C250.352 335.404 250.566 334.072 250.865 332.954C251.509 332.697 252.239 332.654 253.097 332.311C254.47 332.011 255.844 331.711 257.389 331.841C259.449 332.014 261.381 332.489 263.313 332.963C264.644 333.179 265.76 333.48 267.177 333.911C269.839 334.343 272.414 334.56 275.161 333.96C276.534 333.66 277.908 333.36 279.495 332.974C280.869 332.674 282.457 332.288 283.83 331.988C286.148 331.56 288.465 331.132 290.955 331.133C292.715 331.178 294.26 331.308 295.805 331.438C299.411 331.741 302.888 332.345 306.58 332.864C309.456 333.21 312.633 333.685 315.509 334.03C320.231 334.636 325.124 334.424 329.974 333.482C329.974 333.482 330.188 333.396 330.489 333.525ZM327.155 415.412C327.198 414.896 327.026 414.466 327.069 413.95C327.111 413.434 326.939 413.004 326.982 412.488C326.721 408.104 326.246 403.805 325.685 399.291C324.648 390.478 323.398 381.751 321.846 372.894C321.501 370.788 321.07 368.466 320.94 366.274C320.552 363.437 320.378 360.513 320.29 357.805C320.287 352.819 321.528 347.833 322.855 343.063C322.898 342.547 323.327 342.375 323.67 341.989C324.657 341.344 325.429 340.786 326.33 339.927C326.545 339.841 326.673 339.54 326.759 339.755C326.974 340.916 327.404 341.991 327.62 343.152C327.835 344.313 328.351 345.603 328.781 346.678C329.169 348.268 329.342 349.945 329.428 351.407C329.429 352.653 329.43 353.9 329.131 355.017C329.003 356.565 328.875 358.112 328.962 359.574C328.964 362.067 329.266 364.689 329.998 367.14C330.427 368.215 330.643 369.376 331.073 370.451C332.191 373.246 333.523 375.955 334.856 378.664C337.607 384.297 339.929 390.101 341.307 396.035C342.555 401.022 343.675 406.31 344.923 411.297C345.009 411.512 344.794 411.598 344.88 411.813C339.258 413.314 333.379 414.169 327.155 415.412ZM309.687 356.809C309.773 357.024 309.859 357.239 309.731 357.54C309.861 359.732 309.992 361.925 310.551 363.946C311.11 365.966 311.455 368.073 312.015 370.094C312.832 372.759 313.649 375.425 314.252 378.177C315.715 383.078 316.749 388.151 317.267 393.181C317.526 395.072 317.785 396.964 318.044 398.856C318.907 404.745 319.469 410.506 320.76 416.224C320.846 416.439 320.632 416.525 320.718 416.74C320.503 416.826 320.289 416.911 320.074 416.997C315.096 418.24 309.989 419.784 305.097 421.242C303.294 421.714 301.706 422.1 299.99 422.786C299.775 422.872 299.561 422.958 299.26 422.829C299.088 421.152 299.129 419.39 299.257 417.843C299.425 413.286 300.109 408.773 300.793 404.26C301.263 401.079 301.947 397.813 302.417 394.632C303.315 390.033 303.57 385.692 303.524 381.221C303.52 376.235 303.517 371.248 303.942 366.09C303.985 365.574 304.113 365.274 304.37 364.672C305.828 362.094 307.586 359.645 309.344 357.196C309.044 357.067 309.258 356.981 309.687 356.809ZM352.923 311.832C353.095 312.262 353.181 312.477 353.267 312.692C353.268 313.939 353.397 314.885 353.398 316.131C353.528 318.324 353.959 320.645 354.089 322.838C355.082 330.92 356.805 338.959 359.901 346.699C362.481 353.149 364.203 359.942 365.409 366.692C365.84 369.013 366.142 371.635 366.573 373.957C367.306 378.901 368.254 383.759 369.631 388.446C370.706 391.756 371.782 395.067 373.501 398.12C374.704 399.883 375.778 401.947 377.411 403.539C377.497 403.754 377.797 403.883 377.969 404.313C376.382 405.946 364.838 408.818 361.275 409.245C361.189 409.03 361.189 409.03 361.103 408.815C361.102 407.569 360.973 406.623 361.058 405.591C361.27 401.766 361.268 398.026 361.179 394.071C361.219 389.815 361.173 385.345 361.213 381.089C360.951 375.458 360.818 369.525 359.613 364.022C359.138 360.97 358.535 358.218 357.847 355.252C357.114 351.555 356.167 347.943 355.135 344.117C353.757 338.184 352.508 331.95 352.074 325.888C351.771 322.019 351.468 318.15 351.98 314.454C351.765 313.293 352.237 312.606 352.923 311.832ZM247.063 419.268C247.191 418.967 247.406 418.881 247.406 418.881C248.178 418.323 248.95 417.765 249.637 416.992C252.94 414.673 256.544 412.483 260.148 410.293C263.752 408.103 267.657 406.042 271.175 403.638C273.921 401.791 276.881 399.859 279.455 397.582C279.669 397.497 280.013 397.11 280.227 397.024C280.442 396.938 280.442 396.938 280.656 396.852C280.528 397.153 280.614 397.368 280.485 397.669C280.185 398.786 279.886 399.904 279.586 401.021C278.858 403.557 278.431 406.222 278.003 408.887C277.578 414.045 277.453 419.332 277.843 424.663C277.929 424.878 277.8 425.178 277.886 425.393C277.371 425.35 276.856 425.307 276.341 425.263C271.49 424.959 266.768 424.354 262.217 422.932C257.452 421.596 252.386 420.131 247.492 419.096C247.664 419.526 247.449 419.612 247.063 419.268ZM288.546 385.466C288.504 385.982 288.375 386.283 287.946 386.455C286.573 388.001 285.201 389.548 283.743 390.879C281.941 392.598 279.925 394.402 277.823 395.991C275.377 397.966 272.632 399.813 269.8 401.444C269.242 401.917 268.47 402.475 267.74 402.518C264.865 403.418 261.818 403.889 258.856 403.328C257.825 403.242 256.709 402.94 255.679 402.853C253.318 402.551 251.043 402.463 248.725 402.891C248.511 402.977 248.296 403.063 248.21 402.848C248.124 402.633 248.253 402.332 248.253 402.332C248.937 399.066 249.321 395.67 249.405 392.145C249.319 391.93 249.447 391.629 249.662 391.544C250.305 391.286 251.035 391.244 251.893 390.9C254.554 390.086 257 389.356 259.747 388.757C261.549 388.285 263.438 388.028 265.498 388.202C267.473 388.16 269.319 388.419 271.293 388.378C275.929 388.768 280.65 388.126 285.027 386.625C285.886 386.281 287.044 386.067 287.903 385.724C288.031 385.423 288.246 385.337 288.546 385.466ZM298.365 369.568C298.236 369.869 298.107 370.17 297.979 370.471C296.607 373.264 294.935 375.928 293.564 378.721C292.835 380.01 291.891 381.385 291.163 382.674C290.819 383.061 290.691 383.362 290.176 383.318C287.73 384.047 285.37 384.991 282.923 385.72C279.834 386.707 276.7 386.963 273.524 386.488C272.193 386.272 271.163 386.185 269.832 385.969C268.802 385.883 267.986 385.71 266.956 385.624C261.204 384.932 255.796 386.347 250.776 389.352C250.562 389.438 250.347 389.524 250.347 389.524C250.261 389.309 250.261 389.309 250.261 389.309C250.173 386.601 250.386 384.022 250.298 381.313C250.212 381.098 250.427 381.013 250.341 380.798C251.414 380.368 252.272 380.025 253.431 379.811C255.362 379.039 257.164 378.567 259.353 378.44C261.757 378.226 264.16 378.013 266.865 377.929C268.624 377.973 270.513 377.716 272.187 377.546C275.835 377.333 279.44 376.39 282.873 375.017C286.52 373.558 290.254 372.314 293.987 371.07C295.361 370.77 296.648 370.255 297.935 369.74C297.506 369.912 297.935 369.74 298.365 369.568ZM337.095 327.64C336.967 327.941 336.967 327.941 336.967 327.941C335.851 328.886 335.036 329.96 333.921 330.905C333.793 331.206 333.277 331.163 333.063 331.249C332.333 331.291 331.604 331.333 330.96 331.591C326.11 332.533 321.346 332.444 316.409 331.925C313.533 331.579 310.657 331.233 307.695 330.672C304.819 330.326 302.157 329.895 299.195 329.334C296.018 328.859 292.627 328.469 289.408 328.51C287.133 328.423 284.729 328.636 282.283 329.365C280.91 329.665 279.837 330.094 278.464 330.394C276.661 330.866 274.859 331.337 272.756 331.68C270.867 331.936 269.107 331.892 267.261 331.633C266.145 331.331 265.029 331.03 263.999 330.943C262.367 330.598 260.521 330.339 258.89 329.994C256.443 329.476 254.04 329.689 251.808 330.333C251.593 330.418 251.507 330.204 251.293 330.289C251.378 329.258 251.678 328.14 252.063 327.238C252.278 327.152 252.578 327.281 253.008 327.11C255.712 327.025 258.33 326.726 261.034 326.642C265.197 326.473 269.103 325.659 272.879 323.899C274.381 323.299 275.883 322.698 277.471 322.312C279.702 321.669 281.977 321.756 284.338 322.059C285.97 322.404 287.386 322.835 288.803 323.265C290.821 323.955 292.538 324.515 294.556 325.204C297.089 325.936 299.751 326.368 302.455 326.284C303.399 326.156 304.129 326.113 305.073 325.985C306.318 325.986 307.477 325.772 308.721 325.772C310.61 325.516 312.67 325.689 314.302 326.034C315.632 326.25 317.049 326.681 318.681 327.026C320.312 327.371 321.729 327.802 323.36 328.147C327.653 328.924 331.902 328.969 336.151 327.769C336.58 327.597 336.881 327.726 337.095 327.64ZM297.211 377.262C297.297 377.477 297.383 377.692 297.254 377.993C297.212 378.509 297.041 379.325 296.998 379.841C296.573 384.999 295.546 389.899 294.004 394.755C293.019 397.893 292.162 400.729 291.177 403.866C290.45 406.402 289.722 408.938 289.208 411.388C288.224 415.772 287.755 420.199 287.801 424.669C287.887 424.884 287.673 424.97 287.759 425.185C286.686 425.614 285.441 425.614 281.793 425.826C281.277 425.783 280.848 425.954 280.462 425.61C280.504 425.094 280.547 424.578 280.375 424.148C280.287 421.44 280.199 418.732 280.112 416.024C279.809 412.155 280.02 408.329 280.962 404.461C281.047 403.43 281.433 402.527 281.518 401.496C281.903 399.346 282.288 397.197 282.758 395.263C282.887 394.963 283.016 394.662 283.23 394.576C284.131 393.717 285.246 392.772 286.061 391.698C288.206 389.593 290.264 387.273 292.023 384.824C293.652 382.676 294.981 380.399 296.31 378.121C296.439 377.82 296.567 377.52 297.211 377.262ZM422.018 355.769C421.631 355.425 421.631 355.425 421.545 355.21C420.729 353.791 419.697 352.458 418.666 351.124C418.28 350.78 418.108 350.35 418.022 350.135C417.205 348.716 416.475 347.512 415.444 346.179C413.983 343.77 412.521 341.362 410.974 338.739C408.997 335.041 407.149 331.042 405.601 327.172C403.279 321.367 400.614 315.949 397.09 310.874C395.973 309.326 394.642 307.863 393.31 306.401C391.119 304.035 388.628 301.54 386.223 299.26C383.517 296.851 380.897 294.657 378.063 292.549C376.001 291.129 374.026 289.924 371.965 288.504C369.603 286.955 367.584 285.019 365.78 282.997C364.663 281.449 364.62 281.965 365.177 280.246C365.305 279.945 365.133 279.515 365.563 279.343L365.863 279.473C366.422 280.247 367.195 280.935 367.753 281.709C370.503 284.849 373.595 287.602 376.816 290.055C378.963 291.69 381.325 293.239 383.473 294.874C387.767 298.144 391.933 301.715 395.628 305.973C397.432 307.994 399.108 310.317 400.912 312.338C403.747 315.693 405.939 319.306 408.002 323.219C409.721 326.272 411.44 329.325 413.159 332.378C414.964 335.647 417.112 338.528 419.69 341.238C421.322 342.83 422.868 344.206 424.757 345.196C424.757 345.196 424.843 345.411 425.144 345.541C424.674 348.721 423.56 352.159 422.018 355.769ZM350.008 316.989C350.094 317.204 349.965 317.505 350.051 317.72C350.009 319.482 349.968 321.244 349.926 323.007C349.971 326.231 350.445 329.283 350.92 332.335C351.782 338.225 353.16 344.158 354.538 350.091C355.7 354.864 356.862 359.636 357.724 364.279C359.017 371.244 359.365 378.337 359.627 385.215C359.632 391.448 359.851 397.595 359.855 403.828C359.813 405.59 359.772 407.353 360.245 409.158C360.245 409.158 360.331 409.373 360.117 409.459C359.687 409.631 358.958 409.673 358.529 409.845C358.314 409.931 357.799 409.888 357.584 409.973C357.498 409.758 357.412 409.543 357.541 409.243C357.411 407.05 357.581 404.987 357.751 402.924C358.049 399.313 358.347 395.702 358.13 392.048C358.042 389.34 357.654 386.503 357.352 383.881C356.359 375.798 354.851 367.673 352.913 359.719C351.751 354.947 350.374 350.26 348.998 345.574C348.137 342.177 347.19 338.566 346.329 335.169C345.425 331.042 345.551 327.001 346.106 322.789C346.234 322.488 346.363 322.188 346.491 321.887C347.563 320.211 348.721 318.75 349.793 317.075C349.579 317.16 349.579 317.16 350.008 316.989ZM320.282 345.339C320.239 345.855 320.024 345.941 319.896 346.242C319.468 347.66 318.911 349.379 318.697 350.711C317.842 354.795 317.716 358.835 317.89 363.005C318.236 366.358 318.882 369.84 319.528 373.323C320.045 375.859 320.562 378.396 321.079 380.932C322.717 390.004 324.139 399.161 325.262 408.189C325.392 410.381 325.737 412.488 325.953 414.895C326.039 415.11 326.039 415.11 325.911 415.411C324.838 415.84 323.894 415.968 322.735 416.182C322.649 415.967 322.563 415.752 322.477 415.537C322.175 412.915 321.572 410.163 321.269 407.541C320.794 403.242 320.233 398.728 319.758 394.429C319.197 389.915 318.55 385.186 317.259 380.715C316.441 378.049 315.924 375.513 315.107 372.847C314.332 369.665 313.257 366.355 312.697 363.087C312.094 360.336 311.705 357.498 311.746 354.489C311.703 353.759 312.046 353.372 312.303 352.77C314.362 350.45 316.635 348.045 318.994 345.854C319.423 345.682 319.638 345.597 320.282 345.339ZM278.727 278.166C278.77 277.65 278.898 277.349 279.113 277.263C279.842 275.974 280.699 274.384 281.428 273.095C282.028 272.107 282.628 271.119 283.014 270.216C283.271 269.615 283.915 269.357 284.344 269.186C284.773 269.014 285.074 269.143 285.503 268.972C290.868 268.072 295.974 266.529 300.823 264.34C304.385 262.666 307.99 261.722 311.853 261.424C316.359 260.868 320.781 261.344 325.074 262.121C325.889 262.294 326.404 262.337 327.306 262.724C329.839 263.457 332.458 264.404 334.862 265.438C337.567 266.6 340.272 267.763 342.891 268.71C348.215 270.82 353.625 271.899 359.247 271.645C360.707 271.56 362.08 271.26 363.539 271.175C363.754 271.089 364.269 271.132 364.698 270.961C364.613 271.992 364.227 272.895 363.756 273.582C362.296 273.667 360.837 273.752 359.378 273.837C358.133 273.836 357.189 273.964 355.944 273.964C353.755 274.091 351.694 273.918 349.677 273.228C347.358 272.41 344.911 271.893 342.593 271.074C340.575 270.385 338.771 269.61 336.882 268.62C334.993 267.63 332.975 266.941 330.828 266.553C325.548 265.173 320.096 264.611 314.645 265.295C309.624 265.807 304.559 266.835 299.753 268.509C294.432 270.138 289.368 272.413 284.692 275.032C282.847 276.019 281.302 277.136 279.457 278.123C279.371 277.908 279.157 277.994 278.727 278.166ZM289.432 425.014C289.561 424.714 289.389 424.284 289.518 423.983C289.645 422.435 289.773 420.888 290.115 419.255C290.328 416.676 290.841 414.226 291.569 411.69C292.683 408.252 293.496 404.685 294.609 401.247C295.295 399.227 295.98 397.207 296.666 395.187C298.036 391.147 298.677 387.15 299.146 382.723C299.403 380.874 299.444 379.112 299.701 377.264C299.786 376.232 299.871 375.201 299.527 374.341C299.269 373.696 299.311 373.18 299.655 372.793C300.255 371.805 300.855 370.817 301.455 369.828C301.584 369.528 301.798 369.442 302.141 369.055C302.099 369.571 302.271 370.001 302.142 370.302C301.93 372.881 301.845 375.159 301.847 377.652C301.848 378.899 301.849 380.145 301.978 381.091C302.153 385.261 301.726 389.172 300.656 393.341C300.528 393.642 300.485 394.158 300.443 394.674C299.887 397.639 299.116 400.691 298.56 403.657C297.234 409.674 297.238 415.907 297.758 422.183C297.715 422.699 297.887 423.129 297.844 423.645C296.772 424.074 294.969 424.545 291.493 425.188C290.591 424.8 290.162 424.972 289.432 425.014ZM368.646 269.631C370.02 269.331 371.393 269.031 372.981 268.645C375.212 268.002 377.487 268.089 379.548 268.263C384.484 268.782 389.035 270.204 393.287 272.743C397.237 275.153 400.416 278.121 403.68 281.304C403.766 281.519 403.766 281.519 404.153 281.863C403.852 281.734 403.551 281.605 403.551 281.605C401.362 280.486 399.258 279.582 396.853 278.548C395.651 278.032 394.234 277.601 392.903 277.385C391.058 277.126 389.212 276.867 387.366 276.607C382.129 275.959 376.892 275.311 371.654 274.662C370.624 274.576 369.508 274.274 368.606 273.886C368.306 273.757 367.791 273.714 367.619 273.284C367.832 271.951 368.347 270.748 368.646 269.631ZM302.352 362.736C302.223 363.037 302.223 363.037 302.223 363.037C301.966 363.639 301.494 364.326 301.151 364.713C300.551 365.701 300.079 366.389 299.006 366.818C297.591 367.633 296.089 368.234 294.801 368.749C292.999 369.221 291.411 369.606 289.609 370.078C286.733 370.979 283.858 371.88 281.069 372.995C278.408 373.81 275.533 374.711 272.614 374.881C270.425 375.008 268.537 375.265 266.348 375.392C264.373 375.434 262.184 375.561 260.296 375.818C256.948 376.16 253.858 377.146 250.812 378.864C250.597 378.949 250.383 379.035 250.168 379.121C250.039 378.175 249.995 377.444 250.166 376.628C250.381 376.542 250.596 376.456 250.81 376.37C254.672 374.825 258.406 373.581 262.483 373.197C263.942 373.112 265.316 372.812 266.56 372.813C268.75 372.686 270.981 372.043 273.084 371.7C276.474 370.843 279.993 369.685 283.212 368.397C286.859 366.938 290.378 365.78 294.37 365.181C296.902 364.667 299.219 364.239 301.579 363.295C301.493 363.08 301.923 362.908 302.352 362.736ZM263.707 404.879C263.579 405.18 263.364 405.266 263.235 405.567C261.176 406.64 259.331 407.627 257.357 408.915C255.384 410.204 253.11 411.363 251.136 412.651C249.377 413.853 247.618 415.056 246.159 416.387C245.945 416.473 245.816 416.774 245.516 416.645C245.43 416.43 245.558 416.129 245.472 415.914C246.157 412.648 246.97 409.08 247.654 405.814C247.783 405.513 247.783 405.513 247.911 405.212C249.07 404.998 250.229 404.784 251.173 404.656C251.903 404.613 252.633 404.571 253.362 404.528C255.122 404.572 257.183 404.746 259.029 405.005C260.273 405.006 261.604 405.222 262.763 405.007C263.192 404.836 263.407 404.75 263.707 404.879Z" fill="#286435" />
        <path d="M307.574 218.994C306.371 217.231 305.168 215.468 303.75 213.79C300.743 210.005 297.736 206.22 294.728 202.436C287.296 193.188 280.078 183.855 272.861 174.522C264.74 163.555 256.148 153.276 247.685 142.695C244.678 138.91 241.113 135.598 237.205 132.672C236.131 131.855 234.843 131.123 233.555 130.391C232.266 129.66 230.978 128.928 229.433 128.798C228.617 128.625 227.802 128.453 226.771 128.366C224.282 128.365 222.609 129.782 222.611 132.275C222.697 132.49 222.568 132.791 222.654 133.006C222.655 134.253 223.085 135.327 223.3 136.488C224.462 140.014 226.052 143.368 227.557 146.507C231.339 153.473 236.194 160.011 241.392 166.161C245.945 171.323 250.627 176.183 255.309 181.044C259.605 185.561 264.33 189.906 269.183 193.95C273.735 197.865 278.288 201.779 282.712 205.995C289.37 212.061 296.37 217.74 304.185 222.345C304.486 222.474 304.572 222.689 304.443 222.99C304.014 223.161 303.585 223.333 303.07 223.29C301.697 223.59 300.023 223.76 298.65 224.06C292.555 225.002 286.461 225.943 280.28 226.67C273.885 227.482 267.404 228.08 260.837 228.462C259.163 228.633 259.163 228.633 257.917 227.385C257.531 227.041 257.445 226.826 257.273 226.396C256.542 225.192 255.812 223.988 255.081 222.784C252.847 219.687 251.042 216.419 249.666 212.979C248.118 209.109 246.785 205.154 245.237 201.284C242.183 193.028 238.829 184.644 235.561 176.474C233.412 171.099 230.618 165.982 227.61 160.95C224.688 156.134 221.679 151.102 218.543 146.372C216.222 143.06 213.902 139.749 211.368 136.523C208.36 132.738 205.224 129.254 201.531 126.242C200.071 125.081 198.61 123.919 196.936 122.843C195.046 121.853 193.157 120.863 190.924 120.26C189.808 119.958 188.864 120.087 187.834 120C186.16 120.171 184.959 120.901 184.316 122.405C184.059 123.006 183.802 123.608 183.544 124.21C183.331 125.542 183.117 126.875 183.332 128.035C183.72 129.626 184.021 131.002 184.409 132.593C185.914 136.978 187.763 140.977 190.126 145.02C193.822 151.771 197.862 158.136 202.116 164.415C207.401 172.027 212.471 179.725 217.112 187.595C219.948 192.196 222.698 196.583 225.964 201.012C232.494 209.872 239.711 217.959 248.515 224.413C250.276 225.703 252.037 226.994 254.226 228.113C254.226 228.113 254.527 228.243 254.613 228.458C254.398 228.543 254.184 228.629 253.969 228.715C248.561 228.883 243.153 229.051 237.745 229.22C233.495 229.174 228.945 228.999 224.696 228.953C220.146 228.778 215.81 228.517 211.389 228.041C210.058 227.825 208.599 227.91 207.182 227.479C206.324 227.822 206.066 227.177 205.894 226.747C204.991 225.113 203.96 223.78 203.057 222.146C202.885 221.716 202.413 221.157 202.241 220.727C198.545 213.975 195.406 206.752 192.783 199.571C191.579 196.561 190.589 193.465 189.3 190.241C186.892 184.221 184.57 178.416 181.947 172.482C178.937 164.958 175.927 157.433 172.703 149.994C170.51 145.135 168.532 140.19 166.125 135.417C162.988 129.44 159.421 123.634 154.996 118.172C152.075 114.602 149.025 111.333 145.203 108.622C144.129 107.805 142.841 107.073 141.553 106.341C140.35 105.825 139.148 105.308 137.903 105.307C135.328 105.091 133.14 106.465 132.111 108.871C131.726 109.774 131.426 110.891 131.427 112.138C131.257 115.447 131.904 118.93 132.679 122.111C133.539 125.508 135.13 128.862 136.849 131.915C139.557 136.817 142.479 141.634 145.744 146.064C149.912 152.128 154.208 157.891 158.376 163.955C161.985 169.244 165.38 174.62 168.346 180.167C171.225 185.5 173.804 190.703 176.684 196.035C178.833 200.163 181.197 204.206 183.775 208.162C188.459 215.516 194.515 221.323 201.687 226.186C201.987 226.315 202.073 226.53 202.374 226.659C201.73 226.917 201.43 226.787 200.914 226.744C194.046 225.751 187.178 224.757 180.352 223.248C176.273 222.385 172.195 221.523 168.031 220.445C166.914 220.144 166.227 219.67 165.583 218.681C165.497 218.466 165.325 218.036 165.024 217.907C164.38 216.918 163.95 215.843 163.391 215.069C159.954 210.209 156.946 205.178 154.367 199.974C151.444 193.911 148.306 187.934 145.726 181.484C144.006 177.185 142.415 172.584 140.909 168.198C137.856 159.943 135.017 151.601 131.964 143.346C129.942 137.67 127.792 132.296 124.999 127.178C122.248 121.545 119.154 116.299 115.845 111.138C114.47 108.945 112.58 106.708 110.647 104.988C109.788 104.084 108.714 103.267 107.64 102.449C106.18 101.288 104.463 100.728 102.703 100.683C100.642 100.51 98.7974 101.497 98.1121 103.517C97.8549 104.119 97.6838 104.936 97.7272 105.666C97.7281 106.913 97.729 108.16 97.8159 109.621C98.205 113.705 99.1093 117.832 100.443 121.788C102.12 126.604 104.012 131.334 106.333 135.892C113.984 151.286 121.421 166.766 129.201 181.86C131.522 186.418 134.057 190.89 136.378 195.448C137.367 197.298 138.484 198.846 139.601 200.394C142.48 204.48 145.788 208.394 149.696 211.32C152.316 213.514 155.064 215.407 157.899 217.515C158.199 217.644 158.5 217.774 158.672 218.204C158.457 218.289 158.457 218.289 158.457 218.289C156.225 217.686 153.692 216.954 151.373 216.135C151.073 216.006 150.772 215.877 150.472 215.748C145.19 213.122 139.823 210.281 135.142 206.667C134.755 206.323 134.154 206.064 133.767 205.72C123.761 198.75 114.012 191.177 104.821 183.133C99.1087 178.185 93.0958 173.109 87.3835 168.161C76.1309 158.697 64.1061 149.79 51.6956 141.786C46.7573 138.774 41.6044 135.847 36.2804 133.737C35.3787 133.349 34.2625 133.048 33.3608 132.66C32.7597 132.402 32.0301 132.444 31.5149 132.401C29.5405 132.443 27.7815 133.645 27.9118 135.838C27.8266 136.869 28.1707 137.729 28.3001 138.675C28.6875 140.266 29.504 141.685 30.2346 142.889C31.9537 145.942 33.8013 148.694 35.9495 151.576C40.1599 157.124 44.928 162.2 50.3397 167.018C55.2789 171.277 60.3467 175.235 65.629 179.108C76.4941 186.982 87.745 193.953 99.9392 199.55C108.527 203.597 117.243 207.342 125.873 210.873C134.804 214.533 144.077 217.807 153.308 220.349C156.957 221.383 160.306 222.288 163.955 223.323C164.255 223.452 164.47 223.366 164.771 223.495C164.771 223.495 164.857 223.71 164.943 223.925C163.998 224.053 163.269 224.096 162.453 223.923C160.178 223.836 157.688 223.834 155.413 223.747C149.919 223.7 144.296 223.954 138.974 224.337C129.789 225.018 120.69 225.915 111.462 227.112C106.955 227.668 102.449 228.224 97.9423 228.779C96.2684 228.95 94.5945 229.121 92.792 229.592C89.2297 230.02 85.4528 230.533 81.9764 231.175C77.9849 231.774 73.9935 232.374 69.7874 233.058C66.0965 233.787 62.3196 234.3 58.6287 235.028C54.7232 235.842 50.8177 236.656 46.7837 237.771C45.6249 237.985 44.5521 238.414 43.4794 238.843C42.8357 239.101 42.192 239.358 41.4198 239.917C40.0899 240.947 40.0907 242.194 41.0358 243.312C41.4224 243.656 41.8089 244.001 42.1955 244.345C42.7966 244.603 43.2692 245.162 43.8703 245.421C45.0725 245.937 45.9742 246.325 47.1764 246.841C50.9116 248.091 54.6894 248.824 58.6817 249.472C63.9189 250.12 69.07 250.553 74.2211 250.987C77.8269 251.29 81.5613 251.293 85.2096 251.08C94.9959 250.657 104.61 249.804 114.31 247.919C119.374 246.891 124.138 245.734 129.116 244.491C136.24 242.389 143.277 240.073 150.015 237.627C156.537 235.268 163.146 233.123 169.841 231.193C173.446 230.25 176.836 229.393 180.183 227.804C180.827 227.547 181.342 227.59 181.857 227.634C183.789 228.108 185.635 228.367 187.481 228.626C196.153 230.395 205.081 231.561 213.838 232.298C214.053 232.212 214.139 232.427 214.654 232.471C214.225 232.642 214.01 232.728 213.796 232.814C210.405 233.671 206.714 234.4 203.324 235.257C196.672 236.671 190.192 238.515 183.497 240.445C176.802 242.374 170.194 244.519 163.627 246.148C157.576 247.82 151.311 249.578 145.174 251.036C135.303 253.737 125.819 256.783 116.465 260.774C110.457 263.177 104.922 266.139 99.3445 269.617C97.3709 270.905 95.2687 272.494 93.3812 273.998C92.4804 274.857 91.5796 275.716 90.7648 276.79C90.0785 277.563 89.4783 278.552 89.3932 279.583C89.0509 281.216 89.5669 282.506 90.7266 283.539C91.4137 284.012 92.3154 284.4 93.131 284.572C94.4618 284.788 95.7926 285.004 97.0374 285.005C101.587 285.18 106.094 284.624 110.429 283.638C115.192 282.481 119.87 281.109 124.462 279.521C133.645 276.347 142.442 272.828 151.367 269.008C159.864 265.36 168.231 262.013 176.728 258.365C185.009 254.803 193.42 250.94 201.444 246.733C205.348 244.672 209.253 242.612 213.458 240.68C218.864 238.019 224.228 235.873 229.635 233.212C230.279 232.954 230.794 232.998 231.523 232.955C234.829 233.129 238.262 233.003 241.568 233.177C246.847 233.31 251.955 233.012 257.363 232.844C263.201 232.504 269.253 232.078 275.004 231.524C276.678 231.353 278.137 231.268 279.811 231.097C280.026 231.011 280.24 230.925 280.627 231.27C280.412 231.355 280.284 231.656 279.854 231.828C277.666 233.202 275.779 234.705 273.591 236.079C266.94 239.986 260.504 243.808 253.854 247.715C244.715 252.867 235.576 258.019 226.523 263.386C218.671 268.023 210.905 272.875 202.925 277.813C195.288 282.364 187.436 287.001 179.885 291.768C175.723 294.43 171.261 296.963 167.271 300.055C165.512 301.258 164.053 302.589 162.595 303.921C161.909 304.694 161.351 305.167 160.665 305.94C160.193 306.627 159.936 307.229 159.679 307.831C159.379 308.948 159.723 309.808 160.711 310.411C161.097 310.755 161.698 311.013 162.214 311.056C163.33 311.358 164.575 311.359 165.605 311.446C168.523 311.276 171.571 310.805 174.317 310.205C178.437 309.305 182.171 308.061 186.033 306.516C196.847 302.44 207.231 297.289 217.185 291.063C224.607 286.597 231.557 281.573 238.507 276.548C248.117 269.462 257.555 261.946 266.134 253.526C269.737 250.09 273.469 246.353 276.6 242.357C279.259 239.049 281.831 235.526 284.018 231.659C284.404 230.756 285.176 230.198 286.12 230.07C288.009 229.813 289.897 229.557 291.571 229.386C295.562 228.787 299.554 228.188 303.545 227.589C308.481 226.861 313.331 225.919 318.18 224.977C322.816 224.12 327.665 223.178 332.214 222.106C337.493 220.992 379.294 211.005 384.573 209.891C390.28 208.606 396.203 207.234 401.825 205.733C408.82 203.933 415.815 202.132 422.682 200.632C424.27 200.247 425.643 199.947 427.145 199.346C427.574 199.174 428.004 199.003 428.647 198.745C429.291 198.488 429.033 197.843 428.646 197.499C428.045 197.24 427.444 196.982 426.929 196.939C426.199 196.981 425.169 196.894 424.439 196.937C420.362 197.321 416.284 197.705 412.379 198.519C406.886 199.719 401.392 200.919 395.77 202.419C391.436 203.405 387.101 204.391 382.767 205.376C378.861 206.19 338.434 215.877 334.314 216.777C330.408 217.591 326.503 218.405 322.597 219.219C319.121 219.862 315.645 220.504 312.168 221.147C311.01 221.361 309.851 221.575 308.563 220.843C308.391 220.413 307.918 219.854 307.574 218.994ZM151.016 196.576C150.63 196.232 150.243 195.888 150.5 195.286C149.985 195.243 150.028 194.727 149.942 194.512C149.125 193.093 148.437 191.373 147.621 189.954C146.46 187.675 145.6 185.525 144.44 183.246C141.989 177.742 139.023 172.195 135.929 166.948C131.202 158.864 126.689 150.693 122.177 142.522C119.641 138.05 117.534 133.406 115.428 128.762C113.407 124.333 111.387 119.904 108.937 115.647C107.863 113.583 106.574 111.605 105.07 109.712C104.511 108.938 103.867 107.949 103.308 107.175C102.277 105.841 101.547 104.637 100.516 103.304C100.43 103.089 100.773 102.702 100.987 102.617C101.33 102.23 101.76 102.058 102.275 102.102C102.79 102.145 103.305 102.188 103.906 102.447C105.022 102.748 105.924 103.136 106.697 103.824C107.771 104.642 108.93 105.674 109.789 106.577C111.422 108.169 112.839 109.846 114.128 111.825C120.444 120.77 125.345 130.532 129.172 140.722C131.021 145.968 132.656 151.299 135.021 156.588C136.827 161.103 138.632 165.617 140.224 170.218C141.299 173.529 142.503 176.539 143.793 179.764C145.557 184.794 147.878 189.352 150.07 194.211C150.242 194.641 150.414 195.071 150.672 195.716C150.672 195.716 150.844 196.146 151.016 196.576C151.317 196.705 151.188 197.006 151.274 197.221C151.274 197.221 151.489 197.135 151.575 197.35C151.575 197.35 151.489 197.135 151.274 197.221C151.188 197.006 151.102 196.791 151.016 196.576ZM151.876 198.726C151.962 198.941 151.962 198.941 151.962 198.941L151.876 198.726ZM295.461 207.379C294.946 207.336 294.946 207.336 294.688 206.691C294.173 206.648 294.087 206.433 293.701 206.089C292.369 204.626 291.037 203.164 289.405 201.572C283.864 195.808 278.237 189.829 272.696 184.065C265.264 176.065 257.919 168.279 250.616 159.978C250.058 159.203 249.284 158.515 248.64 157.526C244.215 152.064 239.876 146.816 235.666 141.268C234.634 139.935 233.517 138.387 232.486 137.053C231.283 135.29 229.866 133.613 228.662 131.849C228.576 131.634 228.576 131.634 228.404 131.204C228.92 131.248 229.134 131.162 229.22 131.377C230.723 132.023 232.226 132.669 233.6 133.615C237.937 136.369 241.588 139.897 244.896 143.811C246.228 145.273 247.431 147.037 248.762 148.499C255.249 156.628 261.651 164.542 268.009 172.971C272.22 178.52 276.516 184.283 280.941 189.745C285.065 195.078 289.404 200.326 293.829 205.788C294.216 206.132 294.602 206.476 294.56 206.992C295.203 206.735 295.375 207.164 295.461 207.379ZM127.931 207.307C127.931 207.307 128.017 207.522 127.931 207.307C127.802 207.608 128.017 207.522 127.931 207.307C127.802 207.608 127.716 207.393 127.931 207.307C127.416 207.263 126.901 207.22 126.6 207.091C116.253 203 106.12 198.823 96.0294 194.131C86.1536 189.353 76.7495 183.887 67.7311 177.519C62.8354 173.99 57.9396 170.462 53.0864 166.418C47.0736 161.342 41.7044 156.008 36.9354 149.685C34.9592 147.234 33.3262 144.396 31.6931 141.557C30.8765 140.138 30.2745 138.633 29.9731 137.257C29.8011 136.828 29.8437 136.312 30.1008 135.71C30.4013 135.839 30.4014 135.839 30.7019 135.968C31.389 136.442 32.1621 137.13 33.0638 137.518C37.5295 139.971 41.6096 143.327 45.2606 146.854C48.9976 150.596 52.52 154.425 56.257 158.167C58.4477 160.533 60.6385 162.899 62.8292 165.264C68.3704 171.028 74.2973 175.89 80.8678 180.494C87.3523 184.883 93.9654 188.971 101.136 192.587C103.627 193.835 106.117 195.084 108.608 196.332C111.184 197.795 113.76 199.259 116.337 200.722C119.901 202.788 123.465 204.853 127.029 206.919C127.244 206.833 127.759 206.877 127.931 207.307C127.716 207.393 127.716 207.393 127.931 207.307ZM241.94 213.576C239.835 211.425 237.945 209.188 236.055 206.952C230.384 200.242 225.185 192.845 220.63 185.19C217.708 180.373 214.7 175.342 211.563 170.611C209.243 167.3 206.923 163.988 204.603 160.677C200.521 154.828 196.739 149.108 193.301 143.001C190.938 138.959 188.875 135.046 187.369 130.66C187.025 129.8 186.681 128.94 186.638 128.21C186.508 127.264 186.379 126.318 186.249 125.372C186.292 124.856 186.335 124.341 186.377 123.825C186.763 122.922 187.535 122.364 188.479 122.236C188.994 122.279 189.209 122.193 189.509 122.322C190.239 122.28 190.84 122.538 191.184 123.398C191.356 123.828 191.743 124.172 191.915 124.602C195.008 128.602 198.402 132.731 201.495 136.731C204.503 140.516 207.209 144.172 210.217 147.957C214.814 153.849 218.638 160.299 222.034 166.922C225.085 172.684 227.579 178.919 229.773 185.024C231.45 189.84 233.342 194.57 235.02 199.385C236.783 204.416 239.405 209.103 242.455 213.619C242.541 213.834 242.928 214.178 243.014 214.393C243.014 214.393 242.799 214.479 242.885 214.694C242.713 214.264 242.327 213.92 241.94 213.576ZM140.511 212.001C138.922 211.14 137.333 210.279 135.53 209.504C130.162 206.664 125.138 203.436 119.899 200.294C113.887 196.465 107.618 193.236 101.134 190.094C98.1289 188.802 95.2519 187.21 92.1603 185.703C86.4924 182.733 81.1675 179.376 75.9712 175.719C70.9894 171.976 66.2648 167.631 62.1838 163.029C57.8023 158.297 53.6353 153.48 49.0393 148.834C46.462 146.124 43.7561 143.715 40.8357 141.392C39.3754 140.23 37.7007 139.154 36.2405 137.993C35.9399 137.863 35.6393 137.734 35.4674 137.304C35.9825 137.348 36.283 137.477 36.8841 137.735C41.0059 139.328 44.7846 141.308 48.5632 143.288C55.906 147.334 62.9916 151.982 69.7342 157.016C76.7772 162.179 83.3912 167.514 90.0912 173.064C95.4169 177.667 100.871 181.969 106.197 186.572C111.437 190.961 116.891 195.263 122.474 199.265C124.621 200.9 127.069 202.664 129.431 204.213C131.492 205.633 133.554 207.053 135.615 208.473C137.29 209.549 138.964 210.624 140.639 211.7C141.026 212.044 141.627 212.303 141.927 212.432C141.927 212.432 141.713 212.518 141.799 212.733C141.412 212.388 140.897 212.345 140.511 212.001ZM43.6965 242.497C46.7446 243.273 49.8353 243.533 52.84 243.578C54.8145 243.537 56.6603 243.796 58.6348 243.754C63.3994 243.844 68.2065 243.417 72.7131 242.861C78.1639 242.177 83.7433 241.192 89.0221 240.078C93.3567 239.093 97.7773 238.322 102.112 237.336C105.803 236.608 109.408 235.665 113.099 234.937C115.845 234.337 118.893 233.866 121.725 233.481C124.987 232.925 128.335 232.583 131.597 232.026C133.7 231.684 135.803 231.342 137.777 231.3C143.013 230.702 148.164 229.889 153.228 228.86C157.133 228.046 161.039 227.232 164.944 226.418C166.318 226.118 167.906 225.733 169.451 225.863C170.181 225.82 170.91 225.778 171.854 225.649C172.799 225.521 173.915 225.823 174.817 226.21C174.688 226.511 174.259 226.683 174.044 226.768C172.886 226.983 171.512 227.283 170.353 227.497C162.328 229.211 154.56 231.569 146.75 234.444C139.584 237.061 132.332 239.464 125.208 241.565C120.315 243.023 115.552 244.18 110.702 245.123C105.852 246.065 100.917 246.793 95.8949 247.305C92.7617 247.561 89.7144 248.031 86.4952 248.072C80.2287 248.584 73.7043 248.45 67.3083 248.016C62.3718 247.497 57.2207 247.063 52.4126 246.243C49.4505 245.682 46.617 244.821 43.912 243.658C43.3109 243.4 42.7957 243.357 42.5377 242.712C43.1814 242.454 43.396 242.368 43.6965 242.497ZM196.914 214.877C196.098 213.458 195.067 212.125 194.25 210.706C192.144 207.308 189.824 203.997 187.719 200.599C184.754 196.299 182.433 191.74 180.669 186.71C180.024 184.474 179.164 182.324 178.519 180.088C174.819 168.351 169.489 157.514 162.957 147.408C158.832 140.828 154.278 134.42 149.723 128.012C146.114 122.722 142.29 117.518 138.252 112.4C137.307 111.282 136.276 109.949 135.459 108.53C135.716 107.928 136.274 107.455 136.789 107.499C137.304 107.542 138.034 107.5 138.549 107.543C139.665 107.845 140.781 108.146 141.769 108.749C144.345 110.212 146.579 112.062 148.812 113.912C151.99 116.88 154.525 120.106 157.146 123.547C161.915 129.869 165.697 136.835 168.922 144.274C173.393 154.207 177.348 164.097 181.39 174.201C183.798 180.221 186.292 186.456 188.7 192.475C189.732 195.055 190.636 197.936 191.453 200.602C193.259 205.117 195.151 209.846 197.171 214.275C197.343 214.705 197.601 215.35 197.773 215.78L197.559 215.866C197.258 215.737 197.086 215.307 196.914 214.877ZM156.435 211.367C154.202 209.517 151.968 207.667 149.949 205.732C146.471 202.634 143.463 198.849 141.1 194.807C138.736 190.765 136.501 186.421 134.352 182.293C128.077 170.339 122.016 158.298 115.741 146.344C112.775 140.797 109.809 135.249 107.058 129.616C104.823 125.273 103.103 120.973 101.727 116.287C100.737 113.191 100.177 109.924 99.9171 106.786C99.9597 106.27 99.7877 105.84 99.8303 105.324C99.7443 105.109 99.9588 105.023 100.001 104.507C100.302 104.636 100.388 104.851 100.474 105.066C105.629 111.733 109.584 119.129 112.765 127.084C114.485 131.384 116.291 135.899 118.226 140.113C119.73 143.252 121.536 146.52 123.255 149.573C125.532 153.4 127.896 157.443 129.959 161.356C131.42 163.764 132.753 166.473 134.214 168.881C136.405 172.494 138.468 176.407 140.102 180.492C143.37 188.661 147.282 196.574 151.837 204.228C153.212 206.422 154.673 208.83 156.263 210.937C156.349 211.152 156.735 211.496 156.907 211.926L156.693 212.012C156.521 211.582 156.521 211.582 156.435 211.367ZM266.899 242.995C260.378 247.848 254.201 253.561 248.067 258.758C246.394 260.176 244.807 261.808 243.134 263.226C239.659 266.361 236.099 269.282 232.151 271.858C229.835 273.533 227.561 274.692 224.9 275.507C218.592 277.781 212.37 280.27 206.319 283.189C203.402 284.605 200.57 286.237 197.738 287.868C191.216 291.475 184.78 295.296 178.172 298.687C174.697 300.576 171.135 302.25 167.359 304.01C165.729 304.912 163.927 305.383 162.296 306.285C162.082 306.371 162.082 306.371 161.566 306.327C161.695 306.027 161.824 305.726 162.038 305.64C162.724 304.867 163.411 304.093 164.397 303.449C166.413 301.645 168.73 299.97 170.918 298.596C176.41 294.903 181.988 291.425 187.651 288.162C201.295 279.961 214.725 271.846 228.454 263.86C236.521 259.137 244.888 254.543 253.04 250.036C257.502 247.502 262.179 244.884 266.641 242.35C267.07 242.179 267.628 241.706 268.057 241.535L268.143 241.75C267.886 242.351 267.328 242.824 266.899 242.995ZM135.031 109.948C138.468 114.808 141.905 119.667 145.343 124.527C151.1 132.699 156.858 140.87 162.057 149.514C167.085 157.728 171.383 165.984 174.781 175.099C175.985 178.109 176.974 181.205 177.878 184.086C179.684 189.847 182.221 195.566 185.444 200.512C188.28 205.113 191.116 209.715 193.738 214.402C193.91 214.832 194.082 215.262 194.468 215.606C194.039 215.778 193.867 215.348 193.566 215.219C190.903 212.294 188.454 209.283 186.435 206.101C184.716 203.047 182.868 200.295 181.364 197.156C177.839 190.835 174.53 184.427 171.006 178.106C167.481 171.784 163.743 165.549 159.36 159.571C154.72 152.948 150.08 146.325 145.525 139.916C143.033 136.175 140.541 132.433 138.478 128.52C137.231 126.026 135.985 123.532 135.081 120.651C134.35 118.201 133.833 115.664 133.745 112.956C133.616 112.01 133.701 110.979 134.215 109.775C134.73 109.819 135.031 109.948 135.031 109.948ZM221.737 233.378C214.571 235.995 207.662 239.258 201.14 242.864C192.344 247.629 183.376 251.965 174.236 255.87C161.106 261.621 147.675 267.243 134.458 272.779C128.451 275.183 122.443 277.586 116.263 279.559C112.53 280.803 108.71 281.832 104.933 282.345C101.371 282.772 97.8087 283.2 94.1169 282.681C93.3013 282.509 92.4856 282.336 91.7985 281.863C91.4979 281.734 91.1974 281.605 91.2399 281.089C91.4545 281.003 91.4545 281.003 91.6691 280.917C97.1199 280.233 102.399 279.119 107.634 277.274C113.599 275.387 119.521 272.769 125.142 270.022C137.543 264.313 149.815 258.905 162.646 254.272C167.452 252.599 172.258 250.925 177.065 249.252C183.244 247.279 189.338 245.091 195.432 242.903C200.023 241.316 204.529 239.513 209.163 237.41C211.437 236.251 213.884 235.522 216.029 234.664C217.316 234.149 218.818 233.548 220.106 233.033C220.964 232.69 221.908 232.562 222.81 232.949C222.381 233.121 222.166 233.207 221.737 233.378ZM207.145 236.721C202.597 239.039 197.662 241.013 192.856 242.686C187.192 244.703 181.527 246.719 175.476 248.392C164.104 251.694 152.903 255.426 141.917 259.072C134.236 261.646 127.027 264.779 119.775 268.428C114.369 271.089 108.876 273.536 103.298 275.767C99.6503 277.226 95.9168 278.47 91.7967 279.37C91.5822 279.456 91.3676 279.542 91.3676 279.542C91.0671 279.412 91.1956 279.112 91.3242 278.811C91.7959 278.123 92.2675 277.436 92.9538 276.663C94.1117 275.202 95.6562 274.085 97.2006 272.969C101.619 269.705 106.425 266.785 111.488 264.51C121.529 259.746 131.914 255.841 142.729 253.011C148.35 251.511 153.972 250.01 159.68 248.725C166.676 246.924 173.671 245.123 180.58 243.108C188.863 240.792 196.845 238.347 205.213 236.247C205.857 235.989 206.587 235.947 207.23 235.69C207.445 235.604 207.96 235.647 208.175 235.561L208.261 235.776C207.789 236.464 207.574 236.549 207.145 236.721ZM167.405 308.481C172.941 306.765 178.133 304.19 182.767 300.84C187.057 297.877 191.133 294.999 195.423 292.036C201.944 287.183 209.11 283.32 216.834 280.23C219.623 279.114 222.412 277.998 225.201 276.883C227.562 275.939 229.836 274.78 231.809 273.491C235.756 270.915 239.618 268.124 243.307 264.902C249.913 259.018 256.691 253.563 263.77 248.238C266.301 246.477 268.532 244.587 270.977 242.611C271.191 242.526 271.191 242.526 271.406 242.44C271.578 242.87 271.363 242.955 271.149 243.041C269.562 244.674 267.846 246.607 266.259 248.239C257.895 256.573 248.972 264.132 239.577 271.133C232.841 276.071 226.106 281.01 219.07 285.82C208.515 293.034 197.231 299.044 185.344 303.55C181.482 305.095 177.534 306.424 173.715 307.453C171.483 308.097 169.38 308.439 167.277 308.782C167.062 308.867 166.762 308.738 166.547 308.824L166.461 308.609C166.762 308.738 167.191 308.567 167.405 308.481ZM44.0379 239.618C46.2695 238.974 48.5011 238.331 50.8186 237.903C55.5823 236.745 60.6466 235.717 65.4963 234.775C69.8309 233.789 74.0369 233.104 78.5435 232.549C84.2088 231.779 89.8742 231.009 95.5396 230.239C100.261 229.598 104.853 229.257 109.446 228.916C118.03 227.976 126.571 227.552 135.027 226.913C140.135 226.616 145.242 226.319 150.135 226.107C152.324 225.98 154.513 225.852 156.788 225.94C157.003 225.854 157.304 225.983 157.604 226.112C157.776 226.542 157.476 226.413 157.261 226.499C154.514 227.099 151.896 227.398 149.15 227.998C141.896 229.153 134.385 229.664 126.96 230.39C122.153 230.816 117.217 231.544 112.496 232.185C107.861 233.042 103.139 233.683 98.4183 234.325C93.9977 235.095 89.6632 236.081 85.2426 236.852C82.2813 237.538 79.4486 237.923 76.4014 238.393C73.1396 238.95 69.5772 239.377 66.3154 239.934C62.324 240.533 58.3751 240.616 54.4262 240.699C52.2371 240.827 49.9621 240.739 47.9877 240.781C46.2278 240.737 44.4679 240.693 42.708 240.648L42.622 240.433C43.3942 239.875 43.8233 239.703 44.0379 239.618ZM292.716 209.226C289.623 206.473 286.445 203.504 283.352 200.751C279.873 197.654 276.695 194.686 273.216 191.588C267.504 186.641 261.92 181.393 256.765 175.973C252.556 171.671 248.647 167.499 244.437 163.197C239.97 158.251 235.845 152.918 232.365 147.327C230.087 143.5 228.11 139.802 226.691 135.631C226.347 134.771 226.217 133.825 225.959 133.18C225.787 132.75 225.916 132.449 225.744 132.019C225.786 131.504 225.915 131.203 226.344 131.031C226.988 130.774 227.288 130.903 227.546 131.548C230.855 136.708 234.292 141.568 238.03 146.557C242.713 152.665 247.095 158.643 252.121 164.363C256.675 169.525 261.314 174.901 265.868 180.063C270.808 185.568 275.877 190.773 280.817 196.279C285.112 200.795 289.279 205.613 293.703 209.828C293.789 210.043 294.09 210.173 294.176 210.388C294.176 210.388 293.961 210.473 294.047 210.688C293.703 209.828 293.102 209.57 292.716 209.226ZM194.661 124.002C197.452 125.38 200.115 127.058 202.348 128.908C205.441 131.661 208.405 134.716 210.939 137.941C213.173 141.038 215.322 143.919 217.341 147.102C220.865 152.177 223.959 157.423 226.838 162.755C229.546 167.658 231.953 172.431 234.017 177.591C237.499 185.674 240.767 193.844 243.606 202.185C244.682 205.496 245.972 208.721 247.262 211.946C247.95 213.666 248.551 215.171 249.454 216.805C249.626 217.235 249.927 217.364 249.884 217.88C249.283 217.621 249.111 217.191 248.724 216.847C245.116 212.804 242.28 208.202 239.873 203.429C238.282 200.075 237.121 196.55 235.659 192.895C233.207 186.144 230.756 179.394 227.876 172.815C225.425 167.311 222.545 161.979 219.537 156.947C217.818 153.894 215.584 150.797 213.221 148.002C209.097 142.668 204.758 137.421 200.204 132.26C197.928 129.679 195.565 126.883 193.503 124.217C193.417 124.002 193.116 123.872 192.944 123.442C193.76 123.615 194.06 123.744 194.661 124.002Z" fill="#286435" />
    </svg>