 <svg width="180" height="363" viewBox="-0 10 255 163" fill="none" xmlns="http://www.w3.org/2000/svg">
    <g opacity="0.5">
    <path d="M101.643 73.4111C99.8168 71.6333 99.5039 68.5389 100.269 66.1764C101.034 63.8138 102.817 61.9889 104.405 60.2238C105.064 59.5955 105.528 59.0271 106.188 58.3988C108.165 56.5139 110.712 55.0921 113.721 55.8676C115.832 56.4941 117.733 57.8234 119.575 58.9584C120.398 59.5559 121.416 60.0934 121.969 61.1993C122.658 62.051 123.017 63.2169 123.181 64.4426C123.733 68.3142 122.218 72.3965 119.267 74.581C117.694 75.7032 115.747 76.3024 113.86 77.0959C112.362 77.7696 110.865 78.4433 109.187 78.5341C107.51 78.6248 105.654 78.1326 104.531 76.5636C104.157 76.0406 103.918 75.2634 103.349 74.8003C102.78 74.3373 102.212 73.8742 101.643 73.4111Z" fill="#286435"/>
    <path d="M90.4837 19.8388C90.7688 18.6875 92.0121 17.8794 93.2401 17.7142C94.4681 17.549 95.621 17.8323 96.5792 18.1755C97.0284 18.25 97.2829 18.3844 97.7321 18.4588C98.9448 18.9364 100.217 19.6084 100.441 21.0284C100.74 22 100.455 23.1513 100.365 24.2426C100.29 24.6912 100.274 25.334 99.9447 25.6482C99.6749 26.1566 99.3453 26.4708 98.821 26.8449C97.2481 27.9671 95.2414 28.372 93.7144 27.5657C92.9508 27.1625 92.1275 26.5651 91.4989 25.9077C90.9301 25.4446 90.3613 24.9815 89.7327 24.3241C89.2988 23.6068 89.0596 22.8296 89.4045 21.8726C89.5394 21.6184 89.869 21.3042 90.0039 21.05C90.4684 20.4816 90.4086 20.2873 90.4837 19.8388Z" fill="#286435"/>
    <path d="M161.773 58.9465C163.047 56.8528 166.267 56.9255 167.973 58.3147C168.856 59.1065 169.529 60.601 169.244 61.7523C169.019 63.0979 168.09 64.2347 166.922 64.5942C165.559 65.0136 163.897 64.4616 162.759 63.5354C162.19 63.0723 161.562 62.415 161.263 61.4434C161.083 60.8605 161.174 59.7691 161.773 58.9465Z" fill="#286435"/>
    <path d="M100.808 97.7048C101.093 96.5535 102.336 95.7454 103.564 95.5802C104.792 95.415 105.945 95.6983 106.903 96.0415C107.353 96.116 107.607 96.2504 108.056 96.3248C109.269 96.8025 110.542 97.4744 110.765 98.8945C111.064 99.866 110.779 101.017 110.689 102.109C110.614 102.557 110.599 103.2 110.269 103.514C109.999 104.023 109.67 104.337 109.145 104.711C107.572 105.833 105.566 106.238 104.039 105.432C103.275 105.029 102.452 104.431 101.823 103.774C101.254 103.311 100.686 102.848 100.057 102.19C99.623 101.473 99.3838 100.696 99.7287 99.7386C99.8636 99.4844 100.193 99.1703 100.328 98.916C100.598 98.4076 100.673 97.959 100.808 97.7048Z" fill="#286435"/>
    <path d="M145.632 25.2007C146.141 25.4694 146.321 26.0523 146.246 26.5009C146.17 26.9494 145.901 27.4579 145.766 27.7121C145.631 27.9663 145.631 27.9663 145.496 28.2206C145.226 28.729 144.897 29.0432 144.253 29.0286C143.803 28.9542 143.354 28.8797 143.1 28.7453C142.845 28.6109 142.651 28.6709 142.591 28.4766C142.336 28.3422 142.276 28.1479 142.217 27.9536C141.977 27.1763 141.933 26.3392 142.457 25.9651C142.787 25.651 142.922 25.3967 143.311 25.2769C143.386 24.8283 143.776 24.7085 143.911 24.4543C144.045 24.2 144.749 24.4089 145.063 24.7376C145.123 24.9319 145.318 24.872 145.378 25.0663C145.378 25.0663 145.378 25.0663 145.632 25.2007Z" fill="#286435"/>
    <path d="M134.445 59.4874C134.954 59.7561 135.133 60.339 135.058 60.7876C134.983 61.2361 134.713 61.7446 134.578 61.9988C134.444 62.253 134.444 62.253 134.309 62.5073C134.039 63.0157 133.709 63.3299 133.065 63.3153C132.616 63.2409 132.167 63.1664 131.912 63.032C131.658 62.8976 131.463 62.9575 131.403 62.7632C131.149 62.6289 131.089 62.4346 131.029 62.2402C130.79 61.463 130.746 60.6259 131.27 60.2518C131.6 59.9376 131.734 59.6834 132.124 59.5636C132.259 59.3093 132.648 59.1895 133.038 59.0697C133.427 58.9498 133.681 59.0842 133.936 59.2186C133.996 59.4129 134.19 59.353 134.25 59.5473C134.19 59.353 134.385 59.293 134.445 59.4874Z" fill="#286435"/>
    <path d="M-12.371 308.237C-10.7383 307.309 -9.10562 306.381 -7.53272 305.259C-3.99755 302.895 -0.462366 300.53 3.07281 298.166C11.7161 292.315 20.4191 286.659 29.1222 281.002C39.323 274.672 48.955 267.879 58.8416 261.22C62.3768 258.856 65.5379 255.969 68.3846 252.753C69.1787 251.87 69.913 250.793 70.6473 249.716C71.3816 248.64 72.1159 247.563 72.3412 246.217C72.5512 245.514 72.7612 244.812 72.9114 243.915C73.0922 241.732 71.9699 240.163 69.7837 239.985C69.589 240.045 69.3345 239.91 69.1398 239.97C68.0467 239.881 67.0732 240.181 66.0399 240.286C62.8649 241.051 59.8095 242.204 56.9488 243.297C50.5682 246.111 44.4867 249.898 38.7194 254.012C33.8658 257.633 29.2668 261.388 24.6677 265.144C20.3982 268.585 16.2483 272.415 12.353 276.379C8.59249 280.089 4.83203 283.798 0.817051 287.374C-4.9808 292.774 -10.4644 298.504 -15.0648 305.025C-15.1997 305.279 -15.3944 305.339 -15.6489 305.204C-15.7685 304.816 -15.8881 304.427 -15.813 303.979C-15.9771 302.753 -16.0063 301.273 -16.1704 300.047C-16.5571 294.636 -16.9437 289.224 -17.1356 283.753C-17.3874 278.087 -17.4444 272.361 -17.3067 266.576C-17.336 265.096 -17.336 265.096 -16.1525 264.093C-15.8229 263.779 -15.6282 263.719 -15.2388 263.599C-14.1304 263.045 -13.022 262.492 -11.9136 261.938C-9.03759 260.202 -6.04202 258.854 -2.92683 257.896C0.577768 256.817 4.14216 255.933 7.64674 254.854C15.1051 252.772 22.6984 250.435 30.097 248.158C34.9645 246.659 39.6525 244.579 44.2808 242.303C48.7144 240.088 53.3427 237.813 57.7164 235.403C60.7871 233.607 63.8578 231.811 66.8687 229.821C70.4039 227.457 73.6845 224.958 76.5911 221.936C77.7148 220.74 78.8385 219.543 79.9024 218.152C80.9065 216.567 81.9106 214.981 82.6004 213.067C82.9453 212.11 82.9008 211.273 83.0509 210.376C83.0217 208.896 82.4682 207.79 81.1957 207.118C80.6867 206.85 80.1777 206.581 79.6687 206.312C78.5158 206.029 77.3629 205.745 76.3296 205.851C74.9069 206.076 73.6789 206.241 72.2562 206.466C68.3025 207.47 64.663 208.803 60.9484 210.585C54.7625 213.339 48.891 216.423 43.0792 219.7C36.0241 223.786 28.9092 227.677 21.6748 231.18C17.4359 233.336 13.3917 235.431 9.27245 237.975C1.0339 243.063 -6.57607 248.809 -12.869 256.063C-14.1276 257.514 -15.3862 258.965 -16.5252 260.805C-16.5252 260.805 -16.6601 261.059 -16.8548 261.119C-16.9146 260.924 -16.9744 260.73 -17.0342 260.536C-16.7922 255.782 -16.5502 251.028 -16.3083 246.273C-15.962 242.551 -15.4808 238.574 -15.1345 234.851C-14.6534 230.874 -14.1124 227.092 -13.3767 223.249C-13.0916 222.098 -13.061 220.812 -12.5812 219.601C-12.8204 218.824 -12.2364 218.644 -11.847 218.524C-10.3491 217.85 -9.10587 217.042 -7.60807 216.369C-7.21867 216.249 -6.69437 215.875 -6.30497 215.755C-0.119102 213 6.44087 210.769 12.9258 208.985C15.6515 208.147 18.4371 207.502 21.3576 206.603C26.8092 204.925 32.0661 203.307 37.4579 201.435C44.2724 199.338 51.0868 197.241 57.8415 194.949C62.2598 193.377 66.7379 191.999 71.0963 190.232C76.5632 187.911 81.9105 185.202 87.0186 181.715C90.3591 179.411 93.445 176.972 96.0971 173.816C96.8912 172.934 97.6255 171.857 98.3598 170.78C98.8994 169.763 99.439 168.746 99.5294 167.655C99.9048 165.412 98.8576 163.395 96.8216 162.319C96.0581 161.916 95.0999 161.573 94.0068 161.484C91.1169 161.097 88.017 161.413 85.1716 161.863C82.1316 162.374 79.0762 163.527 76.2753 164.814C71.7819 166.835 67.3483 169.051 63.229 171.595C57.612 174.812 52.2494 178.164 46.6323 181.382C41.7343 184.166 36.7764 186.755 31.6989 188.956C26.8161 191.097 22.0682 192.984 17.1855 195.125C13.4111 196.712 9.69649 198.493 6.04171 200.469C-0.743556 204.046 -6.27162 208.938 -11.0515 214.876C-11.1864 215.13 -11.3811 215.19 -11.516 215.444C-11.6954 214.861 -11.5605 214.607 -11.4854 214.159C-10.1197 208.208 -8.75405 202.257 -6.93919 196.381C-5.88921 192.867 -4.83923 189.353 -3.59455 185.779C-3.24966 184.822 -2.78517 184.254 -1.87147 183.76C-1.67677 183.7 -1.28737 183.58 -1.15247 183.326C-0.238776 182.832 0.734711 182.532 1.45371 182.098C5.96238 179.435 10.5907 177.159 15.3385 175.273C20.8652 173.146 26.3321 170.826 32.1731 169.028C36.0671 167.83 40.2156 166.765 44.1693 165.761C51.6277 163.679 59.1459 161.79 66.6043 159.707C71.7262 158.344 76.5937 156.846 81.2818 154.765C86.4191 152.758 91.2421 150.423 96.0052 147.894C98.0273 146.846 100.125 145.35 101.773 143.779C102.626 143.091 103.42 142.208 104.215 141.326C105.338 140.129 105.953 138.663 106.118 137.123C106.419 135.329 105.686 133.64 103.964 132.894C103.455 132.625 102.752 132.416 102.108 132.402C101.015 132.313 99.9214 132.224 98.6336 132.195C95.0247 132.242 91.3408 132.738 87.7764 133.622C83.4332 134.746 79.1498 136.064 74.986 137.771C60.9371 143.371 46.8283 148.777 33.0339 154.511C28.8701 156.218 24.7661 158.119 20.6023 159.826C18.9098 160.56 17.4719 161.428 16.0339 162.296C12.2442 164.526 8.57411 167.144 5.72734 170.36C3.61485 172.499 1.75687 174.773 -0.295817 177.106C-0.430716 177.361 -0.565617 177.615 -0.955018 177.735C-1.01482 177.54 -1.01482 177.54 -1.01482 177.54C-0.325033 175.626 0.499658 173.458 1.38414 171.484C1.51904 171.23 1.65394 170.976 1.78884 170.722C4.47151 166.28 7.34887 161.778 10.8548 157.934C11.1844 157.62 11.4542 157.111 11.7838 156.797C18.6164 148.526 25.9579 140.523 33.6736 133.043C38.4228 128.391 43.307 123.484 48.0562 118.832C57.1654 109.647 65.8406 99.7451 73.7523 89.4398C76.7493 85.3267 79.6865 81.0194 81.9199 76.5032C82.3246 75.7405 82.6695 74.7835 83.0742 74.0208C83.344 73.5124 83.3593 72.8695 83.4344 72.421C83.5401 70.6868 82.6125 69.0578 80.6808 69.0142C79.7824 68.8653 79.0036 69.105 78.165 69.1504C76.7423 69.3755 75.4392 69.9893 74.3308 70.5431C71.5299 71.8306 68.9835 73.2524 66.3022 74.9284C61.1344 78.2206 56.3406 82.0358 51.7262 86.4339C47.6362 90.458 43.8006 94.6164 40.0248 98.9691C32.3384 107.929 25.4155 117.292 19.6301 127.581C15.4636 134.819 11.5516 142.192 7.8342 149.504C3.98196 157.071 0.443999 164.967 -2.45004 172.877C-3.61962 176.002 -4.65429 178.873 -5.82387 181.998C-5.95877 182.253 -5.89897 182.447 -6.03387 182.701C-6.03387 182.701 -6.22857 182.761 -6.42327 182.821C-6.46777 181.984 -6.45247 181.341 -6.24248 180.638C-6.00189 178.65 -5.82111 176.467 -5.58052 174.479C-5.14385 169.665 -4.96169 164.716 -4.91441 160.022C-4.85046 151.919 -4.98122 143.876 -5.36647 135.699C-5.5292 131.708 -5.69192 127.716 -5.85464 123.725C-5.88385 122.245 -5.91306 120.765 -6.19677 119.15C-6.31499 115.996 -6.493 112.648 -6.80592 109.553C-7.04374 106.01 -7.28156 102.467 -7.57919 98.7302C-7.95191 95.4415 -8.12993 92.0929 -8.50265 88.8042C-8.93517 85.3212 -9.36769 81.8383 -10.0547 78.2209C-10.159 77.1894 -10.458 76.2179 -10.757 75.2464C-10.9364 74.6635 -11.1158 74.0805 -11.5497 73.3632C-12.3577 72.1229 -13.4508 72.0339 -14.4994 72.7821C-14.829 73.0962 -15.1586 73.4104 -15.4882 73.7245C-15.758 74.233 -16.2823 74.607 -16.5521 75.1155C-17.0917 76.1324 -17.4964 76.8951 -18.036 77.912C-19.4003 81.0971 -20.3154 84.3567 -21.1706 87.8107C-22.1163 92.3559 -22.8673 96.8413 -23.6182 101.327C-24.1439 104.466 -24.4151 107.741 -24.4916 110.955C-24.8253 119.566 -24.7697 128.057 -23.8156 136.698C-23.2788 141.212 -22.6071 145.472 -21.8755 149.927C-20.546 156.324 -19.0218 162.662 -17.3626 168.745C-15.7633 174.635 -14.3587 180.584 -13.1487 186.593C-12.5813 189.821 -12.0737 192.856 -10.9222 195.905C-10.7428 196.488 -10.8179 196.936 -10.893 197.385C-11.4479 199.045 -11.8081 200.644 -12.1682 202.244C-14.3433 209.72 -16.0094 217.465 -17.286 225.09C-17.2262 225.285 -17.4209 225.345 -17.496 225.793C-17.6156 225.405 -17.6754 225.21 -17.7352 225.016C-18.2428 221.982 -18.6155 218.693 -19.1232 215.658C-19.8839 209.724 -21.034 203.909 -22.244 197.9C-23.4539 191.891 -24.8585 185.942 -25.814 180.068C-26.8445 174.642 -27.9348 169.021 -28.7707 163.535C-30.4284 154.686 -32.4158 146.151 -35.2417 137.662C-36.9161 132.221 -39.1149 127.154 -41.7628 122.013C-42.7502 120.19 -43.9921 118.233 -45.1742 116.469C-45.8626 115.618 -46.551 114.766 -47.4341 113.974C-48.0627 113.317 -48.886 112.719 -49.7844 112.57C-51.1918 112.153 -52.36 112.512 -53.3488 113.455C-53.8133 114.023 -54.218 114.786 -54.428 115.488C-54.7131 116.64 -54.9982 117.791 -55.0886 118.882C-55.5698 122.859 -55.407 126.851 -54.8549 130.722C-54.1832 134.983 -53.3168 139.183 -52.2556 143.323C-50.1334 151.604 -47.6816 159.571 -44.9752 167.672C-42.3885 175.384 -40.0562 182.962 -37.4695 190.674C-34.9425 198.192 -32.1611 205.845 -29.05 213.183C-27.5244 216.755 -25.9988 220.327 -24.6081 224.153C-22.6639 229.085 -21.1688 233.943 -19.2246 238.875C-19.0452 239.458 -19.1203 239.907 -19.1356 240.549C-19.5264 243.435 -19.6627 246.455 -20.0534 249.34C-20.5499 253.96 -20.657 258.46 -20.8989 263.214C-21.0213 268.357 -21.0839 273.694 -21.0116 278.777C-20.9823 280.257 -21.0129 281.543 -20.9837 283.023C-20.9239 283.217 -20.8641 283.411 -21.1937 283.725C-21.2535 283.531 -21.508 283.397 -21.6276 283.008C-22.6748 280.99 -23.857 279.227 -24.9042 277.21C-27.8511 271.097 -30.7382 265.179 -33.6852 259.066C-37.5444 250.682 -41.4036 242.298 -45.4576 233.973C-48.958 226.755 -52.6532 219.596 -56.4081 212.244C-59.8488 205.219 -63.3492 198.001 -66.9845 191.037C-69.0191 187.196 -70.9189 183.101 -73.3429 179.38C-74.2705 177.751 -75.333 176.377 -76.3955 175.002C-77.0241 174.344 -77.3982 173.821 -78.0268 173.164C-78.5956 172.701 -79.1046 172.432 -79.6136 172.163C-80.5718 171.82 -81.3506 172.06 -81.95 172.883C-82.2796 173.197 -82.5494 173.705 -82.6245 174.154C-82.9694 175.111 -83.0598 176.202 -83.21 177.099C-83.2712 179.67 -83.0778 182.376 -82.7496 184.828C-82.2573 188.505 -81.4354 191.868 -80.359 195.366C-77.5636 205.141 -73.7947 214.617 -69.0524 223.793C-65.6716 230.623 -61.7664 237.078 -57.8613 243.534C-52.3402 252.47 -46.4296 261.287 -39.6652 269.415C-36.9116 272.822 -33.9035 276.363 -30.6255 279.396C-27.9164 281.965 -25.0126 284.475 -21.7792 286.671C-21.0157 287.074 -20.5818 287.791 -20.5373 288.628C-20.4483 290.303 -20.3593 291.977 -20.3301 293.457C-20.0922 297 -19.8544 300.543 -19.6166 304.086C-19.3343 308.466 -18.8572 312.786 -18.3802 317.106C-17.963 321.232 -17.486 325.552 -16.874 329.618C-16.2774 334.327 -10.5309 371.697 -9.93427 376.406C-9.21804 381.503 -8.44203 386.795 -7.5311 391.832C-6.45607 398.095 -5.38103 404.359 -4.56049 410.487C-4.33659 411.907 -4.17248 413.133 -3.75387 414.493C-3.63427 414.882 -3.51465 415.271 -3.33525 415.854C-3.15585 416.436 -2.57175 416.257 -2.24215 415.942C-1.97236 415.434 -1.70257 414.926 -1.62747 414.477C-1.61217 413.834 -1.46196 412.937 -1.44666 412.294C-1.48979 408.691 -1.53292 405.089 -1.96544 401.606C-2.62187 396.703 -3.2783 391.8 -4.18922 386.762C-4.74135 382.891 -5.29346 379.019 -5.84559 375.147C-6.27811 371.664 -11.8605 335.52 -12.3528 331.842C-12.7854 328.359 -13.2179 324.876 -13.6504 321.393C-13.9633 318.299 -14.2762 315.205 -14.5892 312.11C-14.6935 311.079 -14.7978 310.047 -14.0635 308.971C-13.6741 308.851 -13.1498 308.477 -12.371 308.237ZM18.5594 172.58C18.889 172.265 19.2186 171.951 19.7276 172.22C19.8027 171.772 20.2519 171.846 20.4466 171.786C21.7497 171.172 23.3073 170.693 24.6104 170.079C26.6923 169.226 28.6393 168.627 30.7212 167.773C35.7236 166.021 40.801 163.82 45.624 161.485C53.0532 157.922 60.5421 154.554 68.0311 151.185C72.1351 149.284 76.3587 147.771 80.5823 146.259C84.6111 144.806 88.64 143.354 92.5493 141.512C94.4365 140.719 96.2639 139.731 98.0315 138.549C98.7505 138.115 99.6642 137.621 100.383 137.187C101.626 136.379 102.735 135.825 103.978 135.017C104.173 134.957 104.487 135.286 104.547 135.48C104.861 135.809 104.981 136.197 104.906 136.646C104.831 137.094 104.756 137.543 104.486 138.051C104.141 139.008 103.736 139.771 103.077 140.399C102.283 141.282 101.294 142.224 100.44 142.913C98.9271 144.229 97.3542 145.351 95.5268 146.339C87.2285 151.233 78.3168 154.826 69.1061 157.448C64.3736 158.692 59.5812 159.742 54.7735 161.434C50.6848 162.693 46.5961 163.951 42.4476 165.015C39.4674 165.719 36.7416 166.558 33.8211 167.457C29.2832 168.641 25.1194 170.348 20.7011 171.92C20.3117 172.04 19.9223 172.16 19.3382 172.34C19.3382 172.34 18.9488 172.46 18.5594 172.58C18.4245 172.834 18.17 172.699 17.9753 172.759C17.9753 172.759 18.0351 172.954 17.8404 173.014C17.8404 173.014 18.0351 172.954 17.9753 172.759C18.17 172.699 18.3647 172.64 18.5594 172.58ZM16.6124 173.179C16.4177 173.239 16.4177 173.239 16.4177 173.239L16.6124 173.179ZM-1.31487 298.453C-1.23978 298.004 -1.23978 298.004 -0.655672 297.825C-0.580581 297.376 -0.385879 297.316 -0.0562771 297.002C1.3219 295.94 2.7001 294.877 4.21319 293.561C9.66615 289.117 15.3138 284.614 20.7668 280.171C28.3169 274.231 35.6724 268.351 43.4771 262.546C44.196 262.112 44.8552 261.483 45.7689 260.989C50.877 257.503 55.7904 254.076 60.9582 250.784C62.2015 249.976 63.6395 249.108 64.8828 248.3C66.5155 247.372 68.0884 246.25 69.7211 245.322C69.9158 245.262 69.9158 245.262 70.3052 245.142C70.2301 245.591 70.2899 245.785 70.0952 245.845C69.4207 247.116 68.7462 248.387 67.8172 249.524C65.09 253.129 61.7343 256.076 58.0642 258.694C56.686 259.757 55.0533 260.684 53.6751 261.747C46.0805 266.849 38.6805 271.892 30.8314 276.86C25.6635 280.152 20.3009 283.505 15.1928 286.991C10.2197 290.223 5.30629 293.65 0.198219 297.136C-0.131378 297.451 -0.460984 297.765 -0.910168 297.69C-0.730768 298.273 -1.12018 298.393 -1.31487 298.453ZM10.8131 151.565C10.8131 151.565 10.6184 151.625 10.8131 151.565C10.5586 151.431 10.6184 151.625 10.8131 151.565C10.5586 151.431 10.7533 151.371 10.8131 151.565C10.8882 151.117 10.9633 150.668 11.0982 150.414C15.4302 141.636 19.8221 133.052 24.6631 124.543C29.564 116.228 35.0336 108.376 41.2667 100.927C44.7129 96.8881 48.1591 92.8496 52.0545 88.8855C56.9386 83.9789 62.0022 79.6552 67.889 75.929C70.1809 74.3728 72.7871 73.1453 75.3933 71.9178C76.6964 71.304 78.0593 70.8846 79.2873 70.7194C79.6767 70.5995 80.1259 70.674 80.6349 70.9427C80.5 71.197 80.5 71.197 80.3651 71.4512C79.9006 72.0196 79.2414 72.6479 78.8367 73.4106C76.364 77.1495 73.1279 80.4854 69.7721 83.4326C66.2216 86.4397 62.6113 89.2525 59.0609 92.2596C56.8288 94.0101 54.5967 95.7607 52.3646 97.5112C46.9116 101.955 42.2222 106.801 37.7121 112.231C33.3968 117.601 29.3359 123.105 25.6491 129.132C24.3753 131.225 23.1014 133.319 21.8275 135.413C20.3589 137.567 18.8903 139.72 17.4217 141.874C15.3538 144.85 13.2858 147.826 11.2178 150.803C11.2776 150.997 11.2025 151.446 10.8131 151.565C10.7533 151.371 10.7533 151.371 10.8131 151.565ZM-2.89347 251.079C-0.856086 249.388 1.24112 247.892 3.3383 246.395C9.62987 241.907 16.4902 237.881 23.53 234.438C27.9636 232.223 32.5919 229.947 36.9656 227.538C40.0363 225.742 43.107 223.946 46.1777 222.15C51.6001 218.992 56.8875 216.089 62.4893 213.514C66.2039 211.732 69.7836 210.205 73.7374 209.201C74.5162 208.961 75.295 208.722 75.9389 208.736C76.7775 208.691 77.616 208.646 78.4546 208.6C78.9038 208.675 79.353 208.749 79.8022 208.824C80.5657 209.227 80.9996 209.944 81.0442 210.781C80.9691 211.23 81.0289 211.424 80.894 211.678C80.8787 212.321 80.6089 212.829 79.8301 213.069C79.4407 213.189 79.1111 213.503 78.7217 213.623C74.9918 216.047 71.127 218.726 67.3971 221.15C63.862 223.514 60.4617 225.624 56.9265 227.988C51.429 231.595 45.4977 234.484 39.4467 236.984C34.1745 239.245 28.5282 240.983 23.0168 242.466C18.6737 243.59 14.3903 244.908 10.0471 246.032C5.50921 247.216 1.21052 249.177 -2.96856 251.527C-3.16327 251.587 -3.49286 251.901 -3.68755 251.961C-3.68755 251.961 -3.74736 251.767 -3.94207 251.827C-3.55267 251.707 -3.22307 251.393 -2.89347 251.079ZM5.79128 162.258C6.66047 160.926 7.52966 159.595 8.33905 158.07C11.2164 153.568 14.4081 149.395 17.54 145.028C21.331 140.033 24.6131 134.768 27.8353 129.31C29.1843 126.767 30.7878 124.359 32.3315 121.757C35.3438 117.001 38.6703 112.574 42.2514 108.281C45.8922 104.183 50.0421 100.353 54.3714 97.1063C58.8356 93.6052 63.3595 90.2985 67.7639 86.6031C70.3256 84.5385 72.6328 82.3394 74.8802 79.9461C76.0038 78.7494 77.0677 77.3584 78.1914 76.1617C78.3263 75.9075 78.4612 75.6533 78.8506 75.5334C78.7755 75.9819 78.6406 76.2362 78.3708 76.7446C76.677 80.2439 74.6688 83.4145 72.6606 86.5851C68.5844 92.732 63.9993 98.6101 59.0998 104.159C54.0655 109.963 48.9115 115.378 43.5629 120.853C39.1432 125.191 34.978 129.664 30.5584 134.002C26.3334 138.28 22.1682 142.753 18.2576 147.36C16.6694 149.125 14.9463 151.144 13.4179 153.104C12.0244 154.809 10.6309 156.514 9.23746 158.219C8.17357 159.61 7.10967 161.001 6.04578 162.392C5.71618 162.706 5.44638 163.215 5.31148 163.469C5.31148 163.469 5.25168 163.274 5.05698 163.334C5.38658 163.02 5.46168 162.572 5.79128 162.258ZM-13.9765 75.1737C-14.8763 77.7904 -15.3269 80.4816 -15.5828 83.1129C-15.6885 84.8471 -16.0486 86.447 -16.1543 88.1812C-16.5757 92.3524 -16.5479 96.5981 -16.3852 100.59C-16.1779 105.418 -15.7162 110.381 -15.1196 115.09C-14.5675 118.961 -14.21 122.893 -13.6579 126.765C-13.2852 130.053 -12.7178 133.282 -12.345 136.571C-12.0168 139.022 -11.8235 141.728 -11.69 144.239C-11.4369 147.139 -11.3785 150.099 -11.1253 153C-10.9765 154.868 -10.8277 156.737 -10.9334 158.471C-10.786 163.105 -10.4439 167.68 -9.90703 172.194C-9.47451 175.677 -9.04199 179.16 -8.60947 182.643C-8.44536 183.869 -8.22145 185.289 -8.44674 186.634C-8.46204 187.277 -8.47734 187.92 -8.43283 188.757C-8.38833 189.594 -8.73322 190.551 -9.13791 191.314C-9.39242 191.18 -9.51201 190.791 -9.57181 190.597C-9.67611 189.565 -9.84024 188.34 -9.94454 187.308C-10.8694 180.148 -12.3783 173.167 -14.3365 166.112C-16.1152 159.64 -17.6992 153.108 -19.0288 146.711C-19.955 142.316 -20.6267 138.056 -21.1037 133.736C-21.5808 129.416 -21.8631 125.036 -21.9507 120.596C-21.9493 117.83 -22.1427 115.124 -21.9466 112.299C-21.9438 106.767 -21.3569 101.056 -20.5156 95.4794C-19.7048 91.1883 -18.9538 86.703 -17.8886 82.5463C-17.1835 79.9895 -16.2239 77.567 -15.0098 75.279C-14.74 74.7705 -14.6649 74.322 -14.0808 74.1422C-13.9014 74.7251 -13.8416 74.9194 -13.9765 75.1737ZM-0.792204 211.506C0.510898 210.892 1.75418 210.084 3.05728 209.47C6.18777 207.869 9.25845 206.073 12.3889 204.471C16.3733 202.181 20.5371 200.474 25.075 199.29C27.0818 198.886 29.0288 198.286 31.0356 197.881C41.5938 195.483 51.479 191.59 60.8106 186.591C66.8769 183.447 72.8236 179.915 78.7702 176.384C83.6683 173.6 88.5066 170.622 93.2851 167.449C94.3337 166.701 95.577 165.893 96.8801 165.279C97.3891 165.548 97.7631 166.071 97.688 166.52C97.613 166.968 97.5977 167.611 97.5226 168.06C97.1777 169.017 96.8328 169.974 96.2334 170.796C94.7648 172.95 92.9819 174.775 91.199 176.6C88.3675 179.173 85.3567 181.163 82.1511 183.213C76.2642 186.94 69.8836 189.754 63.129 192.046C54.0977 195.251 45.1415 198.007 35.9907 200.823C30.5391 202.501 24.8928 204.239 19.4412 205.917C17.1048 206.636 14.5139 207.22 12.1178 207.745C8.02907 209.004 3.74568 210.322 -0.2832 211.775C-0.6726 211.894 -1.25669 212.074 -1.64609 212.194L-1.70589 212C-1.57099 211.745 -1.1816 211.626 -0.792204 211.506ZM5.20027 176.266C6.98316 174.441 8.76604 172.616 10.6087 170.985C13.5751 168.158 17.1103 165.793 20.8249 164.012C24.5395 162.231 28.5085 160.584 32.2829 158.997C43.2167 154.355 54.2102 149.908 65.144 145.267C70.2215 143.066 75.2989 140.865 80.4362 138.859C84.4053 137.212 88.2993 136.014 92.5076 135.144C95.2932 134.499 98.1984 134.243 100.969 134.241C101.418 134.316 101.807 134.196 102.256 134.271C102.451 134.211 102.511 134.405 102.96 134.479C102.825 134.734 102.631 134.794 102.436 134.853C96.2194 138.894 89.4494 141.828 82.2455 144.045C78.3515 145.244 74.2629 146.502 70.4287 147.895C67.568 148.988 64.5724 150.335 61.7715 151.623C58.2516 153.344 54.537 155.126 50.9574 156.653C48.7406 157.76 46.2693 158.734 44.0525 159.841C40.7273 161.503 37.1476 163.03 33.4484 164.169C26.0498 166.446 18.8306 169.305 11.7908 172.748C9.76875 173.796 7.55195 174.904 5.58966 176.146C5.39497 176.206 5.06537 176.52 4.67597 176.64L4.61617 176.445C5.00557 176.326 5.00558 176.326 5.20027 176.266ZM-30.4865 270.845C-34.272 264.777 -38.8364 258.95 -42.9515 253.197C-44.0738 251.628 -45.3908 250.119 -46.5131 248.55C-49.0122 245.278 -51.3166 241.945 -53.2915 238.299C-54.5932 236.147 -55.4457 234.069 -55.9686 231.678C-57.5081 225.983 -59.2424 220.348 -61.366 214.833C-62.3979 212.173 -63.6245 209.572 -64.8511 206.972C-67.5436 200.994 -70.4307 195.075 -72.9284 189.037C-74.3344 185.854 -75.5458 182.611 -76.8169 179.173C-77.49 177.679 -77.7737 176.064 -78.4468 174.57C-78.5066 174.375 -78.5066 174.375 -78.4315 173.927C-78.177 174.061 -77.9225 174.196 -77.8627 174.39C-77.2341 175.047 -76.6055 175.705 -76.1118 176.616C-74.6752 178.514 -73.3735 180.666 -72.3263 182.683C-69.4836 187.764 -66.8357 192.905 -64.3825 198.106C-58.1743 210.66 -52.026 223.02 -46.0125 235.633C-42.4522 243.046 -39.0269 250.713 -35.6614 258.186C-33.7616 262.281 -31.8021 266.57 -29.9024 270.665C-29.7828 271.053 -29.4087 271.576 -29.2891 271.965L-29.4838 272.025C-29.9928 271.756 -30.3669 271.233 -30.4865 270.845ZM95.6673 164.802C91.1587 167.466 86.65 170.13 82.1413 172.793C74.562 177.253 66.9826 181.713 59.0291 185.65C51.4651 189.467 43.9163 192.641 35.6791 194.963C32.9533 195.802 30.1678 196.447 27.5769 197.031C22.3951 198.201 17.198 200.013 12.6295 202.483C8.39064 204.638 4.15175 206.793 -0.146921 208.755C-0.536321 208.874 -0.92571 208.994 -1.25531 209.308C-1.37491 208.92 -0.985513 208.8 -0.850616 208.546C1.90577 206.421 4.72195 204.491 7.65773 202.949C10.4586 201.662 13.005 200.24 15.8657 199.147C21.6622 196.512 27.5184 194.071 33.3149 191.437C39.1114 188.802 44.8481 185.973 50.4053 182.561C56.5467 178.969 62.6881 175.377 68.6347 171.845C72.0948 169.93 75.5549 168.014 79.1346 166.487C81.4112 165.573 83.6878 164.66 86.2787 164.075C88.4801 163.61 90.7414 163.34 93.1223 163.458C93.9609 163.413 94.8593 163.561 95.8773 164.099C95.8022 164.548 95.6673 164.802 95.6673 164.802ZM-18.8019 231.938C-20.5806 225.466 -22.9434 219.174 -25.6359 213.196C-29.1808 205.14 -32.3364 196.965 -35.1025 188.67C-39.1996 176.742 -43.1617 164.561 -47.0641 152.574C-48.7385 147.133 -50.413 141.693 -51.698 136.132C-52.5199 132.769 -53.1471 129.346 -53.3252 125.997C-53.4434 122.843 -53.5616 119.689 -52.8412 116.489C-52.6312 115.786 -52.4212 115.084 -51.9567 114.515C-51.8218 114.261 -51.6869 114.007 -51.2377 114.081C-51.1779 114.276 -51.1779 114.276 -51.1181 114.47C-50.9109 119.298 -50.3143 124.007 -49.0737 128.73C-47.8485 134.097 -45.9794 139.477 -43.9754 144.604C-39.863 155.888 -36.0051 167.038 -32.8663 178.622C-31.7453 182.957 -30.6244 187.291 -29.5035 191.626C-28.2185 197.186 -26.7387 202.687 -25.259 208.187C-24.1979 212.328 -22.942 216.408 -21.4317 220.623C-20.5792 222.701 -20.1161 224.898 -19.5181 226.841C-19.1593 228.007 -18.7407 229.367 -18.3819 230.533C-18.1427 231.31 -18.0981 232.147 -18.5029 232.91C-18.6225 232.521 -18.6823 232.327 -18.8019 231.938ZM-20.6821 218.903C-22.3872 214.749 -23.7626 210.279 -24.8835 205.945C-26.2436 200.833 -27.6038 195.721 -28.6343 190.295C-30.7107 180.086 -33.1764 169.996 -35.5824 160.101C-37.286 153.181 -39.5139 146.634 -42.1911 140.013C-44.1353 135.081 -45.8848 130.089 -47.4397 125.037C-48.4563 121.734 -49.2782 118.371 -49.7705 114.693C-49.8303 114.499 -49.8901 114.305 -49.8901 114.305C-49.7552 114.05 -49.5007 114.185 -49.2462 114.319C-48.6774 114.782 -48.1086 115.245 -47.48 115.903C-46.2826 117.023 -45.4148 118.458 -44.547 119.892C-42.0034 124.002 -39.7894 128.426 -38.1594 133.029C-34.7049 142.176 -32.0291 151.563 -30.3269 161.249C-29.4159 166.286 -28.505 171.324 -27.7888 176.421C-26.7137 182.684 -25.6387 188.948 -24.369 195.151C-22.9351 202.58 -21.3664 209.755 -20.1272 217.244C-19.9478 217.827 -19.9631 218.469 -19.7837 219.052C-19.7239 219.247 -19.799 219.695 -19.7392 219.89L-19.9339 219.949C-20.5027 219.486 -20.5625 219.292 -20.6821 218.903ZM-80.7401 178.892C-79.6344 183.869 -77.75 188.607 -75.1466 192.911C-72.8575 196.886 -70.6282 200.667 -68.339 204.642C-64.5535 210.709 -61.6817 217.27 -59.5288 224.265C-58.7514 226.791 -57.974 229.317 -57.1966 231.843C-56.5388 233.98 -55.6863 236.058 -54.6989 237.881C-52.724 241.528 -50.5545 245.114 -47.9956 248.581C-43.3117 254.797 -39.0171 261.133 -34.8575 267.723C-33.496 270.069 -31.9996 272.161 -30.4434 274.447C-30.3836 274.642 -30.3836 274.642 -30.3238 274.836C-30.7132 274.956 -30.773 274.762 -30.8328 274.567C-32.1498 273.058 -33.7213 271.415 -35.0383 269.906C-41.7429 261.972 -47.7286 253.604 -53.1899 244.862C-57.0352 238.6 -60.8806 232.339 -64.591 225.823C-70.1567 216.05 -74.6139 205.722 -77.7083 194.975C-78.7847 191.478 -79.6664 187.92 -80.2936 184.497C-80.697 182.494 -80.8458 180.626 -80.9946 178.757C-81.0544 178.563 -80.9195 178.309 -80.9793 178.114L-80.7846 178.054C-80.9195 178.309 -80.7999 178.697 -80.7401 178.892ZM-11.476 75.6804C-11.0727 77.6834 -10.6694 79.6864 -10.4608 81.7493C-9.78907 86.0095 -9.25223 90.5239 -8.77521 94.8441C-8.22308 98.7157 -7.92546 102.453 -7.76274 106.444C-7.4957 111.467 -7.22868 116.49 -6.96165 121.513C-6.73912 125.699 -6.77109 129.75 -6.80307 133.801C-6.59722 141.396 -6.84058 148.916 -6.88923 156.375C-6.99631 160.875 -7.10338 165.375 -7.27025 169.681C-7.31614 171.609 -7.36202 173.538 -7.60261 175.526C-7.54281 175.721 -7.67772 175.975 -7.81261 176.229C-8.20201 176.349 -8.06711 176.095 -8.12691 175.9C-8.45513 173.449 -8.52884 171.132 -8.85705 168.68C-9.34799 162.237 -9.25483 155.615 -9.35637 149.052C-9.3842 144.806 -9.66652 140.426 -9.88905 136.24C-10.3063 132.114 -10.5288 127.929 -10.7513 123.743C-11.1087 119.811 -11.6609 115.94 -12.0183 112.008C-12.4063 109.362 -12.5398 106.851 -12.7331 104.145C-12.9863 101.245 -13.1045 98.0909 -13.3576 95.1908C-13.5954 91.6479 -13.384 88.1794 -13.1727 84.711C-13.1268 82.7825 -12.8862 80.794 -12.7805 79.0598C-12.615 77.5199 -12.4495 75.98 -12.284 74.4401L-12.0893 74.3801C-11.6554 75.0975 -11.5358 75.4861 -11.476 75.6804ZM-2.73618 295.912C-0.0994015 293.399 2.73207 290.826 5.36884 288.313C8.33522 285.486 11.1667 282.912 14.1331 280.085C18.8824 275.433 23.8861 270.915 29.0095 266.785C33.0843 263.404 37.0241 260.277 41.0989 256.896C45.7578 253.335 50.731 250.103 55.8835 247.453C59.4034 245.732 62.7884 244.265 66.5475 243.321C67.3263 243.081 68.1649 243.036 68.749 242.856C69.1384 242.736 69.3929 242.87 69.7823 242.751C70.2315 242.825 70.486 242.959 70.6056 243.348C70.785 243.931 70.6501 244.185 70.066 244.365C65.3028 246.894 60.7941 249.558 56.1506 252.476C50.4584 256.143 44.9011 259.555 39.5233 263.55C34.6697 267.171 29.6214 270.851 24.7679 274.472C19.5847 278.407 14.656 282.477 9.47285 286.412C5.20337 289.853 0.679403 293.16 -3.33557 296.735C-3.53026 296.795 -3.66518 297.049 -3.85988 297.109C-3.85988 297.109 -3.91966 296.915 -4.11437 296.975C-3.33557 296.735 -3.06578 296.227 -2.73618 295.912ZM79.0499 216.075C77.6411 218.423 75.9778 220.636 74.1949 222.461C71.5582 224.974 68.6669 227.353 65.656 229.343C62.78 231.079 60.0987 232.755 57.1629 234.297C52.4596 237.021 47.6366 239.356 42.7538 241.497C38.2604 243.518 33.902 245.285 29.2292 246.723C21.8904 249.194 14.4918 251.471 6.97364 253.36C3.99335 254.064 1.07286 254.963 -1.84764 255.862C-3.40522 256.341 -4.76813 256.761 -6.26592 257.434C-6.65532 257.554 -6.79023 257.808 -7.23943 257.734C-6.96963 257.226 -6.58022 257.106 -6.25062 256.792C-2.44564 253.919 1.79324 251.763 6.15171 249.997C9.20711 248.844 12.3821 248.079 15.692 247.06C21.7875 245.397 27.883 243.734 33.8588 241.682C38.8612 239.93 43.744 237.789 48.3723 235.514C51.1732 234.226 54.0491 232.49 56.6706 230.62C61.6438 227.387 66.5572 223.961 71.4107 220.34C73.8375 218.53 76.459 216.659 78.9456 215.043C79.1403 214.983 79.2752 214.729 79.6646 214.609C79.4546 215.312 79.3197 215.566 79.0499 216.075Z" fill="#286435"/>
    </g>
    </svg>